<svg width="522" height="165" viewBox="0 0 522 165" fill="none" xmlns="http://www.w3.org/2000/svg">
<g clip-path="url(#clip0_2_4017)">
<path d="M13.153 102.614C13.1401 104.427 13.4734 106.226 14.1352 107.915C14.7591 109.518 15.6876 110.986 16.8699 112.24C18.0233 113.466 19.4027 114.46 20.9332 115.168C22.4698 115.907 24.1563 116.287 25.8633 116.278V125.847C22.6579 125.844 19.4864 125.193 16.5424 123.933C13.6708 122.75 11.0555 121.028 8.83927 118.862C6.65475 116.711 4.91475 114.156 3.71687 111.341C2.43845 108.412 1.78282 105.252 1.79109 102.059V70.3486H13.0183V102.614H13.153ZM49.7428 70.3486V102.212C49.7574 104.908 49.2879 107.584 48.3563 110.116C47.4447 112.558 46.1443 114.839 44.5047 116.871C42.8768 118.897 40.925 120.642 38.7274 122.038C36.523 123.483 34.097 124.563 31.5443 125.234L26.6334 116.202C28.2378 116.101 29.8013 115.657 31.2168 114.9C32.6729 114.147 33.9782 113.135 35.0684 111.915C36.1607 110.669 37.0157 109.236 37.5912 107.685C38.2102 106.066 38.5235 104.347 38.5156 102.614C38.5306 102.577 38.5306 102.536 38.5156 102.499C38.5024 102.462 38.5024 102.422 38.5156 102.384C38.5156 102.212 38.5156 102.193 38.5156 102.384C38.5156 102.576 38.5156 102.384 38.5156 102.097V70.3486H49.7428Z" fill="white"/>
<path d="M90.0108 70.3486L125.676 121.369V125.311H114.122L90.0108 90.8638V125.311H78.4562V70.3486H90.0108ZM114.122 70.3486H125.676V111.494L114.122 103.246V70.3486Z" fill="white"/>
<path d="M166.426 70.3486H154.89V125.311H166.426V70.3486Z" fill="white"/>
<path d="M205.596 70.3486L221.561 108.815L212.799 116.47L193.676 70.3869L205.596 70.3486ZM239.105 70.3486H251.025L228.359 125.311H216.515L239.105 70.3486Z" fill="white"/>
<path d="M312.977 70.3486V79.5345H286.979V116.202H312.977V125.311H275.887V70.3486H312.977ZM306.41 103.399H294.085L288.963 93.1985H306.41V103.399Z" fill="white"/>
<path d="M375.469 107.246C374.335 107.771 373.155 108.194 371.945 108.509C370.646 108.79 369.325 108.956 367.997 109.006C366.437 109.006 364.53 109.121 362.22 109.006H353.322V125.273H342.192V70.349H367.227C369.823 70.333 372.394 70.8544 374.776 71.8799C377.073 72.8697 379.163 74.2782 380.938 76.0328C382.72 77.813 384.139 79.9183 385.117 82.2332C386.161 84.6504 386.686 87.2577 386.658 89.8882C386.714 93.6296 385.626 97.2998 383.538 100.414C381.55 103.427 378.746 105.822 375.45 107.322M353.322 98.1363H367.227C368.345 98.158 369.456 97.9499 370.49 97.5251C371.524 97.1003 372.459 96.468 373.235 95.6677C374.071 94.7811 374.719 93.736 375.139 92.595C375.559 91.454 375.743 90.2404 375.681 89.027C375.679 87.8837 375.45 86.7522 375.007 85.6971C374.577 84.6421 373.965 83.6705 373.197 82.8265C372.43 82.0229 371.514 81.3733 370.5 80.9128C369.482 80.4164 368.361 80.1609 367.227 80.1664H353.322V98.232V98.1363ZM387.986 125.388H373.928L365.474 115.015L374.718 109.045L387.986 125.388Z" fill="white"/>
<path d="M437.171 93.1987C439.544 93.8227 441.878 94.5831 444.162 95.4761C446.145 96.2227 448.007 97.2544 449.688 98.5381C451.29 99.7244 452.577 101.28 453.439 103.07C454.301 104.86 454.712 106.832 454.638 108.815V109.044C454.664 111.434 454.137 113.798 453.097 115.953C452.076 118.029 450.618 119.863 448.822 121.331C446.928 122.873 444.759 124.048 442.428 124.794C439.834 125.621 437.122 126.028 434.398 126C431.799 126.016 429.21 125.694 426.695 125.043C424.38 124.442 422.144 123.575 420.031 122.46C418.137 121.472 416.371 120.258 414.774 118.843C413.395 117.642 412.229 116.219 411.327 114.633L420.571 108.891C421.513 109.931 422.516 110.915 423.575 111.838C424.55 112.676 425.608 113.413 426.733 114.039C427.885 114.646 429.107 115.108 430.373 115.417C431.801 115.735 433.261 115.89 434.725 115.877C435.747 115.877 436.767 115.774 437.768 115.57C438.749 115.377 439.691 115.028 440.56 114.537C441.37 114.109 442.074 113.508 442.621 112.776C443.164 112.004 443.441 111.077 443.41 110.135C443.403 109.392 443.211 108.663 442.852 108.011C442.348 107.249 441.693 106.598 440.926 106.097C439.797 105.312 438.575 104.669 437.287 104.184C435.404 103.46 433.474 102.866 431.509 102.404C428.892 101.805 426.319 101.031 423.806 100.088C421.734 99.3335 419.787 98.2756 418.029 96.9497C416.494 95.767 415.254 94.2474 414.408 92.5098C413.522 90.5843 413.087 88.4837 413.137 86.3667C413.1 83.9657 413.6 81.5864 414.601 79.4008C415.538 77.3752 416.928 75.5885 418.664 74.1763C420.482 72.7146 422.559 71.6046 424.788 70.9038C427.23 70.1392 429.777 69.7583 432.337 69.7747C434.898 69.7425 437.45 70.058 439.925 70.7124C442.034 71.2913 444.074 72.0933 446.01 73.1046C447.705 74.0155 449.283 75.1272 450.709 76.4153C451.918 77.5126 453.039 78.7029 454.06 79.9749L444.97 85.7161C443.111 83.8458 440.933 82.3168 438.538 81.1997C436.53 80.3423 434.368 79.8996 432.183 79.8984C430.988 79.8705 429.796 80.0452 428.659 80.415C427.792 80.7015 426.979 81.1283 426.252 81.6781C425.653 82.134 425.155 82.7072 424.788 83.3622C424.468 83.9098 424.289 84.528 424.268 85.1611C424.25 86.1309 424.54 87.0819 425.096 87.8786C425.762 88.7327 426.602 89.437 427.561 89.9454C428.839 90.6628 430.187 91.2465 431.586 91.6869C433.185 92.2036 435.014 92.7204 437.075 93.2562" fill="white"/>
<path d="M520.923 70.3486V79.5345H494.925V116.202H520.923V125.311H483.871V70.3486H520.923ZM514.356 103.399H502.031L496.889 93.1985H514.356V103.399Z" fill="white"/>
<path d="M0 52.6467H11.054L39.9214 14.5826V26.3329H33.7974L27.1535 35.0978H39.9214V52.6467H48.7607V0H39.9214L0 52.6467Z" fill="white"/>
<path d="M50.9753 14.5826L79.8428 52.6467V38.0641L50.9753 0V14.5826Z" fill="#A8423F"/>
<path d="M108.575 0H82.0767V52.6658H90.8966V8.78402H108.575C109.77 8.72858 110.963 8.91448 112.083 9.33043C113.202 9.74638 114.226 10.3837 115.091 11.204C115.955 12.0242 116.644 13.0103 117.114 14.1025C117.585 15.1947 117.827 16.3704 117.827 17.5585C117.827 18.7465 117.585 19.9222 117.114 21.0144C116.644 22.1066 115.955 23.0927 115.091 23.913C114.226 24.7332 113.202 25.3706 112.083 25.7865C110.963 26.2025 109.77 26.3884 108.575 26.3329H93.1692V35.117H108.575C113.161 34.9665 117.507 33.0507 120.697 29.7743C123.887 26.4978 125.671 22.1174 125.671 17.5585C125.671 12.9995 123.887 8.61908 120.697 5.34265C117.507 2.06623 113.161 0.150447 108.575 0Z" fill="white"/>
</g>
<path d="M412.938 160V144H418.531C419.646 144 420.565 144.193 421.289 144.578C422.013 144.958 422.552 145.471 422.906 146.117C423.26 146.758 423.438 147.469 423.438 148.25C423.438 148.937 423.315 149.505 423.07 149.953C422.831 150.401 422.513 150.755 422.117 151.016C421.727 151.276 421.302 151.469 420.844 151.594V151.75C421.333 151.781 421.826 151.953 422.32 152.266C422.815 152.578 423.229 153.026 423.563 153.609C423.896 154.193 424.062 154.906 424.062 155.75C424.062 156.552 423.88 157.273 423.516 157.914C423.151 158.555 422.576 159.062 421.789 159.437C421.003 159.812 419.979 160 418.719 160H412.938ZM414.875 158.281H418.719C419.984 158.281 420.883 158.036 421.414 157.547C421.951 157.052 422.219 156.453 422.219 155.75C422.219 155.208 422.081 154.708 421.805 154.25C421.529 153.786 421.135 153.417 420.625 153.141C420.115 152.859 419.51 152.719 418.813 152.719H414.875V158.281ZM414.875 151.031H418.469C419.052 151.031 419.578 150.917 420.047 150.687C420.521 150.458 420.896 150.135 421.172 149.719C421.453 149.302 421.594 148.812 421.594 148.25C421.594 147.547 421.349 146.951 420.859 146.461C420.37 145.966 419.594 145.719 418.531 145.719H414.875V151.031ZM427.902 160H425.871L431.746 144H433.746L439.621 160H437.59L432.809 146.531H432.684L427.902 160ZM428.652 153.75H436.84V155.469H428.652V153.75ZM442.113 160V144H444.051V158.281H451.488V160H442.113ZM454.488 160V144H464.145V145.719H456.426V151.125H463.645V152.844H456.426V158.281H464.27V160H454.488ZM470.543 160L466.168 144H468.137L471.48 157.031H471.637L475.043 144H477.23L480.637 157.031H480.793L484.137 144H486.105L481.73 160H479.73L476.199 147.25H476.074L472.543 160H470.543ZM487.93 160H485.898L491.773 144H493.773L499.648 160H497.617L492.836 146.531H492.711L487.93 160ZM488.68 153.75H496.867V155.469H488.68V153.75ZM507.078 160H502.141V144H507.297C508.849 144 510.177 144.32 511.281 144.961C512.385 145.596 513.232 146.51 513.82 147.703C514.409 148.891 514.703 150.312 514.703 151.969C514.703 153.635 514.406 155.07 513.813 156.273C513.219 157.471 512.354 158.393 511.219 159.039C510.083 159.68 508.703 160 507.078 160ZM504.078 158.281H506.953C508.276 158.281 509.372 158.026 510.242 157.516C511.112 157.005 511.76 156.279 512.187 155.336C512.615 154.393 512.828 153.271 512.828 151.969C512.828 150.677 512.617 149.565 512.195 148.633C511.773 147.695 511.143 146.977 510.305 146.477C509.466 145.971 508.422 145.719 507.172 145.719H504.078V158.281ZM519.891 144V160H517.953V144H519.891Z" fill="white"/>
<defs>
<clipPath id="clip0_2_4017">
<rect width="521" height="126" fill="white"/>
</clipPath>
</defs>
</svg>
