<svg width="85" height="85" viewBox="0 0 85 85" fill="none" xmlns="http://www.w3.org/2000/svg">
<circle cx="42.5" cy="42.5" r="40.5" fill="#1D423D" stroke="white" stroke-width="4"/>
<path d="M47.575 32.5C49.0401 32.7858 50.3866 33.5024 51.4421 34.5579C52.4976 35.6134 53.2142 36.9599 53.5 38.425M47.575 26.5C50.6189 26.8382 53.4574 28.2013 55.6244 30.3655C57.7913 32.5298 59.158 35.3665 59.5 38.41M58 50.38V54.88C58.0017 55.2978 57.9161 55.7113 57.7488 56.094C57.5814 56.4768 57.336 56.8204 57.0281 57.1028C56.7203 57.3852 56.3569 57.6002 55.9611 57.7341C55.5654 57.8679 55.1461 57.9176 54.73 57.88C50.1143 57.3785 45.6805 55.8012 41.785 53.275C38.1607 50.972 35.088 47.8993 32.785 44.275C30.25 40.3618 28.6724 35.9065 28.18 31.27C28.1425 30.8552 28.1918 30.4371 28.3248 30.0424C28.4577 29.6477 28.6714 29.285 28.9522 28.9774C29.2329 28.6698 29.5747 28.4241 29.9557 28.2558C30.3367 28.0875 30.7485 28.0004 31.165 28H35.665C36.393 27.9928 37.0987 28.2506 37.6506 28.7253C38.2026 29.2 38.5631 29.8592 38.665 30.58C38.8549 32.0201 39.2072 33.4341 39.715 34.795C39.9168 35.3319 39.9605 35.9154 39.8409 36.4763C39.7212 37.0373 39.4433 37.5522 39.04 37.96L37.135 39.865C39.2703 43.6203 42.3797 46.7297 46.135 48.865L48.04 46.96C48.4478 46.5567 48.9627 46.2788 49.5237 46.1591C50.0846 46.0395 50.6681 46.0832 51.205 46.285C52.5659 46.7928 53.9799 47.1451 55.42 47.335C56.1487 47.4378 56.8141 47.8048 57.2898 48.3662C57.7655 48.9277 58.0183 49.6444 58 50.38Z" stroke="white" stroke-width="2" stroke-linecap="round" stroke-linejoin="round"/>
</svg>
