<?xml version="1.0" encoding="UTF-8"?>
<svg id="Layer_1" xmlns="http://www.w3.org/2000/svg" version="1.1" viewBox="0 0 452 847">
  <!-- Generator: Adobe Illustrator 29.7.0, SVG Export Plug-In . SVG Version: 2.1.1 Build 138)  -->
  <defs>
    <style>
      .st0 {
        fill: #fff;
        stroke: #d7d7d7;
        stroke-width: 1.5px;
      }
    </style>
  </defs>
  <path class="st0" d="M-880.03,192.83V-43.06l450,605.11v235.89L-880.03,192.83Z"/>
  <g>
    <polygon class="st0" points="452 612.92 452 688.65 451.93 688.68 366.76 650.79 281.58 612.89 196.41 574.99 111.23 537.1 111.23 461.32 281.59 537.1 366.76 574.99 451.95 612.89 452 612.92"/>
    <polygon class="st0" points="452 158.19 452 233.92 451.95 233.95 366.76 196.05 281.59 158.15 111.23 82.37 26.04 120.27 -59.14 158.15 -144.31 196.05 -229.49 233.95 -229.86 233.79 -229.86 158.32 -229.49 158.15 -144.31 120.27 -59.13 82.37 26.04 44.47 111.23 6.58 196.41 44.47 281.58 82.37 366.76 120.27 451.93 158.15 452 158.19"/>
    <polygon class="st0" points="111.23 158.16 111.23 233.95 26.06 271.84 -59.13 309.74 -59.14 309.74 -144.31 347.64 -229.48 385.53 -229.86 385.36 -229.86 309.9 -229.5 309.73 -229.49 309.73 -144.31 271.84 -59.14 233.95 -59.13 233.95 26.03 196.06 26.05 196.06 111.23 158.16"/>
    <polygon class="st0" points="452 461.34 452 537.07 451.93 537.1 366.76 499.21 281.58 461.32 196.41 423.42 111.23 385.53 26.04 423.42 -59.13 461.32 -144.31 499.21 -229.49 537.1 -229.86 536.94 -229.86 461.48 -229.5 461.31 -229.49 461.31 -144.31 423.42 -59.14 385.53 26.03 347.64 26.04 347.64 111.23 309.73 196.41 347.64 281.59 385.53 366.76 423.42 451.95 461.31 451.96 461.31 452 461.34"/>
    <polygon class="st0" points="452 764.49 452 840.29 366.76 802.36 281.58 764.47 196.41 726.58 111.23 688.68 26.04 726.58 -59.13 764.47 -144.31 802.36 -229.86 840.42 -229.86 764.63 -229.49 764.47 -144.31 726.57 -59.14 688.68 26.04 650.79 111.21 612.9 111.23 612.9 281.59 688.68 366.76 726.57 451.95 764.47 452 764.49"/>
  </g>
</svg>