<svg width="97" height="97" viewBox="0 0 97 97" fill="none" xmlns="http://www.w3.org/2000/svg">
<circle cx="48.5" cy="48.5" r="47.5" stroke="#1D423D" stroke-width="2"/>
<g clip-path="url(#clip0_69_1900)">
<path d="M27.0026 58.0039C28.1119 59.0789 29.3398 60.0244 30.6627 60.8221L25.2823 66.2025C24.7551 66.7266 24.4531 67.4357 24.4405 68.179C24.4428 68.5478 24.5184 68.9125 24.6629 69.2518C24.8074 69.5911 25.018 69.8983 25.2823 70.1555L27.9176 72.7908C28.1737 73.0565 28.4807 73.2678 28.8203 73.4121C29.1599 73.5564 29.5251 73.6309 29.8941 73.6309C30.2631 73.6309 30.6283 73.5564 30.9679 73.4121C31.3075 73.2678 31.6145 73.0565 31.8706 72.7908L40.7281 63.9699C40.9338 64.0077 41.1446 64.0077 41.3503 63.9699H41.5699C44.7491 62.3689 48.3913 61.9411 51.8549 62.762C52.7968 63.023 53.6966 63.4174 54.5268 63.9333C54.556 64.3683 54.7528 64.775 55.0758 65.0679L66.2758 76.2679C66.5344 76.5291 66.8423 76.7364 67.1815 76.8779C67.5208 77.0194 67.8847 77.0922 68.2523 77.0922C68.6198 77.0922 68.9838 77.0194 69.323 76.8779C69.6623 76.7364 69.9701 76.5291 70.2287 76.2679L72.864 73.6326C73.1335 73.3793 73.3474 73.073 73.4923 72.7327C73.6372 72.3925 73.7099 72.026 73.7058 71.6562C73.7036 71.2874 73.628 70.9227 73.4834 70.5833C73.3389 70.244 73.1284 69.9369 72.864 69.6797L68.9111 65.7267L62.9817 59.6875C63.4575 59.6875 63.9699 59.3581 64.4457 59.1385C69.3999 57.0536 73.3412 53.1123 75.4261 48.1581C76.3938 45.8363 76.9154 43.3528 76.9634 40.8379C76.9824 38.3338 76.5227 35.8491 75.6091 33.5176C74.1503 29.8728 71.62 26.7565 68.3524 24.5803C65.0849 22.4041 61.2339 21.2705 57.3085 21.3294C54.7916 21.3933 52.3089 21.9271 49.9882 22.9032C48.4335 23.5382 46.969 24.375 45.6326 25.3921C44.024 24.9411 42.3622 24.7072 40.6915 24.6967C36.7659 24.6143 32.9089 25.7342 29.6379 27.9062C26.3669 30.0782 23.8381 33.1983 22.3908 36.8483C21.455 39.1746 20.9825 41.6612 21 44.1686C21.0932 49.4674 23.2462 54.5217 27.0026 58.2601M32.4196 69.7529L30.4431 67.7765C30.2602 67.6565 30.0415 67.6032 29.8239 67.6256C29.6063 67.6479 29.403 67.7447 29.2483 67.8993C29.0937 68.054 28.997 68.2572 28.9746 68.4748C28.9522 68.6924 29.0055 68.9111 29.1255 69.0941L31.1019 71.0706L30.4431 71.7294C30.3578 71.8179 30.2554 71.8883 30.1422 71.9365C30.029 71.9846 29.9073 72.0094 29.7843 72.0094C29.6613 72.0094 29.5396 71.9846 29.4264 71.9365C29.3132 71.8883 29.2108 71.8179 29.1255 71.7294L26.3804 68.9843C26.2869 68.9018 26.2121 68.8004 26.1608 68.6868C26.1095 68.5732 26.083 68.4501 26.083 68.3255C26.083 68.2008 26.1095 68.0776 26.1608 67.964C26.2121 67.8504 26.2869 67.7491 26.3804 67.6667L29.6745 64.3725L31.651 66.349C31.8257 66.5237 32.0627 66.6218 32.3098 66.6218C32.5569 66.6218 32.7939 66.5237 32.9686 66.349C33.1434 66.1742 33.2415 65.9373 33.2415 65.6902C33.2415 65.4431 33.1434 65.2061 32.9686 65.0314L30.9921 63.0549L32.1268 61.9202C32.566 62.1398 33.0052 62.396 33.481 62.579C34.9632 63.1841 36.5109 63.614 38.0928 63.8601L32.4196 69.7529ZM44.5712 61.115L57.5281 48.1581C56.8512 50.7003 56.8512 53.3754 57.5281 55.9176C57.8199 56.9298 58.2381 57.9013 58.7726 58.8091L55.1124 62.4692C54.1951 61.9279 53.2107 61.5095 52.1843 61.2248C49.6449 60.5269 46.9642 60.5269 44.4248 61.2248M71.3634 72.5346L68.7281 75.2065C68.6428 75.2951 68.5404 75.3655 68.4272 75.4136C68.314 75.4617 68.1923 75.4866 68.0693 75.4866C67.9463 75.4866 67.8245 75.4617 67.7113 75.4136C67.5981 75.3655 67.4958 75.2951 67.4105 75.2065L66.7516 74.5111L68.7281 72.5346C68.8474 72.4259 68.9344 72.2863 68.9796 72.1314C69.0248 71.9764 69.0264 71.812 68.9843 71.6562C68.9424 71.4939 68.86 71.3449 68.7448 71.2233C68.6295 71.1016 68.4853 71.0113 68.3255 70.9608C68.1636 70.9294 67.9965 70.9363 67.8377 70.9808C67.6789 71.0252 67.5326 71.106 67.4105 71.2169L65.434 73.1934L61.6275 68.9843L63.6039 67.0078C63.7716 66.8367 63.8655 66.6068 63.8655 66.3673C63.8655 66.1278 63.7716 65.8977 63.6039 65.7267C63.4267 65.5567 63.1907 65.4619 62.9451 65.4619C62.6995 65.4619 62.4634 65.5567 62.2862 65.7267L60.3098 67.7032L56.3569 63.7503L60.3098 59.7973L61.6275 61.115L59.651 63.0915C59.5286 63.206 59.44 63.3517 59.3948 63.5131C59.3496 63.6744 59.3496 63.8452 59.3948 64.0065C59.4472 64.1592 59.5338 64.2978 59.648 64.412C59.7622 64.5262 59.9009 64.6129 60.0536 64.6653C60.2152 64.7066 60.3848 64.7046 60.5454 64.6596C60.706 64.6147 60.8519 64.5282 60.9686 64.4091L62.9451 62.4326L66.8981 66.3856L64.9215 68.362C64.8024 68.4787 64.716 68.6247 64.6711 68.7853C64.6261 68.9459 64.6242 69.1154 64.6654 69.277C64.7033 69.4403 64.7853 69.5901 64.9024 69.71C65.0196 69.8298 65.1675 69.9152 65.3299 69.9567C65.4923 69.9983 65.663 69.9944 65.8233 69.9455C65.9837 69.8967 66.1275 69.8047 66.2392 69.6797L68.2156 67.7032L71.5098 70.9973C71.6869 71.1722 71.7915 71.4076 71.8026 71.6562C71.8056 71.7808 71.7809 71.9046 71.7303 72.0186C71.6796 72.1325 71.6043 72.2337 71.5098 72.315M50.6471 24.4039C54.949 22.5656 59.8028 22.4998 64.153 24.2208C66.3585 25.0708 68.3666 26.3634 70.0536 28.0189C71.7406 29.6744 73.0708 31.6578 73.9621 33.847C74.8074 35.9906 75.23 38.2775 75.2065 40.5816C75.1825 44.203 74.0846 47.7359 72.0518 50.733C70.019 53.7301 67.1427 56.0567 63.7869 57.4182C63.0183 57.711 62.2497 57.9672 61.4444 58.1868C61.1964 57.9771 60.8895 57.8493 60.566 57.8209C60.0436 56.9942 59.6488 56.0934 59.3948 55.149C58.5783 51.6887 58.9924 48.0521 60.566 44.864C60.5833 44.8042 60.5833 44.7407 60.566 44.6809C60.6178 44.452 60.6178 44.2145 60.566 43.9856C60.4605 41.5605 59.9406 39.1712 59.0287 36.9215C56.9405 31.9695 53.0003 28.0293 48.0483 25.9411H47.7555C48.6553 25.3479 49.6116 24.8452 50.6104 24.4404M24.0745 37.3607C24.9447 35.1537 26.2574 33.1481 27.9318 31.4675C29.6061 29.7868 31.6067 28.4667 33.8104 27.5882C35.8889 26.7869 38.0979 26.3773 40.3255 26.3803H40.5451C42.8847 26.3821 45.2 26.8551 47.3529 27.7712C51.8762 29.6777 55.4751 33.2768 57.3817 37.8C58.233 39.8306 58.6924 42.0039 58.7359 44.2052L44.9738 58.0039L40.7281 62.2496C38.5385 62.1757 36.3805 61.7044 34.3594 60.8588C29.8205 58.9756 26.2139 55.369 24.3307 50.83C23.4286 48.6843 22.9441 46.3861 22.9033 44.0588C22.8732 41.7541 23.296 39.4659 24.1477 37.3242" fill="#1D423D"/>
<path d="M53.9776 39.081C54.4855 40.3625 54.8299 41.703 55.0025 43.0706C55.0287 43.2974 55.1355 43.5071 55.3035 43.6616C55.4714 43.8162 55.6894 43.9051 55.9175 43.9124C56.04 43.9039 56.1594 43.8699 56.268 43.8124C56.3765 43.755 56.4718 43.6753 56.5477 43.5788C56.6235 43.4822 56.6783 43.3708 56.7085 43.2517C56.7386 43.1326 56.7435 43.0086 56.7227 42.8876C56.5614 41.3404 56.1793 39.8244 55.5881 38.3857C54.7303 36.3708 53.487 34.5431 51.9279 33.0053C51.7532 32.8305 51.5162 32.7323 51.2691 32.7323C51.022 32.7323 50.785 32.8305 50.6103 33.0053C50.4356 33.18 50.3374 33.417 50.3374 33.6641C50.3374 33.9112 50.4356 34.1481 50.6103 34.3229C51.9779 35.7027 53.071 37.3298 53.8312 39.1176" fill="#1D423D"/>
<path d="M26.8563 50.6837C27.0083 50.6889 27.159 50.6545 27.2937 50.584C27.4285 50.5134 27.5426 50.4091 27.6249 50.2812C27.6954 50.1455 27.7323 49.9948 27.7323 49.8418C27.7323 49.6889 27.6954 49.5383 27.6249 49.4026C27.1977 48.3675 26.8907 47.2868 26.7098 46.1817V41.8628C26.8606 40.7712 27.1433 39.702 27.5517 38.6785C27.632 38.5394 27.6743 38.3816 27.6743 38.221C27.6743 38.0604 27.632 37.9026 27.5517 37.7635C27.4605 37.624 27.3316 37.5135 27.1799 37.4446C27.0283 37.3757 26.8601 37.3513 26.6952 37.3743C26.5302 37.3973 26.3751 37.4668 26.2481 37.5746C26.1211 37.6824 26.0274 37.824 25.9778 37.9831C25.1814 39.9033 24.7715 41.9617 24.7715 44.0406C24.7715 46.1194 25.1814 48.1778 25.9778 50.0981C26.0436 50.2686 26.159 50.4156 26.309 50.52C26.4591 50.6243 26.6369 50.6813 26.8196 50.6837" fill="#1D423D"/>
<path d="M70.7778 47.0236C71.0116 47.1111 71.2698 47.107 71.5007 47.0119C71.7315 46.9169 71.9179 46.7379 72.0222 46.5111C72.8163 44.5824 73.2385 42.521 73.2666 40.4354C73.3074 38.3692 72.934 36.3157 72.1686 34.3961C72.1107 34.2415 72.0122 34.1055 71.8833 34.0024C71.7544 33.8993 71.6001 33.8331 71.4366 33.8105C71.2725 33.7869 71.1052 33.8064 70.951 33.8674C70.7969 33.9283 70.6613 34.0285 70.5578 34.1579C70.4543 34.2873 70.3863 34.4415 70.3607 34.6053C70.3351 34.769 70.3527 34.9366 70.4117 35.0915C70.8202 36.115 71.1028 37.1842 71.2536 38.2758V42.5582C71.0729 43.6752 70.766 44.7681 70.3385 45.8158C70.2657 46.0419 70.2657 46.285 70.3385 46.5111C70.4509 46.7318 70.6303 46.9112 70.8509 47.0236" fill="#1D423D"/>
<path d="M43.3999 71.4C43.3999 72.5076 43.7284 73.5902 44.3437 74.5111C44.959 75.4321 45.8336 76.1499 46.8569 76.5738C47.8802 76.9976 49.0061 77.1085 50.0924 76.8924C51.1787 76.6764 52.1765 76.143 52.9597 75.3598C53.7429 74.5767 54.2763 73.5788 54.4923 72.4925C54.7084 71.4062 54.5975 70.2802 54.1737 69.257C53.7498 68.2337 53.0321 67.3591 52.1111 66.7438C51.1902 66.1284 50.1075 65.8 48.9999 65.8C47.5147 65.8 46.0903 66.39 45.0401 67.4402C43.9899 68.4904 43.3999 69.9148 43.3999 71.4ZM52.7332 71.4C52.7332 72.1239 52.5186 72.8316 52.1164 73.4335C51.7142 74.0354 51.1426 74.5045 50.4738 74.7816C49.805 75.0586 49.0691 75.131 48.3591 74.9898C47.6491 74.8485 46.9969 74.4999 46.485 73.9881C45.9731 73.4762 45.6245 72.8241 45.4833 72.1141C45.3421 71.4041 45.4146 70.6681 45.6916 69.9993C45.9686 69.3305 46.4377 68.7589 47.0396 68.3567C47.6416 67.9545 48.3492 67.7399 49.0731 67.7399C50.0438 67.7399 50.9748 68.1254 51.6612 68.8119C52.3476 69.4983 52.7332 70.4293 52.7332 71.4Z" fill="#1D423D"/>
<path d="M47.4264 69.7895C47.2987 69.9224 47.2124 70.0895 47.1779 70.2705C47.1434 70.4515 47.1621 70.6386 47.2319 70.8091C47.3017 70.9797 47.4194 71.1262 47.5709 71.2311C47.7224 71.336 47.901 71.3947 48.0852 71.4C48.2576 71.2167 48.3536 70.9746 48.3536 70.7229C48.3536 70.4712 48.2576 70.2291 48.0852 70.0458C47.9998 69.9572 47.8975 69.8868 47.7843 69.8387C47.6711 69.7906 47.5494 69.7658 47.4264 69.7658C47.3034 69.7658 47.1816 69.7906 47.0684 69.8387C46.9552 69.8868 46.8529 69.9572 46.7676 70.0458" fill="#1D423D"/>
</g>
<defs>
<clipPath id="clip0_69_1900">
<rect width="56" height="56" fill="white" transform="translate(21 21)"/>
</clipPath>
</defs>
</svg>
