<svg width="20" height="25" viewBox="0 0 20 25" fill="none" xmlns="http://www.w3.org/2000/svg">
<path d="M19 10.5801C19 18.0313 10 24.4181 10 24.4181C10 24.4181 1 18.0313 1 10.5801C1 8.03932 1.94821 5.60258 3.63604 3.80596C5.32387 2.00933 7.61305 1 10 1C12.3869 1 14.6761 2.00933 16.364 3.80596C18.0518 5.60258 19 8.03932 19 10.5801Z" stroke="white" stroke-linecap="round" stroke-linejoin="round"/>
<path d="M10 13.7735C11.6569 13.7735 13 12.3438 13 10.5801C13 8.81644 11.6569 7.38672 10 7.38672C8.34315 7.38672 7 8.81644 7 10.5801C7 12.3438 8.34315 13.7735 10 13.7735Z" stroke="white" stroke-linecap="round" stroke-linejoin="round"/>
</svg>
