<svg width="99" height="99" viewBox="0 0 99 99" fill="none" xmlns="http://www.w3.org/2000/svg">
<circle cx="49.5" cy="49.5" r="49.5" fill="#1D423D"/>
<path d="M29 70C27.625 70 26.4475 69.51 25.4675 68.53C24.4875 67.55 23.9983 66.3733 24 65V35C24 33.625 24.49 32.4475 25.47 31.4675C26.45 30.4875 27.6267 29.9983 29 30H69C70.375 30 71.5525 30.49 72.5325 31.47C73.5125 32.45 74.0017 33.6267 74 35V65C74 66.375 73.51 67.5525 72.53 68.5325C71.55 69.5125 70.3733 70.0017 69 70H29ZM49 52.5L29 40V65H69V40L49 52.5ZM49 47.5L69 35H29L49 47.5ZM29 40V35V65V40Z" fill="white"/>
</svg>
