<svg width="21" height="31" viewBox="0 0 21 31" fill="none" xmlns="http://www.w3.org/2000/svg">
<path d="M10.7025 1.15723C5.50511 1.15723 1.29034 5.37114 1.29034 10.5675C1.29034 15.7638 10.7025 29.4767 10.7025 29.4767C10.7025 29.4767 20.1147 15.7638 20.1147 10.5675C20.1147 5.37114 15.9 1.15723 10.7025 1.15723ZM10.7025 14.5742C8.25773 14.5742 6.27762 12.5945 6.27762 10.1502C6.27762 7.70593 8.25773 5.72621 10.7025 5.72621C13.1473 5.72621 15.1275 7.70593 15.1275 10.1502C15.1275 12.5945 13.1473 14.5742 10.7025 14.5742Z" fill="#0288D0"/>
<path d="M10.7025 30.0656L10.4273 29.6631C10.0395 29.1009 0.955872 15.8052 0.955872 10.5645C0.955872 5.32374 5.32751 0.819824 10.7025 0.819824C16.0775 0.819824 20.4492 5.19057 20.4492 10.5645C20.4492 15.9384 11.3655 29.1009 10.9778 29.6631L10.7025 30.0656ZM10.7025 1.48861C5.69748 1.48861 1.62477 5.56047 1.62477 10.5645C1.62477 15.1039 9.15454 26.5678 10.7025 28.876C12.2505 26.5678 19.7803 15.1039 19.7803 10.5645C19.7803 5.56047 15.7076 1.48861 10.7025 1.48861ZM10.7025 14.9056C8.08013 14.9056 5.94314 12.772 5.94314 10.1472C5.94314 7.52241 8.07717 5.38884 10.7025 5.38884C13.3279 5.38884 15.4619 7.52241 15.4619 10.1472C15.4619 12.772 13.3279 14.9056 10.7025 14.9056ZM10.7025 6.06055C8.44715 6.06055 6.61206 7.89527 6.61206 10.1502C6.61206 12.4051 8.44715 14.2398 10.7025 14.2398C12.9579 14.2398 14.793 12.4051 14.793 10.1502C14.793 7.89527 12.9579 6.06055 10.7025 6.06055Z" fill="white"/>
</svg>
