<svg width="20" height="30" viewBox="0 0 20 30" fill="none" xmlns="http://www.w3.org/2000/svg">
<path d="M10.2427 0.896973C5.04524 0.896973 0.83046 5.11087 0.83046 10.3072C0.83046 15.5036 10.2427 29.2165 10.2427 29.2165C10.2427 29.2165 19.6548 15.5036 19.6548 10.3072C19.6548 5.11087 15.4401 0.896973 10.2427 0.896973ZM10.2427 14.314C7.79787 14.314 5.81775 12.3343 5.81775 9.88998C5.81775 7.44568 7.79787 5.46597 10.2427 5.46597C12.6875 5.46597 14.6676 7.44568 14.6676 9.88998C14.6676 12.3343 12.6875 14.314 10.2427 14.314Z" fill="#1D423D"/>
<path d="M10.2427 29.8053L9.96739 29.4029C9.57966 28.8406 0.496002 15.5449 0.496002 10.3042C0.496002 5.06347 4.86764 0.55957 10.2427 0.55957C15.6177 0.55957 19.9893 4.9303 19.9893 10.3042C19.9893 15.6781 10.9056 28.8406 10.5179 29.4029L10.2427 29.8053ZM10.2427 1.22834C5.23762 1.22834 1.1649 5.3002 1.1649 10.3042C1.1649 14.8436 8.69467 26.3075 10.2427 28.6157C11.7906 26.3075 19.3204 14.8436 19.3204 10.3042C19.3204 5.3002 15.2477 1.22834 10.2427 1.22834ZM10.2427 14.6453C7.62026 14.6453 5.48327 12.5118 5.48327 9.88696C5.48327 7.26215 7.6173 5.12857 10.2427 5.12857C12.868 5.12857 15.002 7.26215 15.002 9.88696C15.002 12.5118 12.868 14.6453 10.2427 14.6453ZM10.2427 5.80031C7.98728 5.80031 6.15219 7.63501 6.15219 9.88992C6.15219 12.1448 7.98728 13.9795 10.2427 13.9795C12.498 13.9795 14.3331 12.1448 14.3331 9.88992C14.3331 7.63501 12.498 5.80031 10.2427 5.80031Z" fill="white"/>
</svg>
