<svg width="80" height="80" viewBox="0 0 80 80" fill="none" xmlns="http://www.w3.org/2000/svg">
<circle cx="40" cy="40" r="40" transform="matrix(1 8.74228e-08 8.74228e-08 -1 0 80)" fill="white"/>
<path d="M58.7071 39.2929C59.0976 39.6834 59.0976 40.3166 58.7071 40.7071L52.3431 47.0711C51.9526 47.4616 51.3195 47.4616 50.9289 47.0711C50.5384 46.6805 50.5384 46.0474 50.9289 45.6569L56.5858 40L50.9289 34.3431C50.5384 33.9526 50.5384 33.3195 50.9289 32.9289C51.3195 32.5384 51.9526 32.5384 52.3431 32.9289L58.7071 39.2929ZM22 39L58 39L58 41L22 41L22 39Z" fill="#1D423D"/>
</svg>
