<svg width="24" height="24" viewBox="0 0 24 24" fill="none" xmlns="http://www.w3.org/2000/svg">
<g clip-path="url(#clip0_1_286)">
<path fill-rule="evenodd" clip-rule="evenodd" d="M10 4.00006C9.20435 4.00006 8.44129 4.31613 7.87868 4.87874C7.31607 5.44135 7 6.20441 7 7.00006H4C3.46957 7.00006 2.96086 7.21077 2.58579 7.58585C2.21071 7.96092 2 8.46963 2 9.00006V19.0001C2 19.5305 2.21071 20.0392 2.58579 20.4143C2.96086 20.7893 3.46957 21.0001 4 21.0001H20C20.5304 21.0001 21.0391 20.7893 21.4142 20.4143C21.7893 20.0392 22 19.5305 22 19.0001V9.00006C22 8.46963 21.7893 7.96092 21.4142 7.58585C21.0391 7.21077 20.5304 7.00006 20 7.00006H17C17 6.20441 16.6839 5.44135 16.1213 4.87874C15.5587 4.31613 14.7956 4.00006 14 4.00006H10ZM10 6.00006C9.73478 6.00006 9.48043 6.10542 9.29289 6.29295C9.10536 6.48049 9 6.73484 9 7.00006H15C15 6.73484 14.8946 6.48049 14.7071 6.29295C14.5196 6.10542 14.2652 6.00006 14 6.00006H10ZM20 9.00006V13.0001H4V9.00006H20ZM4 15.0001V19.0001H20V15.0001H4Z" fill="#B3B4B4"/>
</g>
<defs>
<clipPath id="clip0_1_286">
<rect width="24" height="24" fill="white"/>
</clipPath>
</defs>
</svg>
