<svg width="24" height="24" viewBox="0 0 24 24" fill="none" xmlns="http://www.w3.org/2000/svg">
<path d="M12 1.99994C7.6 1.99994 4 5.59994 4 9.99994C4 15.3999 11 21.4999 11.3 21.7999C11.5 21.8999 11.8 21.9999 12 21.9999C12.2 21.9999 12.5 21.8999 12.7 21.7999C13 21.4999 20 15.3999 20 9.99994C20 5.59994 16.4 1.99994 12 1.99994ZM12 19.6999C9.9 17.6999 6 13.3999 6 9.99994C6 6.69994 8.7 3.99994 12 3.99994C15.3 3.99994 18 6.69994 18 9.99994C18 13.2999 14.1 17.6999 12 19.6999ZM12 5.99994C9.8 5.99994 8 7.79994 8 9.99994C8 12.1999 9.8 13.9999 12 13.9999C14.2 13.9999 16 12.1999 16 9.99994C16 7.79994 14.2 5.99994 12 5.99994ZM12 11.9999C10.9 11.9999 10 11.0999 10 9.99994C10 8.89994 10.9 7.99994 12 7.99994C13.1 7.99994 14 8.89994 14 9.99994C14 11.0999 13.1 11.9999 12 11.9999Z" fill="#B3B4B4"/>
</svg>
