<svg width="24" height="24" viewBox="0 0 24 24" fill="none" xmlns="http://www.w3.org/2000/svg">
<path d="M19 3.99997H17V2.99997C17 2.73475 16.8946 2.4804 16.7071 2.29286C16.5196 2.10533 16.2652 1.99997 16 1.99997C15.7348 1.99997 15.4804 2.10533 15.2929 2.29286C15.1054 2.4804 15 2.73475 15 2.99997V3.99997H9V2.99997C9 2.73475 8.89464 2.4804 8.70711 2.29286C8.51957 2.10533 8.26522 1.99997 8 1.99997C7.73478 1.99997 7.48043 2.10533 7.29289 2.29286C7.10536 2.4804 7 2.73475 7 2.99997V3.99997H5C4.20435 3.99997 3.44129 4.31604 2.87868 4.87865C2.31607 5.44126 2 6.20432 2 6.99997V19C2 19.7956 2.31607 20.5587 2.87868 21.1213C3.44129 21.6839 4.20435 22 5 22H19C19.7956 22 20.5587 21.6839 21.1213 21.1213C21.6839 20.5587 22 19.7956 22 19V6.99997C22 6.20432 21.6839 5.44126 21.1213 4.87865C20.5587 4.31604 19.7956 3.99997 19 3.99997ZM20 19C20 19.2652 19.8946 19.5195 19.7071 19.7071C19.5196 19.8946 19.2652 20 19 20H5C4.73478 20 4.48043 19.8946 4.29289 19.7071C4.10536 19.5195 4 19.2652 4 19V12H20V19ZM20 9.99997H4V6.99997C4 6.73475 4.10536 6.4804 4.29289 6.29286C4.48043 6.10533 4.73478 5.99997 5 5.99997H7V6.99997C7 7.26519 7.10536 7.51954 7.29289 7.70708C7.48043 7.89461 7.73478 7.99997 8 7.99997C8.26522 7.99997 8.51957 7.89461 8.70711 7.70708C8.89464 7.51954 9 7.26519 9 6.99997V5.99997H15V6.99997C15 7.26519 15.1054 7.51954 15.2929 7.70708C15.4804 7.89461 15.7348 7.99997 16 7.99997C16.2652 7.99997 16.5196 7.89461 16.7071 7.70708C16.8946 7.51954 17 7.26519 17 6.99997V5.99997H19C19.2652 5.99997 19.5196 6.10533 19.7071 6.29286C19.8946 6.4804 20 6.73475 20 6.99997V9.99997Z" fill="#B3B4B4"/>
</svg>
