<svg width="97" height="97" viewBox="0 0 97 97" fill="none" xmlns="http://www.w3.org/2000/svg">
<circle cx="48.5" cy="48.5" r="47.5" stroke="#1D423D" stroke-width="2"/>
<g clip-path="url(#clip0_69_1903)">
<path d="M22.6197 77C22.4156 76.7959 22.1434 76.7958 21.8712 76.6938C21.2754 76.3204 20.81 75.7716 20.5388 75.1229C20.2677 74.4741 20.2042 73.7573 20.3571 73.071C20.5101 72.3847 20.8719 71.7627 21.3928 71.2904C21.9137 70.8182 22.5681 70.5189 23.2661 70.4338H26.4302C26.4302 70.2297 26.4301 70.2297 26.192 70.1616C24.0902 68.7035 22.4184 66.708 21.351 64.3833C20.2837 62.0585 19.8599 59.4897 20.1241 56.9453C20.3883 54.4009 21.3306 51.9742 22.8528 49.9184C24.375 47.8625 26.4211 46.2528 28.7777 45.2576C29.4921 44.9514 29.5262 44.9854 29.322 44.2029C28.7096 41.9234 28.1313 39.678 27.5529 37.3985C27.5529 37.0243 27.3147 36.9562 26.9405 36.9562C25.741 37.0575 24.533 36.954 23.3682 36.6502C22.5496 36.3629 21.8204 35.8663 21.2534 35.2097C20.6863 34.5531 20.3011 33.7593 20.1361 32.9076C19.9188 32.0366 19.9502 31.122 20.2269 30.2679C20.5036 29.4139 21.0143 28.6547 21.7011 28.0766C22.3773 27.4791 23.1923 27.0603 24.0717 26.8583C24.9512 26.6562 25.8672 26.6773 26.7363 26.9197C30.5808 27.6002 34.4593 28.2126 38.3378 28.859C39.1 28.9275 39.8263 29.2142 40.4297 29.6848C41.0331 30.1555 41.488 30.7903 41.74 31.5128C41.9621 32.1174 42.0367 32.7661 41.9577 33.4054C41.8786 34.0446 41.6482 34.6558 41.2856 35.1881C40.923 35.7204 40.4386 36.1584 39.8726 36.466C39.3067 36.7735 38.6756 36.9416 38.0316 36.9562H34.7995C34.4593 36.9562 34.3573 36.9562 34.4593 37.3645C35.0377 39.5759 35.6161 41.7533 36.1604 43.9647C36.1769 44.0616 36.221 44.1517 36.2873 44.2241C36.3537 44.2965 36.4396 44.3482 36.5347 44.373C39.6646 45.1461 42.7438 46.112 45.7546 47.265C48.5103 48.1495 51.2321 49.1022 53.9538 50.0548L54.6683 50.2589L55.8931 43.9647C56.4375 41.0729 57.0158 38.147 57.5942 35.2551C57.6771 35.0557 57.681 34.8323 57.6052 34.6301C57.5293 34.4279 57.3794 34.2622 57.1859 34.1664C56.6099 33.7855 56.1728 33.2283 55.9397 32.5783C55.7067 31.9282 55.6904 31.2202 55.8931 30.5601C56.1078 29.8996 56.5196 29.3206 57.0731 28.901C57.6265 28.4813 58.2951 28.2411 58.9891 28.2126H64.0243C64.4326 28.2126 64.5346 28.2127 64.5346 27.7024C64.5346 26.5797 64.5346 25.4569 64.5346 24.3002C64.3868 23.7932 64.359 23.2585 64.4535 22.7389C64.5479 22.2192 64.7621 21.7288 65.079 21.3063C65.3959 20.8837 65.8068 20.5407 66.2792 20.3045C66.7517 20.0683 67.2726 19.9453 67.8008 19.9453C68.3289 19.9453 68.8498 20.0683 69.3222 20.3045C69.7947 20.5407 70.2056 20.8837 70.5225 21.3063C70.8394 21.7288 71.0536 22.2192 71.1481 22.7389C71.2426 23.2585 71.2147 23.7932 71.0668 24.3002C71.0668 26.024 71.0668 27.759 71.0668 29.5054C71.0015 30.8771 70.4295 32.1758 69.4616 33.15C68.4937 34.1241 67.1987 34.7045 65.8275 34.7788C65.3512 34.7788 64.7728 34.5747 64.4326 34.7788C64.0924 34.9829 64.1944 35.6634 64.0923 36.1397L61.0304 51.8238C61.0304 52.2661 61.0304 52.4022 61.4727 52.5383L69.9101 55.396C71.5269 55.885 72.9667 56.8338 74.054 58.1265C75.1413 59.4191 75.8293 61.0001 76.0341 62.6768C76.0341 62.6768 76.0341 62.6768 76.0341 62.9149V64.7861C76.0193 64.8533 76.0193 64.923 76.0341 64.9902C75.6871 66.9642 74.6648 68.7562 73.1422 70.0595C73.1422 70.0595 72.9381 70.0595 72.9381 70.3657C73.5406 70.4013 74.1228 70.5964 74.625 70.9312C75.1272 71.266 75.5313 71.7284 75.7959 72.271C75.7959 72.5091 75.7959 72.7814 76.1021 72.9855V74.3122L75.7959 75.0948C75.5584 75.5445 75.2301 75.9398 74.8319 76.256C74.4337 76.5723 73.9742 76.8025 73.4824 76.9319L22.6197 77ZM49.8372 70.1957H66.3719C68.0598 70.233 69.712 69.7062 71.0668 68.6987C71.9254 68.156 72.6299 67.4013 73.1125 66.5075C73.5952 65.6138 73.8397 64.611 73.8226 63.5954C73.8119 62.2041 73.3526 60.8533 72.5128 59.7439C71.6731 58.6344 70.4978 57.8256 69.1616 57.4375L38.3378 46.9587C36.6617 46.3539 34.8712 46.133 33.0984 46.3122C31.2406 46.4649 29.4464 47.0603 27.8659 48.0489C26.2855 49.0374 24.9648 50.3901 24.0146 51.9938C22.4702 54.4823 21.8941 57.4517 22.3959 60.3371C22.8977 63.2226 24.4425 65.8231 26.7363 67.644C28.7349 69.3237 31.2705 70.2293 33.881 70.1957H49.8372ZM48.0341 74.6866H72.2576C72.5502 74.7388 72.8496 74.7388 73.1422 74.6866C73.3426 74.6109 73.5152 74.4758 73.6371 74.2995C73.7589 74.1233 73.8242 73.9141 73.8242 73.6998C73.8242 73.4856 73.7589 73.2764 73.6371 73.1001C73.5152 72.9239 73.3426 72.789 73.1422 72.7133C72.8722 72.6641 72.5956 72.6641 72.3257 72.7133H23.7084C23.4714 72.6802 23.231 72.6802 22.994 72.7133C22.7817 72.7818 22.5966 72.9158 22.4653 73.0962C22.3341 73.2765 22.2634 73.4938 22.2634 73.7168C22.2634 73.9399 22.3341 74.1572 22.4653 74.3375C22.5966 74.5179 22.7817 74.6521 22.994 74.7206C23.2639 74.7705 23.5406 74.7705 23.8105 74.7206L48.0341 74.6866ZM31.4654 34.6428H37.5893C38.0871 34.6621 38.5732 34.4891 38.947 34.1598C39.3207 33.8304 39.5533 33.3698 39.5966 32.8736C39.616 32.3848 39.4467 31.9074 39.1237 31.54C38.8007 31.1727 38.3487 30.9437 37.8615 30.9004L25.5796 28.859C25.1142 28.7744 24.6353 28.804 24.1838 28.945C23.7323 29.086 23.3216 29.3344 22.9872 29.6689C22.6527 30.0033 22.4043 30.4138 22.2633 30.8654C22.1223 31.3169 22.0928 31.7958 22.1774 32.2612C22.3004 32.9667 22.675 33.6039 23.2317 34.0543C23.7885 34.5047 24.4897 34.738 25.2054 34.7109H31.3973M62.017 35.017C62.017 34.7448 62.017 34.7109 61.8129 34.7109H60.3159C59.9757 34.7109 59.8396 34.7109 59.8056 35.1532C58.887 39.9162 57.9344 44.6791 57.0158 49.4422C57.0158 49.9525 56.6076 50.5651 56.8457 50.9053C57.0839 51.2455 57.7303 51.2795 58.2066 51.4836C58.6829 51.6878 58.819 51.4837 58.9211 51.0754C59.5335 47.6732 60.2139 44.5091 60.8263 41.209C61.2345 39.1677 61.6428 37.0923 62.017 35.051M62.3572 32.5675H65.4192C65.8413 32.6047 66.2666 32.5556 66.6692 32.4236C67.0719 32.2915 67.4435 32.0791 67.7616 31.7992C68.0797 31.5192 68.3377 31.1778 68.5199 30.7952C68.702 30.4126 68.8046 29.997 68.8214 29.5735C68.8214 27.8044 68.8214 26.1713 68.8214 24.2321C68.8121 24.0198 68.739 23.8152 68.6115 23.6453C68.484 23.4753 68.3081 23.3477 68.107 23.2794C67.3245 22.9732 66.644 23.5517 66.644 24.5043V28.9271C66.644 30.0498 66.3038 30.39 65.1811 30.39H59.2953C59.048 30.3513 58.7948 30.3892 58.5698 30.4986C58.3447 30.6081 58.1586 30.7839 58.0365 31.0024C57.9502 31.177 57.9124 31.3714 57.9269 31.5656C57.9414 31.7597 58.0077 31.9465 58.1189 32.1063C58.2301 32.2661 58.3821 32.3931 58.5591 32.4743C58.7361 32.5554 58.9315 32.5876 59.1252 32.5675H62.3232M30.785 36.9562C30.5244 36.9732 30.263 36.9732 30.0025 36.9562C29.6963 36.9562 29.6282 36.9562 29.7303 37.3304C30.3427 39.5759 30.9211 41.8213 31.4994 44.1348C31.4994 44.441 31.7036 44.4751 31.9757 44.407C32.4061 44.3753 32.8382 44.3753 33.2685 44.407C33.6428 44.407 33.7789 44.4069 33.6768 43.8966C33.1325 42.0254 32.6562 40.1203 32.1799 38.215C31.9077 37.1603 31.9077 37.1604 30.785 37.1604" fill="#1D423D"/>
<path d="M43.237 66.045H41.1617C40.8789 66.0624 40.596 66.013 40.3359 65.9007C40.0759 65.7884 39.8459 65.6163 39.6647 65.3986C39.461 65.0624 39.166 64.7912 38.8141 64.6161C38.4739 64.6161 38.1678 64.9564 37.8275 65.1265C36.1821 66.0185 34.2687 66.2826 32.4432 65.8697C30.6177 65.4569 29.0041 64.395 27.9027 62.8818C26.8013 61.3686 26.2869 59.5068 26.4551 57.6427C26.6233 55.7786 27.4628 54.0393 28.8174 52.7477C30.1719 51.4561 31.9495 50.7003 33.8195 50.6209C35.6894 50.5416 37.5246 51.144 38.9837 52.3162C40.4428 53.4884 41.4266 55.1507 41.7521 56.9938C42.0776 58.8369 41.7227 60.7356 40.7534 62.3367C40.7534 62.5749 40.2771 62.8129 40.4812 63.051C40.6854 63.2892 41.0256 63.8677 41.638 63.8677H45.6866C45.9161 63.8556 46.1443 63.91 46.3435 64.0247C46.5428 64.1394 46.7045 64.3095 46.8093 64.5142C46.8827 64.6793 46.9139 64.86 46.8999 65.0401C46.886 65.2203 46.8275 65.3943 46.7296 65.5462C46.6317 65.6981 46.4976 65.8231 46.3392 65.9102C46.1809 65.9973 46.0034 66.0436 45.8226 66.045H43.237ZM37.2491 62.881L36.7728 62.5068C35.7181 61.4521 34.6295 60.3974 33.6088 59.3428C33.4736 59.2511 33.36 59.1311 33.2759 58.991C33.1919 58.851 33.1394 58.6943 33.1221 58.5319C33.1049 58.3695 33.1233 58.2051 33.1761 58.0505C33.2288 57.896 33.3147 57.7549 33.4276 57.6369C33.5406 57.5189 33.6779 57.427 33.8301 57.3676C33.9822 57.3081 34.1455 57.2826 34.3085 57.2928C34.4715 57.303 34.6304 57.3485 34.7739 57.4263C34.9175 57.5042 35.0424 57.6125 35.1398 57.7436C36.2285 58.8323 37.3512 59.921 38.542 61.1458C38.8482 61.452 38.9502 61.452 39.1884 61.1458C39.8128 59.9459 39.974 58.5583 39.6415 57.2471C39.309 55.9359 38.506 54.7928 37.3852 54.0354C36.3043 53.3279 35.0081 53.0252 33.7257 53.1809C32.4432 53.3365 31.2571 53.9404 30.3767 54.8859C29.4576 55.8576 28.9311 57.1354 28.8988 58.4725C28.8665 59.8096 29.3308 61.1114 30.202 62.1264C31.0732 63.1413 32.2894 63.7974 33.616 63.9682C34.9426 64.139 36.2854 63.8122 37.3852 63.051" fill="#1D423D"/>
<path d="M61.1324 68.2564C60.0476 68.2563 58.9873 67.9343 58.0858 67.3309C57.1843 66.7275 56.4823 65.8699 56.0687 64.8671C55.6552 63.8642 55.5487 62.7611 55.7628 61.6976C55.9769 60.6342 56.502 59.6582 57.2714 58.8935C58.0409 58.1288 59.0201 57.6098 60.0848 57.4023C61.1496 57.1948 62.252 57.3083 63.2523 57.7282C64.2525 58.148 65.1056 58.8552 65.7034 59.7605C66.3012 60.6657 66.6167 61.7282 66.61 62.813C66.5922 64.257 66.0083 65.6363 64.9839 66.6543C63.9596 67.6723 62.5766 68.2476 61.1324 68.2564ZM61.1324 59.5127C60.4596 59.5127 59.8018 59.7122 59.2423 60.0861C58.6828 60.4599 58.2468 60.9913 57.9892 61.6129C57.7317 62.2346 57.6643 62.9186 57.7956 63.5786C57.9269 64.2385 58.2509 64.8448 58.7267 65.3206C59.2025 65.7964 59.8088 66.1204 60.4687 66.2517C61.1287 66.383 61.8128 66.3157 62.4344 66.0582C63.0561 65.8006 63.5874 65.3647 63.9612 64.8052C64.3351 64.2457 64.5346 63.5878 64.5346 62.9149C64.5346 62.0126 64.1762 61.1473 63.5382 60.5092C62.9001 59.8712 62.0348 59.5127 61.1324 59.5127Z" fill="#1D423D"/>
<path d="M50.1775 63.8677C50.3234 63.8676 50.4678 63.8968 50.6021 63.9536C50.7365 64.0104 50.858 64.0937 50.9596 64.1984C51.0612 64.3032 51.1406 64.4273 51.1933 64.5633C51.2459 64.6993 51.2708 64.8444 51.2662 64.9902C51.2662 65.2699 51.1551 65.5383 50.9573 65.7361C50.7595 65.9339 50.4912 66.0449 50.2115 66.0449C49.9228 66.0449 49.6458 65.9303 49.4417 65.7261C49.2375 65.522 49.1228 65.2449 49.1228 64.9562C49.1228 64.6674 49.2375 64.3906 49.4417 64.1864C49.6458 63.9822 49.9228 63.8677 50.2115 63.8677" fill="#1D423D"/>
</g>
<defs>
<clipPath id="clip0_69_1903">
<rect width="56.034" height="56" fill="white" transform="translate(20 21)"/>
</clipPath>
</defs>
</svg>
