<svg width="76" height="76" viewBox="0 0 76 76" fill="none" xmlns="http://www.w3.org/2000/svg">
<g clip-path="url(#clip0_1_1993)">
<path d="M65.2414 34.9174C65.2414 34.6159 65.2414 34.3412 65.2414 34.0665C65.2435 30.3818 65.1918 26.6951 65.2662 23.0105C65.3426 19.2907 69.0748 16.8721 72.5178 18.2766C74.5666 19.111 75.7687 20.7055 75.7914 22.9134C75.8554 29.4854 75.8286 36.0575 75.7997 42.6275C75.7914 44.2798 75.1243 45.7318 74.0874 47.004C70.7188 51.1389 67.3646 55.2842 63.9567 59.386C63.019 60.5137 63.1636 61.7798 63.1905 63.0542C63.1925 63.176 63.4941 63.3474 63.682 63.397C65.0452 63.7605 65.8218 64.6032 65.8528 66.0345C65.9065 68.4304 65.9127 70.8283 65.8569 73.2241C65.8176 74.9074 64.6569 75.9793 62.9571 75.9835C57.4941 75.9979 52.0333 75.9979 46.5703 75.9835C44.8168 75.9793 43.749 74.9797 43.7056 73.222C43.6478 70.853 43.6499 68.4799 43.7056 66.1109C43.7449 64.4648 44.4326 63.8204 46.5579 63.2318C46.5579 62.5667 46.5579 61.879 46.5579 61.1891C46.5579 58.8449 46.5579 56.4986 46.5579 54.1544C46.5579 50.794 47.7393 47.9293 50.131 45.5562C53.258 42.4519 56.385 39.3477 59.4728 36.2021C61.0487 34.5952 62.8249 34.0913 64.9481 34.8823C65.0142 34.9071 65.0906 34.8988 65.2455 34.9133L65.2414 34.9174ZM60.7988 63.2772C60.7988 62.922 60.8215 62.639 60.7946 62.3623C60.6129 60.4208 61.2986 58.8346 62.5481 57.3496C65.7639 53.5245 68.8827 49.6188 72.0551 45.7586C72.8833 44.7507 73.4554 43.6395 73.4575 42.3259C73.4761 35.9356 73.4802 29.5453 73.4575 23.155C73.4534 21.6432 72.3381 20.4432 70.9336 20.2883C69.0644 20.0838 67.6125 21.3664 67.6063 23.2769C67.5918 28.4817 67.5959 33.6864 67.6001 38.8912C67.6001 40.2193 67.1746 41.3655 66.2349 42.3074C63.996 44.5504 61.7571 46.7934 59.512 49.0302C58.8924 49.6477 58.1799 49.7097 57.6759 49.2181C57.1595 48.7162 57.2029 48.0037 57.8143 47.3779C58.5888 46.5848 59.3778 45.8082 60.1626 45.0254C61.6373 43.5487 63.1203 42.0802 64.5846 40.5931C65.2683 39.8991 65.3922 39.0564 65.0535 38.1621C64.7457 37.3546 64.091 36.9725 63.2628 36.8981C62.4614 36.8258 61.8418 37.1914 61.2841 37.7552C58.1427 40.9174 55.0012 44.0795 51.8309 47.2106C49.8501 49.1686 48.9145 51.5293 48.9104 54.2866C48.9063 56.7857 48.9104 59.2848 48.9104 61.786C48.9104 62.2693 48.9104 62.7526 48.9104 63.2793H60.8008L60.7988 63.2772ZM54.6955 73.6413C57.2731 73.6413 59.8487 73.6413 62.4263 73.6413C63.1258 73.6413 63.4762 73.2792 63.4776 72.5549C63.4776 70.8014 63.4776 69.05 63.4776 67.2965C63.4776 66.2555 62.9715 65.7825 61.9595 65.8775C61.8831 65.8837 61.8046 65.8837 61.7282 65.8837C56.7857 65.8342 51.8432 65.7949 46.9028 65.7206C46.2605 65.7102 46.0602 65.892 46.0705 66.5405C46.1077 68.6266 46.1118 70.7167 46.0684 72.8028C46.054 73.5153 46.3142 73.664 46.9669 73.6558C49.5424 73.6248 52.12 73.6434 54.6976 73.6434L54.6955 73.6413Z" fill="#1D423D"/>
<path d="M12.6071 63.2524C12.8446 61.565 12.5452 60.1234 11.3803 58.7416C8.09425 54.8401 4.94247 50.825 1.74112 46.8512C0.658859 45.5066 0.0165244 43.9824 0.014459 42.2413C0.00206672 35.8489 -0.012391 29.4545 0.0185898 23.0621C0.0309821 20.373 2.0468 18.2105 4.65951 17.9358C7.423 17.6467 9.81058 19.2886 10.4343 21.9571C10.5665 22.5251 10.5789 23.1323 10.581 23.721C10.5934 27.4325 10.5872 31.1419 10.5872 34.9505C10.8536 34.874 11.0601 34.8162 11.2646 34.7543C13.0119 34.2317 14.6126 34.5147 15.9179 35.7993C19.3671 39.201 22.8101 42.6151 26.187 46.0891C28.1863 48.1462 29.1839 50.7052 29.25 53.5658C29.3181 56.5028 29.2706 59.4439 29.2748 62.3809C29.2748 62.6617 29.2748 62.9447 29.2748 63.2648C29.5329 63.3206 29.7539 63.3702 29.9749 63.4156C31.1233 63.6573 31.9474 64.44 32.0569 65.607C32.1663 66.7843 32.1333 67.9739 32.1457 69.1574C32.1581 70.4462 32.1684 71.735 32.1436 73.0238C32.1044 74.9549 31.0737 75.9856 29.155 75.9897C23.7685 76 18.3819 76 12.9954 75.9897C11.0849 75.9856 9.97581 74.8764 9.96136 72.9598C9.94277 70.82 9.95309 68.6803 9.95722 66.5405C9.96136 64.6342 10.581 63.839 12.4192 63.3536C12.4915 63.3351 12.5534 63.2814 12.6112 63.2504L12.6071 63.2524ZM26.8831 63.2917C26.8831 59.9024 26.9677 56.606 26.8541 53.3138C26.7736 50.9365 25.7306 48.9042 24.0122 47.2312C22.775 46.0251 21.5688 44.792 20.3461 43.5714C18.3406 41.568 16.3393 39.5604 14.3296 37.5611C13.6377 36.8733 12.8054 36.7226 11.9069 37.0489C11.0973 37.3422 10.6946 37.9845 10.612 38.8169C10.5355 39.5831 10.835 40.2089 11.3823 40.7521C13.5778 42.929 15.7775 45.106 17.9275 47.3283C18.2374 47.6485 18.4749 48.2454 18.4191 48.6708C18.289 49.656 17.1303 49.8419 16.3248 49.0426C14.0591 46.7893 11.7995 44.5277 9.54621 42.2619C8.62712 41.3387 8.2223 40.2048 8.22437 38.9057C8.2285 33.7257 8.22643 28.5436 8.2223 23.3637C8.2223 21.9468 7.53453 20.9017 6.34487 20.4515C4.33318 19.6914 2.36487 21.1227 2.36074 23.3802C2.35041 29.4379 2.37313 35.4957 2.34628 41.5514C2.34008 43.1232 2.82958 44.4533 3.8189 45.6657C7.10906 49.6994 10.3558 53.7661 13.6398 57.804C14.592 58.975 15.1104 60.2659 15.0319 61.784C15.0071 62.2838 15.0277 62.7857 15.0277 63.2896H26.8831V63.2917ZM21.0566 73.6434C23.7106 73.6434 26.3646 73.6393 29.0187 73.6475C29.4627 73.6475 29.756 73.5918 29.7519 73.032C29.7333 70.789 29.7374 68.5481 29.7498 66.3051C29.7519 65.8672 29.5825 65.6896 29.155 65.7309C28.5684 65.7867 27.9798 65.8755 27.3932 65.8775C24.8425 65.8941 22.2917 65.9044 19.741 65.8775C17.5041 65.8548 15.2673 65.7991 13.0326 65.7226C12.4543 65.702 12.3407 65.9436 12.3448 66.4476C12.3613 68.5357 12.382 70.6238 12.3365 72.7099C12.32 73.4823 12.6112 73.6641 13.3279 73.6537C15.9035 73.6186 18.4811 73.6393 21.0587 73.6393L21.0566 73.6434Z" fill="#1D423D"/>
<path d="M37.9164 0C49.6973 0 59.26 9.50284 59.2229 21.1681C59.1857 32.8334 49.6601 42.2599 37.9122 42.2599C26.1375 42.2599 16.5665 32.7467 16.6078 21.0876C16.647 9.41816 26.1664 0 37.9164 0ZM19.0077 21.1434C19.0201 31.5054 27.482 39.9053 37.9102 39.9094C48.3404 39.9136 56.8022 31.5219 56.8229 21.1537C56.8435 10.7669 48.3507 2.33802 37.8812 2.35661C27.4448 2.37519 18.9954 10.7875 19.0077 21.1454V21.1434Z" fill="#1D423D"/>
<path d="M59.6277 70.756C59.2662 70.756 58.9048 70.7849 58.5475 70.7498C57.8845 70.6858 57.5169 70.281 57.4941 69.6304C57.4694 68.9715 57.8411 68.5089 58.4752 68.4428C59.2642 68.3602 60.0759 68.3643 60.8669 68.4366C61.4969 68.4944 61.8748 68.9281 61.8872 69.5953C61.8996 70.2293 61.4679 70.6961 60.7884 70.7581C60.4043 70.7932 60.016 70.7643 59.6297 70.7643C59.6297 70.7643 59.6297 70.7601 59.6297 70.7581L59.6277 70.756Z" fill="#1D423D"/>
<path d="M15.9634 70.7519C15.5771 70.7519 15.1868 70.787 14.8067 70.7436C14.1892 70.6713 13.8298 70.2913 13.7906 69.6717C13.7472 69.0087 14.1004 68.5274 14.7303 68.4551C15.5441 68.3622 16.3806 68.3643 17.1964 68.4448C17.8284 68.5068 18.2002 68.9715 18.1754 69.6324C18.1527 70.2871 17.785 70.6899 17.1241 70.7519C16.742 70.789 16.3517 70.7581 15.9654 70.7581V70.7539L15.9634 70.7519Z" fill="#1D423D"/>
<path d="M37.8895 33.5749C35.6754 33.5749 33.4613 33.5852 31.2472 33.5729C28.3185 33.5563 26.3894 31.6252 26.4679 28.7089C26.4948 27.6617 26.6104 26.596 26.8665 25.5819C27.6534 22.4466 29.6817 20.4287 32.7591 19.5282C36.0926 18.5534 39.4778 18.572 42.8258 19.4208C46.7789 20.4225 49.119 23.4876 49.3421 27.7877C49.3813 28.5292 49.4144 29.2975 49.2739 30.0163C48.8546 32.1622 47.1218 33.5357 44.8395 33.5646C42.5222 33.5956 40.2069 33.5708 37.8895 33.5708V33.5749ZM31.3484 31.1047C31.3484 30.4273 31.3278 29.7849 31.3546 29.1467C31.3877 28.3578 31.842 27.8786 32.5154 27.8683C33.2155 27.8579 33.6988 28.3701 33.7236 29.1839C33.7422 29.82 33.7277 30.4582 33.7277 31.1316H42.1648C42.2062 31.0386 42.2433 30.9932 42.2433 30.9477C42.2537 30.4066 42.2537 29.8655 42.2619 29.3264C42.2784 28.3949 42.739 27.8476 43.4867 27.8683C44.2013 27.8868 44.6247 28.4073 44.6433 29.312C44.6557 29.9171 44.6454 30.5223 44.6454 31.1212C46.1304 31.1646 46.9958 30.3901 47.0144 29.0559C47.0226 28.3639 46.9648 27.6638 46.8615 26.9801C46.4381 24.2043 44.8994 22.3867 42.1483 21.6948C39.5088 21.0318 36.8403 21.0194 34.1883 21.5915C32.1085 22.0418 30.3033 23.0249 29.5557 25.1378C29.1095 26.3977 28.9216 27.7836 28.841 29.124C28.7667 30.4025 29.882 31.2286 31.3484 31.1047Z" fill="#1D423D"/>
<path d="M43.6746 11.6323C43.6726 14.9204 41.126 17.5393 37.9246 17.5475C34.6964 17.5537 32.1291 14.9018 32.1519 11.5786C32.1746 8.2884 34.7336 5.69221 37.9391 5.70666C41.1425 5.72112 43.6746 8.33797 43.6726 11.6323H43.6746ZM41.316 11.5971C41.3036 9.63916 39.7628 8.05294 37.8874 8.06533C36.0162 8.07773 34.5043 9.68666 34.5147 11.6508C34.525 13.6088 36.0637 15.193 37.9432 15.1806C39.8144 15.1682 41.3304 13.5593 41.318 11.5951L41.316 11.5971Z" fill="#1D423D"/>
</g>
<defs>
<clipPath id="clip0_1_1993">
<rect width="75.8306" height="76" fill="white"/>
</clipPath>
</defs>
</svg>
