<svg width="8" height="12" viewBox="0 0 8 12" fill="none" xmlns="http://www.w3.org/2000/svg">
<g clip-path="url(#clip0_20_7)">
<path d="M7.90454 3.11377L7.51818 4.43195H0.154541L0.540904 3.11377H7.90454ZM4.45 12.0001L0.290904 6.90922L0.268177 5.95468H2.33636C2.87424 5.95468 3.33257 5.87892 3.71136 5.72741C4.09015 5.5721 4.37992 5.34105 4.58068 5.03422C4.78144 4.72362 4.88181 4.33347 4.88181 3.86377C4.88181 3.17059 4.67348 2.62703 4.25681 2.23309C3.84015 1.83536 3.2 1.63649 2.33636 1.63649H0.154541L0.540904 0.36377H2.33636C3.2606 0.36377 4.01818 0.517178 4.60908 0.823998C5.20378 1.12703 5.64318 1.54369 5.92727 2.074C6.21515 2.60051 6.35908 3.1971 6.35908 3.86377C6.35908 4.46605 6.22651 5.02097 5.96136 5.52854C5.7 6.03233 5.27954 6.43763 4.7 6.74445C4.12424 7.05127 3.36288 7.20468 2.41591 7.20468H2.38181L6.22272 11.9093V12.0001H4.45ZM7.90454 0.36377L7.51818 1.68195L1.72272 1.63649L2.10908 0.36377H7.90454Z" fill="white"/>
</g>
<defs>
<clipPath id="clip0_20_7">
<rect width="8" height="12" fill="white"/>
</clipPath>
</defs>
</svg>
