<svg width="72" height="76" viewBox="0 0 72 76" fill="none" xmlns="http://www.w3.org/2000/svg">
<g clip-path="url(#clip0_1_1990)">
<path d="M36.5121 76C35.6953 75.6233 35.4178 74.9849 35.4237 74.0928C35.4515 69.1226 35.4356 64.1524 35.4396 59.1803C35.4396 58.8056 35.4297 58.5102 35.0312 58.2524C29.7656 54.8405 28.477 48.6769 31.8968 43.3895C31.9504 43.3082 31.988 43.217 31.9821 43.2289C31.5023 42.2555 30.971 41.3812 30.63 40.4375C30.289 39.4958 30.1383 38.4867 29.8866 37.4359C28.7466 37.4359 27.563 37.434 26.3795 37.4359C24.0322 37.4419 22.0397 36.6727 20.2515 35.0827C18.0568 33.1319 15.6917 31.3714 13.3146 29.4603C12.7774 30.289 11.9388 30.1839 11.1299 30.1819C10.1168 30.1779 9.10179 30.1958 8.08872 30.174C7.11728 30.1522 6.54433 29.6169 6.51856 28.7624C6.49081 27.8643 7.05979 27.2676 8.04907 27.226C8.83811 27.1923 9.62914 27.22 10.4757 27.22V8.68342H2.97381C2.97381 8.95304 2.97381 9.21672 2.97381 9.4804C2.97381 13.5862 2.98571 17.69 2.95795 21.7958C2.95597 22.2379 2.82512 22.7375 2.59118 23.1063C2.25614 23.6336 1.65543 23.7466 1.06662 23.5722C0.442129 23.3878 0.071397 22.9259 0.021834 22.2697C-0.015834 21.7522 0.0059738 21.2308 0.0059738 20.7114C0.0059738 16.334 0.0059738 11.9566 0.0059738 7.57916C0.0059738 6.15174 0.495657 5.66007 1.92307 5.66007C5.16252 5.65809 8.40196 5.64421 11.6414 5.66602C12.9935 5.67594 14.2147 5.33494 15.3666 4.62916C20.2892 1.60978 25.6796 0.0971167 31.4171 0.0495361C41.7539 -0.0376949 52.0908 0.0158332 62.4277 0.0257458C65.1655 0.0277284 67.3364 1.88535 67.7805 4.53995C68.1968 7.02405 66.7159 9.47048 64.2397 10.3864C64.0851 10.4439 63.9344 10.5133 63.6866 10.6184C65.1437 11.1675 66.5077 11.6671 67.8618 12.1925C70.4847 13.2115 72.0905 15.759 71.805 18.4255C71.5136 21.1436 69.4855 23.3025 66.6465 23.6416C65.6136 23.7645 64.4637 23.5761 63.4665 23.2351C58.4706 21.5183 53.5103 19.7043 48.5361 17.924C48.3121 17.8427 48.0821 17.7733 47.8105 17.6821C47.8105 19.3157 47.9652 20.9116 47.7689 22.4639C47.5409 24.2641 47.0195 26.0265 46.5913 27.7969C46.5041 28.1577 46.4386 28.3798 46.7975 28.6692C51.2165 32.2378 52.1166 38.1715 48.9763 42.874C48.9227 42.9553 48.8791 43.0425 48.8434 43.104C51.3414 46.847 51.4842 50.6851 49.4164 54.6165C48.7027 55.9725 47.6777 57.0808 46.3831 57.9075C46.0104 58.1454 45.7963 58.3952 45.8697 58.8531C46.2106 61.0121 45.4513 62.7766 43.8851 64.2278C43.4014 64.6778 43.4212 65.0465 43.8673 65.5164C44.2916 65.9625 44.6484 66.474 45.0152 66.9716C45.7249 67.9331 45.834 68.9759 45.3046 70.0445C44.472 71.7257 43.6254 73.4029 42.7393 75.0563C42.543 75.4231 42.1524 75.6887 41.8511 76H36.5082H36.5121ZM43.8138 26.9206C45.3086 22.1388 45.7646 17.3887 43.1536 12.7615C42.5985 11.7781 42.7353 10.9058 43.5303 10.4459C44.3312 9.98197 45.1758 10.2774 45.719 11.2964C46.1373 12.0775 46.4386 12.9201 46.8431 13.7091C46.9838 13.9807 47.2396 14.286 47.5132 14.3852C53.2446 16.4589 58.984 18.5167 64.7334 20.5429C65.2468 20.7233 65.8594 20.7907 66.3947 20.7094C67.7547 20.5032 68.7341 19.4029 68.853 18.1083C68.9839 16.6968 68.177 15.4815 66.704 14.9264C57.5566 11.4847 48.4093 8.04307 39.2579 4.61529C36.6549 3.63988 33.9963 2.89842 31.1752 2.99755C27.8921 3.11452 24.6626 3.62799 21.6293 4.89284C18.8935 6.03477 16.2567 7.41857 13.5109 8.72902C13.5129 8.6973 13.501 8.79643 13.501 8.89357C13.501 14.3574 13.4911 19.8232 13.5208 25.287C13.5208 25.5904 13.7488 25.9809 13.9947 26.1812C16.9149 28.584 19.857 30.961 22.7971 33.3381C23.6892 34.0597 24.7102 34.4622 25.866 34.4641C28.8834 34.4701 31.8988 34.4681 34.9162 34.4641C35.059 34.4641 35.2017 34.4265 35.3385 34.4067C35.3801 32.0534 33.463 29.7755 31.0662 29.4127C30.0967 29.266 29.0955 29.2878 28.1102 29.2917C27.4659 29.2937 26.9762 29.0796 26.542 28.6137C25.7173 27.7275 24.8728 26.8572 24.0143 26.0008C22.6543 24.6407 21.8811 23.0131 21.5976 21.1119C21.0128 17.2023 23.1182 13.4137 26.7799 11.8693C30.5705 10.2694 34.7695 11.338 37.1803 14.4843C39.0478 16.9208 39.248 19.7221 38.9368 22.6007C38.7881 23.9786 38.3817 25.3287 38.0982 26.657C38.9586 26.5995 39.8923 26.4587 40.8162 26.4984C41.7698 26.54 42.7174 26.7581 43.8138 26.9206ZM44.5255 43.1198C44.2698 42.9712 44.0675 42.8403 43.8554 42.7293C40.1818 40.8181 35.6775 42.2773 33.7782 45.9886C31.9107 49.6364 33.3659 54.1486 37.0692 55.9864C38.0526 56.4741 38.4273 57.1204 38.4193 58.1949C38.3836 62.844 38.4035 67.493 38.4035 72.142C38.4035 72.4255 38.4035 72.709 38.4035 73.0321C38.9388 73.0321 39.361 72.9984 39.7734 73.0401C40.2869 73.0936 40.5862 72.9172 40.7884 72.4334C41.0363 71.8426 41.2841 71.2261 41.6667 70.7245C42.7234 69.3328 42.6084 68.1214 41.2821 67.0033C41.1909 66.926 41.1294 66.809 41.0561 66.7099C40.1164 65.4371 39.9994 64.091 41.1175 63.0065C42.6798 61.4879 43.1655 59.7492 42.9157 57.6775C42.8166 56.8488 43.217 56.2798 43.9803 55.9111C45.0707 55.3817 45.9192 54.555 46.5913 53.5499C48.2745 51.0321 48.3042 47.4417 46.6329 45.2986C44.8863 46.5516 42.9335 47.2475 40.7785 47.3367C39.704 47.3803 39.0002 46.8272 38.9506 45.933C38.9011 45.0429 39.5632 44.4323 40.6318 44.3768C42.0136 44.3054 43.3043 43.9466 44.5255 43.1218V43.1198ZM34.1787 27.4123C35.7806 24.9917 36.2465 22.3648 36.0383 19.5833C35.8361 16.8812 34.0776 14.7975 31.5083 14.2087C29.1491 13.6675 26.4191 14.8729 25.2237 16.9823C23.943 19.2404 24.3176 22.008 26.1654 23.9389C26.7799 24.5813 27.3688 25.2533 28.0289 25.8441C28.3065 26.092 28.7407 26.2922 29.1035 26.2902C30.8838 26.2803 32.6026 26.4865 34.1807 27.4123H34.1787ZM43.7325 2.98962C43.7186 3.02729 43.7067 3.06297 43.6928 3.10064C43.7741 3.14029 43.8534 3.18589 43.9387 3.21959C47.8185 4.67476 51.6983 6.12993 55.5801 7.58114C55.7406 7.64062 55.9111 7.71 56.0777 7.71C58.2763 7.71595 60.4769 7.75957 62.6755 7.6882C63.984 7.64656 64.9039 6.5304 64.8622 5.25168C64.8226 4.02449 63.8293 3.00151 62.5605 2.99755C56.2838 2.9797 50.0092 2.98962 43.7325 2.98962ZM46.6646 40.9351C48.7522 37.8741 48.0623 33.3916 45.1659 31.2188C44.5275 32.4777 43.6651 33.5343 42.4339 34.252C41.1929 34.9737 39.8507 35.1362 38.4233 34.8765C38.4055 35.1025 38.3876 35.2472 38.3836 35.392C38.3361 37.0434 37.9376 37.4359 36.2961 37.4359C35.2156 37.4359 34.1331 37.4359 32.8147 37.4359C33.2529 38.7246 33.6395 39.8665 34.0439 41.06C38.338 38.227 42.4756 38.225 46.6646 40.9351ZM37.208 30.1819C37.6838 31.4111 38.7346 32.1049 39.8725 32.0078C41.2008 31.8928 42.1881 31.0225 42.43 29.7338C40.6457 29.2283 38.9269 29.3829 37.208 30.1819Z" fill="#1D423D"/>
<path d="M1.47896 30.1621C0.670094 30.1621 0.0297396 29.5277 0.0138795 28.7089C1.79616e-06 27.9357 0.683972 27.2359 1.4631 27.224C2.28189 27.2121 2.98766 27.9219 2.96586 28.7327C2.94405 29.5475 2.30369 30.1621 1.47698 30.1601L1.47896 30.1621Z" fill="#1D423D"/>
</g>
<defs>
<clipPath id="clip0_1_1990">
<rect width="71.8407" height="76" fill="white"/>
</clipPath>
</defs>
</svg>
