<svg width="16" height="125" viewBox="0 0 16 125" fill="none" xmlns="http://www.w3.org/2000/svg">
<path d="M12.13 50.645C12.13 51.347 12.013 52.0187 11.779 52.66C11.5363 53.3013 11.168 53.895 10.674 54.441L9.53 53.479C9.91133 53.037 10.206 52.5907 10.414 52.14C10.6133 51.6807 10.713 51.1693 10.713 50.606C10.713 50.112 10.609 49.722 10.401 49.436C10.1843 49.1413 9.907 48.994 9.569 48.994L9.543 48.994C9.37833 48.994 9.23533 49.0243 9.114 49.085C8.984 49.137 8.86267 49.241 8.75 49.397C8.63733 49.5443 8.53333 49.7523 8.438 50.021C8.34267 50.281 8.24733 50.6233 8.152 51.048C8.03933 51.5333 7.91367 51.9667 7.775 52.348C7.62767 52.7207 7.45433 53.037 7.255 53.297C7.047 53.5483 6.79567 53.7433 6.501 53.882C6.20633 54.012 5.851 54.077 5.435 54.077L5.409 54.077C5.019 54.077 4.66367 53.999 4.343 53.843C4.01367 53.687 3.73633 53.4747 3.511 53.206C3.277 52.9287 3.095 52.5993 2.965 52.218C2.835 51.8367 2.77 51.4207 2.77 50.97C2.77 50.3027 2.86967 49.7047 3.069 49.176C3.25967 48.6387 3.54133 48.136 3.914 47.668L5.123 48.526C4.81967 48.942 4.59 49.3537 4.434 49.761C4.26933 50.1683 4.187 50.58 4.187 50.996C4.187 51.464 4.291 51.828 4.499 52.088C4.707 52.348 4.96267 52.478 5.266 52.478L5.292 52.478C5.46533 52.478 5.62133 52.4477 5.76 52.387C5.89 52.3263 6.01133 52.2137 6.124 52.049C6.228 51.8843 6.32767 51.6633 6.423 51.386C6.51833 51.1087 6.618 50.749 6.722 50.307C6.84333 49.8303 6.97767 49.41 7.125 49.046C7.27233 48.682 7.45433 48.3787 7.671 48.136C7.879 47.8847 8.126 47.6983 8.412 47.577C8.68933 47.4557 9.01433 47.395 9.387 47.395L9.413 47.395C9.83767 47.395 10.219 47.4773 10.557 47.642C10.895 47.798 11.181 48.019 11.415 48.305C11.649 48.591 11.8267 48.9333 11.948 49.332C12.0693 49.7307 12.13 50.1683 12.13 50.645ZM12.156 41.2896C12.156 41.9569 12.0347 42.5722 11.792 43.1356C11.5493 43.6989 11.22 44.1886 10.804 44.6046C10.3793 45.0119 9.881 45.3326 9.309 45.5666C8.737 45.8006 8.126 45.9176 7.476 45.9176L7.45 45.9176C6.8 45.9176 6.19333 45.8049 5.63 45.5796C5.058 45.3456 4.55967 45.0206 4.135 44.6046C3.70167 44.1886 3.36367 43.6946 3.121 43.1226C2.86967 42.5506 2.744 41.9179 2.744 41.2246C2.744 40.8086 2.77867 40.4316 2.848 40.0936C2.91733 39.7469 3.017 39.4306 3.147 39.1446C3.26833 38.8586 3.41567 38.5942 3.589 38.3516C3.76233 38.1089 3.953 37.8792 4.161 37.6626L5.344 38.6896C5.006 39.0536 4.733 39.4392 4.525 39.8466C4.317 40.2539 4.213 40.7176 4.213 41.2376C4.213 41.6709 4.29967 42.0739 4.473 42.4466C4.63767 42.8106 4.86733 43.1269 5.162 43.3956C5.448 43.6556 5.786 43.8636 6.176 44.0196C6.566 44.1669 6.982 44.2406 7.424 44.2406L7.45 44.2406C7.892 44.2406 8.31233 44.1669 8.711 44.0196C9.101 43.8722 9.44333 43.6642 9.738 43.3956C10.024 43.1269 10.2537 42.8106 10.427 42.4466C10.5917 42.0739 10.674 41.6709 10.674 41.2376C10.674 40.6829 10.57 40.2062 10.362 39.8076C10.154 39.4089 9.868 39.0146 9.504 38.6246L10.544 37.5976C10.7953 37.8316 11.0207 38.0786 11.22 38.3386C11.4107 38.5899 11.5797 38.8629 11.727 39.1576C11.8657 39.4522 11.9697 39.7772 12.039 40.1326C12.117 40.4792 12.156 40.8649 12.156 41.2896ZM2.9 35.9169L2.9 31.8609C2.9 31.2889 2.98233 30.7819 3.147 30.3399C3.303 29.8979 3.524 29.5296 3.81 29.2349C4.06133 28.9922 4.35167 28.8059 4.681 28.6759C5.01033 28.5459 5.37433 28.4809 5.773 28.4809L5.799 28.4809C6.54433 28.4809 7.14667 28.6846 7.606 29.0919C8.05667 29.4906 8.373 30.0062 8.555 30.6389L12 28.1819L12 30.0799L8.828 32.3159L8.828 34.3179L12 34.3179L12 35.9169L2.9 35.9169ZM7.411 31.9779C7.411 31.4059 7.27667 30.9509 7.008 30.6129C6.73067 30.2749 6.358 30.1059 5.89 30.1059L5.864 30.1059C5.37 30.1059 4.99733 30.2706 4.746 30.5999C4.486 30.9292 4.356 31.3929 4.356 31.9909L4.356 34.3179L7.411 34.3179L7.411 31.9779ZM12.156 22.1804C12.156 22.8824 12.0347 23.5237 11.792 24.1044C11.5407 24.685 11.2027 25.1834 10.778 25.5994C10.3533 26.0154 9.85933 26.3404 9.296 26.5744C8.724 26.8084 8.11733 26.9254 7.476 26.9254L7.45 26.9254C6.80867 26.9254 6.20633 26.8084 5.643 26.5744C5.071 26.3404 4.57267 26.011 4.148 25.5864C3.71466 25.1617 3.37233 24.659 3.121 24.0784C2.86967 23.4977 2.744 22.8564 2.744 22.1544C2.744 21.4524 2.86966 20.811 3.121 20.2304C3.36366 19.6497 3.69733 19.1514 4.122 18.7354C4.54666 18.3194 5.045 17.9944 5.617 17.7604C6.18033 17.5264 6.78266 17.4094 7.424 17.4094L7.45 17.4094C8.09133 17.4094 8.698 17.5264 9.27 17.7604C9.83333 17.9944 10.3317 18.3237 10.765 18.7484C11.1897 19.173 11.5277 19.6757 11.779 20.2564C12.0303 20.837 12.156 21.4784 12.156 22.1804ZM10.674 22.1544C10.674 21.7037 10.5917 21.292 10.427 20.9194C10.2537 20.538 10.024 20.213 9.738 19.9444C9.452 19.6757 9.114 19.4677 8.724 19.3204C8.334 19.1644 7.918 19.0864 7.476 19.0864L7.45 19.0864C7.008 19.0864 6.592 19.1644 6.202 19.3204C5.80333 19.4677 5.461 19.68 5.175 19.9574C4.88033 20.226 4.64633 20.551 4.473 20.9324C4.29966 21.3137 4.213 21.7297 4.213 22.1804C4.213 22.631 4.29966 23.047 4.473 23.4284C4.63767 23.801 4.86733 24.1217 5.162 24.3904C5.448 24.659 5.786 24.8714 6.176 25.0274C6.566 25.1747 6.982 25.2484 7.424 25.2484L7.45 25.2484C7.892 25.2484 8.308 25.1747 8.698 25.0274C9.088 24.8714 9.43033 24.659 9.725 24.3904C10.0197 24.113 10.2537 23.7837 10.427 23.4024C10.5917 23.021 10.674 22.605 10.674 22.1544ZM2.9 15.4775L2.9 13.8785L10.544 13.8785L10.544 9.09446L12 9.09446L12 15.4775L2.9 15.4775ZM2.9 7.42863L2.9 5.82963L10.544 5.82963L10.544 1.04563L12 1.04563L12 7.42863L2.9 7.42863Z" fill="white"/>
<line x1="8.5" y1="85" x2="8.5" y2="125" stroke="white" stroke-width="3"/>
</svg>
