<?xml version="1.0" encoding="UTF-8"?>
<svg id="Layer_1" xmlns="http://www.w3.org/2000/svg" version="1.1" viewBox="0 0 628 523">
  <!-- Generator: Adobe Illustrator 29.5.0, SVG Export Plug-In . SVG Version: 2.1.0 Build 137)  -->
  <defs>
    <style>
      .st0 {
        opacity: .15;
      }

      .st1 {
        fill: #d5c4a4;
      }
    </style>
  </defs>
  <g class="st0">
    <g>
      <polygon class="st1" points="70.37 71.12 70.37 78.78 70.37 78.79 61.75 74.95 53.13 71.12 44.51 67.28 35.89 63.45 35.89 55.78 53.13 63.45 61.75 67.28 70.37 71.12 70.37 71.12"/>
      <polygon class="st1" points="70.37 25.11 70.37 32.77 70.37 32.78 61.75 28.94 53.13 25.11 35.89 17.44 27.27 21.27 18.65 25.11 10.04 28.94 1.42 32.78 1.38 32.76 1.38 25.12 1.42 25.11 10.04 21.27 18.65 17.44 27.27 13.6 35.89 9.77 44.51 13.6 53.13 17.44 61.75 21.27 70.37 25.11 70.37 25.11"/>
      <polygon class="st1" points="35.89 25.11 35.89 32.78 27.27 36.61 18.65 40.45 18.65 40.45 10.04 44.28 1.42 48.11 1.38 48.1 1.38 40.46 1.42 40.44 1.42 40.44 10.04 36.61 18.65 32.78 18.65 32.78 27.27 28.94 27.27 28.94 35.89 25.11"/>
      <polygon class="st1" points="70.37 55.78 70.37 63.45 70.37 63.45 61.75 59.62 53.13 55.78 44.51 51.95 35.89 48.11 27.27 51.95 18.65 55.78 10.04 59.62 1.42 63.45 1.38 63.43 1.38 55.8 1.42 55.78 1.42 55.78 10.04 51.95 18.65 48.11 27.27 44.28 27.27 44.28 35.89 40.44 44.51 44.28 53.13 48.11 61.75 51.95 70.37 55.78 70.37 55.78 70.37 55.78"/>
      <polygon class="st1" points="70.37 86.46 70.37 94.13 61.75 90.29 53.13 86.46 44.51 82.62 35.89 78.79 27.27 82.62 18.65 86.46 10.04 90.29 1.38 94.14 1.38 86.47 1.42 86.46 10.04 82.62 18.65 78.79 27.27 74.95 35.89 71.12 35.89 71.12 53.13 78.79 61.75 82.62 70.37 86.46 70.37 86.46"/>
    </g>
  </g>
  <g class="st0">
    <g>
      <polygon class="st1" points="165.51 71.12 165.51 78.78 165.51 78.79 156.89 74.95 148.27 71.12 139.65 67.28 131.03 63.45 131.03 55.78 148.27 63.45 156.89 67.28 165.51 71.12 165.51 71.12"/>
      <polygon class="st1" points="165.51 25.11 165.51 32.77 165.51 32.78 156.89 28.94 148.27 25.11 131.03 17.44 122.41 21.27 113.8 25.11 105.18 28.94 96.56 32.78 96.52 32.76 96.52 25.12 96.56 25.11 105.18 21.27 113.8 17.44 122.41 13.6 131.03 9.77 139.65 13.6 148.27 17.44 156.89 21.27 165.51 25.11 165.51 25.11"/>
      <polygon class="st1" points="131.03 25.11 131.03 32.78 122.42 36.61 113.8 40.45 113.8 40.45 105.18 44.28 96.56 48.11 96.52 48.1 96.52 40.46 96.56 40.44 96.56 40.44 105.18 36.61 113.8 32.78 113.8 32.78 122.41 28.94 122.41 28.94 131.03 25.11"/>
      <polygon class="st1" points="165.51 55.78 165.51 63.45 165.51 63.45 156.89 59.62 148.27 55.78 139.65 51.95 131.03 48.11 122.41 51.95 113.8 55.78 105.18 59.62 96.56 63.45 96.52 63.43 96.52 55.8 96.56 55.78 96.56 55.78 105.18 51.95 113.8 48.11 122.41 44.28 122.41 44.28 131.03 40.44 139.65 44.28 148.27 48.11 156.89 51.95 165.51 55.78 165.51 55.78 165.51 55.78"/>
      <polygon class="st1" points="165.51 86.46 165.51 94.13 156.89 90.29 148.27 86.46 139.65 82.62 131.03 78.79 122.41 82.62 113.8 86.46 105.18 90.29 96.52 94.14 96.52 86.47 96.56 86.46 105.18 82.62 113.8 78.79 122.41 74.95 131.03 71.12 131.03 71.12 148.27 78.79 156.89 82.62 165.51 86.46 165.51 86.46"/>
    </g>
  </g>
  <g class="st0">
    <g>
      <polygon class="st1" points="70.37 292.15 70.37 299.81 70.37 299.82 61.75 295.98 53.13 292.15 44.51 288.31 35.89 284.48 35.89 276.81 53.13 284.48 61.75 288.31 70.37 292.15 70.37 292.15"/>
      <polygon class="st1" points="70.37 246.14 70.37 253.8 70.37 253.81 61.75 249.97 53.13 246.14 35.89 238.47 27.27 242.3 18.65 246.14 10.04 249.97 1.42 253.81 1.38 253.79 1.38 246.15 1.42 246.14 10.04 242.3 18.65 238.47 27.27 234.63 35.89 230.8 44.51 234.63 53.13 238.47 61.75 242.3 70.37 246.14 70.37 246.14"/>
      <polygon class="st1" points="35.89 246.14 35.89 253.81 27.27 257.64 18.65 261.48 18.65 261.48 10.04 265.31 1.42 269.14 1.38 269.13 1.38 261.49 1.42 261.47 1.42 261.47 10.04 257.64 18.65 253.81 18.65 253.81 27.27 249.97 27.27 249.97 35.89 246.14"/>
      <polygon class="st1" points="70.37 276.81 70.37 284.48 70.37 284.48 61.75 280.65 53.13 276.81 44.51 272.98 35.89 269.14 27.27 272.98 18.65 276.81 10.04 280.65 1.42 284.48 1.38 284.46 1.38 276.83 1.42 276.81 1.42 276.81 10.04 272.98 18.65 269.14 27.27 265.31 27.27 265.31 35.89 261.47 44.51 265.31 53.13 269.14 61.75 272.98 70.37 276.81 70.37 276.81 70.37 276.81"/>
      <polygon class="st1" points="70.37 307.49 70.37 315.16 61.75 311.32 53.13 307.49 44.51 303.65 35.89 299.82 27.27 303.65 18.65 307.49 10.04 311.32 1.38 315.17 1.38 307.5 1.42 307.49 10.04 303.65 18.65 299.82 27.27 295.98 35.89 292.15 35.89 292.15 53.13 299.82 61.75 303.65 70.37 307.49 70.37 307.49"/>
    </g>
  </g>
  <g class="st0">
    <g>
      <polygon class="st1" points="70.37 185.47 70.37 193.13 70.37 193.13 61.75 189.3 53.13 185.47 44.51 181.63 35.89 177.8 35.89 170.13 53.13 177.8 61.75 181.63 70.37 185.47 70.37 185.47"/>
      <polygon class="st1" points="70.37 139.46 70.37 147.12 70.37 147.12 61.75 143.29 53.13 139.45 35.89 131.79 27.27 135.62 18.65 139.45 10.04 143.29 1.42 147.12 1.38 147.11 1.38 139.47 1.42 139.45 10.04 135.62 18.65 131.79 27.27 127.95 35.89 124.12 44.51 127.95 53.13 131.79 61.75 135.62 70.37 139.45 70.37 139.46"/>
      <polygon class="st1" points="35.89 139.45 35.89 147.12 27.27 150.96 18.65 154.79 18.65 154.79 10.04 158.63 1.42 162.46 1.38 162.44 1.38 154.81 1.42 154.79 1.42 154.79 10.04 150.96 18.65 147.12 18.65 147.12 27.27 143.29 27.27 143.29 35.89 139.45"/>
      <polygon class="st1" points="70.37 170.13 70.37 177.79 70.37 177.8 61.75 173.96 53.13 170.13 44.51 166.29 35.89 162.46 27.27 166.29 18.65 170.13 10.04 173.96 1.42 177.8 1.38 177.78 1.38 170.14 1.42 170.13 1.42 170.13 10.04 166.29 18.65 162.46 27.27 158.63 27.27 158.63 35.89 154.79 44.51 158.63 53.13 162.46 61.75 166.29 70.37 170.13 70.37 170.13 70.37 170.13"/>
      <polygon class="st1" points="70.37 200.8 70.37 208.47 61.75 204.64 53.13 200.8 44.51 196.97 35.89 193.13 27.27 196.97 18.65 200.8 10.04 204.64 1.38 208.49 1.38 200.82 1.42 200.8 10.04 196.97 18.65 193.13 27.27 189.3 35.89 185.47 35.89 185.47 53.13 193.13 61.75 196.97 70.37 200.8 70.37 200.8"/>
    </g>
  </g>
  <g class="st0">
    <g>
      <polygon class="st1" points="165.51 292.15 165.51 299.81 165.51 299.82 156.89 295.98 148.27 292.15 139.65 288.31 131.03 284.48 131.03 276.81 148.27 284.48 156.89 288.31 165.51 292.15 165.51 292.15"/>
      <polygon class="st1" points="165.51 246.14 165.51 253.8 165.51 253.81 156.89 249.97 148.27 246.14 131.03 238.47 122.41 242.3 113.8 246.14 105.18 249.97 96.56 253.81 96.52 253.79 96.52 246.15 96.56 246.14 105.18 242.3 113.8 238.47 122.41 234.63 131.03 230.8 139.65 234.63 148.27 238.47 156.89 242.3 165.51 246.14 165.51 246.14"/>
      <polygon class="st1" points="131.03 246.14 131.03 253.81 122.42 257.64 113.8 261.48 113.8 261.48 105.18 265.31 96.56 269.14 96.52 269.13 96.52 261.49 96.56 261.47 96.56 261.47 105.18 257.64 113.8 253.81 113.8 253.81 122.41 249.97 122.41 249.97 131.03 246.14"/>
      <polygon class="st1" points="165.51 276.81 165.51 284.48 165.51 284.48 156.89 280.65 148.27 276.81 139.65 272.98 131.03 269.14 122.41 272.98 113.8 276.81 105.18 280.65 96.56 284.48 96.52 284.46 96.52 276.83 96.56 276.81 96.56 276.81 105.18 272.98 113.8 269.14 122.41 265.31 122.41 265.31 131.03 261.47 139.65 265.31 148.27 269.14 156.89 272.98 165.51 276.81 165.51 276.81 165.51 276.81"/>
      <polygon class="st1" points="165.51 307.49 165.51 315.16 156.89 311.32 148.27 307.49 139.65 303.65 131.03 299.82 122.41 303.65 113.8 307.49 105.18 311.32 96.52 315.17 96.52 307.5 96.56 307.49 105.18 303.65 113.8 299.82 122.41 295.98 131.03 292.15 131.03 292.15 148.27 299.82 156.89 303.65 165.51 307.49 165.51 307.49"/>
    </g>
  </g>
  <g class="st0">
    <g>
      <polygon class="st1" points="165.51 181.64 165.51 189.3 165.51 189.31 156.89 185.47 148.27 181.64 139.65 177.8 131.03 173.97 131.03 166.3 148.27 173.97 156.89 177.8 165.51 181.64 165.51 181.64"/>
      <polygon class="st1" points="165.51 135.63 165.51 143.29 165.51 143.3 156.89 139.46 148.27 135.63 131.03 127.96 122.41 131.79 113.8 135.63 105.18 139.46 96.56 143.3 96.52 143.28 96.52 135.64 96.56 135.63 105.18 131.79 113.8 127.96 122.41 124.12 131.03 120.29 139.65 124.12 148.27 127.96 156.89 131.79 165.51 135.63 165.51 135.63"/>
      <polygon class="st1" points="131.03 135.63 131.03 143.3 122.42 147.13 113.8 150.96 113.8 150.96 105.18 154.8 96.56 158.63 96.52 158.62 96.52 150.98 96.56 150.96 96.56 150.96 105.18 147.13 113.8 143.3 113.8 143.3 122.41 139.46 122.41 139.46 131.03 135.63"/>
      <polygon class="st1" points="165.51 166.3 165.51 173.97 165.51 173.97 156.89 170.14 148.27 166.3 139.65 162.47 131.03 158.63 122.41 162.47 113.8 166.3 105.18 170.14 96.56 173.97 96.52 173.95 96.52 166.32 96.56 166.3 96.56 166.3 105.18 162.47 113.8 158.63 122.41 154.8 122.41 154.8 131.03 150.96 139.65 154.8 148.27 158.63 156.89 162.47 165.51 166.3 165.51 166.3 165.51 166.3"/>
      <polygon class="st1" points="165.51 196.98 165.51 204.65 156.89 200.81 148.27 196.98 139.65 193.14 131.03 189.31 122.41 193.14 113.8 196.98 105.18 200.81 96.52 204.66 96.52 196.99 96.56 196.98 105.18 193.14 113.8 189.31 122.41 185.47 131.03 181.64 131.03 181.64 148.27 189.31 156.89 193.14 165.51 196.98 165.51 196.98"/>
    </g>
  </g>
  <g class="st0">
    <g>
      <polygon class="st1" points="70.37 402.68 70.37 410.34 70.37 410.35 61.75 406.51 53.13 402.68 44.51 398.84 35.89 395.01 35.89 387.34 53.13 395.01 61.75 398.84 70.37 402.68 70.37 402.68"/>
      <polygon class="st1" points="70.37 356.67 70.37 364.33 70.37 364.33 61.75 360.5 53.13 356.67 35.89 349 27.27 352.83 18.65 356.67 10.04 360.5 1.42 364.33 1.38 364.32 1.38 356.68 1.42 356.67 10.04 352.83 18.65 349 27.27 345.16 35.89 341.33 44.51 345.16 53.13 349 61.75 352.83 70.37 356.67 70.37 356.67"/>
      <polygon class="st1" points="35.89 356.67 35.89 364.33 27.27 368.17 18.65 372 18.65 372 10.04 375.84 1.42 379.67 1.38 379.65 1.38 372.02 1.42 372 1.42 372 10.04 368.17 18.65 364.33 18.65 364.33 27.27 360.5 27.27 360.5 35.89 356.67"/>
      <polygon class="st1" points="70.37 387.34 70.37 395.01 70.37 395.01 61.75 391.17 53.13 387.34 44.51 383.51 35.89 379.67 27.27 383.51 18.65 387.34 10.04 391.17 1.42 395.01 1.38 394.99 1.38 387.36 1.42 387.34 1.42 387.34 10.04 383.51 18.65 379.67 27.27 375.84 27.27 375.84 35.89 372 44.51 375.84 53.13 379.67 61.75 383.51 70.37 387.34 70.37 387.34 70.37 387.34"/>
      <polygon class="st1" points="70.37 418.02 70.37 425.69 61.75 421.85 53.13 418.01 44.51 414.18 35.89 410.35 27.27 414.18 18.65 418.01 10.04 421.85 1.38 425.7 1.38 418.03 1.42 418.01 10.04 414.18 18.65 410.35 27.27 406.51 35.89 402.68 35.89 402.68 53.13 410.35 61.75 414.18 70.37 418.01 70.37 418.02"/>
    </g>
  </g>
  <g class="st0">
    <g>
      <polygon class="st1" points="165.51 402.68 165.51 410.34 165.51 410.35 156.89 406.51 148.27 402.68 139.65 398.84 131.03 395.01 131.03 387.34 148.27 395.01 156.89 398.84 165.51 402.68 165.51 402.68"/>
      <polygon class="st1" points="165.51 356.67 165.51 364.33 165.51 364.33 156.89 360.5 148.27 356.67 131.03 349 122.41 352.83 113.8 356.67 105.18 360.5 96.56 364.33 96.52 364.32 96.52 356.68 96.56 356.67 105.18 352.83 113.8 349 122.41 345.16 131.03 341.33 139.65 345.16 148.27 349 156.89 352.83 165.51 356.67 165.51 356.67"/>
      <polygon class="st1" points="131.03 356.67 131.03 364.33 122.42 368.17 113.8 372 113.8 372 105.18 375.84 96.56 379.67 96.52 379.65 96.52 372.02 96.56 372 96.56 372 105.18 368.17 113.8 364.33 113.8 364.33 122.41 360.5 122.41 360.5 131.03 356.67"/>
      <polygon class="st1" points="165.51 387.34 165.51 395.01 165.51 395.01 156.89 391.17 148.27 387.34 139.65 383.51 131.03 379.67 122.41 383.51 113.8 387.34 105.18 391.17 96.56 395.01 96.52 394.99 96.52 387.36 96.56 387.34 96.56 387.34 105.18 383.51 113.8 379.67 122.41 375.84 122.41 375.84 131.03 372 139.65 375.84 148.27 379.67 156.89 383.51 165.51 387.34 165.51 387.34 165.51 387.34"/>
      <polygon class="st1" points="165.51 418.02 165.51 425.69 156.89 421.85 148.27 418.01 139.65 414.18 131.03 410.35 122.41 414.18 113.8 418.01 105.18 421.85 96.52 425.7 96.52 418.03 96.56 418.01 105.18 414.18 113.8 410.35 122.41 406.51 131.03 402.68 131.03 402.68 148.27 410.35 156.89 414.18 165.51 418.01 165.51 418.02"/>
    </g>
  </g>
  <g class="st0">
    <g>
      <polygon class="st1" points="255.79 71.12 255.79 78.78 255.78 78.79 247.16 74.95 238.54 71.12 229.93 67.28 221.31 63.45 221.31 55.78 238.55 63.45 247.16 67.28 255.78 71.12 255.79 71.12"/>
      <polygon class="st1" points="255.79 25.11 255.79 32.77 255.78 32.78 247.16 28.94 238.55 25.11 221.31 17.44 212.69 21.27 204.07 25.11 195.45 28.94 186.83 32.78 186.8 32.76 186.8 25.12 186.83 25.11 195.45 21.27 204.07 17.44 212.69 13.6 221.31 9.77 229.93 13.6 238.54 17.44 247.16 21.27 255.78 25.11 255.79 25.11"/>
      <polygon class="st1" points="221.31 25.11 221.31 32.78 212.69 36.61 204.07 40.45 204.07 40.45 195.45 44.28 186.83 48.11 186.8 48.1 186.8 40.46 186.83 40.44 186.83 40.44 195.45 36.61 204.07 32.78 204.07 32.78 212.69 28.94 212.69 28.94 221.31 25.11"/>
      <polygon class="st1" points="255.79 55.78 255.79 63.45 255.78 63.45 247.16 59.62 238.54 55.78 229.93 51.95 221.31 48.11 212.69 51.95 204.07 55.78 195.45 59.62 186.83 63.45 186.8 63.43 186.8 55.8 186.83 55.78 186.83 55.78 195.45 51.95 204.07 48.11 212.69 44.28 212.69 44.28 221.31 40.44 229.93 44.28 238.55 48.11 247.16 51.95 255.78 55.78 255.78 55.78 255.79 55.78"/>
      <polygon class="st1" points="255.79 86.46 255.79 94.13 247.16 90.29 238.54 86.46 229.93 82.62 221.31 78.79 212.69 82.62 204.07 86.46 195.45 90.29 186.8 94.14 186.8 86.47 186.83 86.46 195.45 82.62 204.07 78.79 212.69 74.95 221.31 71.12 221.31 71.12 238.55 78.79 247.16 82.62 255.78 86.46 255.79 86.46"/>
    </g>
  </g>
  <g class="st0">
    <g>
      <polygon class="st1" points="350.93 71.12 350.93 78.78 350.92 78.79 342.31 74.95 333.69 71.12 325.07 67.28 316.45 63.45 316.45 55.78 333.69 63.45 342.31 67.28 350.92 71.12 350.93 71.12"/>
      <polygon class="st1" points="350.93 25.11 350.93 32.77 350.92 32.78 342.31 28.94 333.69 25.11 316.45 17.44 307.83 21.27 299.21 25.11 290.59 28.94 281.97 32.78 281.94 32.76 281.94 25.12 281.98 25.11 290.59 21.27 299.21 17.44 307.83 13.6 316.45 9.77 325.07 13.6 333.69 17.44 342.31 21.27 350.92 25.11 350.93 25.11"/>
      <polygon class="st1" points="316.45 25.11 316.45 32.78 307.83 36.61 299.21 40.45 299.21 40.45 290.59 44.28 281.98 48.11 281.94 48.1 281.94 40.46 281.97 40.44 281.97 40.44 290.59 36.61 299.21 32.78 299.21 32.78 307.83 28.94 307.83 28.94 316.45 25.11"/>
      <polygon class="st1" points="350.93 55.78 350.93 63.45 350.92 63.45 342.31 59.62 333.69 55.78 325.07 51.95 316.45 48.11 307.83 51.95 299.21 55.78 290.59 59.62 281.98 63.45 281.94 63.43 281.94 55.8 281.97 55.78 281.97 55.78 290.59 51.95 299.21 48.11 307.83 44.28 307.83 44.28 316.45 40.44 325.07 44.28 333.69 48.11 342.31 51.95 350.92 55.78 350.93 55.78 350.93 55.78"/>
      <polygon class="st1" points="350.93 86.46 350.93 94.13 342.31 90.29 333.69 86.46 325.07 82.62 316.45 78.79 307.83 82.62 299.21 86.46 290.59 90.29 281.94 94.14 281.94 86.47 281.97 86.46 290.59 82.62 299.21 78.79 307.83 74.95 316.45 71.12 316.45 71.12 333.69 78.79 342.31 82.62 350.92 86.46 350.93 86.46"/>
    </g>
  </g>
  <g class="st0">
    <g>
      <polygon class="st1" points="255.79 292.15 255.79 299.81 255.78 299.82 247.16 295.98 238.54 292.15 229.93 288.31 221.31 284.48 221.31 276.81 238.55 284.48 247.16 288.31 255.78 292.15 255.79 292.15"/>
      <polygon class="st1" points="255.79 246.14 255.79 253.8 255.78 253.81 247.16 249.97 238.55 246.14 221.31 238.47 212.69 242.3 204.07 246.14 195.45 249.97 186.83 253.81 186.8 253.79 186.8 246.15 186.83 246.14 195.45 242.3 204.07 238.47 212.69 234.63 221.31 230.8 229.93 234.63 238.54 238.47 247.16 242.3 255.78 246.14 255.79 246.14"/>
      <polygon class="st1" points="221.31 246.14 221.31 253.81 212.69 257.64 204.07 261.48 204.07 261.48 195.45 265.31 186.83 269.14 186.8 269.13 186.8 261.49 186.83 261.47 186.83 261.47 195.45 257.64 204.07 253.81 204.07 253.81 212.69 249.97 212.69 249.97 221.31 246.14"/>
      <polygon class="st1" points="255.79 276.81 255.79 284.48 255.78 284.48 247.16 280.65 238.54 276.81 229.93 272.98 221.31 269.14 212.69 272.98 204.07 276.81 195.45 280.65 186.83 284.48 186.8 284.46 186.8 276.83 186.83 276.81 186.83 276.81 195.45 272.98 204.07 269.14 212.69 265.31 212.69 265.31 221.31 261.47 229.93 265.31 238.55 269.14 247.16 272.98 255.78 276.81 255.78 276.81 255.79 276.81"/>
      <polygon class="st1" points="255.79 307.49 255.79 315.16 247.16 311.32 238.54 307.49 229.93 303.65 221.31 299.82 212.69 303.65 204.07 307.49 195.45 311.32 186.8 315.17 186.8 307.5 186.83 307.49 195.45 303.65 204.07 299.82 212.69 295.98 221.31 292.15 221.31 292.15 238.55 299.82 247.16 303.65 255.78 307.49 255.79 307.49"/>
    </g>
  </g>
  <g class="st0">
    <g>
      <polygon class="st1" points="255.79 185.47 255.79 193.13 255.78 193.13 247.16 189.3 238.54 185.47 229.93 181.63 221.31 177.8 221.31 170.13 238.55 177.8 247.16 181.63 255.78 185.47 255.79 185.47"/>
      <polygon class="st1" points="255.79 139.46 255.79 147.12 255.78 147.12 247.16 143.29 238.55 139.45 221.31 131.79 212.69 135.62 204.07 139.45 195.45 143.29 186.83 147.12 186.8 147.11 186.8 139.47 186.83 139.45 195.45 135.62 204.07 131.79 212.69 127.95 221.31 124.12 229.93 127.95 238.54 131.79 247.16 135.62 255.78 139.45 255.79 139.46"/>
      <polygon class="st1" points="221.31 139.45 221.31 147.12 212.69 150.96 204.07 154.79 204.07 154.79 195.45 158.63 186.83 162.46 186.8 162.44 186.8 154.81 186.83 154.79 186.83 154.79 195.45 150.96 204.07 147.12 204.07 147.12 212.69 143.29 212.69 143.29 221.31 139.45"/>
      <polygon class="st1" points="255.79 170.13 255.79 177.79 255.78 177.8 247.16 173.96 238.54 170.13 229.93 166.29 221.31 162.46 212.69 166.29 204.07 170.13 195.45 173.96 186.83 177.8 186.8 177.78 186.8 170.14 186.83 170.13 186.83 170.13 195.45 166.29 204.07 162.46 212.69 158.63 212.69 158.63 221.31 154.79 229.93 158.63 238.55 162.46 247.16 166.29 255.78 170.13 255.78 170.13 255.79 170.13"/>
      <polygon class="st1" points="255.79 200.8 255.79 208.47 247.16 204.64 238.54 200.8 229.93 196.97 221.31 193.13 212.69 196.97 204.07 200.8 195.45 204.64 186.8 208.49 186.8 200.82 186.83 200.8 195.45 196.97 204.07 193.13 212.69 189.3 221.31 185.47 221.31 185.47 238.55 193.13 247.16 196.97 255.78 200.8 255.79 200.8"/>
    </g>
  </g>
  <g class="st0">
    <g>
      <polygon class="st1" points="350.93 292.15 350.93 299.81 350.92 299.82 342.31 295.98 333.69 292.15 325.07 288.31 316.45 284.48 316.45 276.81 333.69 284.48 342.31 288.31 350.92 292.15 350.93 292.15"/>
      <polygon class="st1" points="350.93 246.14 350.93 253.8 350.92 253.81 342.31 249.97 333.69 246.14 316.45 238.47 307.83 242.3 299.21 246.14 290.59 249.97 281.97 253.81 281.94 253.79 281.94 246.15 281.98 246.14 290.59 242.3 299.21 238.47 307.83 234.63 316.45 230.8 325.07 234.63 333.69 238.47 342.31 242.3 350.92 246.14 350.93 246.14"/>
      <polygon class="st1" points="316.45 246.14 316.45 253.81 307.83 257.64 299.21 261.48 299.21 261.48 290.59 265.31 281.98 269.14 281.94 269.13 281.94 261.49 281.97 261.47 281.97 261.47 290.59 257.64 299.21 253.81 299.21 253.81 307.83 249.97 307.83 249.97 316.45 246.14"/>
      <polygon class="st1" points="350.93 276.81 350.93 284.48 350.92 284.48 342.31 280.65 333.69 276.81 325.07 272.98 316.45 269.14 307.83 272.98 299.21 276.81 290.59 280.65 281.98 284.48 281.94 284.46 281.94 276.83 281.97 276.81 281.97 276.81 290.59 272.98 299.21 269.14 307.83 265.31 307.83 265.31 316.45 261.47 325.07 265.31 333.69 269.14 342.31 272.98 350.92 276.81 350.93 276.81 350.93 276.81"/>
      <polygon class="st1" points="350.93 307.49 350.93 315.16 342.31 311.32 333.69 307.49 325.07 303.65 316.45 299.82 307.83 303.65 299.21 307.49 290.59 311.32 281.94 315.17 281.94 307.5 281.97 307.49 290.59 303.65 299.21 299.82 307.83 295.98 316.45 292.15 316.45 292.15 333.69 299.82 342.31 303.65 350.92 307.49 350.93 307.49"/>
    </g>
  </g>
  <g class="st0">
    <g>
      <polygon class="st1" points="350.93 181.64 350.93 189.3 350.92 189.31 342.31 185.47 333.69 181.64 325.07 177.8 316.45 173.97 316.45 166.3 333.69 173.97 342.31 177.8 350.92 181.64 350.93 181.64"/>
      <polygon class="st1" points="350.93 135.63 350.93 143.29 350.92 143.3 342.31 139.46 333.69 135.63 316.45 127.96 307.83 131.79 299.21 135.63 290.59 139.46 281.97 143.3 281.94 143.28 281.94 135.64 281.98 135.63 290.59 131.79 299.21 127.96 307.83 124.12 316.45 120.29 325.07 124.12 333.69 127.96 342.31 131.79 350.92 135.63 350.93 135.63"/>
      <polygon class="st1" points="316.45 135.63 316.45 143.3 307.83 147.13 299.21 150.96 299.21 150.96 290.59 154.8 281.98 158.63 281.94 158.62 281.94 150.98 281.97 150.96 281.97 150.96 290.59 147.13 299.21 143.3 299.21 143.3 307.83 139.46 307.83 139.46 316.45 135.63"/>
      <polygon class="st1" points="350.93 166.3 350.93 173.97 350.92 173.97 342.31 170.14 333.69 166.3 325.07 162.47 316.45 158.63 307.83 162.47 299.21 166.3 290.59 170.14 281.98 173.97 281.94 173.95 281.94 166.32 281.97 166.3 281.97 166.3 290.59 162.47 299.21 158.63 307.83 154.8 307.83 154.8 316.45 150.96 325.07 154.8 333.69 158.63 342.31 162.47 350.92 166.3 350.93 166.3 350.93 166.3"/>
      <polygon class="st1" points="350.93 196.98 350.93 204.65 342.31 200.81 333.69 196.98 325.07 193.14 316.45 189.31 307.83 193.14 299.21 196.98 290.59 200.81 281.94 204.66 281.94 196.99 281.97 196.98 290.59 193.14 299.21 189.31 307.83 185.47 316.45 181.64 316.45 181.64 333.69 189.31 342.31 193.14 350.92 196.98 350.93 196.98"/>
    </g>
  </g>
  <g class="st0">
    <g>
      <polygon class="st1" points="255.79 402.68 255.79 410.34 255.78 410.35 247.16 406.51 238.54 402.68 229.93 398.84 221.31 395.01 221.31 387.34 238.55 395.01 247.16 398.84 255.78 402.68 255.79 402.68"/>
      <polygon class="st1" points="255.79 356.67 255.79 364.33 255.78 364.33 247.16 360.5 238.55 356.67 221.31 349 212.69 352.83 204.07 356.67 195.45 360.5 186.83 364.33 186.8 364.32 186.8 356.68 186.83 356.67 195.45 352.83 204.07 349 212.69 345.16 221.31 341.33 229.93 345.16 238.54 349 247.16 352.83 255.78 356.67 255.79 356.67"/>
      <polygon class="st1" points="221.31 356.67 221.31 364.33 212.69 368.17 204.07 372 204.07 372 195.45 375.84 186.83 379.67 186.8 379.65 186.8 372.02 186.83 372 186.83 372 195.45 368.17 204.07 364.33 204.07 364.33 212.69 360.5 212.69 360.5 221.31 356.67"/>
      <polygon class="st1" points="255.79 387.34 255.79 395.01 255.78 395.01 247.16 391.17 238.54 387.34 229.93 383.51 221.31 379.67 212.69 383.51 204.07 387.34 195.45 391.17 186.83 395.01 186.8 394.99 186.8 387.36 186.83 387.34 186.83 387.34 195.45 383.51 204.07 379.67 212.69 375.84 212.69 375.84 221.31 372 229.93 375.84 238.55 379.67 247.16 383.51 255.78 387.34 255.78 387.34 255.79 387.34"/>
      <polygon class="st1" points="255.79 418.02 255.79 425.69 247.16 421.85 238.54 418.01 229.93 414.18 221.31 410.35 212.69 414.18 204.07 418.01 195.45 421.85 186.8 425.7 186.8 418.03 186.83 418.01 195.45 414.18 204.07 410.35 212.69 406.51 221.31 402.68 221.31 402.68 238.55 410.35 247.16 414.18 255.78 418.01 255.79 418.02"/>
    </g>
  </g>
  <g class="st0">
    <g>
      <polygon class="st1" points="350.93 402.68 350.93 410.34 350.92 410.35 342.31 406.51 333.69 402.68 325.07 398.84 316.45 395.01 316.45 387.34 333.69 395.01 342.31 398.84 350.92 402.68 350.93 402.68"/>
      <polygon class="st1" points="350.93 356.67 350.93 364.33 350.92 364.33 342.31 360.5 333.69 356.67 316.45 349 307.83 352.83 299.21 356.67 290.59 360.5 281.97 364.33 281.94 364.32 281.94 356.68 281.98 356.67 290.59 352.83 299.21 349 307.83 345.16 316.45 341.33 325.07 345.16 333.69 349 342.31 352.83 350.92 356.67 350.93 356.67"/>
      <polygon class="st1" points="316.45 356.67 316.45 364.33 307.83 368.17 299.21 372 299.21 372 290.59 375.84 281.98 379.67 281.94 379.65 281.94 372.02 281.97 372 281.97 372 290.59 368.17 299.21 364.33 299.21 364.33 307.83 360.5 307.83 360.5 316.45 356.67"/>
      <polygon class="st1" points="350.93 387.34 350.93 395.01 350.92 395.01 342.31 391.17 333.69 387.34 325.07 383.51 316.45 379.67 307.83 383.51 299.21 387.34 290.59 391.17 281.98 395.01 281.94 394.99 281.94 387.36 281.97 387.34 281.97 387.34 290.59 383.51 299.21 379.67 307.83 375.84 307.83 375.84 316.45 372 325.07 375.84 333.69 379.67 342.31 383.51 350.92 387.34 350.93 387.34 350.93 387.34"/>
      <polygon class="st1" points="350.93 418.02 350.93 425.69 342.31 421.85 333.69 418.01 325.07 414.18 316.45 410.35 307.83 414.18 299.21 418.01 290.59 421.85 281.94 425.7 281.94 418.03 281.97 418.01 290.59 414.18 299.21 410.35 307.83 406.51 316.45 402.68 316.45 402.68 333.69 410.35 342.31 414.18 350.92 418.01 350.93 418.02"/>
    </g>
  </g>
  <g class="st0">
    <g>
      <polygon class="st1" points="441.2 71.12 441.2 78.78 441.2 78.79 432.58 74.95 423.96 71.12 415.34 67.28 406.72 63.45 406.72 55.78 423.96 63.45 432.58 67.28 441.2 71.12 441.2 71.12"/>
      <polygon class="st1" points="441.2 25.11 441.2 32.77 441.2 32.78 432.58 28.94 423.96 25.11 406.72 17.44 398.1 21.27 389.49 25.11 380.87 28.94 372.25 32.78 372.21 32.76 372.21 25.12 372.25 25.11 380.87 21.27 389.49 17.44 398.1 13.6 406.72 9.77 415.34 13.6 423.96 17.44 432.58 21.27 441.2 25.11 441.2 25.11"/>
      <polygon class="st1" points="406.72 25.11 406.72 32.78 398.11 36.61 389.49 40.45 389.49 40.45 380.87 44.28 372.25 48.11 372.21 48.1 372.21 40.46 372.25 40.44 372.25 40.44 380.87 36.61 389.49 32.78 389.49 32.78 398.1 28.94 398.1 28.94 406.72 25.11"/>
      <polygon class="st1" points="441.2 55.78 441.2 63.45 441.2 63.45 432.58 59.62 423.96 55.78 415.34 51.95 406.72 48.11 398.1 51.95 389.49 55.78 380.87 59.62 372.25 63.45 372.21 63.43 372.21 55.8 372.25 55.78 372.25 55.78 380.87 51.95 389.49 48.11 398.1 44.28 398.1 44.28 406.72 40.44 415.34 44.28 423.96 48.11 432.58 51.95 441.2 55.78 441.2 55.78 441.2 55.78"/>
      <polygon class="st1" points="441.2 86.46 441.2 94.13 432.58 90.29 423.96 86.46 415.34 82.62 406.72 78.79 398.1 82.62 389.49 86.46 380.87 90.29 372.21 94.14 372.21 86.47 372.25 86.46 380.87 82.62 389.49 78.79 398.1 74.95 406.72 71.12 406.72 71.12 423.96 78.79 432.58 82.62 441.2 86.46 441.2 86.46"/>
    </g>
  </g>
  <g class="st0">
    <g>
      <polygon class="st1" points="536.35 71.12 536.35 78.78 536.34 78.79 527.72 74.95 519.1 71.12 510.48 67.28 501.87 63.45 501.87 55.78 519.1 63.45 527.72 67.28 536.34 71.12 536.35 71.12"/>
      <polygon class="st1" points="536.35 25.11 536.35 32.77 536.34 32.78 527.72 28.94 519.1 25.11 501.87 17.44 493.25 21.27 484.63 25.11 476.01 28.94 467.39 32.78 467.35 32.76 467.35 25.12 467.39 25.11 476.01 21.27 484.63 17.44 493.25 13.6 501.87 9.77 510.48 13.6 519.1 17.44 527.72 21.27 536.34 25.11 536.35 25.11"/>
      <polygon class="st1" points="501.87 25.11 501.87 32.78 493.25 36.61 484.63 40.45 484.63 40.45 476.01 44.28 467.39 48.11 467.35 48.1 467.35 40.46 467.39 40.44 467.39 40.44 476.01 36.61 484.63 32.78 484.63 32.78 493.25 28.94 493.25 28.94 501.87 25.11"/>
      <polygon class="st1" points="536.35 55.78 536.35 63.45 536.34 63.45 527.72 59.62 519.1 55.78 510.48 51.95 501.87 48.11 493.25 51.95 484.63 55.78 476.01 59.62 467.39 63.45 467.35 63.43 467.35 55.8 467.39 55.78 467.39 55.78 476.01 51.95 484.63 48.11 493.25 44.28 493.25 44.28 501.87 40.44 510.48 44.28 519.1 48.11 527.72 51.95 536.34 55.78 536.34 55.78 536.35 55.78"/>
      <polygon class="st1" points="536.35 86.46 536.35 94.13 527.72 90.29 519.1 86.46 510.48 82.62 501.87 78.79 493.25 82.62 484.63 86.46 476.01 90.29 467.35 94.14 467.35 86.47 467.39 86.46 476.01 82.62 484.63 78.79 493.25 74.95 501.86 71.12 501.87 71.12 519.1 78.79 527.72 82.62 536.34 86.46 536.35 86.46"/>
    </g>
  </g>
  <g class="st0">
    <g>
      <polygon class="st1" points="441.2 292.15 441.2 299.81 441.2 299.82 432.58 295.98 423.96 292.15 415.34 288.31 406.72 284.48 406.72 276.81 423.96 284.48 432.58 288.31 441.2 292.15 441.2 292.15"/>
      <polygon class="st1" points="441.2 246.14 441.2 253.8 441.2 253.81 432.58 249.97 423.96 246.14 406.72 238.47 398.1 242.3 389.49 246.14 380.87 249.97 372.25 253.81 372.21 253.79 372.21 246.15 372.25 246.14 380.87 242.3 389.49 238.47 398.1 234.63 406.72 230.8 415.34 234.63 423.96 238.47 432.58 242.3 441.2 246.14 441.2 246.14"/>
      <polygon class="st1" points="406.72 246.14 406.72 253.81 398.11 257.64 389.49 261.48 389.49 261.48 380.87 265.31 372.25 269.14 372.21 269.13 372.21 261.49 372.25 261.47 372.25 261.47 380.87 257.64 389.49 253.81 389.49 253.81 398.1 249.97 398.1 249.97 406.72 246.14"/>
      <polygon class="st1" points="441.2 276.81 441.2 284.48 441.2 284.48 432.58 280.65 423.96 276.81 415.34 272.98 406.72 269.14 398.1 272.98 389.49 276.81 380.87 280.65 372.25 284.48 372.21 284.46 372.21 276.83 372.25 276.81 372.25 276.81 380.87 272.98 389.49 269.14 398.1 265.31 398.1 265.31 406.72 261.47 415.34 265.31 423.96 269.14 432.58 272.98 441.2 276.81 441.2 276.81 441.2 276.81"/>
      <polygon class="st1" points="441.2 307.49 441.2 315.16 432.58 311.32 423.96 307.49 415.34 303.65 406.72 299.82 398.1 303.65 389.49 307.49 380.87 311.32 372.21 315.17 372.21 307.5 372.25 307.49 380.87 303.65 389.49 299.82 398.1 295.98 406.72 292.15 406.72 292.15 423.96 299.82 432.58 303.65 441.2 307.49 441.2 307.49"/>
    </g>
  </g>
  <g class="st0">
    <g>
      <polygon class="st1" points="441.2 185.47 441.2 193.13 441.2 193.13 432.58 189.3 423.96 185.47 415.34 181.63 406.72 177.8 406.72 170.13 423.96 177.8 432.58 181.63 441.2 185.47 441.2 185.47"/>
      <polygon class="st1" points="441.2 139.46 441.2 147.12 441.2 147.12 432.58 143.29 423.96 139.45 406.72 131.79 398.1 135.62 389.49 139.45 380.87 143.29 372.25 147.12 372.21 147.11 372.21 139.47 372.25 139.45 380.87 135.62 389.49 131.79 398.1 127.95 406.72 124.12 415.34 127.95 423.96 131.79 432.58 135.62 441.2 139.45 441.2 139.46"/>
      <polygon class="st1" points="406.72 139.45 406.72 147.12 398.11 150.96 389.49 154.79 389.49 154.79 380.87 158.63 372.25 162.46 372.21 162.44 372.21 154.81 372.25 154.79 372.25 154.79 380.87 150.96 389.49 147.12 389.49 147.12 398.1 143.29 398.1 143.29 406.72 139.45"/>
      <polygon class="st1" points="441.2 170.13 441.2 177.79 441.2 177.8 432.58 173.96 423.96 170.13 415.34 166.29 406.72 162.46 398.1 166.29 389.49 170.13 380.87 173.96 372.25 177.8 372.21 177.78 372.21 170.14 372.25 170.13 372.25 170.13 380.87 166.29 389.49 162.46 398.1 158.63 398.1 158.63 406.72 154.79 415.34 158.63 423.96 162.46 432.58 166.29 441.2 170.13 441.2 170.13 441.2 170.13"/>
      <polygon class="st1" points="441.2 200.8 441.2 208.47 432.58 204.64 423.96 200.8 415.34 196.97 406.72 193.13 398.1 196.97 389.49 200.8 380.87 204.64 372.21 208.49 372.21 200.82 372.25 200.8 380.87 196.97 389.49 193.13 398.1 189.3 406.72 185.47 406.72 185.47 423.96 193.13 432.58 196.97 441.2 200.8 441.2 200.8"/>
    </g>
  </g>
  <g class="st0">
    <g>
      <polygon class="st1" points="536.35 292.15 536.35 299.81 536.34 299.82 527.72 295.98 519.1 292.15 510.48 288.31 501.87 284.48 501.87 276.81 519.1 284.48 527.72 288.31 536.34 292.15 536.35 292.15"/>
      <polygon class="st1" points="536.35 246.14 536.35 253.8 536.34 253.81 527.72 249.97 519.1 246.14 501.87 238.47 493.25 242.3 484.63 246.14 476.01 249.97 467.39 253.81 467.35 253.79 467.35 246.15 467.39 246.14 476.01 242.3 484.63 238.47 493.25 234.63 501.87 230.8 510.48 234.63 519.1 238.47 527.72 242.3 536.34 246.14 536.35 246.14"/>
      <polygon class="st1" points="501.87 246.14 501.87 253.81 493.25 257.64 484.63 261.48 484.63 261.48 476.01 265.31 467.39 269.14 467.35 269.13 467.35 261.49 467.39 261.47 467.39 261.47 476.01 257.64 484.63 253.81 484.63 253.81 493.25 249.97 493.25 249.97 501.87 246.14"/>
      <polygon class="st1" points="536.35 276.81 536.35 284.48 536.34 284.48 527.72 280.65 519.1 276.81 510.48 272.98 501.87 269.14 493.25 272.98 484.63 276.81 476.01 280.65 467.39 284.48 467.35 284.46 467.35 276.83 467.39 276.81 467.39 276.81 476.01 272.98 484.63 269.14 493.25 265.31 493.25 265.31 501.87 261.47 510.48 265.31 519.1 269.14 527.72 272.98 536.34 276.81 536.34 276.81 536.35 276.81"/>
      <polygon class="st1" points="536.35 307.49 536.35 315.16 527.72 311.32 519.1 307.49 510.48 303.65 501.87 299.82 493.25 303.65 484.63 307.49 476.01 311.32 467.35 315.17 467.35 307.5 467.39 307.49 476.01 303.65 484.63 299.82 493.25 295.98 501.86 292.15 501.87 292.15 519.1 299.82 527.72 303.65 536.34 307.49 536.35 307.49"/>
    </g>
  </g>
  <g class="st0">
    <g>
      <polygon class="st1" points="536.35 181.64 536.35 189.3 536.34 189.31 527.72 185.47 519.1 181.64 510.48 177.8 501.87 173.97 501.87 166.3 519.1 173.97 527.72 177.8 536.34 181.64 536.35 181.64"/>
      <polygon class="st1" points="536.35 135.63 536.35 143.29 536.34 143.3 527.72 139.46 519.1 135.63 501.87 127.96 493.25 131.79 484.63 135.63 476.01 139.46 467.39 143.3 467.35 143.28 467.35 135.64 467.39 135.63 476.01 131.79 484.63 127.96 493.25 124.12 501.87 120.29 510.48 124.12 519.1 127.96 527.72 131.79 536.34 135.63 536.35 135.63"/>
      <polygon class="st1" points="501.87 135.63 501.87 143.3 493.25 147.13 484.63 150.96 484.63 150.96 476.01 154.8 467.39 158.63 467.35 158.62 467.35 150.98 467.39 150.96 467.39 150.96 476.01 147.13 484.63 143.3 484.63 143.3 493.25 139.46 493.25 139.46 501.87 135.63"/>
      <polygon class="st1" points="536.35 166.3 536.35 173.97 536.34 173.97 527.72 170.14 519.1 166.3 510.48 162.47 501.87 158.63 493.25 162.47 484.63 166.3 476.01 170.14 467.39 173.97 467.35 173.95 467.35 166.32 467.39 166.3 467.39 166.3 476.01 162.47 484.63 158.63 493.25 154.8 493.25 154.8 501.87 150.96 510.48 154.8 519.1 158.63 527.72 162.47 536.34 166.3 536.34 166.3 536.35 166.3"/>
      <polygon class="st1" points="536.35 196.98 536.35 204.65 527.72 200.81 519.1 196.98 510.48 193.14 501.87 189.31 493.25 193.14 484.63 196.98 476.01 200.81 467.35 204.66 467.35 196.99 467.39 196.98 476.01 193.14 484.63 189.31 493.25 185.47 501.86 181.64 501.87 181.64 519.1 189.31 527.72 193.14 536.34 196.98 536.35 196.98"/>
    </g>
  </g>
  <g class="st0">
    <g>
      <polygon class="st1" points="441.2 402.68 441.2 410.34 441.2 410.35 432.58 406.51 423.96 402.68 415.34 398.84 406.72 395.01 406.72 387.34 423.96 395.01 432.58 398.84 441.2 402.68 441.2 402.68"/>
      <polygon class="st1" points="441.2 356.67 441.2 364.33 441.2 364.33 432.58 360.5 423.96 356.67 406.72 349 398.1 352.83 389.49 356.67 380.87 360.5 372.25 364.33 372.21 364.32 372.21 356.68 372.25 356.67 380.87 352.83 389.49 349 398.1 345.16 406.72 341.33 415.34 345.16 423.96 349 432.58 352.83 441.2 356.67 441.2 356.67"/>
      <polygon class="st1" points="406.72 356.67 406.72 364.33 398.11 368.17 389.49 372 389.49 372 380.87 375.84 372.25 379.67 372.21 379.65 372.21 372.02 372.25 372 372.25 372 380.87 368.17 389.49 364.33 389.49 364.33 398.1 360.5 398.1 360.5 406.72 356.67"/>
      <polygon class="st1" points="441.2 387.34 441.2 395.01 441.2 395.01 432.58 391.17 423.96 387.34 415.34 383.51 406.72 379.67 398.1 383.51 389.49 387.34 380.87 391.17 372.25 395.01 372.21 394.99 372.21 387.36 372.25 387.34 372.25 387.34 380.87 383.51 389.49 379.67 398.1 375.84 398.1 375.84 406.72 372 415.34 375.84 423.96 379.67 432.58 383.51 441.2 387.34 441.2 387.34 441.2 387.34"/>
      <polygon class="st1" points="441.2 418.02 441.2 425.69 432.58 421.85 423.96 418.01 415.34 414.18 406.72 410.35 398.1 414.18 389.49 418.01 380.87 421.85 372.21 425.7 372.21 418.03 372.25 418.01 380.87 414.18 389.49 410.35 398.1 406.51 406.72 402.68 406.72 402.68 423.96 410.35 432.58 414.18 441.2 418.01 441.2 418.02"/>
    </g>
  </g>
  <g class="st0">
    <g>
      <polygon class="st1" points="536.35 402.68 536.35 410.34 536.34 410.35 527.72 406.51 519.1 402.68 510.48 398.84 501.87 395.01 501.87 387.34 519.1 395.01 527.72 398.84 536.34 402.68 536.35 402.68"/>
      <polygon class="st1" points="536.35 356.67 536.35 364.33 536.34 364.33 527.72 360.5 519.1 356.67 501.87 349 493.25 352.83 484.63 356.67 476.01 360.5 467.39 364.33 467.35 364.32 467.35 356.68 467.39 356.67 476.01 352.83 484.63 349 493.25 345.16 501.87 341.33 510.48 345.16 519.1 349 527.72 352.83 536.34 356.67 536.35 356.67"/>
      <polygon class="st1" points="501.87 356.67 501.87 364.33 493.25 368.17 484.63 372 484.63 372 476.01 375.84 467.39 379.67 467.35 379.65 467.35 372.02 467.39 372 467.39 372 476.01 368.17 484.63 364.33 484.63 364.33 493.25 360.5 493.25 360.5 501.87 356.67"/>
      <polygon class="st1" points="536.35 387.34 536.35 395.01 536.34 395.01 527.72 391.17 519.1 387.34 510.48 383.51 501.87 379.67 493.25 383.51 484.63 387.34 476.01 391.17 467.39 395.01 467.35 394.99 467.35 387.36 467.39 387.34 467.39 387.34 476.01 383.51 484.63 379.67 493.25 375.84 493.25 375.84 501.87 372 510.48 375.84 519.1 379.67 527.72 383.51 536.34 387.34 536.34 387.34 536.35 387.34"/>
      <polygon class="st1" points="536.35 418.02 536.35 425.69 527.72 421.85 519.1 418.01 510.48 414.18 501.87 410.35 493.25 414.18 484.63 418.01 476.01 421.85 467.35 425.7 467.35 418.03 467.39 418.01 476.01 414.18 484.63 410.35 493.25 406.51 501.86 402.68 501.87 402.68 519.1 410.35 527.72 414.18 536.34 418.01 536.35 418.02"/>
    </g>
  </g>
  <g class="st0">
    <g>
      <polygon class="st1" points="626.62 71.12 626.62 78.78 626.61 78.79 618 74.95 609.38 71.12 600.76 67.28 592.14 63.45 592.14 55.78 609.38 63.45 618 67.28 626.62 71.12 626.62 71.12"/>
      <polygon class="st1" points="626.62 25.11 626.62 32.77 626.62 32.78 618 28.94 609.38 25.11 592.14 17.44 583.52 21.27 574.9 25.11 566.28 28.94 557.67 32.78 557.63 32.76 557.63 25.12 557.67 25.11 566.28 21.27 574.9 17.44 583.52 13.6 592.14 9.77 600.76 13.6 609.38 17.44 618 21.27 626.61 25.11 626.62 25.11"/>
      <polygon class="st1" points="592.14 25.11 592.14 32.78 583.52 36.61 574.9 40.45 574.9 40.45 566.28 44.28 557.67 48.11 557.63 48.1 557.63 40.46 557.66 40.44 557.67 40.44 566.28 36.61 574.9 32.78 574.9 32.78 583.52 28.94 583.52 28.94 592.14 25.11"/>
      <polygon class="st1" points="626.62 55.78 626.62 63.45 626.61 63.45 618 59.62 609.38 55.78 600.76 51.95 592.14 48.11 583.52 51.95 574.9 55.78 566.28 59.62 557.67 63.45 557.63 63.43 557.63 55.8 557.66 55.78 557.67 55.78 566.28 51.95 574.9 48.11 583.52 44.28 583.52 44.28 592.14 40.44 600.76 44.28 609.38 48.11 618 51.95 626.62 55.78 626.62 55.78 626.62 55.78"/>
      <polygon class="st1" points="626.62 86.46 626.62 94.13 618 90.29 609.38 86.46 600.76 82.62 592.14 78.79 583.52 82.62 574.9 86.46 566.28 90.29 557.63 94.14 557.63 86.47 557.67 86.46 566.28 82.62 574.9 78.79 583.52 74.95 592.14 71.12 592.14 71.12 609.38 78.79 618 82.62 626.62 86.46 626.62 86.46"/>
    </g>
  </g>
  <g class="st0">
    <g>
      <polygon class="st1" points="626.62 292.15 626.62 299.81 626.61 299.82 618 295.98 609.38 292.15 600.76 288.31 592.14 284.48 592.14 276.81 609.38 284.48 618 288.31 626.62 292.15 626.62 292.15"/>
      <polygon class="st1" points="626.62 246.14 626.62 253.8 626.62 253.81 618 249.97 609.38 246.14 592.14 238.47 583.52 242.3 574.9 246.14 566.28 249.97 557.67 253.81 557.63 253.79 557.63 246.15 557.67 246.14 566.28 242.3 574.9 238.47 583.52 234.63 592.14 230.8 600.76 234.63 609.38 238.47 618 242.3 626.61 246.14 626.62 246.14"/>
      <polygon class="st1" points="592.14 246.14 592.14 253.81 583.52 257.64 574.9 261.48 574.9 261.48 566.28 265.31 557.67 269.14 557.63 269.13 557.63 261.49 557.66 261.47 557.67 261.47 566.28 257.64 574.9 253.81 574.9 253.81 583.52 249.97 583.52 249.97 592.14 246.14"/>
      <polygon class="st1" points="626.62 276.81 626.62 284.48 626.61 284.48 618 280.65 609.38 276.81 600.76 272.98 592.14 269.14 583.52 272.98 574.9 276.81 566.28 280.65 557.67 284.48 557.63 284.46 557.63 276.83 557.66 276.81 557.67 276.81 566.28 272.98 574.9 269.14 583.52 265.31 583.52 265.31 592.14 261.47 600.76 265.31 609.38 269.14 618 272.98 626.62 276.81 626.62 276.81 626.62 276.81"/>
      <polygon class="st1" points="626.62 307.49 626.62 315.16 618 311.32 609.38 307.49 600.76 303.65 592.14 299.82 583.52 303.65 574.9 307.49 566.28 311.32 557.63 315.17 557.63 307.5 557.67 307.49 566.28 303.65 574.9 299.82 583.52 295.98 592.14 292.15 592.14 292.15 609.38 299.82 618 303.65 626.62 307.49 626.62 307.49"/>
    </g>
  </g>
  <g class="st0">
    <g>
      <polygon class="st1" points="626.62 185.47 626.62 193.13 626.61 193.13 618 189.3 609.38 185.47 600.76 181.63 592.14 177.8 592.14 170.13 609.38 177.8 618 181.63 626.62 185.47 626.62 185.47"/>
      <polygon class="st1" points="626.62 139.46 626.62 147.12 626.62 147.12 618 143.29 609.38 139.45 592.14 131.79 583.52 135.62 574.9 139.45 566.28 143.29 557.67 147.12 557.63 147.11 557.63 139.47 557.67 139.45 566.28 135.62 574.9 131.79 583.52 127.95 592.14 124.12 600.76 127.95 609.38 131.79 618 135.62 626.61 139.45 626.62 139.46"/>
      <polygon class="st1" points="592.14 139.45 592.14 147.12 583.52 150.96 574.9 154.79 574.9 154.79 566.28 158.63 557.67 162.46 557.63 162.44 557.63 154.81 557.66 154.79 557.67 154.79 566.28 150.96 574.9 147.12 574.9 147.12 583.52 143.29 583.52 143.29 592.14 139.45"/>
      <polygon class="st1" points="626.62 170.13 626.62 177.79 626.61 177.8 618 173.96 609.38 170.13 600.76 166.29 592.14 162.46 583.52 166.29 574.9 170.13 566.28 173.96 557.67 177.8 557.63 177.78 557.63 170.14 557.66 170.13 557.67 170.13 566.28 166.29 574.9 162.46 583.52 158.63 583.52 158.63 592.14 154.79 600.76 158.63 609.38 162.46 618 166.29 626.62 170.13 626.62 170.13 626.62 170.13"/>
      <polygon class="st1" points="626.62 200.8 626.62 208.47 618 204.64 609.38 200.8 600.76 196.97 592.14 193.13 583.52 196.97 574.9 200.8 566.28 204.64 557.63 208.49 557.63 200.82 557.67 200.8 566.28 196.97 574.9 193.13 583.52 189.3 592.14 185.47 592.14 185.47 609.38 193.13 618 196.97 626.62 200.8 626.62 200.8"/>
    </g>
  </g>
  <g class="st0">
    <g>
      <polygon class="st1" points="626.62 402.68 626.62 410.34 626.61 410.35 618 406.51 609.38 402.68 600.76 398.84 592.14 395.01 592.14 387.34 609.38 395.01 618 398.84 626.62 402.68 626.62 402.68"/>
      <polygon class="st1" points="626.62 356.67 626.62 364.33 626.62 364.33 618 360.5 609.38 356.67 592.14 349 583.52 352.83 574.9 356.67 566.28 360.5 557.67 364.33 557.63 364.32 557.63 356.68 557.67 356.67 566.28 352.83 574.9 349 583.52 345.16 592.14 341.33 600.76 345.16 609.38 349 618 352.83 626.61 356.67 626.62 356.67"/>
      <polygon class="st1" points="592.14 356.67 592.14 364.33 583.52 368.17 574.9 372 574.9 372 566.28 375.84 557.67 379.67 557.63 379.65 557.63 372.02 557.66 372 557.67 372 566.28 368.17 574.9 364.33 574.9 364.33 583.52 360.5 583.52 360.5 592.14 356.67"/>
      <polygon class="st1" points="626.62 387.34 626.62 395.01 626.61 395.01 618 391.17 609.38 387.34 600.76 383.51 592.14 379.67 583.52 383.51 574.9 387.34 566.28 391.17 557.67 395.01 557.63 394.99 557.63 387.36 557.66 387.34 557.67 387.34 566.28 383.51 574.9 379.67 583.52 375.84 583.52 375.84 592.14 372 600.76 375.84 609.38 379.67 618 383.51 626.62 387.34 626.62 387.34 626.62 387.34"/>
      <polygon class="st1" points="626.62 418.02 626.62 425.69 618 421.85 609.38 418.01 600.76 414.18 592.14 410.35 583.52 414.18 574.9 418.01 566.28 421.85 557.63 425.7 557.63 418.03 557.67 418.01 566.28 414.18 574.9 410.35 583.52 406.51 592.14 402.68 592.14 402.68 609.38 410.35 618 414.18 626.62 418.01 626.62 418.02"/>
    </g>
  </g>
</svg>