<?xml version="1.0" encoding="UTF-8"?>
<svg id="Layer_1" xmlns="http://www.w3.org/2000/svg" version="1.1" viewBox="0 0 406 359">
  <!-- Generator: Adobe Illustrator 29.5.0, SVG Export Plug-In . SVG Version: 2.1.0 Build 137)  -->
  <defs>
    <style>
      .st0 {
        fill: #f8f6f3;
      }

      .st1 {
        opacity: .15;
      }
    </style>
  </defs>
  <g class="st1">
    <g>
      <polygon class="st0" points="215.24 190.3 215.24 192.92 215.24 192.92 212.28 191.61 209.33 190.29 206.37 188.98 203.42 187.66 203.42 185.04 209.33 187.66 212.28 188.98 215.24 190.29 215.24 190.3"/>
      <polygon class="st0" points="215.24 174.52 215.24 177.14 215.24 177.15 212.28 175.83 209.33 174.52 203.42 171.89 200.46 173.2 197.5 174.52 194.55 175.83 191.59 177.15 191.58 177.14 191.58 174.52 191.59 174.52 194.55 173.2 197.5 171.89 200.46 170.57 203.42 169.26 206.37 170.57 209.33 171.89 212.28 173.2 215.24 174.52 215.24 174.52"/>
      <polygon class="st0" points="203.42 174.52 203.42 177.15 200.46 178.46 197.5 179.78 197.5 179.78 194.55 181.09 191.59 182.41 191.58 182.4 191.58 179.78 191.59 179.78 191.59 179.78 194.55 178.46 197.5 177.15 197.5 177.15 200.46 175.83 200.46 175.83 203.42 174.52"/>
      <polygon class="st0" points="215.24 185.04 215.24 187.66 215.24 187.66 212.28 186.35 209.33 185.04 206.37 183.72 203.42 182.41 200.46 183.72 197.5 185.04 194.55 186.35 191.59 187.66 191.58 187.66 191.58 185.04 191.59 185.03 191.59 185.03 194.55 183.72 197.5 182.41 200.46 181.09 200.46 181.09 203.42 179.78 206.37 181.09 209.33 182.41 212.28 183.72 215.24 185.03 215.24 185.03 215.24 185.04"/>
      <polygon class="st0" points="215.24 195.56 215.24 198.19 212.28 196.87 209.33 195.55 206.37 194.24 203.42 192.92 200.46 194.24 197.5 195.55 194.55 196.87 191.58 198.19 191.58 195.56 191.59 195.55 194.55 194.24 197.5 192.92 200.46 191.61 203.42 190.29 203.42 190.29 209.33 192.92 212.28 194.24 215.24 195.55 215.24 195.56"/>
    </g>
  </g>
  <g class="st1">
    <g>
      <polygon class="st0" points="247.87 190.3 247.87 192.92 247.87 192.92 244.91 191.61 241.96 190.29 239 188.98 236.04 187.66 236.04 185.04 241.96 187.66 244.91 188.98 247.87 190.29 247.87 190.3"/>
      <polygon class="st0" points="247.87 174.52 247.87 177.14 247.87 177.15 244.91 175.83 241.96 174.52 236.04 171.89 233.09 173.2 230.13 174.52 227.18 175.83 224.22 177.15 224.21 177.14 224.21 174.52 224.22 174.52 227.18 173.2 230.13 171.89 233.09 170.57 236.04 169.26 239 170.57 241.96 171.89 244.91 173.2 247.87 174.52 247.87 174.52"/>
      <polygon class="st0" points="236.04 174.52 236.04 177.15 233.09 178.46 230.13 179.78 230.13 179.78 227.18 181.09 224.22 182.41 224.21 182.4 224.21 179.78 224.22 179.78 224.22 179.78 227.18 178.46 230.13 177.15 230.13 177.15 233.09 175.83 233.09 175.83 236.04 174.52"/>
      <polygon class="st0" points="247.87 185.04 247.87 187.66 247.87 187.66 244.91 186.35 241.96 185.04 239 183.72 236.04 182.41 233.09 183.72 230.13 185.04 227.18 186.35 224.22 187.66 224.21 187.66 224.21 185.04 224.22 185.03 224.22 185.03 227.18 183.72 230.13 182.41 233.09 181.09 233.09 181.09 236.04 179.78 239 181.09 241.96 182.41 244.91 183.72 247.87 185.03 247.87 185.03 247.87 185.04"/>
      <polygon class="st0" points="247.87 195.56 247.87 198.19 244.91 196.87 241.96 195.55 239 194.24 236.04 192.92 233.09 194.24 230.13 195.55 227.18 196.87 224.21 198.19 224.21 195.56 224.22 195.55 227.18 194.24 230.13 192.92 233.09 191.61 236.04 190.29 236.04 190.29 241.96 192.92 244.91 194.24 247.87 195.55 247.87 195.56"/>
    </g>
  </g>
  <g class="st1">
    <g>
      <polygon class="st0" points="215.24 228.2 215.24 230.83 215.24 230.83 212.28 229.51 209.33 228.2 206.37 226.88 203.42 225.57 203.42 222.94 209.33 225.57 212.28 226.88 215.24 228.2 215.24 228.2"/>
      <polygon class="st0" points="215.24 212.42 215.24 215.05 215.24 215.05 212.28 213.73 209.33 212.42 203.42 209.79 200.46 211.1 197.5 212.42 194.55 213.73 191.59 215.05 191.58 215.04 191.58 212.43 191.59 212.42 194.55 211.1 197.5 209.79 200.46 208.47 203.42 207.16 206.37 208.47 209.33 209.79 212.28 211.1 215.24 212.42 215.24 212.42"/>
      <polygon class="st0" points="203.42 212.42 203.42 215.05 200.46 216.36 197.5 217.68 197.5 217.68 194.55 218.99 191.59 220.31 191.58 220.3 191.58 217.69 191.59 217.68 191.59 217.68 194.55 216.36 197.5 215.05 197.5 215.05 200.46 213.73 200.46 213.73 203.42 212.42"/>
      <polygon class="st0" points="215.24 222.94 215.24 225.57 215.24 225.57 212.28 224.25 209.33 222.94 206.37 221.62 203.42 220.31 200.46 221.62 197.5 222.94 194.55 224.25 191.59 225.57 191.58 225.56 191.58 222.94 191.59 222.94 191.59 222.94 194.55 221.62 197.5 220.31 200.46 218.99 200.46 218.99 203.42 217.68 206.37 218.99 209.33 220.31 212.28 221.62 215.24 222.94 215.24 222.94 215.24 222.94"/>
      <polygon class="st0" points="215.24 233.46 215.24 236.09 212.28 234.77 209.33 233.46 206.37 232.14 203.42 230.83 200.46 232.14 197.5 233.46 194.55 234.77 191.58 236.09 191.58 233.46 191.59 233.46 194.55 232.14 197.5 230.83 200.46 229.51 203.42 228.2 203.42 228.2 209.33 230.83 212.28 232.14 215.24 233.46 215.24 233.46"/>
    </g>
  </g>
  <g class="st1">
    <g>
      <polygon class="st0" points="247.87 228.2 247.87 230.83 247.87 230.83 244.91 229.51 241.96 228.2 239 226.88 236.04 225.57 236.04 222.94 241.96 225.57 244.91 226.88 247.87 228.2 247.87 228.2"/>
      <polygon class="st0" points="247.87 212.42 247.87 215.05 247.87 215.05 244.91 213.73 241.96 212.42 236.04 209.79 233.09 211.1 230.13 212.42 227.18 213.73 224.22 215.05 224.21 215.04 224.21 212.43 224.22 212.42 227.18 211.1 230.13 209.79 233.09 208.47 236.04 207.16 239 208.47 241.96 209.79 244.91 211.1 247.87 212.42 247.87 212.42"/>
      <polygon class="st0" points="236.04 212.42 236.04 215.05 233.09 216.36 230.13 217.68 230.13 217.68 227.18 218.99 224.22 220.31 224.21 220.3 224.21 217.69 224.22 217.68 224.22 217.68 227.18 216.36 230.13 215.05 230.13 215.05 233.09 213.73 233.09 213.73 236.04 212.42"/>
      <polygon class="st0" points="247.87 222.94 247.87 225.57 247.87 225.57 244.91 224.25 241.96 222.94 239 221.62 236.04 220.31 233.09 221.62 230.13 222.94 227.18 224.25 224.22 225.57 224.21 225.56 224.21 222.94 224.22 222.94 224.22 222.94 227.18 221.62 230.13 220.31 233.09 218.99 233.09 218.99 236.04 217.68 239 218.99 241.96 220.31 244.91 221.62 247.87 222.94 247.87 222.94 247.87 222.94"/>
      <polygon class="st0" points="247.87 233.46 247.87 236.09 244.91 234.77 241.96 233.46 239 232.14 236.04 230.83 233.09 232.14 230.13 233.46 227.18 234.77 224.21 236.09 224.21 233.46 224.22 233.46 227.18 232.14 230.13 230.83 233.09 229.51 236.04 228.2 236.04 228.2 241.96 230.83 244.91 232.14 247.87 233.46 247.87 233.46"/>
    </g>
  </g>
  <g class="st1">
    <g>
      <polygon class="st0" points="151.44 190.3 151.44 192.92 151.44 192.92 148.48 191.61 145.53 190.29 142.57 188.98 139.61 187.66 139.61 185.04 145.53 187.66 148.48 188.98 151.44 190.29 151.44 190.3"/>
      <polygon class="st0" points="151.44 174.52 151.44 177.14 151.44 177.15 148.48 175.83 145.53 174.52 139.61 171.89 136.66 173.2 133.7 174.52 130.75 175.83 127.79 177.15 127.78 177.14 127.78 174.52 127.79 174.52 130.75 173.2 133.7 171.89 136.66 170.57 139.61 169.26 142.57 170.57 145.53 171.89 148.48 173.2 151.44 174.52 151.44 174.52"/>
      <polygon class="st0" points="139.61 174.52 139.61 177.15 136.66 178.46 133.7 179.78 133.7 179.78 130.75 181.09 127.79 182.41 127.78 182.4 127.78 179.78 127.79 179.78 127.79 179.78 130.75 178.46 133.7 177.15 133.7 177.15 136.66 175.83 136.66 175.83 139.61 174.52"/>
      <polygon class="st0" points="151.44 185.04 151.44 187.66 151.44 187.66 148.48 186.35 145.53 185.04 142.57 183.72 139.61 182.41 136.66 183.72 133.7 185.04 130.75 186.35 127.79 187.66 127.78 187.66 127.78 185.04 127.79 185.03 127.79 185.03 130.75 183.72 133.7 182.41 136.66 181.09 136.66 181.09 139.61 179.78 142.57 181.09 145.53 182.41 148.48 183.72 151.44 185.03 151.44 185.03 151.44 185.04"/>
      <polygon class="st0" points="151.44 195.56 151.44 198.19 148.48 196.87 145.53 195.55 142.57 194.24 139.61 192.92 136.66 194.24 133.7 195.55 130.75 196.87 127.78 198.19 127.78 195.56 127.79 195.55 130.75 194.24 133.7 192.92 136.66 191.61 139.61 190.29 139.61 190.29 145.53 192.92 148.48 194.24 151.44 195.55 151.44 195.56"/>
    </g>
  </g>
  <g class="st1">
    <g>
      <polygon class="st0" points="184.07 190.3 184.07 192.92 184.06 192.92 181.11 191.61 178.15 190.29 175.2 188.98 172.24 187.66 172.24 185.04 178.15 187.66 181.11 188.98 184.06 190.29 184.07 190.3"/>
      <polygon class="st0" points="184.07 174.52 184.07 177.14 184.06 177.15 181.11 175.83 178.15 174.52 172.24 171.89 169.29 173.2 166.33 174.52 163.37 175.83 160.42 177.15 160.41 177.14 160.41 174.52 160.42 174.52 163.37 173.2 166.33 171.89 169.29 170.57 172.24 169.26 175.2 170.57 178.15 171.89 181.11 173.2 184.06 174.52 184.07 174.52"/>
      <polygon class="st0" points="172.24 174.52 172.24 177.15 169.29 178.46 166.33 179.78 166.33 179.78 163.37 181.09 160.42 182.41 160.41 182.4 160.41 179.78 160.42 179.78 160.42 179.78 163.37 178.46 166.33 177.15 166.33 177.15 169.29 175.83 169.29 175.83 172.24 174.52"/>
      <polygon class="st0" points="184.07 185.04 184.07 187.66 184.06 187.66 181.11 186.35 178.15 185.04 175.2 183.72 172.24 182.41 169.29 183.72 166.33 185.04 163.37 186.35 160.42 187.66 160.41 187.66 160.41 185.04 160.42 185.03 160.42 185.03 163.37 183.72 166.33 182.41 169.29 181.09 169.29 181.09 172.24 179.78 175.2 181.09 178.15 182.41 181.11 183.72 184.06 185.03 184.06 185.03 184.07 185.04"/>
      <polygon class="st0" points="184.07 195.56 184.07 198.19 181.11 196.87 178.15 195.55 175.2 194.24 172.24 192.92 169.29 194.24 166.33 195.55 163.37 196.87 160.41 198.19 160.41 195.56 160.42 195.55 163.37 194.24 166.33 192.92 169.29 191.61 172.24 190.29 172.24 190.29 178.15 192.92 181.11 194.24 184.06 195.55 184.07 195.56"/>
    </g>
  </g>
  <g class="st1">
    <g>
      <polygon class="st0" points="151.44 228.2 151.44 230.83 151.44 230.83 148.48 229.51 145.53 228.2 142.57 226.88 139.61 225.57 139.61 222.94 145.53 225.57 148.48 226.88 151.44 228.2 151.44 228.2"/>
      <polygon class="st0" points="151.44 212.42 151.44 215.05 151.44 215.05 148.48 213.73 145.53 212.42 139.61 209.79 136.66 211.1 133.7 212.42 130.75 213.73 127.79 215.05 127.78 215.04 127.78 212.43 127.79 212.42 130.75 211.1 133.7 209.79 136.66 208.47 139.61 207.16 142.57 208.47 145.53 209.79 148.48 211.1 151.44 212.42 151.44 212.42"/>
      <polygon class="st0" points="139.61 212.42 139.61 215.05 136.66 216.36 133.7 217.68 133.7 217.68 130.75 218.99 127.79 220.31 127.78 220.3 127.78 217.69 127.79 217.68 127.79 217.68 130.75 216.36 133.7 215.05 133.7 215.05 136.66 213.73 136.66 213.73 139.61 212.42"/>
      <polygon class="st0" points="151.44 222.94 151.44 225.57 151.44 225.57 148.48 224.25 145.53 222.94 142.57 221.62 139.61 220.31 136.66 221.62 133.7 222.94 130.75 224.25 127.79 225.57 127.78 225.56 127.78 222.94 127.79 222.94 127.79 222.94 130.75 221.62 133.7 220.31 136.66 218.99 136.66 218.99 139.61 217.68 142.57 218.99 145.53 220.31 148.48 221.62 151.44 222.94 151.44 222.94 151.44 222.94"/>
      <polygon class="st0" points="151.44 233.46 151.44 236.09 148.48 234.77 145.53 233.46 142.57 232.14 139.61 230.83 136.66 232.14 133.7 233.46 130.75 234.77 127.78 236.09 127.78 233.46 127.79 233.46 130.75 232.14 133.7 230.83 136.66 229.51 139.61 228.2 139.61 228.2 145.53 230.83 148.48 232.14 151.44 233.46 151.44 233.46"/>
    </g>
  </g>
  <g class="st1">
    <g>
      <polygon class="st0" points="184.07 228.2 184.07 230.83 184.06 230.83 181.11 229.51 178.15 228.2 175.2 226.88 172.24 225.57 172.24 222.94 178.15 225.57 181.11 226.88 184.06 228.2 184.07 228.2"/>
      <polygon class="st0" points="184.07 212.42 184.07 215.05 184.06 215.05 181.11 213.73 178.15 212.42 172.24 209.79 169.29 211.1 166.33 212.42 163.37 213.73 160.42 215.05 160.41 215.04 160.41 212.43 160.42 212.42 163.37 211.1 166.33 209.79 169.29 208.47 172.24 207.16 175.2 208.47 178.15 209.79 181.11 211.1 184.06 212.42 184.07 212.42"/>
      <polygon class="st0" points="172.24 212.42 172.24 215.05 169.29 216.36 166.33 217.68 166.33 217.68 163.37 218.99 160.42 220.31 160.41 220.3 160.41 217.69 160.42 217.68 160.42 217.68 163.37 216.36 166.33 215.05 166.33 215.05 169.29 213.73 169.29 213.73 172.24 212.42"/>
      <polygon class="st0" points="184.07 222.94 184.07 225.57 184.06 225.57 181.11 224.25 178.15 222.94 175.2 221.62 172.24 220.31 169.29 221.62 166.33 222.94 163.37 224.25 160.42 225.57 160.41 225.56 160.41 222.94 160.42 222.94 160.42 222.94 163.37 221.62 166.33 220.31 169.29 218.99 169.29 218.99 172.24 217.68 175.2 218.99 178.15 220.31 181.11 221.62 184.06 222.94 184.06 222.94 184.07 222.94"/>
      <polygon class="st0" points="184.07 233.46 184.07 236.09 181.11 234.77 178.15 233.46 175.2 232.14 172.24 230.83 169.29 232.14 166.33 233.46 163.37 234.77 160.41 236.09 160.41 233.46 160.42 233.46 163.37 232.14 166.33 230.83 169.29 229.51 172.24 228.2 172.24 228.2 178.15 230.83 181.11 232.14 184.06 233.46 184.07 233.46"/>
    </g>
  </g>
  <g class="st1">
    <g>
      <polygon class="st0" points="118.72 190.3 118.72 192.92 118.72 192.92 115.76 191.61 112.81 190.29 109.85 188.98 106.89 187.66 106.89 185.04 112.81 187.66 115.76 188.98 118.72 190.29 118.72 190.3"/>
      <polygon class="st0" points="118.72 174.52 118.72 177.14 118.72 177.15 115.76 175.83 112.81 174.52 106.89 171.89 103.94 173.2 100.98 174.52 98.03 175.83 95.07 177.15 95.06 177.14 95.06 174.52 95.07 174.52 98.03 173.2 100.98 171.89 103.94 170.57 106.89 169.26 109.85 170.57 112.81 171.89 115.76 173.2 118.72 174.52 118.72 174.52"/>
      <polygon class="st0" points="106.89 174.52 106.89 177.15 103.94 178.46 100.98 179.78 100.98 179.78 98.03 181.09 95.07 182.41 95.06 182.4 95.06 179.78 95.07 179.78 95.07 179.78 98.03 178.46 100.98 177.15 100.98 177.15 103.94 175.83 103.94 175.83 106.89 174.52"/>
      <polygon class="st0" points="118.72 185.04 118.72 187.66 118.72 187.66 115.76 186.35 112.81 185.04 109.85 183.72 106.89 182.41 103.94 183.72 100.98 185.04 98.03 186.35 95.07 187.66 95.06 187.66 95.06 185.04 95.07 185.03 95.07 185.03 98.03 183.72 100.98 182.41 103.94 181.09 103.94 181.09 106.89 179.78 109.85 181.09 112.81 182.41 115.76 183.72 118.72 185.03 118.72 185.03 118.72 185.04"/>
      <polygon class="st0" points="118.72 195.56 118.72 198.19 115.76 196.87 112.81 195.55 109.85 194.24 106.89 192.92 103.94 194.24 100.98 195.55 98.03 196.87 95.06 198.19 95.06 195.56 95.07 195.55 98.03 194.24 100.98 192.92 103.94 191.61 106.89 190.29 106.89 190.29 112.81 192.92 115.76 194.24 118.72 195.55 118.72 195.56"/>
    </g>
  </g>
  <g class="st1">
    <g>
      <polygon class="st0" points="118.72 228.2 118.72 230.83 118.72 230.83 115.76 229.51 112.81 228.2 109.85 226.88 106.89 225.57 106.89 222.94 112.81 225.57 115.76 226.88 118.72 228.2 118.72 228.2"/>
      <polygon class="st0" points="118.72 212.42 118.72 215.05 118.72 215.05 115.76 213.73 112.81 212.42 106.89 209.79 103.94 211.1 100.98 212.42 98.03 213.73 95.07 215.05 95.06 215.04 95.06 212.43 95.07 212.42 98.03 211.1 100.98 209.79 103.94 208.47 106.89 207.16 109.85 208.47 112.81 209.79 115.76 211.1 118.72 212.42 118.72 212.42"/>
      <polygon class="st0" points="106.89 212.42 106.89 215.05 103.94 216.36 100.98 217.68 100.98 217.68 98.03 218.99 95.07 220.31 95.06 220.3 95.06 217.69 95.07 217.68 95.07 217.68 98.03 216.36 100.98 215.05 100.98 215.05 103.94 213.73 103.94 213.73 106.89 212.42"/>
      <polygon class="st0" points="118.72 222.94 118.72 225.57 118.72 225.57 115.76 224.25 112.81 222.94 109.85 221.62 106.89 220.31 103.94 221.62 100.98 222.94 98.03 224.25 95.07 225.57 95.06 225.56 95.06 222.94 95.07 222.94 95.07 222.94 98.03 221.62 100.98 220.31 103.94 218.99 103.94 218.99 106.89 217.68 109.85 218.99 112.81 220.31 115.76 221.62 118.72 222.94 118.72 222.94 118.72 222.94"/>
      <polygon class="st0" points="118.72 233.46 118.72 236.09 115.76 234.77 112.81 233.46 109.85 232.14 106.89 230.83 103.94 232.14 100.98 233.46 98.03 234.77 95.06 236.09 95.06 233.46 95.07 233.46 98.03 232.14 100.98 230.83 103.94 229.51 106.89 228.2 106.89 228.2 112.81 230.83 115.76 232.14 118.72 233.46 118.72 233.46"/>
    </g>
  </g>
  <g class="st1">
    <g>
      <polygon class="st0" points="54.92 190.3 54.92 192.92 54.91 192.92 51.96 191.61 49 190.29 46.05 188.98 43.09 187.66 43.09 185.04 49 187.66 51.96 188.98 54.91 190.29 54.92 190.3"/>
      <polygon class="st0" points="54.92 174.52 54.92 177.14 54.91 177.15 51.96 175.83 49 174.52 43.09 171.89 40.14 173.2 37.18 174.52 34.22 175.83 31.27 177.15 31.26 177.14 31.26 174.52 31.27 174.52 34.22 173.2 37.18 171.89 40.14 170.57 43.09 169.26 46.05 170.57 49 171.89 51.96 173.2 54.91 174.52 54.92 174.52"/>
      <polygon class="st0" points="43.09 174.52 43.09 177.15 40.14 178.46 37.18 179.78 37.18 179.78 34.22 181.09 31.27 182.41 31.26 182.4 31.26 179.78 31.27 179.78 31.27 179.78 34.22 178.46 37.18 177.15 37.18 177.15 40.14 175.83 40.14 175.83 43.09 174.52"/>
      <polygon class="st0" points="54.92 185.04 54.92 187.66 54.91 187.66 51.96 186.35 49 185.04 46.05 183.72 43.09 182.41 40.14 183.72 37.18 185.04 34.22 186.35 31.27 187.66 31.26 187.66 31.26 185.04 31.27 185.03 31.27 185.03 34.22 183.72 37.18 182.41 40.14 181.09 40.14 181.09 43.09 179.78 46.05 181.09 49 182.41 51.96 183.72 54.91 185.03 54.92 185.03 54.92 185.04"/>
      <polygon class="st0" points="54.92 195.56 54.92 198.19 51.96 196.87 49 195.55 46.05 194.24 43.09 192.92 40.14 194.24 37.18 195.55 34.22 196.87 31.26 198.19 31.26 195.56 31.27 195.55 34.22 194.24 37.18 192.92 40.14 191.61 43.09 190.29 43.09 190.29 49 192.92 51.96 194.24 54.91 195.55 54.92 195.56"/>
    </g>
  </g>
  <g class="st1">
    <g>
      <polygon class="st0" points="87.54 190.3 87.54 192.92 87.54 192.92 84.59 191.61 81.63 190.29 78.68 188.98 75.72 187.66 75.72 185.04 81.63 187.66 84.59 188.98 87.54 190.29 87.54 190.3"/>
      <polygon class="st0" points="87.54 174.52 87.54 177.14 87.54 177.15 84.59 175.83 81.63 174.52 75.72 171.89 72.76 173.2 69.81 174.52 66.85 175.83 63.9 177.15 63.88 177.14 63.88 174.52 63.9 174.52 66.85 173.2 69.81 171.89 72.76 170.57 75.72 169.26 78.68 170.57 81.63 171.89 84.59 173.2 87.54 174.52 87.54 174.52"/>
      <polygon class="st0" points="75.72 174.52 75.72 177.15 72.76 178.46 69.81 179.78 69.81 179.78 66.85 181.09 63.9 182.41 63.88 182.4 63.88 179.78 63.9 179.78 63.9 179.78 66.85 178.46 69.81 177.15 69.81 177.15 72.76 175.83 72.76 175.83 75.72 174.52"/>
      <polygon class="st0" points="87.54 185.04 87.54 187.66 87.54 187.66 84.59 186.35 81.63 185.04 78.68 183.72 75.72 182.41 72.76 183.72 69.81 185.04 66.85 186.35 63.9 187.66 63.88 187.66 63.88 185.04 63.9 185.03 63.9 185.03 66.85 183.72 69.81 182.41 72.76 181.09 72.76 181.09 75.72 179.78 78.68 181.09 81.63 182.41 84.59 183.72 87.54 185.03 87.54 185.03 87.54 185.04"/>
      <polygon class="st0" points="87.54 195.56 87.54 198.19 84.59 196.87 81.63 195.55 78.68 194.24 75.72 192.92 72.76 194.24 69.81 195.55 66.85 196.87 63.88 198.19 63.88 195.56 63.9 195.55 66.85 194.24 69.81 192.92 72.76 191.61 75.72 190.29 75.72 190.29 81.63 192.92 84.59 194.24 87.54 195.55 87.54 195.56"/>
    </g>
  </g>
  <g class="st1">
    <g>
      <polygon class="st0" points="54.92 228.2 54.92 230.83 54.91 230.83 51.96 229.51 49 228.2 46.05 226.88 43.09 225.57 43.09 222.94 49 225.57 51.96 226.88 54.91 228.2 54.92 228.2"/>
      <polygon class="st0" points="54.92 212.42 54.92 215.05 54.91 215.05 51.96 213.73 49 212.42 43.09 209.79 40.14 211.1 37.18 212.42 34.22 213.73 31.27 215.05 31.26 215.04 31.26 212.43 31.27 212.42 34.22 211.1 37.18 209.79 40.14 208.47 43.09 207.16 46.05 208.47 49 209.79 51.96 211.1 54.91 212.42 54.92 212.42"/>
      <polygon class="st0" points="43.09 212.42 43.09 215.05 40.14 216.36 37.18 217.68 37.18 217.68 34.22 218.99 31.27 220.31 31.26 220.3 31.26 217.69 31.27 217.68 31.27 217.68 34.22 216.36 37.18 215.05 37.18 215.05 40.14 213.73 40.14 213.73 43.09 212.42"/>
      <polygon class="st0" points="54.92 222.94 54.92 225.57 54.91 225.57 51.96 224.25 49 222.94 46.05 221.62 43.09 220.31 40.14 221.62 37.18 222.94 34.22 224.25 31.27 225.57 31.26 225.56 31.26 222.94 31.27 222.94 31.27 222.94 34.22 221.62 37.18 220.31 40.14 218.99 40.14 218.99 43.09 217.68 46.05 218.99 49 220.31 51.96 221.62 54.91 222.94 54.92 222.94 54.92 222.94"/>
      <polygon class="st0" points="54.92 233.46 54.92 236.09 51.96 234.77 49 233.46 46.05 232.14 43.09 230.83 40.14 232.14 37.18 233.46 34.22 234.77 31.26 236.09 31.26 233.46 31.27 233.46 34.22 232.14 37.18 230.83 40.14 229.51 43.09 228.2 43.09 228.2 49 230.83 51.96 232.14 54.91 233.46 54.92 233.46"/>
    </g>
  </g>
  <g class="st1">
    <g>
      <polygon class="st0" points="23.66 190.3 23.66 192.92 23.66 192.92 20.7 191.61 17.75 190.29 14.79 188.98 11.84 187.66 11.84 185.04 17.75 187.66 20.7 188.98 23.66 190.29 23.66 190.3"/>
      <polygon class="st0" points="23.66 174.52 23.66 177.14 23.66 177.15 20.7 175.83 17.75 174.52 11.84 171.89 8.88 173.2 5.92 174.52 2.97 175.83 .01 177.15 0 177.14 0 174.52 .01 174.52 2.97 173.2 5.92 171.89 8.88 170.57 11.84 169.26 14.79 170.57 17.75 171.89 20.7 173.2 23.66 174.52 23.66 174.52"/>
      <polygon class="st0" points="11.84 174.52 11.84 177.15 8.88 178.46 5.92 179.78 5.92 179.78 2.97 181.09 .01 182.41 0 182.4 0 179.78 .01 179.78 .01 179.78 2.97 178.46 5.92 177.15 5.92 177.15 8.88 175.83 8.88 175.83 11.84 174.52"/>
      <polygon class="st0" points="23.66 185.04 23.66 187.66 23.66 187.66 20.7 186.35 17.75 185.04 14.79 183.72 11.84 182.41 8.88 183.72 5.92 185.04 2.97 186.35 .01 187.66 0 187.66 0 185.04 .01 185.03 .01 185.03 2.97 183.72 5.92 182.41 8.88 181.09 8.88 181.09 11.84 179.78 14.79 181.09 17.75 182.41 20.7 183.72 23.66 185.03 23.66 185.03 23.66 185.04"/>
      <polygon class="st0" points="23.66 195.56 23.66 198.19 20.7 196.87 17.75 195.55 14.79 194.24 11.84 192.92 8.88 194.24 5.92 195.55 2.97 196.87 0 198.19 0 195.56 .01 195.55 2.97 194.24 5.92 192.92 8.88 191.61 11.84 190.29 11.84 190.29 17.75 192.92 20.7 194.24 23.66 195.55 23.66 195.56"/>
    </g>
  </g>
  <g class="st1">
    <g>
      <polygon class="st0" points="23.66 228.2 23.66 230.83 23.66 230.83 20.7 229.51 17.75 228.2 14.79 226.88 11.84 225.57 11.84 222.94 17.75 225.57 20.7 226.88 23.66 228.2 23.66 228.2"/>
      <polygon class="st0" points="23.66 212.42 23.66 215.05 23.66 215.05 20.7 213.73 17.75 212.42 11.84 209.79 8.88 211.1 5.92 212.42 2.97 213.73 .01 215.05 0 215.04 0 212.43 .01 212.42 2.97 211.1 5.92 209.79 8.88 208.47 11.84 207.16 14.79 208.47 17.75 209.79 20.7 211.1 23.66 212.42 23.66 212.42"/>
      <polygon class="st0" points="11.84 212.42 11.84 215.05 8.88 216.36 5.92 217.68 5.92 217.68 2.97 218.99 .01 220.31 0 220.3 0 217.69 .01 217.68 .01 217.68 2.97 216.36 5.92 215.05 5.92 215.05 8.88 213.73 8.88 213.73 11.84 212.42"/>
      <polygon class="st0" points="23.66 222.94 23.66 225.57 23.66 225.57 20.7 224.25 17.75 222.94 14.79 221.62 11.84 220.31 8.88 221.62 5.92 222.94 2.97 224.25 .01 225.57 0 225.56 0 222.94 .01 222.94 .01 222.94 2.97 221.62 5.92 220.31 8.88 218.99 8.88 218.99 11.84 217.68 14.79 218.99 17.75 220.31 20.7 221.62 23.66 222.94 23.66 222.94 23.66 222.94"/>
      <polygon class="st0" points="23.66 233.46 23.66 236.09 20.7 234.77 17.75 233.46 14.79 232.14 11.84 230.83 8.88 232.14 5.92 233.46 2.97 234.77 0 236.09 0 233.46 .01 233.46 2.97 232.14 5.92 230.83 8.88 229.51 11.84 228.2 11.84 228.2 17.75 230.83 20.7 232.14 23.66 233.46 23.66 233.46"/>
    </g>
  </g>
  <g class="st1">
    <g>
      <polygon class="st0" points="87.54 228.2 87.54 230.83 87.54 230.83 84.59 229.51 81.63 228.2 78.68 226.88 75.72 225.57 75.72 222.94 81.63 225.57 84.59 226.88 87.54 228.2 87.54 228.2"/>
      <polygon class="st0" points="87.54 212.42 87.54 215.05 87.54 215.05 84.59 213.73 81.63 212.42 75.72 209.79 72.76 211.1 69.81 212.42 66.85 213.73 63.9 215.05 63.88 215.04 63.88 212.43 63.9 212.42 66.85 211.1 69.81 209.79 72.76 208.47 75.72 207.16 78.68 208.47 81.63 209.79 84.59 211.1 87.54 212.42 87.54 212.42"/>
      <polygon class="st0" points="75.72 212.42 75.72 215.05 72.76 216.36 69.81 217.68 69.81 217.68 66.85 218.99 63.9 220.31 63.88 220.3 63.88 217.69 63.9 217.68 63.9 217.68 66.85 216.36 69.81 215.05 69.81 215.05 72.76 213.73 72.76 213.73 75.72 212.42"/>
      <polygon class="st0" points="87.54 222.94 87.54 225.57 87.54 225.57 84.59 224.25 81.63 222.94 78.68 221.62 75.72 220.31 72.76 221.62 69.81 222.94 66.85 224.25 63.9 225.57 63.88 225.56 63.88 222.94 63.9 222.94 63.9 222.94 66.85 221.62 69.81 220.31 72.76 218.99 72.76 218.99 75.72 217.68 78.68 218.99 81.63 220.31 84.59 221.62 87.54 222.94 87.54 222.94 87.54 222.94"/>
      <polygon class="st0" points="87.54 233.46 87.54 236.09 84.59 234.77 81.63 233.46 78.68 232.14 75.72 230.83 72.76 232.14 69.81 233.46 66.85 234.77 63.88 236.09 63.88 233.46 63.9 233.46 66.85 232.14 69.81 230.83 72.76 229.51 75.72 228.2 75.72 228.2 81.63 230.83 84.59 232.14 87.54 233.46 87.54 233.46"/>
    </g>
  </g>
  <g class="st1">
    <g>
      <polygon class="st0" points="278.83 190.3 278.83 192.92 278.82 192.92 275.87 191.61 272.91 190.29 269.96 188.98 267 187.66 267 185.04 272.91 187.66 275.87 188.98 278.83 190.29 278.83 190.3"/>
      <polygon class="st0" points="278.83 174.52 278.83 177.14 278.83 177.15 275.87 175.83 272.91 174.52 267 171.89 264.05 173.2 261.09 174.52 258.14 175.83 255.18 177.15 255.17 177.14 255.17 174.52 255.18 174.52 258.14 173.2 261.09 171.89 264.05 170.57 267 169.26 269.96 170.57 272.91 171.89 275.87 173.2 278.82 174.52 278.83 174.52"/>
      <polygon class="st0" points="267 174.52 267 177.15 264.05 178.46 261.09 179.78 261.09 179.78 258.14 181.09 255.18 182.41 255.17 182.4 255.17 179.78 255.18 179.78 255.18 179.78 258.14 178.46 261.09 177.15 261.09 177.15 264.05 175.83 264.05 175.83 267 174.52"/>
      <polygon class="st0" points="278.83 185.04 278.83 187.66 278.82 187.66 275.87 186.35 272.91 185.04 269.96 183.72 267 182.41 264.05 183.72 261.09 185.04 258.14 186.35 255.18 187.66 255.17 187.66 255.17 185.04 255.18 185.03 255.18 185.03 258.14 183.72 261.09 182.41 264.05 181.09 264.05 181.09 267 179.78 269.96 181.09 272.91 182.41 275.87 183.72 278.83 185.03 278.83 185.03 278.83 185.04"/>
      <polygon class="st0" points="278.83 195.56 278.83 198.19 275.87 196.87 272.91 195.55 269.96 194.24 267 192.92 264.05 194.24 261.09 195.55 258.14 196.87 255.17 198.19 255.17 195.56 255.18 195.55 258.14 194.24 261.09 192.92 264.05 191.61 267 190.29 267 190.29 272.91 192.92 275.87 194.24 278.83 195.55 278.83 195.56"/>
    </g>
  </g>
  <g class="st1">
    <g>
      <polygon class="st0" points="311.46 190.3 311.46 192.92 311.45 192.92 308.5 191.61 305.54 190.29 302.59 188.98 299.63 187.66 299.63 185.04 305.54 187.66 308.5 188.98 311.45 190.29 311.46 190.3"/>
      <polygon class="st0" points="311.46 174.52 311.46 177.14 311.45 177.15 308.5 175.83 305.54 174.52 299.63 171.89 296.67 173.2 293.72 174.52 290.76 175.83 287.81 177.15 287.79 177.14 287.79 174.52 287.81 174.52 290.76 173.2 293.72 171.89 296.67 170.57 299.63 169.26 302.59 170.57 305.54 171.89 308.5 173.2 311.45 174.52 311.46 174.52"/>
      <polygon class="st0" points="299.63 174.52 299.63 177.15 296.67 178.46 293.72 179.78 293.72 179.78 290.76 181.09 287.81 182.41 287.79 182.4 287.79 179.78 287.81 179.78 287.81 179.78 290.76 178.46 293.72 177.15 293.72 177.15 296.67 175.83 296.67 175.83 299.63 174.52"/>
      <polygon class="st0" points="311.46 185.04 311.46 187.66 311.45 187.66 308.5 186.35 305.54 185.04 302.59 183.72 299.63 182.41 296.67 183.72 293.72 185.04 290.76 186.35 287.81 187.66 287.79 187.66 287.79 185.04 287.81 185.03 287.81 185.03 290.76 183.72 293.72 182.41 296.67 181.09 296.67 181.09 299.63 179.78 302.59 181.09 305.54 182.41 308.5 183.72 311.45 185.03 311.45 185.03 311.46 185.04"/>
      <polygon class="st0" points="311.46 195.56 311.46 198.19 308.5 196.87 305.54 195.55 302.59 194.24 299.63 192.92 296.67 194.24 293.72 195.55 290.76 196.87 287.79 198.19 287.79 195.56 287.81 195.55 290.76 194.24 293.72 192.92 296.67 191.61 299.63 190.29 299.63 190.29 305.54 192.92 308.5 194.24 311.45 195.55 311.46 195.56"/>
    </g>
  </g>
  <g class="st1">
    <g>
      <polygon class="st0" points="278.83 228.2 278.83 230.83 278.82 230.83 275.87 229.51 272.91 228.2 269.96 226.88 267 225.57 267 222.94 272.91 225.57 275.87 226.88 278.83 228.2 278.83 228.2"/>
      <polygon class="st0" points="278.83 212.42 278.83 215.05 278.83 215.05 275.87 213.73 272.91 212.42 267 209.79 264.05 211.1 261.09 212.42 258.14 213.73 255.18 215.05 255.17 215.04 255.17 212.43 255.18 212.42 258.14 211.1 261.09 209.79 264.05 208.47 267 207.16 269.96 208.47 272.91 209.79 275.87 211.1 278.82 212.42 278.83 212.42"/>
      <polygon class="st0" points="267 212.42 267 215.05 264.05 216.36 261.09 217.68 261.09 217.68 258.14 218.99 255.18 220.31 255.17 220.3 255.17 217.69 255.18 217.68 255.18 217.68 258.14 216.36 261.09 215.05 261.09 215.05 264.05 213.73 264.05 213.73 267 212.42"/>
      <polygon class="st0" points="278.83 222.94 278.83 225.57 278.82 225.57 275.87 224.25 272.91 222.94 269.96 221.62 267 220.31 264.05 221.62 261.09 222.94 258.14 224.25 255.18 225.57 255.17 225.56 255.17 222.94 255.18 222.94 255.18 222.94 258.14 221.62 261.09 220.31 264.05 218.99 264.05 218.99 267 217.68 269.96 218.99 272.91 220.31 275.87 221.62 278.83 222.94 278.83 222.94 278.83 222.94"/>
      <polygon class="st0" points="278.83 233.46 278.83 236.09 275.87 234.77 272.91 233.46 269.96 232.14 267 230.83 264.05 232.14 261.09 233.46 258.14 234.77 255.17 236.09 255.17 233.46 255.18 233.46 258.14 232.14 261.09 230.83 264.05 229.51 267 228.2 267 228.2 272.91 230.83 275.87 232.14 278.83 233.46 278.83 233.46"/>
    </g>
  </g>
  <g class="st1">
    <g>
      <polygon class="st0" points="311.46 228.2 311.46 230.83 311.45 230.83 308.5 229.51 305.54 228.2 302.59 226.88 299.63 225.57 299.63 222.94 305.54 225.57 308.5 226.88 311.45 228.2 311.46 228.2"/>
      <polygon class="st0" points="311.46 212.42 311.46 215.05 311.45 215.05 308.5 213.73 305.54 212.42 299.63 209.79 296.67 211.1 293.72 212.42 290.76 213.73 287.81 215.05 287.79 215.04 287.79 212.43 287.81 212.42 290.76 211.1 293.72 209.79 296.67 208.47 299.63 207.16 302.59 208.47 305.54 209.79 308.5 211.1 311.45 212.42 311.46 212.42"/>
      <polygon class="st0" points="299.63 212.42 299.63 215.05 296.67 216.36 293.72 217.68 293.72 217.68 290.76 218.99 287.81 220.31 287.79 220.3 287.79 217.69 287.81 217.68 287.81 217.68 290.76 216.36 293.72 215.05 293.72 215.05 296.67 213.73 296.67 213.73 299.63 212.42"/>
      <polygon class="st0" points="311.46 222.94 311.46 225.57 311.45 225.57 308.5 224.25 305.54 222.94 302.59 221.62 299.63 220.31 296.67 221.62 293.72 222.94 290.76 224.25 287.81 225.57 287.79 225.56 287.79 222.94 287.81 222.94 287.81 222.94 290.76 221.62 293.72 220.31 296.67 218.99 296.67 218.99 299.63 217.68 302.59 218.99 305.54 220.31 308.5 221.62 311.45 222.94 311.45 222.94 311.46 222.94"/>
      <polygon class="st0" points="311.46 233.46 311.46 236.09 308.5 234.77 305.54 233.46 302.59 232.14 299.63 230.83 296.67 232.14 293.72 233.46 290.76 234.77 287.79 236.09 287.79 233.46 287.81 233.46 290.76 232.14 293.72 230.83 296.67 229.51 299.63 228.2 299.63 228.2 305.54 230.83 308.5 232.14 311.45 233.46 311.46 233.46"/>
    </g>
  </g>
  <g class="st1">
    <g>
      <polygon class="st0" points="342.41 190.3 342.41 192.92 342.41 192.92 339.46 191.61 336.5 190.29 333.54 188.98 330.59 187.66 330.59 185.04 336.5 187.66 339.46 188.98 342.41 190.29 342.41 190.3"/>
      <polygon class="st0" points="342.41 174.52 342.41 177.14 342.41 177.15 339.46 175.83 336.5 174.52 330.59 171.89 327.63 173.2 324.68 174.52 321.72 175.83 318.77 177.15 318.75 177.14 318.75 174.52 318.77 174.52 321.72 173.2 324.68 171.89 327.63 170.57 330.59 169.26 333.54 170.57 336.5 171.89 339.46 173.2 342.41 174.52 342.41 174.52"/>
      <polygon class="st0" points="330.59 174.52 330.59 177.15 327.63 178.46 324.68 179.78 324.68 179.78 321.72 181.09 318.77 182.41 318.75 182.4 318.75 179.78 318.77 179.78 318.77 179.78 321.72 178.46 324.68 177.15 324.68 177.15 327.63 175.83 327.63 175.83 330.59 174.52"/>
      <polygon class="st0" points="342.41 185.04 342.41 187.66 342.41 187.66 339.46 186.35 336.5 185.04 333.54 183.72 330.59 182.41 327.63 183.72 324.68 185.04 321.72 186.35 318.77 187.66 318.75 187.66 318.75 185.04 318.77 185.03 318.77 185.03 321.72 183.72 324.68 182.41 327.63 181.09 327.63 181.09 330.59 179.78 333.54 181.09 336.5 182.41 339.46 183.72 342.41 185.03 342.41 185.03 342.41 185.04"/>
      <polygon class="st0" points="342.41 195.56 342.41 198.19 339.46 196.87 336.5 195.55 333.54 194.24 330.59 192.92 327.63 194.24 324.68 195.55 321.72 196.87 318.75 198.19 318.75 195.56 318.77 195.55 321.72 194.24 324.68 192.92 327.63 191.61 330.59 190.29 330.59 190.29 336.5 192.92 339.46 194.24 342.41 195.55 342.41 195.56"/>
    </g>
  </g>
  <g class="st1">
    <g>
      <polygon class="st0" points="375.04 190.3 375.04 192.92 375.04 192.92 372.08 191.61 369.13 190.29 366.17 188.98 363.22 187.66 363.22 185.04 369.13 187.66 372.08 188.98 375.04 190.29 375.04 190.3"/>
      <polygon class="st0" points="375.04 174.52 375.04 177.14 375.04 177.15 372.08 175.83 369.13 174.52 363.22 171.89 360.26 173.2 357.31 174.52 354.35 175.83 351.39 177.15 351.38 177.14 351.38 174.52 351.39 174.52 354.35 173.2 357.31 171.89 360.26 170.57 363.22 169.26 366.17 170.57 369.13 171.89 372.08 173.2 375.04 174.52 375.04 174.52"/>
      <polygon class="st0" points="363.22 174.52 363.22 177.15 360.26 178.46 357.31 179.78 357.31 179.78 354.35 181.09 351.39 182.41 351.38 182.4 351.38 179.78 351.39 179.78 351.39 179.78 354.35 178.46 357.31 177.15 357.31 177.15 360.26 175.83 360.26 175.83 363.22 174.52"/>
      <polygon class="st0" points="375.04 185.04 375.04 187.66 375.04 187.66 372.08 186.35 369.13 185.04 366.17 183.72 363.22 182.41 360.26 183.72 357.31 185.04 354.35 186.35 351.39 187.66 351.38 187.66 351.38 185.04 351.39 185.03 351.39 185.03 354.35 183.72 357.31 182.41 360.26 181.09 360.26 181.09 363.22 179.78 366.17 181.09 369.13 182.41 372.08 183.72 375.04 185.03 375.04 185.03 375.04 185.04"/>
      <polygon class="st0" points="375.04 195.56 375.04 198.19 372.08 196.87 369.13 195.55 366.17 194.24 363.22 192.92 360.26 194.24 357.31 195.55 354.35 196.87 351.38 198.19 351.38 195.56 351.39 195.55 354.35 194.24 357.31 192.92 360.26 191.61 363.22 190.29 363.22 190.29 369.13 192.92 372.08 194.24 375.04 195.55 375.04 195.56"/>
    </g>
  </g>
  <g class="st1">
    <g>
      <polygon class="st0" points="342.41 228.2 342.41 230.83 342.41 230.83 339.46 229.51 336.5 228.2 333.54 226.88 330.59 225.57 330.59 222.94 336.5 225.57 339.46 226.88 342.41 228.2 342.41 228.2"/>
      <polygon class="st0" points="342.41 212.42 342.41 215.05 342.41 215.05 339.46 213.73 336.5 212.42 330.59 209.79 327.63 211.1 324.68 212.42 321.72 213.73 318.77 215.05 318.75 215.04 318.75 212.43 318.77 212.42 321.72 211.1 324.68 209.79 327.63 208.47 330.59 207.16 333.54 208.47 336.5 209.79 339.46 211.1 342.41 212.42 342.41 212.42"/>
      <polygon class="st0" points="330.59 212.42 330.59 215.05 327.63 216.36 324.68 217.68 324.68 217.68 321.72 218.99 318.77 220.31 318.75 220.3 318.75 217.69 318.77 217.68 318.77 217.68 321.72 216.36 324.68 215.05 324.68 215.05 327.63 213.73 327.63 213.73 330.59 212.42"/>
      <polygon class="st0" points="342.41 222.94 342.41 225.57 342.41 225.57 339.46 224.25 336.5 222.94 333.54 221.62 330.59 220.31 327.63 221.62 324.68 222.94 321.72 224.25 318.77 225.57 318.75 225.56 318.75 222.94 318.77 222.94 318.77 222.94 321.72 221.62 324.68 220.31 327.63 218.99 327.63 218.99 330.59 217.68 333.54 218.99 336.5 220.31 339.46 221.62 342.41 222.94 342.41 222.94 342.41 222.94"/>
      <polygon class="st0" points="342.41 233.46 342.41 236.09 339.46 234.77 336.5 233.46 333.54 232.14 330.59 230.83 327.63 232.14 324.68 233.46 321.72 234.77 318.75 236.09 318.75 233.46 318.77 233.46 321.72 232.14 324.68 230.83 327.63 229.51 330.59 228.2 330.59 228.2 336.5 230.83 339.46 232.14 342.41 233.46 342.41 233.46"/>
    </g>
  </g>
  <g class="st1">
    <g>
      <polygon class="st0" points="375.04 228.2 375.04 230.83 375.04 230.83 372.08 229.51 369.13 228.2 366.17 226.88 363.22 225.57 363.22 222.94 369.13 225.57 372.08 226.88 375.04 228.2 375.04 228.2"/>
      <polygon class="st0" points="375.04 212.42 375.04 215.05 375.04 215.05 372.08 213.73 369.13 212.42 363.22 209.79 360.26 211.1 357.31 212.42 354.35 213.73 351.39 215.05 351.38 215.04 351.38 212.43 351.39 212.42 354.35 211.1 357.31 209.79 360.26 208.47 363.22 207.16 366.17 208.47 369.13 209.79 372.08 211.1 375.04 212.42 375.04 212.42"/>
      <polygon class="st0" points="363.22 212.42 363.22 215.05 360.26 216.36 357.31 217.68 357.31 217.68 354.35 218.99 351.39 220.31 351.38 220.3 351.38 217.69 351.39 217.68 351.39 217.68 354.35 216.36 357.31 215.05 357.31 215.05 360.26 213.73 360.26 213.73 363.22 212.42"/>
      <polygon class="st0" points="375.04 222.94 375.04 225.57 375.04 225.57 372.08 224.25 369.13 222.94 366.17 221.62 363.22 220.31 360.26 221.62 357.31 222.94 354.35 224.25 351.39 225.57 351.38 225.56 351.38 222.94 351.39 222.94 351.39 222.94 354.35 221.62 357.31 220.31 360.26 218.99 360.26 218.99 363.22 217.68 366.17 218.99 369.13 220.31 372.08 221.62 375.04 222.94 375.04 222.94 375.04 222.94"/>
      <polygon class="st0" points="375.04 233.46 375.04 236.09 372.08 234.77 369.13 233.46 366.17 232.14 363.22 230.83 360.26 232.14 357.31 233.46 354.35 234.77 351.38 236.09 351.38 233.46 351.39 233.46 354.35 232.14 357.31 230.83 360.26 229.51 363.22 228.2 363.22 228.2 369.13 230.83 372.08 232.14 375.04 233.46 375.04 233.46"/>
    </g>
  </g>
  <g class="st1">
    <g>
      <polygon class="st0" points="406 190.3 406 192.92 406 192.92 403.04 191.61 400.09 190.29 397.13 188.98 394.18 187.66 394.18 185.04 400.09 187.66 403.04 188.98 406 190.29 406 190.3"/>
      <polygon class="st0" points="406 174.52 406 177.14 406 177.15 403.04 175.83 400.09 174.52 394.18 171.89 391.22 173.2 388.26 174.52 385.31 175.83 382.35 177.15 382.34 177.14 382.34 174.52 382.35 174.52 385.31 173.2 388.26 171.89 391.22 170.57 394.18 169.26 397.13 170.57 400.09 171.89 403.04 173.2 406 174.52 406 174.52"/>
      <polygon class="st0" points="394.18 174.52 394.18 177.15 391.22 178.46 388.26 179.78 388.26 179.78 385.31 181.09 382.35 182.41 382.34 182.4 382.34 179.78 382.35 179.78 382.35 179.78 385.31 178.46 388.26 177.15 388.26 177.15 391.22 175.83 391.22 175.83 394.18 174.52"/>
      <polygon class="st0" points="406 185.04 406 187.66 406 187.66 403.04 186.35 400.09 185.04 397.13 183.72 394.18 182.41 391.22 183.72 388.26 185.04 385.31 186.35 382.35 187.66 382.34 187.66 382.34 185.04 382.35 185.03 382.35 185.03 385.31 183.72 388.26 182.41 391.22 181.09 391.22 181.09 394.18 179.78 397.13 181.09 400.09 182.41 403.04 183.72 406 185.03 406 185.03 406 185.04"/>
      <polygon class="st0" points="406 195.56 406 198.19 403.04 196.87 400.09 195.55 397.13 194.24 394.18 192.92 391.22 194.24 388.26 195.55 385.31 196.87 382.34 198.19 382.34 195.56 382.35 195.55 385.31 194.24 388.26 192.92 391.22 191.61 394.17 190.29 394.18 190.29 400.09 192.92 403.04 194.24 406 195.55 406 195.56"/>
    </g>
  </g>
  <g class="st1">
    <g>
      <polygon class="st0" points="406 228.2 406 230.83 406 230.83 403.04 229.51 400.09 228.2 397.13 226.88 394.18 225.57 394.18 222.94 400.09 225.57 403.04 226.88 406 228.2 406 228.2"/>
      <polygon class="st0" points="406 212.42 406 215.05 406 215.05 403.04 213.73 400.09 212.42 394.18 209.79 391.22 211.1 388.26 212.42 385.31 213.73 382.35 215.05 382.34 215.04 382.34 212.43 382.35 212.42 385.31 211.1 388.26 209.79 391.22 208.47 394.18 207.16 397.13 208.47 400.09 209.79 403.04 211.1 406 212.42 406 212.42"/>
      <polygon class="st0" points="394.18 212.42 394.18 215.05 391.22 216.36 388.26 217.68 388.26 217.68 385.31 218.99 382.35 220.31 382.34 220.3 382.34 217.69 382.35 217.68 382.35 217.68 385.31 216.36 388.26 215.05 388.26 215.05 391.22 213.73 391.22 213.73 394.18 212.42"/>
      <polygon class="st0" points="406 222.94 406 225.57 406 225.57 403.04 224.25 400.09 222.94 397.13 221.62 394.18 220.31 391.22 221.62 388.26 222.94 385.31 224.25 382.35 225.57 382.34 225.56 382.34 222.94 382.35 222.94 382.35 222.94 385.31 221.62 388.26 220.31 391.22 218.99 391.22 218.99 394.18 217.68 397.13 218.99 400.09 220.31 403.04 221.62 406 222.94 406 222.94 406 222.94"/>
      <polygon class="st0" points="406 233.46 406 236.09 403.04 234.77 400.09 233.46 397.13 232.14 394.18 230.83 391.22 232.14 388.26 233.46 385.31 234.77 382.34 236.09 382.34 233.46 382.35 233.46 385.31 232.14 388.26 230.83 391.22 229.51 394.17 228.2 394.18 228.2 400.09 230.83 403.04 232.14 406 233.46 406 233.46"/>
    </g>
  </g>
</svg>