<?xml version="1.0" encoding="UTF-8"?>
<svg xmlns="http://www.w3.org/2000/svg" version="1.1" xmlns:xlink="http://www.w3.org/1999/xlink" viewBox="0 0 97 97">
  <defs>
    <style>
      .cls-1 {
        fill: #1D423D;
      }

      .cls-2 {
        stroke: #1D423D;
        stroke-width: 2px;
      }

      .cls-2, .cls-3 {
        fill: none;
      }

      .cls-4 {
        display: none;
      }

      .cls-5 {
        clip-path: url(#clippath);
      }
    </style>
    <clipPath id="clippath">
      <rect class="cls-3" x="20" y="21" width="56" height="56"/>
    </clipPath>
  </defs>
  <!-- Generator: Adobe Illustrator 28.7.0, SVG Export Plug-In . SVG Version: 1.2.0 Build 136)  -->
  <g>
    <g id="Layer_1">
      <circle class="cls-2" cx="48.5" cy="48.5" r="47.5"/>
      <g class="cls-4">
        <g class="cls-5">
          <g>
            <path class="cls-1" d="M22.6,77c-.2-.2-.5-.2-.7-.3-.6-.4-1.1-.9-1.3-1.6-.3-.6-.3-1.4-.2-2.1.2-.7.5-1.3,1-1.8.5-.5,1.2-.8,1.9-.9h3.2q0-.2-.2-.3c-2.1-1.5-3.8-3.5-4.8-5.8-1.1-2.3-1.5-4.9-1.2-7.4s1.2-5,2.7-7c1.5-2.1,3.6-3.7,5.9-4.7.7-.3.7-.3.5-1.1-.6-2.3-1.2-4.5-1.8-6.8,0-.4-.2-.4-.6-.4-1.2.1-2.4,0-3.6-.3-.8-.3-1.5-.8-2.1-1.4-.6-.7-1-1.5-1.1-2.3-.2-.9-.2-1.8,0-2.6.3-.9.8-1.6,1.5-2.2.7-.6,1.5-1,2.4-1.2.9-.2,1.8-.2,2.7,0,3.8.7,7.7,1.3,11.6,1.9.8,0,1.5.4,2.1.8.6.5,1.1,1.1,1.3,1.8.2.6.3,1.3.2,1.9,0,.6-.3,1.3-.7,1.8-.4.5-.8,1-1.4,1.3-.6.3-1.2.5-1.8.5h-3.2c-.3,0-.4,0-.3.4.6,2.2,1.2,4.4,1.7,6.6,0,0,0,.2.1.3,0,0,.2.1.2.1,3.1.8,6.2,1.7,9.2,2.9,2.8.9,5.5,1.8,8.2,2.8l.7.2,1.2-6.3c.5-2.9,1.1-5.8,1.7-8.7,0-.2,0-.4,0-.6,0-.2-.2-.4-.4-.5-.6-.4-1-.9-1.2-1.6-.2-.7-.2-1.4,0-2,.2-.7.6-1.2,1.2-1.7.6-.4,1.2-.7,1.9-.7h5c.4,0,.5,0,.5-.5v-3.4c-.1-.5-.2-1,0-1.6,0-.5.3-1,.6-1.4.3-.4.7-.8,1.2-1,.5-.2,1-.4,1.5-.4s1,.1,1.5.4c.5.2.9.6,1.2,1,.3.4.5.9.6,1.4,0,.5,0,1.1,0,1.6v5.2c0,1.4-.6,2.7-1.6,3.6-1,1-2.3,1.6-3.6,1.6-.5,0-1.1-.2-1.4,0-.3.2-.2.9-.3,1.4l-3.1,15.7c0,.4,0,.6.4.7l8.4,2.9c1.6.5,3.1,1.4,4.1,2.7,1.1,1.3,1.8,2.9,2,4.6v2.1c0,0,0,.1,0,.2-.3,2-1.4,3.8-2.9,5.1,0,0-.2,0-.2.3.6,0,1.2.2,1.7.6s.9.8,1.2,1.3c0,.2,0,.5.3.7v1.3l-.3.8c-.2.4-.6.8-1,1.2-.4.3-.9.5-1.3.7H22.6ZM49.8,70.2h16.5c1.7,0,3.3-.5,4.7-1.5.9-.5,1.6-1.3,2-2.2.5-.9.7-1.9.7-2.9,0-1.4-.5-2.7-1.3-3.9-.8-1.1-2-1.9-3.4-2.3l-30.8-10.5c-1.7-.6-3.5-.8-5.2-.6-1.9.2-3.7.7-5.2,1.7-1.6,1-2.9,2.3-3.9,3.9-1.5,2.5-2.1,5.5-1.6,8.3.5,2.9,2,5.5,4.3,7.3,2,1.7,4.5,2.6,7.1,2.6h16ZM48,74.7h24.2c.3,0,.6,0,.9,0,.2,0,.4-.2.5-.4.1-.2.2-.4.2-.6s0-.4-.2-.6c-.1-.2-.3-.3-.5-.4-.3,0-.5,0-.8,0H23.7c-.2,0-.5,0-.7,0-.2,0-.4.2-.5.4-.1.2-.2.4-.2.6s0,.4.2.6c.1.2.3.3.5.4.3,0,.5,0,.8,0h24.2ZM31.5,34.6h6.1c.5,0,1-.2,1.4-.5.4-.3.6-.8.6-1.3,0-.5-.1-1-.5-1.3-.3-.4-.8-.6-1.3-.6l-12.3-2c-.5,0-.9,0-1.4,0-.5.1-.9.4-1.2.7-.3.3-.6.7-.7,1.2-.1.5-.2.9,0,1.4.1.7.5,1.3,1.1,1.8.6.5,1.3.7,2,.7h6.2M62,35c0-.3,0-.3-.2-.3h-1.5c-.3,0-.5,0-.5.4-.9,4.8-1.9,9.5-2.8,14.3,0,.5-.4,1.1-.2,1.5.2.3.9.4,1.4.6.5.2.6,0,.7-.4.6-3.4,1.3-6.6,1.9-9.9.4-2,.8-4.1,1.2-6.2M62.4,32.6h3.1c.4,0,.8,0,1.2-.1.4-.1.8-.3,1.1-.6.3-.3.6-.6.8-1,.2-.4.3-.8.3-1.2v-5.3c0-.2,0-.4-.2-.6-.1-.2-.3-.3-.5-.4-.8-.3-1.5.3-1.5,1.2v4.4c0,1.1-.3,1.5-1.5,1.5h-5.9c-.2,0-.5,0-.7.1-.2.1-.4.3-.5.5,0,.2-.1.4-.1.6,0,.2,0,.4.2.5.1.2.3.3.4.4.2,0,.4.1.6,0h3.2M30.8,37c-.3,0-.5,0-.8,0-.3,0-.4,0-.3.4.6,2.2,1.2,4.5,1.8,6.8,0,.3.2.3.5.3.4,0,.9,0,1.3,0,.4,0,.5,0,.4-.5-.5-1.9-1-3.8-1.5-5.7q-.3-1.1-1.4-1.1"/>
            <path class="cls-1" d="M43.2,66h-2.1c-.3,0-.6,0-.8-.1-.3-.1-.5-.3-.7-.5-.2-.3-.5-.6-.9-.8-.3,0-.6.3-1,.5-1.6.9-3.6,1.2-5.4.7-1.8-.4-3.4-1.5-4.5-3-1.1-1.5-1.6-3.4-1.4-5.2.2-1.9,1-3.6,2.4-4.9,1.4-1.3,3.1-2,5-2.1,1.9,0,3.7.5,5.2,1.7s2.4,2.8,2.8,4.7c.3,1.8,0,3.7-1,5.3,0,.2-.5.5-.3.7.2.2.5.8,1.2.8h4c.2,0,.5,0,.7.2.2.1.4.3.5.5,0,.2.1.3,0,.5,0,.2,0,.4-.2.5,0,.2-.2.3-.4.4-.2,0-.3.1-.5.1h-2.6ZM37.2,62.9l-.5-.4c-1.1-1.1-2.1-2.1-3.2-3.2-.1,0-.2-.2-.3-.4,0-.1-.1-.3-.2-.5,0-.2,0-.3,0-.5,0-.2.1-.3.3-.4.1-.1.3-.2.4-.3.2,0,.3,0,.5,0,.2,0,.3,0,.5.1.1,0,.3.2.4.3,1.1,1.1,2.2,2.2,3.4,3.4.3.3.4.3.6,0,.6-1.2.8-2.6.5-3.9s-1.1-2.5-2.3-3.2c-1.1-.7-2.4-1-3.7-.9-1.3.2-2.5.8-3.3,1.7-.9,1-1.4,2.2-1.5,3.6,0,1.3.4,2.6,1.3,3.7.9,1,2.1,1.7,3.4,1.8,1.3.2,2.7-.2,3.8-.9"/>
            <path class="cls-1" d="M61.1,68.3c-1.1,0-2.1-.3-3-.9s-1.6-1.5-2-2.5c-.4-1-.5-2.1-.3-3.2.2-1.1.7-2,1.5-2.8.8-.8,1.7-1.3,2.8-1.5,1.1-.2,2.2,0,3.2.3,1,.4,1.9,1.1,2.5,2,.6.9.9,2,.9,3.1,0,1.4-.6,2.8-1.6,3.8-1,1-2.4,1.6-3.9,1.6ZM61.1,59.5c-.7,0-1.3.2-1.9.6-.6.4-1,.9-1.3,1.5-.3.6-.3,1.3-.2,2,.1.7.5,1.3.9,1.7s1.1.8,1.7.9c.7.1,1.3,0,2-.2.6-.3,1.2-.7,1.5-1.3.4-.6.6-1.2.6-1.9s-.4-1.8-1-2.4c-.6-.6-1.5-1-2.4-1Z"/>
            <path class="cls-1" d="M50.2,63.9c.1,0,.3,0,.4,0,.1,0,.3.1.4.2.1.1.2.2.2.4,0,.1,0,.3,0,.4,0,.3-.1.5-.3.7-.2.2-.5.3-.7.3s-.6-.1-.8-.3c-.2-.2-.3-.5-.3-.8s.1-.6.3-.8c.2-.2.5-.3.8-.3"/>
          </g>
        </g>
      </g>
      <g>
        <path class="cls-1" d="M22.2,51.4c-2.6-.3-3.9-1.8-3.9-4.3,0-1.9-.1-3.9.1-5.8.5-4.1,2.8-6.9,6.5-8.5.2,0,.4-.2.6-.2-4.3-3.2-4.2-8.8-1-11.9,3.1-3,8-3,11,0,3.1,3,3.3,8.6-1,12,2.7,1,4.7,2.7,6,5.2,2-.9,3.9-1.8,5.9-2.7-.4-1-.7-2-1.1-3.1-.5.2-.9.5-1.4.7-1.5.7-3.2,0-3.9-1.3-.7-1.4-.2-3.1,1.3-3.9,2.6-1.3,5.2-2.6,7.8-3.9,1.5-.7,3.2-.2,3.9,1.3.7,1.4.2,3.1-1.3,3.9-.3.2-.7.4-1.1.6.4,1.1.8,2.1,1.2,3.2,1-.4,1.9-.9,2.8-1.3,3.7-1.7,7.4-3.4,11-5.1.3-.1.5-.3.4-.7-.2-2,1.1-3.7,3-4.1,1.9-.4,3.8.6,4.5,2.5,1.2,3.2,2.3,6.3,3.4,9.5.5,1.4,1,2.7,1.5,4.1.6,1.9,0,3.7-1.6,4.7-1.6,1-3.6.7-5-.8-.1-.1-.4-.3-.6-.2-4.2.9-8.3,1.9-12.5,2.8,0,0-.1,0-.3.1.8,1,1.4,2.2,1.6,3.5.2,1,0,2.1-.2,3.1,0,.3,0,.8,0,1.1,2.9,7.5,5.8,15,8.7,22.5.3.8.6,1.6.2,2.5h9.9v2h-.8c-15.2,0-30.3,0-45.5,0-1.3,0-2.5-.3-3.4-1.2-.7.4-1.3.8-2,1.1-2.5.8-4.9-1.1-4.9-3.7,0-3.5,0-7.1,0-10.6,0-4,0-8,0-12.1v-.7ZM24.1,51.4c0,.3,0,.4,0,.6,0,7.5,0,15,0,22.6,0,.1,0,.2,0,.4,0,.9.8,1.7,1.7,1.8.9,0,1.8-.5,2-1.4,0-.3,0-.6,0-1,0-6.1,0-12.2,0-18.3v-.7h2v.7c0,4,0,8,0,12.1,0,2.2,0,4.4,0,6.6,0,.9.5,1.6,1.2,1.9,1.3.5,2.7-.5,2.7-2,0-8.2,0-16.4,0-24.6,0-.2,0-.3,0-.6-.7.3-1.5.4-2.1.8-.9.7-1.8,1.2-3,1.1-1.5,0-3,0-4.7,0ZM41.7,47.8c0,1.7.1,3.3-1.3,4.5-1.4,1.2-2.9,1.3-4.6.5v.8c0,6.5,0,13,0,19.4,0,1.2.2,2.5-.5,3.6h2.7c-.4-.9,0-1.8.2-2.6,2.9-7.5,5.8-15,8.7-22.5,0-.2.2-.5.1-.6-.5-1.4-.6-2.8-.2-4.2,0,0-.1,0-.2,0-1.6.4-3.2.7-5,1.1ZM38.7,38.6c-1-2.1-3.2-4-5.6-4.4-1.4-.3-2.9-.3-4.3-.3-4.2,0-7.9,3.3-8.4,7.4-.2,2-.1,4-.1,6,0,1.3.8,2.1,2.1,2.1,2.2,0,4.3,0,6.5,0,1.2,0,2.1-.8,2.1-1.9,0-1.2-.9-2-2.2-2-2,0-3.9,0-5.9,0-.2,0-.4,0-.7,0v-2c1.7,0,3.4,0,5.1,0,.3,0,.6,0,.9-.2,1.8-.8,3.5-1.6,5.3-2.4.4-.2.5-.4.4-.7,0-.8,0-1.7,0-2.5h2v2.1c1-.5,1.9-.9,2.8-1.3ZM60.9,30.4c-5.8,2.7-11.6,5.4-17.5,8.1.9,2.2,1.7,4.2,2.5,6.3.3,0,.6-.1.8-.2.7-.1,1.3-.4,1.9-1,1.8-1.8,4.1-2.5,6.6-1.7,1.2.4,2.2.3,3.3,0,.3,0,.6-.1.9-.2,1.8-.4,3.7-.8,5.6-1.3-1.4-3.4-2.7-6.7-4-10.1ZM35.8,26.1c0-3.2-2.6-5.8-5.9-5.8-3.2,0-5.8,2.6-5.8,5.9,0,3.2,2.6,5.8,5.9,5.8,3.2,0,5.8-2.6,5.8-5.9ZM63.3,76.8c-.8-2-1.5-3.9-2.2-5.8h-15.3c-.7,1.9-1.5,3.8-2.2,5.8h19.8ZM58.7,65c0-.1,0-.2,0-.2-1.2-3.1-2.4-6.2-3.5-9.3-.1-.3-.3-.4-.6-.4-.7,0-1.5,0-2.2,0-.4,0-.6,0-.8.4-.9,2.3-1.7,4.5-2.6,6.8-.3.8-.7,1.7-1,2.6h10.8ZM70,23.1c-1.4,0-2.3,1.3-1.8,2.7,1.6,4.5,3.2,8.9,4.8,13.4.4,1.2,1.5,1.7,2.6,1.3,1.1-.4,1.5-1.5,1.1-2.6-.5-1.3-.9-2.6-1.4-3.9-1.1-3.1-2.2-6.2-3.3-9.3-.4-1-1-1.6-1.9-1.6ZM31.1,44.2c1.3.9,1.8,2.1,1.8,3.6,3.7-.8,7.4-1.7,11.1-2.5-.8-2-1.6-3.9-2.4-5.9-3.5,1.6-7,3.2-10.5,4.9ZM70.9,39.2c-1.4-3.8-2.7-7.6-4.1-11.5-1.4.6-2.7,1.3-4.1,1.9,1.4,3.5,2.8,7,4.2,10.5,1.3-.3,2.6-.6,4-.9ZM58.3,48.5c0-2.7-2.2-4.9-4.9-4.9-2.7,0-4.9,2.2-4.9,4.8,0,2.7,2.2,4.9,4.8,4.9,2.7,0,4.9-2.2,4.9-4.9ZM48.4,53.2c0,.2-.2.4-.2.5-2.2,5.8-4.5,11.7-6.7,17.5-.5,1.4-1.1,2.8-1.6,4.2-.2.5,0,1,.6,1.2.5.2,1,0,1.2-.5,0-.1.1-.3.2-.4,2-5.3,4.1-10.6,6.1-15.9.7-1.8,1.4-3.6,2.1-5.4-.5-.4-1-.8-1.6-1.2ZM56.8,54.4c0,.2.1.3.2.5,2.6,6.8,5.2,13.5,7.8,20.3.1.4.3.7.4,1.1.3.5.7.6,1.2.4.5-.2.7-.7.6-1.2,0-.2-.1-.3-.2-.5-2.7-7.1-5.5-14.2-8.2-21.3,0-.2-.1-.3-.2-.5-.6.4-1.1.8-1.6,1.2ZM60.3,68.9c-.2-.6-.4-1.2-.7-1.7,0-.1-.2-.2-.4-.2-3.9,0-7.8,0-11.7,0-.1,0-.4.1-.4.2-.2.5-.4,1.1-.7,1.7h13.8ZM51.4,26.3c0-1-.7-1.4-1.5-1-2.6,1.3-5.1,2.5-7.7,3.8-.6.3-.7.8-.5,1.3.3.5.8.7,1.4.4,2.6-1.3,5.2-2.6,7.7-3.9.3-.1.5-.5.6-.7ZM39.7,48.3c-1.3.3-2.6.6-3.9.9,0,1.3.7,2.2,1.8,2.3,1.1,0,2-.8,2.1-2,0-.3,0-.7,0-1.1ZM50.1,33.3c-.4-1.1-.8-2.1-1.1-3.2-.6.3-1.1.5-1.6.8-.1,0-.2.3-.2.4.3,1,.7,1.9,1,2.9.6-.3,1.2-.6,1.9-.9Z"/>
        <path class="cls-1" d="M59.8,33.1c.3.6.5,1.2.8,1.8-3.3,1.5-6.5,3-9.7,4.5-.3-.6-.5-1.2-.8-1.8,3.3-1.5,6.5-3,9.7-4.5Z"/>
        <path class="cls-1" d="M48.9,40.3c-.7.3-1.3.6-1.9.9-.3-.6-.5-1.1-.8-1.8.6-.3,1.3-.6,1.9-.9.3.6.5,1.2.8,1.8Z"/>
        <path class="cls-1" d="M34.3,46.4c-.3-.6-.6-1.1-.9-1.7.6-.3,1.1-.6,1.7-.9.3.6.6,1.1.9,1.7-.6.3-1.1.6-1.7.9Z"/>
        <path class="cls-1" d="M39.6,43.8c-.6.3-1.1.6-1.7.9-.3-.6-.6-1.1-.9-1.7.6-.3,1.1-.6,1.7-.9.3.6.6,1.1.9,1.7Z"/>
        <path class="cls-1" d="M53.4,45.6c1.6,0,3,1.3,3,2.9,0,1.6-1.3,2.9-2.9,2.9-1.6,0-3-1.3-3-2.9,0-1.6,1.3-2.9,2.9-2.9ZM54.4,48.5c0-.5-.5-1-1-1-.5,0-1,.5-1,1,0,.5.5,1,1,1,.5,0,1-.5,1-1Z"/>
      </g>
    </g>
  </g>
</svg>