<svg width="97" height="97" viewBox="0 0 97 97" fill="none" xmlns="http://www.w3.org/2000/svg">
<circle cx="48.5" cy="48.5" r="47.5" stroke="#1D423D" stroke-width="2"/>
<g clip-path="url(#clip0_69_1896)">
<path d="M61.403 21C60.5796 21 59.79 21.3234 59.2077 21.8992C58.6255 22.475 58.2984 23.2559 58.2984 24.0702V31.2236H39.6704V24.0702C39.7129 23.8279 39.8406 23.6082 40.0309 23.4498C40.2211 23.2915 40.4618 23.2046 40.7105 23.2046C40.9592 23.2046 41.1999 23.2915 41.3902 23.4498C41.5805 23.6082 41.7081 23.8279 41.7506 24.0702V27.1404H43.7996V24.0702C43.7996 23.2559 43.4726 22.475 42.8903 21.8992C42.3081 21.3234 41.5184 21 40.695 21C39.8716 21 39.0819 21.3234 38.4997 21.8992C37.9174 22.475 37.5903 23.2559 37.5903 24.0702V53.6973H39.6394V47.557H58.2674V53.6973H60.3475V24.0702C60.3475 23.9371 60.374 23.8054 60.4254 23.6825C60.4769 23.5595 60.5524 23.4479 60.6475 23.3538C60.7427 23.2597 60.8557 23.1851 60.98 23.1342C61.1043 23.0833 61.2375 23.0571 61.372 23.0571C61.6437 23.0571 61.9044 23.1638 62.0965 23.3538C62.2886 23.5438 62.3966 23.8015 62.3966 24.0702V27.1404H64.4767V24.0702C64.4767 23.2559 64.1496 22.475 63.5673 21.8992C62.9851 21.3234 62.1954 21 61.372 21M58.2674 45.5614H39.6394V40.4649H58.2674V45.5614ZM58.2674 38.4079H39.6394V33.3114H58.2674V38.4079Z" fill="#1D423D"/>
<path d="M80.0001 46.5439H62.4277V48.6009H80.0001V46.5439Z" fill="#1D423D"/>
<path d="M35.5724 46.5439H18V48.6009H35.5724V46.5439Z" fill="#1D423D"/>
<path d="M77.33 59.1316C76.9452 58.5847 76.4552 58.1181 75.8878 57.7587C75.3205 57.3993 74.687 57.1542 74.0237 57.0373C73.3604 56.9203 72.6803 56.9339 72.0223 57.0773C71.3644 57.2206 70.7414 57.491 70.1893 57.8728C69.691 58.2122 69.2596 58.6389 68.9164 59.1316C68.6145 59.5719 68.2135 59.9368 67.7448 60.1978C67.2761 60.4589 66.7525 60.6089 66.2153 60.636C65.6818 60.6114 65.1617 60.4622 64.6977 60.2008C64.2336 59.9393 63.8387 59.5729 63.5453 59.1316C63.1606 58.5847 62.6705 58.1181 62.1031 57.7587C61.5358 57.3993 60.9023 57.1542 60.239 57.0373C59.5757 56.9203 58.8956 56.9339 58.2377 57.0773C57.5797 57.2206 56.9568 57.491 56.4046 57.8728C55.9063 58.2122 55.475 58.6389 55.1317 59.1316C54.8316 59.5736 54.4309 59.9398 53.9619 60.201C53.4928 60.4623 52.9684 60.6113 52.4306 60.636C51.1577 60.636 50.5989 59.9913 49.7606 59.1316C49.3786 58.5814 48.8898 58.1117 48.3226 57.75C47.7554 57.3883 47.1211 57.1416 46.4567 57.0245C45.7922 56.9074 45.1108 56.9221 44.4522 57.0677C43.7935 57.2133 43.1707 57.487 42.62 57.8728C42.1217 58.2122 41.6903 58.6389 41.347 59.1316C41.0536 59.5729 40.6587 59.9393 40.1947 60.2008C39.7306 60.4622 39.2105 60.6114 38.677 60.636C38.1398 60.6089 37.6163 60.4589 37.1476 60.1978C36.6789 59.9368 36.2779 59.5719 35.976 59.1316C35.4956 58.4723 34.867 57.9321 34.1397 57.5539C33.4124 57.1756 32.6062 56.9695 31.7847 56.9517C30.9617 56.9623 30.1529 57.1653 29.4245 57.5441C28.696 57.923 28.0685 58.467 27.5934 59.1316C27.2915 59.5719 26.8905 59.9368 26.4218 60.1978C25.9531 60.4589 25.4296 60.6089 24.8923 60.636C24.3588 60.6114 23.8388 60.4622 23.3747 60.2008C22.9106 59.9393 22.5158 59.5729 22.2223 59.1316C21.7388 58.4682 21.1053 57.9256 20.3723 57.5471C19.6392 57.1687 18.8268 56.9648 18 56.9517V59.0088C18.5389 59.0286 19.0652 59.1755 19.535 59.4371C20.0048 59.6988 20.4046 60.0677 20.701 60.5131C21.1737 61.1783 21.8013 61.7211 22.5308 62.0959C23.2603 62.4707 24.0703 62.6663 24.8923 62.6663C25.7144 62.6663 26.5244 62.4707 27.2539 62.0959C27.9834 61.7211 28.611 61.1783 29.0836 60.5131C29.3801 60.0677 29.7799 59.6988 30.2497 59.4371C30.7195 59.1755 31.2458 59.0286 31.7847 59.0088C32.3199 59.0258 32.8429 59.1717 33.3082 59.4339C33.7734 59.696 34.167 60.0665 34.4547 60.5131C34.9308 61.1784 35.5613 61.721 36.2933 62.0955C37.0252 62.47 37.8373 62.6655 38.6615 62.6655C39.4856 62.6655 40.2978 62.47 41.0298 62.0955C41.7618 61.721 42.3922 61.1784 42.8683 60.5131C43.1412 60.0479 43.5329 59.6617 44.0043 59.3933C44.4756 59.1248 45.0099 58.9835 45.5538 58.9835C46.0977 58.9835 46.6321 59.1248 47.1034 59.3933C47.5747 59.6617 47.9665 60.0479 48.2394 60.5131C48.6241 61.0601 49.1142 61.5267 49.6815 61.886C50.2489 62.2454 50.8824 62.4905 51.5457 62.6075C52.209 62.7244 52.8891 62.7108 53.547 62.5674C54.205 62.424 54.8279 62.1537 55.3801 61.7719C55.8784 61.4325 56.3097 61.0059 56.653 60.5131C56.9407 60.0665 57.3342 59.696 57.7995 59.4339C58.2648 59.1717 58.7877 59.0258 59.323 59.0088C59.8618 59.0286 60.3881 59.1755 60.858 59.4371C61.3278 59.6988 61.7276 60.0677 62.0241 60.5131C62.4088 61.0601 62.8989 61.5267 63.4662 61.886C64.0335 62.2454 64.667 62.4905 65.3303 62.6075C65.9936 62.7244 66.6737 62.7108 67.3317 62.5674C67.9897 62.424 68.6126 62.1537 69.1647 61.7719C69.6486 61.4157 70.0774 60.9916 70.4377 60.5131C70.7253 60.0665 71.1189 59.696 71.5842 59.4339C72.0495 59.1717 72.5724 59.0258 73.1077 59.0088C73.6465 59.0286 74.1728 59.1755 74.6427 59.4371C75.1125 59.6988 75.5122 60.0677 75.8087 60.5131C76.2923 61.1668 76.9224 61.701 77.6495 62.0738C78.3766 62.4466 79.1811 62.6481 80 62.6623V60.636C79.4665 60.6114 78.9464 60.4622 78.4824 60.2008C78.0183 59.9393 77.6234 59.5729 77.33 59.1316Z" fill="#1D423D"/>
<path d="M77.33 66.3772C76.9452 65.8303 76.4552 65.3637 75.8878 65.0043C75.3205 64.6449 74.687 64.3998 74.0237 64.2829C73.3604 64.1659 72.6803 64.1796 72.0223 64.323C71.3644 64.4663 70.7414 64.7366 70.1893 65.1184C69.691 65.4579 69.2596 65.8845 68.9164 66.3772C68.6145 66.8175 68.2135 67.1825 67.7448 67.4436C67.2761 67.7046 66.7525 67.8545 66.2153 67.8816C65.6818 67.857 65.1617 67.7078 64.6977 67.4464C64.2336 67.1849 63.8387 66.8185 63.5453 66.3772C63.1633 65.827 62.6745 65.3573 62.1073 64.9956C61.54 64.6339 60.9058 64.3873 60.2414 64.2702C59.5769 64.1531 58.8955 64.1677 58.2369 64.3133C57.5782 64.4589 56.9553 64.7326 56.4046 65.1184C55.9063 65.4579 55.475 65.8845 55.1317 66.3772C54.8316 66.8192 54.4309 67.1855 53.9619 67.4467C53.4928 67.708 52.9684 67.8569 52.4306 67.8816C51.1577 67.8816 50.5989 67.2369 49.7606 66.3772C49.3786 65.827 48.8898 65.3573 48.3226 64.9956C47.7554 64.6339 47.1211 64.3873 46.4567 64.2702C45.7922 64.1531 45.1108 64.1677 44.4522 64.3133C43.7935 64.4589 43.1707 64.7326 42.62 65.1184C42.1217 65.4579 41.6903 65.8845 41.347 66.3772C41.0536 66.8185 40.6587 67.1849 40.1947 67.4464C39.7306 67.7078 39.2105 67.857 38.677 67.8816C38.1398 67.8545 37.6163 67.7046 37.1476 67.4436C36.6789 67.1825 36.2779 66.8175 35.976 66.3772C35.4956 65.7179 34.867 65.1779 34.1397 64.7996C33.4124 64.4213 32.6062 64.2152 31.7847 64.1974C30.9617 64.208 30.1529 64.411 29.4245 64.7898C28.696 65.1687 28.0685 65.7126 27.5934 66.3772C27.2915 66.8175 26.8905 67.1825 26.4218 67.4436C25.9531 67.7046 25.4296 67.8545 24.8923 67.8816C24.3588 67.857 23.8388 67.7078 23.3747 67.4464C22.9106 67.1849 22.5158 66.8185 22.2223 66.3772C21.7388 65.7138 21.1053 65.1712 20.3723 64.7928C19.6392 64.4143 18.8268 64.2105 18 64.1974V66.2544C18.5389 66.2742 19.0652 66.4211 19.535 66.6828C20.0048 66.9444 20.4046 67.3134 20.701 67.7588C21.1737 68.424 21.8013 68.9668 22.5308 69.3415C23.2603 69.7163 24.0703 69.9119 24.8923 69.9119C25.7144 69.9119 26.5244 69.7163 27.2539 69.3415C27.9834 68.9668 28.611 68.424 29.0836 67.7588C29.3801 67.3134 29.7799 66.9444 30.2497 66.6828C30.7195 66.4211 31.2458 66.2742 31.7847 66.2544C32.3199 66.2714 32.8429 66.4173 33.3082 66.6795C33.7734 66.9416 34.167 67.3122 34.4547 67.7588C34.9308 68.4241 35.5613 68.9667 36.2933 69.3412C37.0252 69.7157 37.8373 69.9112 38.6615 69.9112C39.4856 69.9112 40.2978 69.7157 41.0298 69.3412C41.7618 68.9667 42.3922 68.4241 42.8683 67.7588C43.1412 67.2936 43.5329 66.9074 44.0043 66.6389C44.4756 66.3705 45.0099 66.2292 45.5538 66.2292C46.0977 66.2292 46.6321 66.3705 47.1034 66.6389C47.5747 66.9074 47.9665 67.2936 48.2394 67.7588C48.6241 68.3058 49.1142 68.7723 49.6815 69.1316C50.2489 69.491 50.8824 69.7362 51.5457 69.8531C52.209 69.97 52.8891 69.9565 53.547 69.8131C54.205 69.6697 54.8279 69.3993 55.3801 69.0175C55.8784 68.6781 56.3097 68.2516 56.653 67.7588C56.9407 67.3122 57.3342 66.9416 57.7995 66.6795C58.2648 66.4173 58.7877 66.2714 59.323 66.2544C59.8618 66.2742 60.3881 66.4211 60.858 66.6828C61.3278 66.9444 61.7276 67.3134 62.0241 67.7588C62.4088 68.3058 62.8989 68.7723 63.4662 69.1316C64.0335 69.491 64.667 69.7362 65.3303 69.8531C65.9936 69.97 66.6737 69.9565 67.3317 69.8131C67.9897 69.6697 68.6126 69.3993 69.1647 69.0175C69.6486 68.6613 70.0774 68.2373 70.4377 67.7588C70.7253 67.3122 71.1189 66.9416 71.5842 66.6795C72.0495 66.4173 72.5724 66.2714 73.1077 66.2544C73.6465 66.2742 74.1728 66.4211 74.6427 66.6828C75.1125 66.9444 75.5122 67.3134 75.8087 67.7588C76.2923 68.4125 76.9224 68.9466 77.6495 69.3194C78.3766 69.6922 79.1811 69.8937 80 69.9079V67.8816C79.4665 67.857 78.9464 67.7078 78.4824 67.4464C78.0183 67.1849 77.6234 66.8185 77.33 66.3772Z" fill="#1D423D"/>
<path d="M77.33 73.4385C76.9452 72.8916 76.4552 72.4251 75.8878 72.0657C75.3205 71.7064 74.687 71.4612 74.0237 71.3443C73.3604 71.2274 72.6803 71.2409 72.0223 71.3843C71.3644 71.5277 70.7414 71.7981 70.1893 72.1799C69.691 72.5193 69.2596 72.9458 68.9164 73.4385C68.6145 73.8788 68.2135 74.2438 67.7448 74.5049C67.2761 74.7659 66.7525 74.9159 66.2153 74.943C65.6818 74.9184 65.1617 74.7693 64.6977 74.5078C64.2336 74.2463 63.8387 73.8799 63.5453 73.4385C63.1633 72.8883 62.6745 72.4188 62.1073 72.057C61.54 71.6953 60.9058 71.4487 60.2414 71.3316C59.5769 71.2144 58.8955 71.2291 58.2369 71.3747C57.5782 71.5204 56.9553 71.7941 56.4046 72.1799C55.9063 72.5193 55.475 72.9458 55.1317 73.4385C54.8316 73.8805 54.4309 74.2468 53.9619 74.5081C53.4928 74.7693 52.9684 74.9183 52.4306 74.943C51.1577 74.943 50.5989 74.2983 49.7606 73.4079C49.3735 72.8634 48.8817 72.3996 48.3132 72.0432C47.7448 71.6867 47.1108 71.4445 46.4477 71.3304C45.7845 71.2164 45.1051 71.2327 44.4483 71.3784C43.7915 71.5241 43.1703 71.7965 42.62 72.1799C42.1296 72.5164 41.6994 72.9315 41.347 73.4079C41.0609 73.8585 40.6685 74.2336 40.2034 74.5009C39.7383 74.7683 39.2145 74.92 38.677 74.943C37.4041 74.943 36.8142 74.2983 35.976 73.4079C35.4891 72.7576 34.8583 72.226 34.1319 71.8535C33.4056 71.4811 32.6027 71.2776 31.7847 71.2588C30.9653 71.2706 30.16 71.471 29.4325 71.8441C28.705 72.2171 28.0753 72.7525 27.5934 73.4079C26.7551 74.2983 26.1653 74.943 24.8923 74.943C24.3549 74.92 23.8311 74.7683 23.366 74.5009C22.9009 74.2336 22.5084 73.8585 22.2223 73.4079C21.7322 72.7536 21.0965 72.2194 20.3644 71.8468C19.6323 71.4741 18.8233 71.2729 18 71.2588V73.3158C18.5389 73.3356 19.0652 73.4825 19.535 73.7442C20.0048 74.0059 20.4046 74.3747 20.701 74.8202C21.1737 75.4853 21.8013 76.0282 22.5308 76.4029C23.2603 76.7777 24.0703 76.9734 24.8923 76.9734C25.7144 76.9734 26.5244 76.7777 27.2539 76.4029C27.9834 76.0282 28.611 75.4853 29.0836 74.8202C29.3801 74.3747 29.7799 74.0059 30.2497 73.7442C30.7195 73.4825 31.2458 73.3356 31.7847 73.3158C32.3199 73.3328 32.8429 73.4787 33.3082 73.7409C33.7734 74.0031 34.167 74.3735 34.4547 74.8202C34.9308 75.4854 35.5613 76.0281 36.2933 76.4026C37.0252 76.7771 37.8373 76.9725 38.6615 76.9725C39.4856 76.9725 40.2978 76.7771 41.0298 76.4026C41.7618 76.0281 42.3922 75.4854 42.8683 74.8202C43.1412 74.3549 43.5329 73.9687 44.0043 73.7002C44.4756 73.4318 45.0099 73.2905 45.5538 73.2905C46.0977 73.2905 46.6321 73.4318 47.1034 73.7002C47.5747 73.9687 47.9665 74.3549 48.2394 74.8202C49.0217 75.9182 50.2107 76.6663 51.5479 76.9021C52.8851 77.1378 54.2623 76.842 55.3801 76.0789C55.8784 75.7395 56.3097 75.3129 56.653 74.8202C56.9407 74.3735 57.3342 74.0031 57.7995 73.7409C58.2648 73.4787 58.7877 73.3328 59.323 73.3158C59.8618 73.3356 60.3881 73.4825 60.858 73.7442C61.3278 74.0059 61.7276 74.3747 62.0241 74.8202C62.4085 75.368 62.899 75.8348 63.4674 76.1936C64.0357 76.5524 64.6705 76.796 65.3348 76.9103C65.9991 77.0245 66.6797 77.0071 67.3372 76.8591C67.9947 76.7112 68.6159 76.4355 69.1647 76.0482C69.6551 75.7116 70.0853 75.2966 70.4377 74.8202C70.7253 74.3735 71.1189 74.0031 71.5842 73.7409C72.0495 73.4787 72.5724 73.3328 73.1077 73.3158C73.6465 73.3356 74.1728 73.4825 74.6427 73.7442C75.1125 74.0059 75.5122 74.3747 75.8087 74.8202C76.2923 75.4738 76.9224 76.008 77.6495 76.3808C78.3766 76.7537 79.1811 76.9551 80 76.9693V74.943C79.4665 74.9184 78.9464 74.7693 78.4824 74.5078C78.0183 74.2463 77.6234 73.8799 77.33 73.4385Z" fill="#1D423D"/>
</g>
<defs>
<clipPath id="clip0_69_1896">
<rect width="62" height="56" fill="white" transform="translate(18 21)"/>
</clipPath>
</defs>
</svg>
