<svg width="77" height="76" viewBox="0 0 77 76" fill="none" xmlns="http://www.w3.org/2000/svg">
<g clip-path="url(#clip0_1_1074)">
<path d="M12.6753 6.32402C12.5787 4.28784 12.762 2.43249 14.4068 1.09981C15.3333 0.3542 16.3935 -0.0347056 17.5775 0.00988224C20.4931 0.116398 21.905 1.999 22.2394 6.24723H53.8101C53.8101 5.79392 53.8002 5.34061 53.8101 4.88978C53.8844 2.09313 55.9429 -0.00993458 58.586 -2.6169e-05C61.2043 0.00988224 63.2083 2.05349 63.3172 4.82785C63.3346 5.28611 63.3197 5.74438 63.3197 6.32402C64.7218 6.32402 66.0421 6.31659 67.3599 6.3265C68.3482 6.33393 69.344 6.28686 70.3225 6.40081C73.627 6.79219 75.9108 9.33618 75.9827 12.6728C76.0198 14.3721 75.9926 16.0714 75.9926 17.7732C75.9926 33.8768 75.9975 49.978 75.9901 66.0817C75.9876 70.8996 73.1216 74.65 68.6182 75.7126C67.7859 75.9083 66.9066 75.9851 66.0495 75.9851C47.3548 76 28.6576 76.0025 9.96292 75.9925C4.09466 75.9925 0.00744278 71.8855 0.00744278 66.0024C1.14733e-05 48.3877 1.14735e-05 30.7705 0.00248858 13.1534C0.00248858 8.9869 2.66785 6.33888 6.85663 6.3265C8.764 6.32154 10.6714 6.3265 12.6753 6.3265V6.32402ZM3.16327 23.7876C3.16327 24.1839 3.16327 24.4589 3.16327 24.7363C3.16327 38.4917 3.1608 52.247 3.16327 66.0024C3.16327 70.1738 5.83359 72.8318 10.0174 72.8318C28.6527 72.8367 47.2904 72.8342 65.9256 72.8318C70.1664 72.8318 72.8219 70.1837 72.8219 65.9504C72.8268 52.2247 72.8219 38.5016 72.8219 24.776C72.8219 24.449 72.7946 24.122 72.7798 23.7851H3.16327V23.7876ZM72.8268 20.5327C72.8268 17.9193 72.8417 15.4199 72.8219 12.9181C72.8046 10.8125 71.5115 9.52939 69.3911 9.49471C67.9073 9.47242 66.4235 9.48976 64.9397 9.48976C63.8994 9.48976 63.3577 9.99756 63.3148 11.0132C63.1983 13.7974 61.2043 15.8237 58.5761 15.8262C55.9157 15.8311 53.8795 13.7479 53.8076 10.9413C53.7953 10.488 53.8076 10.0372 53.8076 9.54425H22.2816C22.1849 10.5103 22.1949 11.4491 21.9818 12.3335C21.4616 14.4985 19.3264 15.9773 17.1168 15.8088C14.8007 15.6354 12.9875 13.9238 12.7348 11.6374C12.658 10.9463 12.6481 10.2502 12.606 9.52691C10.3419 9.52691 8.17941 9.44021 6.0268 9.55416C4.29531 9.64829 3.19052 11.0181 3.1707 12.8438C3.14593 15.0063 3.16327 17.1713 3.16327 19.3362C3.16327 19.7251 3.16327 20.1165 3.16327 20.5327H72.8268ZM15.851 7.85487C15.851 7.85487 15.8485 7.85487 15.846 7.85487C15.846 8.81351 15.846 9.76967 15.846 10.7283C15.846 10.7902 15.846 10.8522 15.8485 10.9141C15.903 11.9867 16.4678 12.6233 17.3818 12.6456C18.3355 12.6654 18.9895 12.0139 19.0068 10.9042C19.0365 8.89525 19.039 6.88632 19.0019 4.87987C18.9845 3.84939 18.3008 3.17314 17.4165 3.17562C16.5272 3.17562 15.8882 3.85187 15.8559 4.89225C15.8262 5.88062 15.8485 6.86898 15.8485 7.85735L15.851 7.85487ZM60.1466 7.96138C60.1466 6.97302 60.1639 5.98466 60.1416 4.99629C60.1168 3.88407 59.505 3.18553 58.5885 3.17314C57.6719 3.16323 57.0031 3.86673 56.9858 4.95666C56.9585 6.93339 56.9585 8.91259 56.9858 10.8893C57.0006 11.9966 57.6472 12.658 58.5959 12.6431C59.5397 12.6282 60.1168 11.9718 60.1416 10.8323C60.1639 9.87371 60.1466 8.91755 60.1466 7.95891V7.96138Z" fill="#1D423D"/>
<path d="M53.233 36.1087C53.5104 36.5373 53.6887 36.8147 53.8696 37.0897C60.3571 46.9981 56.2724 60.4413 45.3706 64.9893C40.9118 66.8496 36.3688 67.0007 31.8085 65.398C31.2685 65.2073 30.6442 64.6945 30.451 64.1818C29.9903 62.963 31.2066 61.9771 32.564 62.3239C33.8744 62.6608 35.1873 63.1092 36.5224 63.2107C45.2517 63.8771 52.4056 58.202 53.6664 49.5396C54.2585 45.4722 53.2503 41.707 50.6419 38.348C50.6419 39.0515 50.6469 39.755 50.6419 40.4585C50.6295 41.6996 50.0276 42.4427 49.0516 42.4254C48.0855 42.408 47.4861 41.6525 47.4811 40.4164C47.4737 38.5933 47.4737 36.7677 47.4811 34.9445C47.4885 33.5127 48.0236 32.9554 49.4207 32.9455C51.3058 32.9306 53.1908 32.9331 55.0759 32.9455C56.2847 32.9529 56.9511 33.5226 56.956 34.5061C56.961 35.4969 56.2872 36.0815 55.0957 36.1038C54.5235 36.1137 53.9513 36.1038 53.2305 36.1038L53.233 36.1087Z" fill="#1D423D"/>
<path d="M25.3581 56.5646C25.3581 55.767 25.3358 54.9719 25.3631 54.1742C25.3953 53.2379 25.9823 52.6285 26.8345 52.5864C27.7336 52.5418 28.4669 53.1289 28.4892 54.0875C28.5387 56.2178 28.5362 58.3506 28.4941 60.4809C28.4743 61.4272 27.8525 62.0316 26.8766 62.0514C24.8082 62.096 22.7373 62.096 20.6689 62.0539C19.6335 62.0341 19.0118 61.343 19.039 60.419C19.0663 59.495 19.7004 58.9377 20.7779 58.9129C21.3873 58.8981 21.9991 58.9105 22.7571 58.9105C22.5565 58.5686 22.4351 58.3358 22.2914 58.1203C14.4167 46.3614 21.4913 30.5922 35.4994 28.6774C37.9789 28.338 40.4263 28.5139 42.8464 29.1183C44.2212 29.4602 44.843 30.1909 44.6077 31.1619C44.3525 32.2122 43.4905 32.5714 42.0736 32.2147C33.7282 30.1166 25.4225 34.6522 22.9157 42.7597C21.4542 47.4836 22.1156 51.9721 24.7834 56.1485C24.8949 56.3244 25.041 56.4755 25.1723 56.6389L25.3606 56.5646H25.3581Z" fill="#1D423D"/>
<path d="M36.4085 42.683C36.4085 41.4172 36.4085 40.1539 36.4085 38.8881C36.4085 37.2086 36.894 36.4481 37.974 36.4333C39.0763 36.4184 39.5841 37.1739 39.5841 38.841C39.5841 41.2785 39.5593 43.7159 39.6064 46.1509C39.6163 46.6315 39.8046 47.1789 40.087 47.5703C41.0208 48.8733 42.0414 50.1118 43.0124 51.3875C43.7258 52.3264 43.6614 53.2305 42.8737 53.825C42.1306 54.3873 41.2339 54.2164 40.5452 53.3395C39.324 51.7888 38.0929 50.2456 36.9336 48.6503C36.6314 48.2342 36.4605 47.6421 36.4382 47.122C36.3738 45.6431 36.4159 44.1618 36.4134 42.6805L36.4085 42.683Z" fill="#1D423D"/>
</g>
<defs>
<clipPath id="clip0_1_1074">
<rect width="76.0025" height="76" fill="white"/>
</clipPath>
</defs>
</svg>
