<?xml version="1.0" encoding="UTF-8"?>
<svg id="Layer_1" xmlns="http://www.w3.org/2000/svg" version="1.1" viewBox="0 0 587 1371">
  <!-- Generator: Adobe Illustrator 29.5.0, SVG Export Plug-In . SVG Version: 2.1.0 Build 137)  -->
  <defs>
    <style>
      .st0 {
        fill: #ebebeb;
      }

      .st1 {
        opacity: .54;
      }
    </style>
  </defs>
  <g id="_x3C_Grid_Repeat_x3E_">
    <g class="st1">
      <polygon class="st0" points="105.61 0 94.14 0 94.13 .01 99.87 12.92 105.61 25.82 111.36 38.73 117.1 51.63 128.58 51.63 117.1 25.82 111.36 12.92 105.61 0 105.61 0"/>
      <polygon class="st0" points="174.51 0 163.04 0 163.03 0 168.77 12.92 174.51 25.82 186 51.63 180.26 64.54 174.51 77.45 168.77 90.35 163.03 103.26 163.06 103.31 174.49 103.31 174.51 103.26 180.26 90.35 186 77.44 191.74 64.54 197.48 51.63 191.74 38.73 186 25.82 180.26 12.91 174.51 .01 174.51 0"/>
      <polygon class="st0" points="174.51 51.63 163.03 51.63 157.29 64.54 151.55 77.44 151.55 77.45 145.81 90.35 140.06 103.26 140.09 103.31 151.52 103.31 151.55 103.26 151.55 103.26 157.29 90.35 163.03 77.45 163.03 77.44 168.77 64.54 168.77 64.54 174.51 51.63"/>
      <polygon class="st0" points="128.58 0 117.1 0 117.1 .01 122.84 12.92 128.58 25.82 134.32 38.73 140.06 51.63 134.32 64.54 128.58 77.44 122.84 90.35 117.1 103.26 117.12 103.31 128.56 103.31 128.58 103.26 128.58 103.26 134.32 90.35 140.06 77.45 145.81 64.54 145.81 64.54 151.55 51.63 145.81 38.73 140.06 25.82 134.32 12.92 128.58 0 128.58 0 128.58 0"/>
      <polygon class="st0" points="82.64 0 71.16 0 76.91 12.92 82.65 25.82 88.39 38.73 94.13 51.63 88.39 64.54 82.65 77.44 76.91 90.35 71.14 103.31 82.62 103.31 82.65 103.26 88.39 90.35 94.13 77.45 99.87 64.54 105.61 51.63 105.61 51.63 94.13 25.82 88.39 12.92 82.65 0 82.64 0"/>
    </g>
  </g>
  <g id="_x3C_Grid_Repeat_x3E_1" data-name="_x3C_Grid_Repeat_x3E_">
    <g class="st1">
      <polygon class="st0" points="264.8 0 253.33 0 253.32 .01 259.06 12.92 264.8 25.82 270.55 38.73 276.29 51.63 287.77 51.63 276.29 25.82 270.55 12.92 264.8 0 264.8 0"/>
      <polygon class="st0" points="333.7 0 322.23 0 322.22 0 327.96 12.92 333.7 25.82 345.19 51.63 339.45 64.54 333.7 77.45 327.96 90.35 322.22 103.26 322.25 103.31 333.68 103.31 333.7 103.26 339.45 90.35 345.19 77.44 350.93 64.54 356.67 51.63 350.93 38.73 345.19 25.82 339.45 12.91 333.7 .01 333.7 0"/>
      <polygon class="st0" points="333.7 51.63 322.22 51.63 316.48 64.54 310.74 77.44 310.74 77.45 304.99 90.35 299.25 103.26 299.28 103.31 310.71 103.31 310.74 103.26 310.74 103.26 316.48 90.35 322.22 77.45 322.22 77.44 327.96 64.54 327.96 64.54 333.7 51.63"/>
      <polygon class="st0" points="287.77 0 276.29 0 276.29 .01 282.03 12.92 287.77 25.82 293.51 38.73 299.25 51.63 293.51 64.54 287.77 77.44 282.03 90.35 276.29 103.26 276.31 103.31 287.75 103.31 287.77 103.26 287.77 103.26 293.51 90.35 299.25 77.45 304.99 64.54 304.99 64.54 310.74 51.63 304.99 38.73 299.25 25.82 293.51 12.92 287.77 0 287.77 0 287.77 0"/>
      <polygon class="st0" points="241.83 0 230.35 0 236.1 12.92 241.84 25.82 247.58 38.73 253.32 51.63 247.58 64.54 241.84 77.44 236.1 90.35 230.33 103.31 241.81 103.31 241.84 103.26 247.58 90.35 253.32 77.45 259.06 64.54 264.8 51.63 264.8 51.63 253.32 25.82 247.58 12.92 241.84 0 241.83 0"/>
    </g>
  </g>
  <g id="_x3C_Grid_Repeat_x3E_2" data-name="_x3C_Grid_Repeat_x3E_">
    <g class="st1">
      <polygon class="st0" points="423.99 0 412.52 0 412.51 .01 418.25 12.92 423.99 25.82 429.74 38.73 435.48 51.63 446.96 51.63 435.48 25.82 429.74 12.92 423.99 0 423.99 0"/>
      <polygon class="st0" points="492.89 0 481.41 0 481.41 0 487.15 12.92 492.89 25.82 504.38 51.63 498.63 64.54 492.89 77.45 487.15 90.35 481.41 103.26 481.44 103.31 492.87 103.31 492.89 103.26 498.63 90.35 504.38 77.44 510.12 64.54 515.86 51.63 510.12 38.73 504.38 25.82 498.63 12.91 492.89 .01 492.89 0"/>
      <polygon class="st0" points="492.89 51.63 481.41 51.63 475.67 64.54 469.93 77.44 469.93 77.45 464.18 90.35 458.44 103.26 458.47 103.31 469.9 103.31 469.93 103.26 469.93 103.26 475.67 90.35 481.41 77.45 481.41 77.44 487.15 64.54 487.15 64.54 492.89 51.63"/>
      <polygon class="st0" points="446.96 0 435.48 0 435.48 .01 441.22 12.92 446.96 25.82 452.7 38.73 458.44 51.63 452.7 64.54 446.96 77.44 441.22 90.35 435.48 103.26 435.5 103.31 446.94 103.31 446.96 103.26 446.96 103.26 452.7 90.35 458.44 77.45 464.18 64.54 464.18 64.54 469.93 51.63 464.18 38.73 458.44 25.82 452.7 12.92 446.96 0 446.96 0 446.96 0"/>
      <polygon class="st0" points="401.02 0 389.54 0 395.29 12.92 401.03 25.82 406.77 38.73 412.51 51.63 406.77 64.54 401.03 77.44 395.29 90.35 389.52 103.31 401 103.31 401.03 103.26 406.77 90.35 412.51 77.45 418.25 64.54 423.99 51.63 423.99 51.63 412.51 25.82 406.77 12.92 401.03 0 401.02 0"/>
    </g>
  </g>
  <g id="_x3C_Grid_Repeat_x3E_3" data-name="_x3C_Grid_Repeat_x3E_">
    <g class="st1">
      <polygon class="st0" points="26.02 115.63 14.54 115.63 14.54 115.64 20.28 128.55 26.02 141.45 31.76 154.36 37.5 167.27 48.99 167.27 37.5 141.45 31.76 128.55 26.02 115.64 26.02 115.63"/>
      <polygon class="st0" points="94.91 115.63 83.44 115.63 83.44 115.64 89.18 128.55 94.92 141.45 106.4 167.27 100.66 180.17 94.92 193.08 89.18 205.98 83.44 218.89 83.46 218.95 94.89 218.95 94.92 218.89 100.66 205.98 106.4 193.08 112.14 180.17 117.89 167.27 112.14 154.36 106.4 141.45 100.66 128.55 94.92 115.64 94.91 115.63"/>
      <polygon class="st0" points="94.92 167.27 83.44 167.27 77.69 180.17 71.95 193.08 71.95 193.08 66.21 205.98 60.47 218.89 60.49 218.95 71.93 218.95 71.95 218.89 71.95 218.89 77.69 205.98 83.44 193.08 83.44 193.08 89.18 180.17 89.18 180.17 94.92 167.27"/>
      <polygon class="st0" points="48.98 115.63 37.51 115.63 37.5 115.64 43.24 128.55 48.99 141.45 54.73 154.36 60.47 167.27 54.73 180.17 48.99 193.08 43.24 205.98 37.5 218.89 37.53 218.95 48.96 218.95 48.99 218.89 48.99 218.89 54.73 205.98 60.47 193.08 66.21 180.17 66.21 180.17 71.95 167.27 66.21 154.36 60.47 141.45 54.73 128.55 48.99 115.64 48.99 115.64 48.98 115.63"/>
      <polygon class="st0" points="3.05 115.63 -8.43 115.63 -2.69 128.55 3.05 141.45 8.79 154.36 14.54 167.27 8.79 180.17 3.05 193.08 -2.69 205.98 -8.45 218.95 3.03 218.95 3.05 218.89 8.8 205.98 14.54 193.08 20.28 180.17 26.02 167.27 26.02 167.27 14.54 141.45 8.8 128.55 3.05 115.64 3.05 115.63"/>
    </g>
  </g>
  <g id="_x3C_Grid_Repeat_x3E_4" data-name="_x3C_Grid_Repeat_x3E_">
    <g class="st1">
      <polygon class="st0" points="185.21 115.63 173.73 115.63 173.73 115.64 179.47 128.55 185.21 141.45 190.95 154.36 196.69 167.27 208.17 167.27 196.69 141.45 190.95 128.55 185.21 115.64 185.21 115.63"/>
      <polygon class="st0" points="254.1 115.63 242.63 115.63 242.63 115.64 248.37 128.55 254.11 141.45 265.59 167.27 259.85 180.17 254.11 193.08 248.37 205.98 242.63 218.89 242.65 218.95 254.08 218.95 254.11 218.89 259.85 205.98 265.59 193.08 271.33 180.17 277.08 167.27 271.33 154.36 265.59 141.45 259.85 128.55 254.11 115.64 254.1 115.63"/>
      <polygon class="st0" points="254.11 167.27 242.63 167.27 236.88 180.17 231.14 193.08 231.14 193.08 225.4 205.98 219.66 218.89 219.68 218.95 231.12 218.95 231.14 218.89 231.14 218.89 236.88 205.98 242.63 193.08 242.63 193.08 248.37 180.17 248.37 180.17 254.11 167.27"/>
      <polygon class="st0" points="208.17 115.63 196.7 115.63 196.69 115.64 202.43 128.55 208.17 141.45 213.92 154.36 219.66 167.27 213.92 180.17 208.18 193.08 202.43 205.98 196.69 218.89 196.72 218.95 208.15 218.95 208.18 218.89 208.18 218.89 213.92 205.98 219.66 193.08 225.4 180.17 225.4 180.17 231.14 167.27 225.4 154.36 219.66 141.45 213.92 128.55 208.18 115.64 208.18 115.64 208.17 115.63"/>
      <polygon class="st0" points="162.24 115.63 150.76 115.63 156.5 128.55 162.24 141.45 167.98 154.36 173.73 167.27 167.98 180.17 162.24 193.08 156.5 205.98 150.73 218.95 162.22 218.95 162.24 218.89 167.99 205.98 173.73 193.08 179.47 180.17 185.21 167.27 185.21 167.27 173.73 141.45 167.99 128.55 162.24 115.64 162.24 115.63"/>
    </g>
  </g>
  <g id="_x3C_Grid_Repeat_x3E_5" data-name="_x3C_Grid_Repeat_x3E_">
    <g class="st1">
      <polygon class="st0" points="344.39 115.63 332.92 115.63 332.92 115.64 338.66 128.55 344.4 141.45 350.14 154.36 355.88 167.27 367.36 167.27 355.88 141.45 350.14 128.55 344.4 115.64 344.39 115.63"/>
      <polygon class="st0" points="413.29 115.63 401.82 115.63 401.81 115.64 407.56 128.55 413.3 141.45 424.78 167.27 419.04 180.17 413.3 193.08 407.56 205.98 401.81 218.89 401.84 218.95 413.27 218.95 413.3 218.89 419.04 205.98 424.78 193.08 430.52 180.17 436.27 167.27 430.52 154.36 424.78 141.45 419.04 128.55 413.3 115.64 413.29 115.63"/>
      <polygon class="st0" points="413.3 167.27 401.81 167.27 396.07 180.17 390.33 193.08 390.33 193.08 384.59 205.98 378.85 218.89 378.87 218.95 390.31 218.95 390.33 218.89 390.33 218.89 396.07 205.98 401.81 193.08 401.81 193.08 407.56 180.17 407.56 180.17 413.3 167.27"/>
      <polygon class="st0" points="367.36 115.63 355.89 115.63 355.88 115.64 361.62 128.55 367.36 141.45 373.11 154.36 378.85 167.27 373.11 180.17 367.36 193.08 361.62 205.98 355.88 218.89 355.91 218.95 367.34 218.95 367.37 218.89 367.37 218.89 373.11 205.98 378.85 193.08 384.59 180.17 384.59 180.17 390.33 167.27 384.59 154.36 378.85 141.45 373.11 128.55 367.37 115.64 367.37 115.64 367.36 115.63"/>
      <polygon class="st0" points="321.43 115.63 309.94 115.63 315.69 128.55 321.43 141.45 327.17 154.36 332.92 167.27 327.17 180.17 321.43 193.08 315.69 205.98 309.92 218.95 321.41 218.95 321.43 218.89 327.17 205.98 332.92 193.08 338.66 180.17 344.4 167.27 344.4 167.27 332.92 141.45 327.17 128.55 321.43 115.64 321.43 115.63"/>
    </g>
  </g>
  <g id="_x3C_Grid_Repeat_x3E_6" data-name="_x3C_Grid_Repeat_x3E_">
    <g class="st1">
      <polygon class="st0" points="503.58 115.63 492.11 115.63 492.11 115.64 497.85 128.55 503.59 141.45 509.33 154.36 515.07 167.27 526.55 167.27 515.07 141.45 509.33 128.55 503.59 115.64 503.58 115.63"/>
      <polygon class="st0" points="572.48 115.63 561.01 115.63 561 115.64 566.75 128.55 572.49 141.45 583.97 167.27 578.23 180.17 572.49 193.08 566.75 205.98 561 218.89 561.03 218.95 572.46 218.95 572.49 218.89 578.23 205.98 583.97 193.08 589.71 180.17 595.45 167.27 589.71 154.36 583.97 141.45 578.23 128.55 572.49 115.64 572.48 115.63"/>
      <polygon class="st0" points="572.49 167.27 561 167.27 555.26 180.17 549.52 193.08 549.52 193.08 543.78 205.98 538.04 218.89 538.06 218.95 549.5 218.95 549.52 218.89 549.52 218.89 555.26 205.98 561 193.08 561 193.08 566.75 180.17 566.75 180.17 572.49 167.27"/>
      <polygon class="st0" points="526.55 115.63 515.08 115.63 515.07 115.64 520.81 128.55 526.55 141.45 532.3 154.36 538.04 167.27 532.3 180.17 526.55 193.08 520.81 205.98 515.07 218.89 515.1 218.95 526.53 218.95 526.56 218.89 526.56 218.89 532.3 205.98 538.04 193.08 543.78 180.17 543.78 180.17 549.52 167.27 543.78 154.36 538.04 141.45 532.3 128.55 526.56 115.64 526.56 115.64 526.55 115.63"/>
      <polygon class="st0" points="480.62 115.63 469.13 115.63 474.88 128.55 480.62 141.45 486.36 154.36 492.11 167.27 486.36 180.17 480.62 193.08 474.88 205.98 469.11 218.95 480.6 218.95 480.62 218.89 486.36 205.98 492.11 193.08 497.85 180.17 503.59 167.27 503.59 167.27 492.11 141.45 486.36 128.55 480.62 115.64 480.62 115.63"/>
    </g>
  </g>
  <g id="_x3C_Grid_Repeat_x3E_7" data-name="_x3C_Grid_Repeat_x3E_">
    <g class="st1">
      <polygon class="st0" points="105.61 231.26 94.14 231.26 94.13 231.27 99.87 244.18 105.61 257.09 111.36 269.99 117.1 282.9 128.58 282.9 117.1 257.08 111.36 244.18 105.61 231.27 105.61 231.26"/>
      <polygon class="st0" points="174.51 231.26 163.04 231.26 163.03 231.27 168.77 244.18 174.51 257.08 186 282.9 180.26 295.8 174.51 308.71 168.77 321.62 163.03 334.52 163.06 334.58 174.49 334.58 174.51 334.52 180.26 321.62 186 308.71 191.74 295.8 197.48 282.9 191.74 269.99 186 257.09 180.26 244.18 174.51 231.27 174.51 231.26"/>
      <polygon class="st0" points="174.51 282.9 163.03 282.9 157.29 295.8 151.55 308.71 151.55 308.71 145.81 321.62 140.06 334.52 140.09 334.58 151.52 334.58 151.55 334.52 151.55 334.52 157.29 321.62 163.03 308.71 163.03 308.71 168.77 295.81 168.77 295.8 174.51 282.9"/>
      <polygon class="st0" points="128.58 231.26 117.1 231.26 117.1 231.27 122.84 244.18 128.58 257.09 134.32 269.99 140.06 282.9 134.32 295.8 128.58 308.71 122.84 321.62 117.1 334.52 117.12 334.58 128.56 334.58 128.58 334.52 128.58 334.52 134.32 321.62 140.06 308.71 145.81 295.81 145.81 295.8 151.55 282.9 145.81 269.99 140.06 257.08 134.32 244.18 128.58 231.27 128.58 231.27 128.58 231.26"/>
      <polygon class="st0" points="82.64 231.26 71.16 231.26 76.91 244.18 82.65 257.09 88.39 269.99 94.13 282.9 88.39 295.8 82.65 308.71 76.91 321.62 71.14 334.58 82.62 334.58 82.65 334.52 88.39 321.62 94.13 308.71 99.87 295.8 105.61 282.9 105.61 282.9 94.13 257.08 88.39 244.18 82.65 231.27 82.64 231.26"/>
    </g>
  </g>
  <g id="_x3C_Grid_Repeat_x3E_8" data-name="_x3C_Grid_Repeat_x3E_">
    <g class="st1">
      <polygon class="st0" points="264.8 231.26 253.33 231.26 253.32 231.27 259.06 244.18 264.8 257.09 270.55 269.99 276.29 282.9 287.77 282.9 276.29 257.08 270.55 244.18 264.8 231.27 264.8 231.26"/>
      <polygon class="st0" points="333.7 231.26 322.23 231.26 322.22 231.27 327.96 244.18 333.7 257.08 345.19 282.9 339.45 295.8 333.7 308.71 327.96 321.62 322.22 334.52 322.25 334.58 333.68 334.58 333.7 334.52 339.45 321.62 345.19 308.71 350.93 295.8 356.67 282.9 350.93 269.99 345.19 257.09 339.45 244.18 333.7 231.27 333.7 231.26"/>
      <polygon class="st0" points="333.7 282.9 322.22 282.9 316.48 295.8 310.74 308.71 310.74 308.71 304.99 321.62 299.25 334.52 299.28 334.58 310.71 334.58 310.74 334.52 310.74 334.52 316.48 321.62 322.22 308.71 322.22 308.71 327.96 295.81 327.96 295.8 333.7 282.9"/>
      <polygon class="st0" points="287.77 231.26 276.29 231.26 276.29 231.27 282.03 244.18 287.77 257.09 293.51 269.99 299.25 282.9 293.51 295.8 287.77 308.71 282.03 321.62 276.29 334.52 276.31 334.58 287.75 334.58 287.77 334.52 287.77 334.52 293.51 321.62 299.25 308.71 304.99 295.81 304.99 295.8 310.74 282.9 304.99 269.99 299.25 257.08 293.51 244.18 287.77 231.27 287.77 231.27 287.77 231.26"/>
      <polygon class="st0" points="241.83 231.26 230.35 231.26 236.1 244.18 241.84 257.09 247.58 269.99 253.32 282.9 247.58 295.8 241.84 308.71 236.1 321.62 230.33 334.58 241.81 334.58 241.84 334.52 247.58 321.62 253.32 308.71 259.06 295.8 264.8 282.9 264.8 282.9 253.32 257.08 247.58 244.18 241.84 231.27 241.83 231.26"/>
    </g>
  </g>
  <g id="_x3C_Grid_Repeat_x3E_9" data-name="_x3C_Grid_Repeat_x3E_">
    <g class="st1">
      <polygon class="st0" points="423.99 231.26 412.52 231.26 412.51 231.27 418.25 244.18 423.99 257.09 429.74 269.99 435.48 282.9 446.96 282.9 435.48 257.08 429.74 244.18 423.99 231.27 423.99 231.26"/>
      <polygon class="st0" points="492.89 231.26 481.41 231.26 481.41 231.27 487.15 244.18 492.89 257.08 504.38 282.9 498.63 295.8 492.89 308.71 487.15 321.62 481.41 334.52 481.44 334.58 492.87 334.58 492.89 334.52 498.63 321.62 504.38 308.71 510.12 295.8 515.86 282.9 510.12 269.99 504.38 257.09 498.63 244.18 492.89 231.27 492.89 231.26"/>
      <polygon class="st0" points="492.89 282.9 481.41 282.9 475.67 295.8 469.93 308.71 469.93 308.71 464.18 321.62 458.44 334.52 458.47 334.58 469.9 334.58 469.93 334.52 469.93 334.52 475.67 321.62 481.41 308.71 481.41 308.71 487.15 295.81 487.15 295.8 492.89 282.9"/>
      <polygon class="st0" points="446.96 231.26 435.48 231.26 435.48 231.27 441.22 244.18 446.96 257.09 452.7 269.99 458.44 282.9 452.7 295.8 446.96 308.71 441.22 321.62 435.48 334.52 435.5 334.58 446.94 334.58 446.96 334.52 446.96 334.52 452.7 321.62 458.44 308.71 464.18 295.81 464.18 295.8 469.93 282.9 464.18 269.99 458.44 257.08 452.7 244.18 446.96 231.27 446.96 231.27 446.96 231.26"/>
      <polygon class="st0" points="401.02 231.26 389.54 231.26 395.29 244.18 401.03 257.09 406.77 269.99 412.51 282.9 406.77 295.8 401.03 308.71 395.29 321.62 389.52 334.58 401 334.58 401.03 334.52 406.77 321.62 412.51 308.71 418.25 295.8 423.99 282.9 423.99 282.9 412.51 257.08 406.77 244.18 401.03 231.27 401.02 231.26"/>
    </g>
  </g>
  <g id="_x3C_Grid_Repeat_x3E_10" data-name="_x3C_Grid_Repeat_x3E_">
    <g class="st1">
      <polygon class="st0" points="26.02 346.9 14.54 346.9 14.54 346.91 20.28 359.81 26.02 372.72 31.76 385.62 37.5 398.53 48.99 398.53 37.5 372.72 31.76 359.81 26.02 346.9 26.02 346.9"/>
      <polygon class="st0" points="94.91 346.9 83.44 346.9 83.44 346.9 89.18 359.81 94.92 372.72 106.4 398.53 100.66 411.44 94.92 424.34 89.18 437.25 83.44 450.15 83.46 450.21 94.89 450.21 94.92 450.15 100.66 437.25 106.4 424.34 112.14 411.44 117.89 398.53 112.14 385.62 106.4 372.72 100.66 359.81 94.92 346.91 94.91 346.9"/>
      <polygon class="st0" points="94.92 398.53 83.44 398.53 77.69 411.43 71.95 424.34 71.95 424.34 66.21 437.25 60.47 450.15 60.49 450.21 71.93 450.21 71.95 450.16 71.95 450.15 77.69 437.25 83.44 424.34 83.44 424.34 89.18 411.44 89.18 411.44 94.92 398.53"/>
      <polygon class="st0" points="48.98 346.9 37.51 346.9 37.5 346.91 43.24 359.81 48.99 372.72 54.73 385.62 60.47 398.53 54.73 411.44 48.99 424.34 43.24 437.25 37.5 450.15 37.53 450.21 48.96 450.21 48.99 450.16 48.99 450.15 54.73 437.25 60.47 424.34 66.21 411.44 66.21 411.44 71.95 398.53 66.21 385.62 60.47 372.72 54.73 359.81 48.99 346.9 48.99 346.9 48.98 346.9"/>
      <polygon class="st0" points="3.05 346.9 -8.43 346.9 -2.69 359.81 3.05 372.72 8.79 385.62 14.54 398.53 8.79 411.44 3.05 424.34 -2.69 437.25 -8.45 450.21 3.03 450.21 3.05 450.15 8.8 437.25 14.54 424.34 20.28 411.44 26.02 398.53 26.02 398.53 14.54 372.72 8.8 359.81 3.05 346.9 3.05 346.9"/>
    </g>
  </g>
  <g id="_x3C_Grid_Repeat_x3E_11" data-name="_x3C_Grid_Repeat_x3E_">
    <g class="st1">
      <polygon class="st0" points="185.21 346.9 173.73 346.9 173.73 346.91 179.47 359.81 185.21 372.72 190.95 385.62 196.69 398.53 208.17 398.53 196.69 372.72 190.95 359.81 185.21 346.9 185.21 346.9"/>
      <polygon class="st0" points="254.1 346.9 242.63 346.9 242.63 346.9 248.37 359.81 254.11 372.72 265.59 398.53 259.85 411.44 254.11 424.34 248.37 437.25 242.63 450.15 242.65 450.21 254.08 450.21 254.11 450.15 259.85 437.25 265.59 424.34 271.33 411.44 277.08 398.53 271.33 385.62 265.59 372.72 259.85 359.81 254.11 346.91 254.1 346.9"/>
      <polygon class="st0" points="254.11 398.53 242.63 398.53 236.88 411.43 231.14 424.34 231.14 424.34 225.4 437.25 219.66 450.15 219.68 450.21 231.12 450.21 231.14 450.16 231.14 450.15 236.88 437.25 242.63 424.34 242.63 424.34 248.37 411.44 248.37 411.44 254.11 398.53"/>
      <polygon class="st0" points="208.17 346.9 196.7 346.9 196.69 346.91 202.43 359.81 208.17 372.72 213.92 385.62 219.66 398.53 213.92 411.44 208.18 424.34 202.43 437.25 196.69 450.15 196.72 450.21 208.15 450.21 208.18 450.16 208.18 450.15 213.92 437.25 219.66 424.34 225.4 411.44 225.4 411.44 231.14 398.53 225.4 385.62 219.66 372.72 213.92 359.81 208.18 346.9 208.18 346.9 208.17 346.9"/>
      <polygon class="st0" points="162.24 346.9 150.76 346.9 156.5 359.81 162.24 372.72 167.98 385.62 173.73 398.53 167.98 411.44 162.24 424.34 156.5 437.25 150.73 450.21 162.22 450.21 162.24 450.15 167.99 437.25 173.73 424.34 179.47 411.44 185.21 398.53 185.21 398.53 173.73 372.72 167.99 359.81 162.24 346.9 162.24 346.9"/>
    </g>
  </g>
  <g id="_x3C_Grid_Repeat_x3E_12" data-name="_x3C_Grid_Repeat_x3E_">
    <g class="st1">
      <polygon class="st0" points="344.39 346.9 332.92 346.9 332.92 346.91 338.66 359.81 344.4 372.72 350.14 385.62 355.88 398.53 367.36 398.53 355.88 372.72 350.14 359.81 344.4 346.9 344.39 346.9"/>
      <polygon class="st0" points="413.29 346.9 401.82 346.9 401.81 346.9 407.56 359.81 413.3 372.72 424.78 398.53 419.04 411.44 413.3 424.34 407.56 437.25 401.81 450.15 401.84 450.21 413.27 450.21 413.3 450.15 419.04 437.25 424.78 424.34 430.52 411.44 436.27 398.53 430.52 385.62 424.78 372.72 419.04 359.81 413.3 346.91 413.29 346.9"/>
      <polygon class="st0" points="413.3 398.53 401.81 398.53 396.07 411.43 390.33 424.34 390.33 424.34 384.59 437.25 378.85 450.15 378.87 450.21 390.31 450.21 390.33 450.16 390.33 450.15 396.07 437.25 401.81 424.34 401.81 424.34 407.56 411.44 407.56 411.44 413.3 398.53"/>
      <polygon class="st0" points="367.36 346.9 355.89 346.9 355.88 346.91 361.62 359.81 367.36 372.72 373.11 385.62 378.85 398.53 373.11 411.44 367.36 424.34 361.62 437.25 355.88 450.15 355.91 450.21 367.34 450.21 367.37 450.16 367.37 450.15 373.11 437.25 378.85 424.34 384.59 411.44 384.59 411.44 390.33 398.53 384.59 385.62 378.85 372.72 373.11 359.81 367.37 346.9 367.37 346.9 367.36 346.9"/>
      <polygon class="st0" points="321.43 346.9 309.94 346.9 315.69 359.81 321.43 372.72 327.17 385.62 332.92 398.53 327.17 411.44 321.43 424.34 315.69 437.25 309.92 450.21 321.41 450.21 321.43 450.15 327.17 437.25 332.92 424.34 338.66 411.44 344.4 398.53 344.4 398.53 332.92 372.72 327.17 359.81 321.43 346.9 321.43 346.9"/>
    </g>
  </g>
  <g id="_x3C_Grid_Repeat_x3E_13" data-name="_x3C_Grid_Repeat_x3E_">
    <g class="st1">
      <polygon class="st0" points="503.58 346.9 492.11 346.9 492.11 346.91 497.85 359.81 503.59 372.72 509.33 385.62 515.07 398.53 526.55 398.53 515.07 372.72 509.33 359.81 503.59 346.9 503.58 346.9"/>
      <polygon class="st0" points="572.48 346.9 561.01 346.9 561 346.9 566.75 359.81 572.49 372.72 583.97 398.53 578.23 411.44 572.49 424.34 566.75 437.25 561 450.15 561.03 450.21 572.46 450.21 572.49 450.15 578.23 437.25 583.97 424.34 589.71 411.44 595.45 398.53 589.71 385.62 583.97 372.72 578.23 359.81 572.49 346.91 572.48 346.9"/>
      <polygon class="st0" points="572.49 398.53 561 398.53 555.26 411.43 549.52 424.34 549.52 424.34 543.78 437.25 538.04 450.15 538.06 450.21 549.5 450.21 549.52 450.16 549.52 450.15 555.26 437.25 561 424.34 561 424.34 566.75 411.44 566.75 411.44 572.49 398.53"/>
      <polygon class="st0" points="526.55 346.9 515.08 346.9 515.07 346.91 520.81 359.81 526.55 372.72 532.3 385.62 538.04 398.53 532.3 411.44 526.55 424.34 520.81 437.25 515.07 450.15 515.1 450.21 526.53 450.21 526.56 450.16 526.56 450.15 532.3 437.25 538.04 424.34 543.78 411.44 543.78 411.44 549.52 398.53 543.78 385.62 538.04 372.72 532.3 359.81 526.56 346.9 526.56 346.9 526.55 346.9"/>
      <polygon class="st0" points="480.62 346.9 469.13 346.9 474.88 359.81 480.62 372.72 486.36 385.62 492.11 398.53 486.36 411.44 480.62 424.34 474.88 437.25 469.11 450.21 480.6 450.21 480.62 450.15 486.36 437.25 492.11 424.34 497.85 411.44 503.59 398.53 503.59 398.53 492.11 372.72 486.36 359.81 480.62 346.9 480.62 346.9"/>
    </g>
  </g>
  <g id="_x3C_Grid_Repeat_x3E_14" data-name="_x3C_Grid_Repeat_x3E_">
    <g class="st1">
      <polygon class="st0" points="105.61 462.53 94.14 462.53 94.13 462.54 99.87 475.44 105.61 488.35 111.36 501.25 117.1 514.16 128.58 514.16 117.1 488.35 111.36 475.44 105.61 462.54 105.61 462.53"/>
      <polygon class="st0" points="174.51 462.53 163.04 462.53 163.03 462.54 168.77 475.44 174.51 488.35 186 514.16 180.26 527.07 174.51 539.97 168.77 552.88 163.03 565.79 163.06 565.84 174.49 565.84 174.51 565.78 180.26 552.88 186 539.97 191.74 527.07 197.48 514.16 191.74 501.25 186 488.35 180.26 475.44 174.51 462.54 174.51 462.53"/>
      <polygon class="st0" points="174.51 514.16 163.03 514.16 157.29 527.07 151.55 539.97 151.55 539.97 145.81 552.88 140.06 565.78 140.09 565.84 151.52 565.84 151.55 565.79 151.55 565.79 157.29 552.88 163.03 539.97 163.03 539.97 168.77 527.07 168.77 527.07 174.51 514.16"/>
      <polygon class="st0" points="128.58 462.53 117.1 462.53 117.1 462.54 122.84 475.44 128.58 488.35 134.32 501.25 140.06 514.16 134.32 527.07 128.58 539.97 122.84 552.88 117.1 565.78 117.12 565.84 128.56 565.84 128.58 565.79 128.58 565.79 134.32 552.88 140.06 539.97 145.81 527.07 145.81 527.07 151.55 514.16 145.81 501.25 140.06 488.35 134.32 475.44 128.58 462.54 128.58 462.53 128.58 462.53"/>
      <polygon class="st0" points="82.64 462.53 71.16 462.53 76.91 475.44 82.65 488.35 88.39 501.25 94.13 514.16 88.39 527.07 82.65 539.97 76.91 552.88 71.14 565.84 82.62 565.84 82.65 565.79 88.39 552.88 94.13 539.97 99.87 527.07 105.61 514.16 105.61 514.16 94.13 488.35 88.39 475.44 82.65 462.54 82.64 462.53"/>
    </g>
  </g>
  <g id="_x3C_Grid_Repeat_x3E_15" data-name="_x3C_Grid_Repeat_x3E_">
    <g class="st1">
      <polygon class="st0" points="264.8 462.53 253.33 462.53 253.32 462.54 259.06 475.44 264.8 488.35 270.55 501.25 276.29 514.16 287.77 514.16 276.29 488.35 270.55 475.44 264.8 462.54 264.8 462.53"/>
      <polygon class="st0" points="333.7 462.53 322.23 462.53 322.22 462.54 327.96 475.44 333.7 488.35 345.19 514.16 339.45 527.07 333.7 539.97 327.96 552.88 322.22 565.79 322.25 565.84 333.68 565.84 333.7 565.78 339.45 552.88 345.19 539.97 350.93 527.07 356.67 514.16 350.93 501.25 345.19 488.35 339.45 475.44 333.7 462.54 333.7 462.53"/>
      <polygon class="st0" points="333.7 514.16 322.22 514.16 316.48 527.07 310.74 539.97 310.74 539.97 304.99 552.88 299.25 565.78 299.28 565.84 310.71 565.84 310.74 565.79 310.74 565.79 316.48 552.88 322.22 539.97 322.22 539.97 327.96 527.07 327.96 527.07 333.7 514.16"/>
      <polygon class="st0" points="287.77 462.53 276.29 462.53 276.29 462.54 282.03 475.44 287.77 488.35 293.51 501.25 299.25 514.16 293.51 527.07 287.77 539.97 282.03 552.88 276.29 565.78 276.31 565.84 287.75 565.84 287.77 565.79 287.77 565.79 293.51 552.88 299.25 539.97 304.99 527.07 304.99 527.07 310.74 514.16 304.99 501.25 299.25 488.35 293.51 475.44 287.77 462.54 287.77 462.53 287.77 462.53"/>
      <polygon class="st0" points="241.83 462.53 230.35 462.53 236.1 475.44 241.84 488.35 247.58 501.25 253.32 514.16 247.58 527.07 241.84 539.97 236.1 552.88 230.33 565.84 241.81 565.84 241.84 565.79 247.58 552.88 253.32 539.97 259.06 527.07 264.8 514.16 264.8 514.16 253.32 488.35 247.58 475.44 241.84 462.54 241.83 462.53"/>
    </g>
  </g>
  <g id="_x3C_Grid_Repeat_x3E_16" data-name="_x3C_Grid_Repeat_x3E_">
    <g class="st1">
      <polygon class="st0" points="423.99 462.53 412.52 462.53 412.51 462.54 418.25 475.44 423.99 488.35 429.74 501.25 435.48 514.16 446.96 514.16 435.48 488.35 429.74 475.44 423.99 462.54 423.99 462.53"/>
      <polygon class="st0" points="492.89 462.53 481.41 462.53 481.41 462.54 487.15 475.44 492.89 488.35 504.38 514.16 498.63 527.07 492.89 539.97 487.15 552.88 481.41 565.79 481.44 565.84 492.87 565.84 492.89 565.78 498.63 552.88 504.38 539.97 510.12 527.07 515.86 514.16 510.12 501.25 504.38 488.35 498.63 475.44 492.89 462.54 492.89 462.53"/>
      <polygon class="st0" points="492.89 514.16 481.41 514.16 475.67 527.07 469.93 539.97 469.93 539.97 464.18 552.88 458.44 565.78 458.47 565.84 469.9 565.84 469.93 565.79 469.93 565.79 475.67 552.88 481.41 539.97 481.41 539.97 487.15 527.07 487.15 527.07 492.89 514.16"/>
      <polygon class="st0" points="446.96 462.53 435.48 462.53 435.48 462.54 441.22 475.44 446.96 488.35 452.7 501.25 458.44 514.16 452.7 527.07 446.96 539.97 441.22 552.88 435.48 565.78 435.5 565.84 446.94 565.84 446.96 565.79 446.96 565.79 452.7 552.88 458.44 539.97 464.18 527.07 464.18 527.07 469.93 514.16 464.18 501.25 458.44 488.35 452.7 475.44 446.96 462.54 446.96 462.53 446.96 462.53"/>
      <polygon class="st0" points="401.02 462.53 389.54 462.53 395.29 475.44 401.03 488.35 406.77 501.25 412.51 514.16 406.77 527.07 401.03 539.97 395.29 552.88 389.52 565.84 401 565.84 401.03 565.79 406.77 552.88 412.51 539.97 418.25 527.07 423.99 514.16 423.99 514.16 412.51 488.35 406.77 475.44 401.03 462.54 401.02 462.53"/>
    </g>
  </g>
  <g id="_x3C_Grid_Repeat_x3E_17" data-name="_x3C_Grid_Repeat_x3E_">
    <g class="st1">
      <polygon class="st0" points="26.02 578.16 14.54 578.16 14.54 578.17 20.28 591.08 26.02 603.98 31.76 616.89 37.5 629.79 48.99 629.79 37.5 603.98 31.76 591.08 26.02 578.17 26.02 578.16"/>
      <polygon class="st0" points="94.91 578.16 83.44 578.16 83.44 578.17 89.18 591.08 94.92 603.98 106.4 629.79 100.66 642.7 94.92 655.61 89.18 668.51 83.44 681.42 83.46 681.47 94.89 681.47 94.92 681.42 100.66 668.51 106.4 655.6 112.14 642.7 117.89 629.79 112.14 616.89 106.4 603.98 100.66 591.08 94.92 578.17 94.91 578.16"/>
      <polygon class="st0" points="94.92 629.79 83.44 629.79 77.69 642.7 71.95 655.6 71.95 655.61 66.21 668.51 60.47 681.42 60.49 681.47 71.93 681.47 71.95 681.42 71.95 681.42 77.69 668.51 83.44 655.61 83.44 655.6 89.18 642.7 89.18 642.7 94.92 629.79"/>
      <polygon class="st0" points="48.98 578.16 37.51 578.16 37.5 578.17 43.24 591.08 48.99 603.98 54.73 616.89 60.47 629.79 54.73 642.7 48.99 655.6 43.24 668.51 37.5 681.42 37.53 681.47 48.96 681.47 48.99 681.42 48.99 681.42 54.73 668.51 60.47 655.61 66.21 642.7 66.21 642.7 71.95 629.79 66.21 616.89 60.47 603.98 54.73 591.08 48.99 578.17 48.99 578.17 48.98 578.16"/>
      <polygon class="st0" points="3.05 578.16 -8.43 578.16 -2.69 591.08 3.05 603.98 8.79 616.89 14.54 629.79 8.79 642.7 3.05 655.6 -2.69 668.51 -8.45 681.47 3.03 681.47 3.05 681.42 8.8 668.51 14.54 655.61 20.28 642.7 26.02 629.79 26.02 629.79 14.54 603.98 8.8 591.08 3.05 578.17 3.05 578.16"/>
    </g>
  </g>
  <g id="_x3C_Grid_Repeat_x3E_18" data-name="_x3C_Grid_Repeat_x3E_">
    <g class="st1">
      <polygon class="st0" points="185.21 578.16 173.73 578.16 173.73 578.17 179.47 591.08 185.21 603.98 190.95 616.89 196.69 629.79 208.17 629.79 196.69 603.98 190.95 591.08 185.21 578.17 185.21 578.16"/>
      <polygon class="st0" points="254.1 578.16 242.63 578.16 242.63 578.17 248.37 591.08 254.11 603.98 265.59 629.79 259.85 642.7 254.11 655.61 248.37 668.51 242.63 681.42 242.65 681.47 254.08 681.47 254.11 681.42 259.85 668.51 265.59 655.6 271.33 642.7 277.08 629.79 271.33 616.89 265.59 603.98 259.85 591.08 254.11 578.17 254.1 578.16"/>
      <polygon class="st0" points="254.11 629.79 242.63 629.79 236.88 642.7 231.14 655.6 231.14 655.61 225.4 668.51 219.66 681.42 219.68 681.47 231.12 681.47 231.14 681.42 231.14 681.42 236.88 668.51 242.63 655.61 242.63 655.6 248.37 642.7 248.37 642.7 254.11 629.79"/>
      <polygon class="st0" points="208.17 578.16 196.7 578.16 196.69 578.17 202.43 591.08 208.17 603.98 213.92 616.89 219.66 629.79 213.92 642.7 208.18 655.6 202.43 668.51 196.69 681.42 196.72 681.47 208.15 681.47 208.18 681.42 208.18 681.42 213.92 668.51 219.66 655.61 225.4 642.7 225.4 642.7 231.14 629.79 225.4 616.89 219.66 603.98 213.92 591.08 208.18 578.17 208.18 578.17 208.17 578.16"/>
      <polygon class="st0" points="162.24 578.16 150.76 578.16 156.5 591.08 162.24 603.98 167.98 616.89 173.73 629.79 167.98 642.7 162.24 655.6 156.5 668.51 150.73 681.47 162.22 681.47 162.24 681.42 167.99 668.51 173.73 655.61 179.47 642.7 185.21 629.79 185.21 629.79 173.73 603.98 167.99 591.08 162.24 578.17 162.24 578.16"/>
    </g>
  </g>
  <g id="_x3C_Grid_Repeat_x3E_19" data-name="_x3C_Grid_Repeat_x3E_">
    <g class="st1">
      <polygon class="st0" points="344.39 578.16 332.92 578.16 332.92 578.17 338.66 591.08 344.4 603.98 350.14 616.89 355.88 629.79 367.36 629.79 355.88 603.98 350.14 591.08 344.4 578.17 344.39 578.16"/>
      <polygon class="st0" points="413.29 578.16 401.82 578.16 401.81 578.17 407.56 591.08 413.3 603.98 424.78 629.79 419.04 642.7 413.3 655.61 407.56 668.51 401.81 681.42 401.84 681.47 413.27 681.47 413.3 681.42 419.04 668.51 424.78 655.6 430.52 642.7 436.27 629.79 430.52 616.89 424.78 603.98 419.04 591.08 413.3 578.17 413.29 578.16"/>
      <polygon class="st0" points="413.3 629.79 401.81 629.79 396.07 642.7 390.33 655.6 390.33 655.61 384.59 668.51 378.85 681.42 378.87 681.47 390.31 681.47 390.33 681.42 390.33 681.42 396.07 668.51 401.81 655.61 401.81 655.6 407.56 642.7 407.56 642.7 413.3 629.79"/>
      <polygon class="st0" points="367.36 578.16 355.89 578.16 355.88 578.17 361.62 591.08 367.36 603.98 373.11 616.89 378.85 629.79 373.11 642.7 367.36 655.6 361.62 668.51 355.88 681.42 355.91 681.47 367.34 681.47 367.37 681.42 367.37 681.42 373.11 668.51 378.85 655.61 384.59 642.7 384.59 642.7 390.33 629.79 384.59 616.89 378.85 603.98 373.11 591.08 367.37 578.17 367.37 578.17 367.36 578.16"/>
      <polygon class="st0" points="321.43 578.16 309.94 578.16 315.69 591.08 321.43 603.98 327.17 616.89 332.92 629.79 327.17 642.7 321.43 655.6 315.69 668.51 309.92 681.47 321.41 681.47 321.43 681.42 327.17 668.51 332.92 655.61 338.66 642.7 344.4 629.79 344.4 629.79 332.92 603.98 327.17 591.08 321.43 578.17 321.43 578.16"/>
    </g>
  </g>
  <g id="_x3C_Grid_Repeat_x3E_20" data-name="_x3C_Grid_Repeat_x3E_">
    <g class="st1">
      <polygon class="st0" points="503.58 578.16 492.11 578.16 492.11 578.17 497.85 591.08 503.59 603.98 509.33 616.89 515.07 629.79 526.55 629.79 515.07 603.98 509.33 591.08 503.59 578.17 503.58 578.16"/>
      <polygon class="st0" points="572.48 578.16 561.01 578.16 561 578.17 566.75 591.08 572.49 603.98 583.97 629.79 578.23 642.7 572.49 655.61 566.75 668.51 561 681.42 561.03 681.47 572.46 681.47 572.49 681.42 578.23 668.51 583.97 655.6 589.71 642.7 595.45 629.79 589.71 616.89 583.97 603.98 578.23 591.08 572.49 578.17 572.48 578.16"/>
      <polygon class="st0" points="572.49 629.79 561 629.79 555.26 642.7 549.52 655.6 549.52 655.61 543.78 668.51 538.04 681.42 538.06 681.47 549.5 681.47 549.52 681.42 549.52 681.42 555.26 668.51 561 655.61 561 655.6 566.75 642.7 566.75 642.7 572.49 629.79"/>
      <polygon class="st0" points="526.55 578.16 515.08 578.16 515.07 578.17 520.81 591.08 526.55 603.98 532.3 616.89 538.04 629.79 532.3 642.7 526.55 655.6 520.81 668.51 515.07 681.42 515.1 681.47 526.53 681.47 526.56 681.42 526.56 681.42 532.3 668.51 538.04 655.61 543.78 642.7 543.78 642.7 549.52 629.79 543.78 616.89 538.04 603.98 532.3 591.08 526.56 578.17 526.56 578.17 526.55 578.16"/>
      <polygon class="st0" points="480.62 578.16 469.13 578.16 474.88 591.08 480.62 603.98 486.36 616.89 492.11 629.79 486.36 642.7 480.62 655.6 474.88 668.51 469.11 681.47 480.6 681.47 480.62 681.42 486.36 668.51 492.11 655.61 497.85 642.7 503.59 629.79 503.59 629.79 492.11 603.98 486.36 591.08 480.62 578.17 480.62 578.16"/>
    </g>
  </g>
  <g id="_x3C_Grid_Repeat_x3E_21" data-name="_x3C_Grid_Repeat_x3E_">
    <g class="st1">
      <polygon class="st0" points="105.61 693.79 94.14 693.79 94.13 693.8 99.87 706.71 105.61 719.61 111.36 732.52 117.1 745.43 128.58 745.43 117.1 719.61 111.36 706.71 105.61 693.8 105.61 693.79"/>
      <polygon class="st0" points="174.51 693.79 163.04 693.79 163.03 693.8 168.77 706.71 174.51 719.61 186 745.43 180.26 758.33 174.51 771.24 168.77 784.14 163.03 797.05 163.06 797.11 174.49 797.11 174.51 797.05 180.26 784.14 186 771.24 191.74 758.33 197.48 745.43 191.74 732.52 186 719.61 180.26 706.71 174.51 693.8 174.51 693.79"/>
      <polygon class="st0" points="174.51 745.43 163.03 745.43 157.29 758.33 151.55 771.24 151.55 771.24 145.81 784.14 140.06 797.05 140.09 797.11 151.52 797.11 151.55 797.05 151.55 797.05 157.29 784.14 163.03 771.24 163.03 771.24 168.77 758.33 168.77 758.33 174.51 745.43"/>
      <polygon class="st0" points="128.58 693.79 117.1 693.79 117.1 693.8 122.84 706.71 128.58 719.61 134.32 732.52 140.06 745.43 134.32 758.33 128.58 771.24 122.84 784.14 117.1 797.05 117.12 797.11 128.56 797.11 128.58 797.05 128.58 797.05 134.32 784.14 140.06 771.24 145.81 758.33 145.81 758.33 151.55 745.43 145.81 732.52 140.06 719.61 134.32 706.71 128.58 693.8 128.58 693.8 128.58 693.79"/>
      <polygon class="st0" points="82.64 693.79 71.16 693.79 76.91 706.71 82.65 719.61 88.39 732.52 94.13 745.43 88.39 758.33 82.65 771.24 76.91 784.14 71.14 797.11 82.62 797.11 82.65 797.05 88.39 784.14 94.13 771.24 99.87 758.33 105.61 745.43 105.61 745.43 94.13 719.61 88.39 706.71 82.65 693.8 82.64 693.79"/>
    </g>
  </g>
  <g id="_x3C_Grid_Repeat_x3E_22" data-name="_x3C_Grid_Repeat_x3E_">
    <g class="st1">
      <polygon class="st0" points="264.8 693.79 253.33 693.79 253.32 693.8 259.06 706.71 264.8 719.61 270.55 732.52 276.29 745.43 287.77 745.43 276.29 719.61 270.55 706.71 264.8 693.8 264.8 693.79"/>
      <polygon class="st0" points="333.7 693.79 322.23 693.79 322.22 693.8 327.96 706.71 333.7 719.61 345.19 745.43 339.45 758.33 333.7 771.24 327.96 784.14 322.22 797.05 322.25 797.11 333.68 797.11 333.7 797.05 339.45 784.14 345.19 771.24 350.93 758.33 356.67 745.43 350.93 732.52 345.19 719.61 339.45 706.71 333.7 693.8 333.7 693.79"/>
      <polygon class="st0" points="333.7 745.43 322.22 745.43 316.48 758.33 310.74 771.24 310.74 771.24 304.99 784.14 299.25 797.05 299.28 797.11 310.71 797.11 310.74 797.05 310.74 797.05 316.48 784.14 322.22 771.24 322.22 771.24 327.96 758.33 327.96 758.33 333.7 745.43"/>
      <polygon class="st0" points="287.77 693.79 276.29 693.79 276.29 693.8 282.03 706.71 287.77 719.61 293.51 732.52 299.25 745.43 293.51 758.33 287.77 771.24 282.03 784.14 276.29 797.05 276.31 797.11 287.75 797.11 287.77 797.05 287.77 797.05 293.51 784.14 299.25 771.24 304.99 758.33 304.99 758.33 310.74 745.43 304.99 732.52 299.25 719.61 293.51 706.71 287.77 693.8 287.77 693.8 287.77 693.79"/>
      <polygon class="st0" points="241.83 693.79 230.35 693.79 236.1 706.71 241.84 719.61 247.58 732.52 253.32 745.43 247.58 758.33 241.84 771.24 236.1 784.14 230.33 797.11 241.81 797.11 241.84 797.05 247.58 784.14 253.32 771.24 259.06 758.33 264.8 745.43 264.8 745.43 253.32 719.61 247.58 706.71 241.84 693.8 241.83 693.79"/>
    </g>
  </g>
  <g id="_x3C_Grid_Repeat_x3E_23" data-name="_x3C_Grid_Repeat_x3E_">
    <g class="st1">
      <polygon class="st0" points="423.99 693.79 412.52 693.79 412.51 693.8 418.25 706.71 423.99 719.61 429.74 732.52 435.48 745.43 446.96 745.43 435.48 719.61 429.74 706.71 423.99 693.8 423.99 693.79"/>
      <polygon class="st0" points="492.89 693.79 481.41 693.79 481.41 693.8 487.15 706.71 492.89 719.61 504.38 745.43 498.63 758.33 492.89 771.24 487.15 784.14 481.41 797.05 481.44 797.11 492.87 797.11 492.89 797.05 498.63 784.14 504.38 771.24 510.12 758.33 515.86 745.43 510.12 732.52 504.38 719.61 498.63 706.71 492.89 693.8 492.89 693.79"/>
      <polygon class="st0" points="492.89 745.43 481.41 745.43 475.67 758.33 469.93 771.24 469.93 771.24 464.18 784.14 458.44 797.05 458.47 797.11 469.9 797.11 469.93 797.05 469.93 797.05 475.67 784.14 481.41 771.24 481.41 771.24 487.15 758.33 487.15 758.33 492.89 745.43"/>
      <polygon class="st0" points="446.96 693.79 435.48 693.79 435.48 693.8 441.22 706.71 446.96 719.61 452.7 732.52 458.44 745.43 452.7 758.33 446.96 771.24 441.22 784.14 435.48 797.05 435.5 797.11 446.94 797.11 446.96 797.05 446.96 797.05 452.7 784.14 458.44 771.24 464.18 758.33 464.18 758.33 469.93 745.43 464.18 732.52 458.44 719.61 452.7 706.71 446.96 693.8 446.96 693.8 446.96 693.79"/>
      <polygon class="st0" points="401.02 693.79 389.54 693.79 395.29 706.71 401.03 719.61 406.77 732.52 412.51 745.43 406.77 758.33 401.03 771.24 395.29 784.14 389.52 797.11 401 797.11 401.03 797.05 406.77 784.14 412.51 771.24 418.25 758.33 423.99 745.43 423.99 745.43 412.51 719.61 406.77 706.71 401.03 693.8 401.02 693.79"/>
    </g>
  </g>
  <g id="_x3C_Grid_Repeat_x3E_24" data-name="_x3C_Grid_Repeat_x3E_">
    <g class="st1">
      <polygon class="st0" points="26.02 805.16 14.54 805.16 14.54 805.17 20.28 818.07 26.02 830.98 31.76 843.88 37.5 856.79 48.99 856.79 37.5 830.98 31.76 818.07 26.02 805.17 26.02 805.16"/>
      <polygon class="st0" points="94.91 805.16 83.44 805.16 83.44 805.17 89.18 818.07 94.92 830.98 106.4 856.79 100.66 869.7 94.92 882.6 89.18 895.51 83.44 908.42 83.46 908.47 94.89 908.47 94.92 908.41 100.66 895.51 106.4 882.6 112.14 869.7 117.89 856.79 112.14 843.88 106.4 830.98 100.66 818.07 94.92 805.17 94.91 805.16"/>
      <polygon class="st0" points="94.92 856.79 83.44 856.79 77.69 869.7 71.95 882.6 71.95 882.6 66.21 895.51 60.47 908.41 60.49 908.47 71.93 908.47 71.95 908.42 71.95 908.42 77.69 895.51 83.44 882.6 83.44 882.6 89.18 869.7 89.18 869.7 94.92 856.79"/>
      <polygon class="st0" points="48.98 805.16 37.51 805.16 37.5 805.17 43.24 818.07 48.99 830.98 54.73 843.88 60.47 856.79 54.73 869.7 48.99 882.6 43.24 895.51 37.5 908.41 37.53 908.47 48.96 908.47 48.99 908.42 48.99 908.42 54.73 895.51 60.47 882.6 66.21 869.7 66.21 869.7 71.95 856.79 66.21 843.88 60.47 830.98 54.73 818.07 48.99 805.17 48.99 805.17 48.98 805.16"/>
      <polygon class="st0" points="3.05 805.16 -8.43 805.16 -2.69 818.07 3.05 830.98 8.79 843.88 14.54 856.79 8.79 869.7 3.05 882.6 -2.69 895.51 -8.45 908.47 3.03 908.47 3.05 908.42 8.8 895.51 14.54 882.6 20.28 869.7 26.02 856.79 26.02 856.79 14.54 830.98 8.8 818.07 3.05 805.17 3.05 805.16"/>
    </g>
  </g>
  <g id="_x3C_Grid_Repeat_x3E_25" data-name="_x3C_Grid_Repeat_x3E_">
    <g class="st1">
      <polygon class="st0" points="185.21 805.16 173.73 805.16 173.73 805.17 179.47 818.07 185.21 830.98 190.95 843.88 196.69 856.79 208.17 856.79 196.69 830.98 190.95 818.07 185.21 805.17 185.21 805.16"/>
      <polygon class="st0" points="254.1 805.16 242.63 805.16 242.63 805.17 248.37 818.07 254.11 830.98 265.59 856.79 259.85 869.7 254.11 882.6 248.37 895.51 242.63 908.42 242.65 908.47 254.08 908.47 254.11 908.41 259.85 895.51 265.59 882.6 271.33 869.7 277.08 856.79 271.33 843.88 265.59 830.98 259.85 818.07 254.11 805.17 254.1 805.16"/>
      <polygon class="st0" points="254.11 856.79 242.63 856.79 236.88 869.7 231.14 882.6 231.14 882.6 225.4 895.51 219.66 908.41 219.68 908.47 231.12 908.47 231.14 908.42 231.14 908.42 236.88 895.51 242.63 882.6 242.63 882.6 248.37 869.7 248.37 869.7 254.11 856.79"/>
      <polygon class="st0" points="208.17 805.16 196.7 805.16 196.69 805.17 202.43 818.07 208.17 830.98 213.92 843.88 219.66 856.79 213.92 869.7 208.18 882.6 202.43 895.51 196.69 908.41 196.72 908.47 208.15 908.47 208.18 908.42 208.18 908.42 213.92 895.51 219.66 882.6 225.4 869.7 225.4 869.7 231.14 856.79 225.4 843.88 219.66 830.98 213.92 818.07 208.18 805.17 208.18 805.17 208.17 805.16"/>
      <polygon class="st0" points="162.24 805.16 150.76 805.16 156.5 818.07 162.24 830.98 167.98 843.88 173.73 856.79 167.98 869.7 162.24 882.6 156.5 895.51 150.73 908.47 162.22 908.47 162.24 908.42 167.99 895.51 173.73 882.6 179.47 869.7 185.21 856.79 185.21 856.79 173.73 830.98 167.99 818.07 162.24 805.17 162.24 805.16"/>
    </g>
  </g>
  <g id="_x3C_Grid_Repeat_x3E_26" data-name="_x3C_Grid_Repeat_x3E_">
    <g class="st1">
      <polygon class="st0" points="344.39 805.16 332.92 805.16 332.92 805.17 338.66 818.07 344.4 830.98 350.14 843.88 355.88 856.79 367.36 856.79 355.88 830.98 350.14 818.07 344.4 805.17 344.39 805.16"/>
      <polygon class="st0" points="413.29 805.16 401.82 805.16 401.81 805.17 407.56 818.07 413.3 830.98 424.78 856.79 419.04 869.7 413.3 882.6 407.56 895.51 401.81 908.42 401.84 908.47 413.27 908.47 413.3 908.41 419.04 895.51 424.78 882.6 430.52 869.7 436.27 856.79 430.52 843.88 424.78 830.98 419.04 818.07 413.3 805.17 413.29 805.16"/>
      <polygon class="st0" points="413.3 856.79 401.81 856.79 396.07 869.7 390.33 882.6 390.33 882.6 384.59 895.51 378.85 908.41 378.87 908.47 390.31 908.47 390.33 908.42 390.33 908.42 396.07 895.51 401.81 882.6 401.81 882.6 407.56 869.7 407.56 869.7 413.3 856.79"/>
      <polygon class="st0" points="367.36 805.16 355.89 805.16 355.88 805.17 361.62 818.07 367.36 830.98 373.11 843.88 378.85 856.79 373.11 869.7 367.36 882.6 361.62 895.51 355.88 908.41 355.91 908.47 367.34 908.47 367.37 908.42 367.37 908.42 373.11 895.51 378.85 882.6 384.59 869.7 384.59 869.7 390.33 856.79 384.59 843.88 378.85 830.98 373.11 818.07 367.37 805.17 367.37 805.17 367.36 805.16"/>
      <polygon class="st0" points="321.43 805.16 309.94 805.16 315.69 818.07 321.43 830.98 327.17 843.88 332.92 856.79 327.17 869.7 321.43 882.6 315.69 895.51 309.92 908.47 321.41 908.47 321.43 908.42 327.17 895.51 332.92 882.6 338.66 869.7 344.4 856.79 344.4 856.79 332.92 830.98 327.17 818.07 321.43 805.17 321.43 805.16"/>
    </g>
  </g>
  <g id="_x3C_Grid_Repeat_x3E_27" data-name="_x3C_Grid_Repeat_x3E_">
    <g class="st1">
      <polygon class="st0" points="503.58 805.16 492.11 805.16 492.11 805.17 497.85 818.07 503.59 830.98 509.33 843.88 515.07 856.79 526.55 856.79 515.07 830.98 509.33 818.07 503.59 805.17 503.58 805.16"/>
      <polygon class="st0" points="572.48 805.16 561.01 805.16 561 805.17 566.75 818.07 572.49 830.98 583.97 856.79 578.23 869.7 572.49 882.6 566.75 895.51 561 908.42 561.03 908.47 572.46 908.47 572.49 908.41 578.23 895.51 583.97 882.6 589.71 869.7 595.45 856.79 589.71 843.88 583.97 830.98 578.23 818.07 572.49 805.17 572.48 805.16"/>
      <polygon class="st0" points="572.49 856.79 561 856.79 555.26 869.7 549.52 882.6 549.52 882.6 543.78 895.51 538.04 908.41 538.06 908.47 549.5 908.47 549.52 908.42 549.52 908.42 555.26 895.51 561 882.6 561 882.6 566.75 869.7 566.75 869.7 572.49 856.79"/>
      <polygon class="st0" points="526.55 805.16 515.08 805.16 515.07 805.17 520.81 818.07 526.55 830.98 532.3 843.88 538.04 856.79 532.3 869.7 526.55 882.6 520.81 895.51 515.07 908.41 515.1 908.47 526.53 908.47 526.56 908.42 526.56 908.42 532.3 895.51 538.04 882.6 543.78 869.7 543.78 869.7 549.52 856.79 543.78 843.88 538.04 830.98 532.3 818.07 526.56 805.17 526.56 805.17 526.55 805.16"/>
      <polygon class="st0" points="480.62 805.16 469.13 805.16 474.88 818.07 480.62 830.98 486.36 843.88 492.11 856.79 486.36 869.7 480.62 882.6 474.88 895.51 469.11 908.47 480.6 908.47 480.62 908.42 486.36 895.51 492.11 882.6 497.85 869.7 503.59 856.79 503.59 856.79 492.11 830.98 486.36 818.07 480.62 805.17 480.62 805.16"/>
    </g>
  </g>
  <g id="_x3C_Grid_Repeat_x3E_28" data-name="_x3C_Grid_Repeat_x3E_">
    <g class="st1">
      <polygon class="st0" points="105.61 920.79 94.14 920.79 94.13 920.8 99.87 933.71 105.61 946.61 111.36 959.52 117.1 972.42 128.58 972.42 117.1 946.61 111.36 933.71 105.61 920.8 105.61 920.79"/>
      <polygon class="st0" points="174.51 920.79 163.04 920.79 163.03 920.8 168.77 933.71 174.51 946.61 186 972.42 180.26 985.33 174.51 998.24 168.77 1011.14 163.03 1024.05 163.06 1024.1 174.49 1024.1 174.51 1024.05 180.26 1011.14 186 998.23 191.74 985.33 197.48 972.42 191.74 959.52 186 946.61 180.26 933.71 174.51 920.8 174.51 920.79"/>
      <polygon class="st0" points="174.51 972.42 163.03 972.42 157.29 985.33 151.55 998.23 151.55 998.24 145.81 1011.14 140.06 1024.05 140.09 1024.1 151.52 1024.1 151.55 1024.05 151.55 1024.05 157.29 1011.14 163.03 998.24 163.03 998.23 168.77 985.33 168.77 985.33 174.51 972.42"/>
      <polygon class="st0" points="128.58 920.79 117.1 920.79 117.1 920.8 122.84 933.71 128.58 946.61 134.32 959.52 140.06 972.42 134.32 985.33 128.58 998.23 122.84 1011.14 117.1 1024.05 117.12 1024.1 128.56 1024.1 128.58 1024.05 128.58 1024.05 134.32 1011.14 140.06 998.24 145.81 985.33 145.81 985.33 151.55 972.42 145.81 959.52 140.06 946.61 134.32 933.71 128.58 920.8 128.58 920.8 128.58 920.79"/>
      <polygon class="st0" points="82.64 920.79 71.16 920.79 76.91 933.71 82.65 946.61 88.39 959.52 94.13 972.42 88.39 985.33 82.65 998.23 76.91 1011.14 71.14 1024.1 82.62 1024.1 82.65 1024.05 88.39 1011.14 94.13 998.24 99.87 985.33 105.61 972.43 105.61 972.42 94.13 946.61 88.39 933.71 82.65 920.8 82.64 920.79"/>
    </g>
  </g>
  <g id="_x3C_Grid_Repeat_x3E_29" data-name="_x3C_Grid_Repeat_x3E_">
    <g class="st1">
      <polygon class="st0" points="264.8 920.79 253.33 920.79 253.32 920.8 259.06 933.71 264.8 946.61 270.55 959.52 276.29 972.42 287.77 972.42 276.29 946.61 270.55 933.71 264.8 920.8 264.8 920.79"/>
      <polygon class="st0" points="333.7 920.79 322.23 920.79 322.22 920.8 327.96 933.71 333.7 946.61 345.19 972.42 339.45 985.33 333.7 998.24 327.96 1011.14 322.22 1024.05 322.25 1024.1 333.68 1024.1 333.7 1024.05 339.45 1011.14 345.19 998.23 350.93 985.33 356.67 972.42 350.93 959.52 345.19 946.61 339.45 933.71 333.7 920.8 333.7 920.79"/>
      <polygon class="st0" points="333.7 972.42 322.22 972.42 316.48 985.33 310.74 998.23 310.74 998.24 304.99 1011.14 299.25 1024.05 299.28 1024.1 310.71 1024.1 310.74 1024.05 310.74 1024.05 316.48 1011.14 322.22 998.24 322.22 998.23 327.96 985.33 327.96 985.33 333.7 972.42"/>
      <polygon class="st0" points="287.77 920.79 276.29 920.79 276.29 920.8 282.03 933.71 287.77 946.61 293.51 959.52 299.25 972.42 293.51 985.33 287.77 998.23 282.03 1011.14 276.29 1024.05 276.31 1024.1 287.75 1024.1 287.77 1024.05 287.77 1024.05 293.51 1011.14 299.25 998.24 304.99 985.33 304.99 985.33 310.74 972.42 304.99 959.52 299.25 946.61 293.51 933.71 287.77 920.8 287.77 920.8 287.77 920.79"/>
      <polygon class="st0" points="241.83 920.79 230.35 920.79 236.1 933.71 241.84 946.61 247.58 959.52 253.32 972.42 247.58 985.33 241.84 998.23 236.1 1011.14 230.33 1024.1 241.81 1024.1 241.84 1024.05 247.58 1011.14 253.32 998.24 259.06 985.33 264.8 972.43 264.8 972.42 253.32 946.61 247.58 933.71 241.84 920.8 241.83 920.79"/>
    </g>
  </g>
  <g id="_x3C_Grid_Repeat_x3E_30" data-name="_x3C_Grid_Repeat_x3E_">
    <g class="st1">
      <polygon class="st0" points="423.99 920.79 412.52 920.79 412.51 920.8 418.25 933.71 423.99 946.61 429.74 959.52 435.48 972.42 446.96 972.42 435.48 946.61 429.74 933.71 423.99 920.8 423.99 920.79"/>
      <polygon class="st0" points="492.89 920.79 481.41 920.79 481.41 920.8 487.15 933.71 492.89 946.61 504.38 972.42 498.63 985.33 492.89 998.24 487.15 1011.14 481.41 1024.05 481.44 1024.1 492.87 1024.1 492.89 1024.05 498.63 1011.14 504.38 998.23 510.12 985.33 515.86 972.42 510.12 959.52 504.38 946.61 498.63 933.71 492.89 920.8 492.89 920.79"/>
      <polygon class="st0" points="492.89 972.42 481.41 972.42 475.67 985.33 469.93 998.23 469.93 998.24 464.18 1011.14 458.44 1024.05 458.47 1024.1 469.9 1024.1 469.93 1024.05 469.93 1024.05 475.67 1011.14 481.41 998.24 481.41 998.23 487.15 985.33 487.15 985.33 492.89 972.42"/>
      <polygon class="st0" points="446.96 920.79 435.48 920.79 435.48 920.8 441.22 933.71 446.96 946.61 452.7 959.52 458.44 972.42 452.7 985.33 446.96 998.23 441.22 1011.14 435.48 1024.05 435.5 1024.1 446.94 1024.1 446.96 1024.05 446.96 1024.05 452.7 1011.14 458.44 998.24 464.18 985.33 464.18 985.33 469.93 972.42 464.18 959.52 458.44 946.61 452.7 933.71 446.96 920.8 446.96 920.8 446.96 920.79"/>
      <polygon class="st0" points="401.02 920.79 389.54 920.79 395.29 933.71 401.03 946.61 406.77 959.52 412.51 972.42 406.77 985.33 401.03 998.23 395.29 1011.14 389.52 1024.1 401 1024.1 401.03 1024.05 406.77 1011.14 412.51 998.24 418.25 985.33 423.99 972.43 423.99 972.42 412.51 946.61 406.77 933.71 401.03 920.8 401.02 920.79"/>
    </g>
  </g>
  <g id="_x3C_Grid_Repeat_x3E_31" data-name="_x3C_Grid_Repeat_x3E_">
    <g class="st1">
      <polygon class="st0" points="26.02 1036.42 14.54 1036.42 14.54 1036.43 20.28 1049.34 26.02 1062.24 31.76 1075.15 37.5 1088.06 48.99 1088.06 37.5 1062.24 31.76 1049.34 26.02 1036.43 26.02 1036.42"/>
      <polygon class="st0" points="94.91 1036.42 83.44 1036.42 83.44 1036.43 89.18 1049.34 94.92 1062.24 106.4 1088.06 100.66 1100.96 94.92 1113.87 89.18 1126.77 83.44 1139.68 83.46 1139.74 94.89 1139.74 94.92 1139.68 100.66 1126.77 106.4 1113.87 112.14 1100.96 117.89 1088.06 112.14 1075.15 106.4 1062.24 100.66 1049.34 94.92 1036.43 94.91 1036.42"/>
      <polygon class="st0" points="94.92 1088.06 83.44 1088.06 77.69 1100.96 71.95 1113.87 71.95 1113.87 66.21 1126.77 60.47 1139.68 60.49 1139.74 71.93 1139.74 71.95 1139.68 71.95 1139.68 77.69 1126.77 83.44 1113.87 83.44 1113.87 89.18 1100.96 89.18 1100.96 94.92 1088.06"/>
      <polygon class="st0" points="48.98 1036.42 37.51 1036.42 37.5 1036.43 43.24 1049.34 48.99 1062.24 54.73 1075.15 60.47 1088.06 54.73 1100.96 48.99 1113.87 43.24 1126.77 37.5 1139.68 37.53 1139.74 48.96 1139.74 48.99 1139.68 48.99 1139.68 54.73 1126.77 60.47 1113.87 66.21 1100.96 66.21 1100.96 71.95 1088.06 66.21 1075.15 60.47 1062.24 54.73 1049.34 48.99 1036.43 48.99 1036.43 48.98 1036.42"/>
      <polygon class="st0" points="3.05 1036.42 -8.43 1036.42 -2.69 1049.34 3.05 1062.24 8.79 1075.15 14.54 1088.06 8.79 1100.96 3.05 1113.87 -2.69 1126.77 -8.45 1139.74 3.03 1139.74 3.05 1139.68 8.8 1126.77 14.54 1113.87 20.28 1100.96 26.02 1088.06 26.02 1088.06 14.54 1062.24 8.8 1049.34 3.05 1036.43 3.05 1036.42"/>
    </g>
  </g>
  <g id="_x3C_Grid_Repeat_x3E_32" data-name="_x3C_Grid_Repeat_x3E_">
    <g class="st1">
      <polygon class="st0" points="185.21 1036.42 173.73 1036.42 173.73 1036.43 179.47 1049.34 185.21 1062.24 190.95 1075.15 196.69 1088.06 208.17 1088.06 196.69 1062.24 190.95 1049.34 185.21 1036.43 185.21 1036.42"/>
      <polygon class="st0" points="254.1 1036.42 242.63 1036.42 242.63 1036.43 248.37 1049.34 254.11 1062.24 265.59 1088.06 259.85 1100.96 254.11 1113.87 248.37 1126.77 242.63 1139.68 242.65 1139.74 254.08 1139.74 254.11 1139.68 259.85 1126.77 265.59 1113.87 271.33 1100.96 277.08 1088.06 271.33 1075.15 265.59 1062.24 259.85 1049.34 254.11 1036.43 254.1 1036.42"/>
      <polygon class="st0" points="254.11 1088.06 242.63 1088.06 236.88 1100.96 231.14 1113.87 231.14 1113.87 225.4 1126.77 219.66 1139.68 219.68 1139.74 231.12 1139.74 231.14 1139.68 231.14 1139.68 236.88 1126.77 242.63 1113.87 242.63 1113.87 248.37 1100.96 248.37 1100.96 254.11 1088.06"/>
      <polygon class="st0" points="208.17 1036.42 196.7 1036.42 196.69 1036.43 202.43 1049.34 208.17 1062.24 213.92 1075.15 219.66 1088.06 213.92 1100.96 208.18 1113.87 202.43 1126.77 196.69 1139.68 196.72 1139.74 208.15 1139.74 208.18 1139.68 208.18 1139.68 213.92 1126.77 219.66 1113.87 225.4 1100.96 225.4 1100.96 231.14 1088.06 225.4 1075.15 219.66 1062.24 213.92 1049.34 208.18 1036.43 208.18 1036.43 208.17 1036.42"/>
      <polygon class="st0" points="162.24 1036.42 150.76 1036.42 156.5 1049.34 162.24 1062.24 167.98 1075.15 173.73 1088.06 167.98 1100.96 162.24 1113.87 156.5 1126.77 150.73 1139.74 162.22 1139.74 162.24 1139.68 167.99 1126.77 173.73 1113.87 179.47 1100.96 185.21 1088.06 185.21 1088.06 173.73 1062.24 167.99 1049.34 162.24 1036.43 162.24 1036.42"/>
    </g>
  </g>
  <g id="_x3C_Grid_Repeat_x3E_33" data-name="_x3C_Grid_Repeat_x3E_">
    <g class="st1">
      <polygon class="st0" points="344.39 1036.42 332.92 1036.42 332.92 1036.43 338.66 1049.34 344.4 1062.24 350.14 1075.15 355.88 1088.06 367.36 1088.06 355.88 1062.24 350.14 1049.34 344.4 1036.43 344.39 1036.42"/>
      <polygon class="st0" points="413.29 1036.42 401.82 1036.42 401.81 1036.43 407.56 1049.34 413.3 1062.24 424.78 1088.06 419.04 1100.96 413.3 1113.87 407.56 1126.77 401.81 1139.68 401.84 1139.74 413.27 1139.74 413.3 1139.68 419.04 1126.77 424.78 1113.87 430.52 1100.96 436.27 1088.06 430.52 1075.15 424.78 1062.24 419.04 1049.34 413.3 1036.43 413.29 1036.42"/>
      <polygon class="st0" points="413.3 1088.06 401.81 1088.06 396.07 1100.96 390.33 1113.87 390.33 1113.87 384.59 1126.77 378.85 1139.68 378.87 1139.74 390.31 1139.74 390.33 1139.68 390.33 1139.68 396.07 1126.77 401.81 1113.87 401.81 1113.87 407.56 1100.96 407.56 1100.96 413.3 1088.06"/>
      <polygon class="st0" points="367.36 1036.42 355.89 1036.42 355.88 1036.43 361.62 1049.34 367.36 1062.24 373.11 1075.15 378.85 1088.06 373.11 1100.96 367.36 1113.87 361.62 1126.77 355.88 1139.68 355.91 1139.74 367.34 1139.74 367.37 1139.68 367.37 1139.68 373.11 1126.77 378.85 1113.87 384.59 1100.96 384.59 1100.96 390.33 1088.06 384.59 1075.15 378.85 1062.24 373.11 1049.34 367.37 1036.43 367.37 1036.43 367.36 1036.42"/>
      <polygon class="st0" points="321.43 1036.42 309.94 1036.42 315.69 1049.34 321.43 1062.24 327.17 1075.15 332.92 1088.06 327.17 1100.96 321.43 1113.87 315.69 1126.77 309.92 1139.74 321.41 1139.74 321.43 1139.68 327.17 1126.77 332.92 1113.87 338.66 1100.96 344.4 1088.06 344.4 1088.06 332.92 1062.24 327.17 1049.34 321.43 1036.43 321.43 1036.42"/>
    </g>
  </g>
  <g id="_x3C_Grid_Repeat_x3E_34" data-name="_x3C_Grid_Repeat_x3E_">
    <g class="st1">
      <polygon class="st0" points="503.58 1036.42 492.11 1036.42 492.11 1036.43 497.85 1049.34 503.59 1062.24 509.33 1075.15 515.07 1088.06 526.55 1088.06 515.07 1062.24 509.33 1049.34 503.59 1036.43 503.58 1036.42"/>
      <polygon class="st0" points="572.48 1036.42 561.01 1036.42 561 1036.43 566.75 1049.34 572.49 1062.24 583.97 1088.06 578.23 1100.96 572.49 1113.87 566.75 1126.77 561 1139.68 561.03 1139.74 572.46 1139.74 572.49 1139.68 578.23 1126.77 583.97 1113.87 589.71 1100.96 595.45 1088.06 589.71 1075.15 583.97 1062.24 578.23 1049.34 572.49 1036.43 572.48 1036.42"/>
      <polygon class="st0" points="572.49 1088.06 561 1088.06 555.26 1100.96 549.52 1113.87 549.52 1113.87 543.78 1126.77 538.04 1139.68 538.06 1139.74 549.5 1139.74 549.52 1139.68 549.52 1139.68 555.26 1126.77 561 1113.87 561 1113.87 566.75 1100.96 566.75 1100.96 572.49 1088.06"/>
      <polygon class="st0" points="526.55 1036.42 515.08 1036.42 515.07 1036.43 520.81 1049.34 526.55 1062.24 532.3 1075.15 538.04 1088.06 532.3 1100.96 526.55 1113.87 520.81 1126.77 515.07 1139.68 515.1 1139.74 526.53 1139.74 526.56 1139.68 526.56 1139.68 532.3 1126.77 538.04 1113.87 543.78 1100.96 543.78 1100.96 549.52 1088.06 543.78 1075.15 538.04 1062.24 532.3 1049.34 526.56 1036.43 526.56 1036.43 526.55 1036.42"/>
      <polygon class="st0" points="480.62 1036.42 469.13 1036.42 474.88 1049.34 480.62 1062.24 486.36 1075.15 492.11 1088.06 486.36 1100.96 480.62 1113.87 474.88 1126.77 469.11 1139.74 480.6 1139.74 480.62 1139.68 486.36 1126.77 492.11 1113.87 497.85 1100.96 503.59 1088.06 503.59 1088.06 492.11 1062.24 486.36 1049.34 480.62 1036.43 480.62 1036.42"/>
    </g>
  </g>
  <g id="_x3C_Grid_Repeat_x3E_35" data-name="_x3C_Grid_Repeat_x3E_">
    <g class="st1">
      <polygon class="st0" points="105.61 1152.05 94.14 1152.05 94.13 1152.06 99.87 1164.97 105.61 1177.88 111.36 1190.78 117.1 1203.69 128.58 1203.69 117.1 1177.87 111.36 1164.97 105.61 1152.06 105.61 1152.05"/>
      <polygon class="st0" points="174.51 1152.05 163.04 1152.05 163.03 1152.06 168.77 1164.97 174.51 1177.87 186 1203.69 180.26 1216.59 174.51 1229.5 168.77 1242.41 163.03 1255.31 163.06 1255.37 174.49 1255.37 174.51 1255.31 180.26 1242.41 186 1229.5 191.74 1216.59 197.48 1203.69 191.74 1190.78 186 1177.88 180.26 1164.97 174.51 1152.06 174.51 1152.05"/>
      <polygon class="st0" points="174.51 1203.69 163.03 1203.69 157.29 1216.59 151.55 1229.5 151.55 1229.5 145.81 1242.41 140.06 1255.31 140.09 1255.37 151.52 1255.37 151.55 1255.31 151.55 1255.31 157.29 1242.41 163.03 1229.5 163.03 1229.5 168.77 1216.6 168.77 1216.59 174.51 1203.69"/>
      <polygon class="st0" points="128.58 1152.05 117.1 1152.05 117.1 1152.06 122.84 1164.97 128.58 1177.88 134.32 1190.78 140.06 1203.69 134.32 1216.59 128.58 1229.5 122.84 1242.41 117.1 1255.31 117.12 1255.37 128.56 1255.37 128.58 1255.31 128.58 1255.31 134.32 1242.41 140.06 1229.5 145.81 1216.6 145.81 1216.59 151.55 1203.69 145.81 1190.78 140.06 1177.87 134.32 1164.97 128.58 1152.06 128.58 1152.06 128.58 1152.05"/>
      <polygon class="st0" points="82.64 1152.05 71.16 1152.05 76.91 1164.97 82.65 1177.88 88.39 1190.78 94.13 1203.69 88.39 1216.59 82.65 1229.5 76.91 1242.41 71.14 1255.37 82.62 1255.37 82.65 1255.31 88.39 1242.41 94.13 1229.5 99.87 1216.59 105.61 1203.69 105.61 1203.69 94.13 1177.87 88.39 1164.97 82.65 1152.06 82.64 1152.05"/>
    </g>
  </g>
  <g id="_x3C_Grid_Repeat_x3E_36" data-name="_x3C_Grid_Repeat_x3E_">
    <g class="st1">
      <polygon class="st0" points="264.8 1152.05 253.33 1152.05 253.32 1152.06 259.06 1164.97 264.8 1177.88 270.55 1190.78 276.29 1203.69 287.77 1203.69 276.29 1177.87 270.55 1164.97 264.8 1152.06 264.8 1152.05"/>
      <polygon class="st0" points="333.7 1152.05 322.23 1152.05 322.22 1152.06 327.96 1164.97 333.7 1177.87 345.19 1203.69 339.45 1216.59 333.7 1229.5 327.96 1242.41 322.22 1255.31 322.25 1255.37 333.68 1255.37 333.7 1255.31 339.45 1242.41 345.19 1229.5 350.93 1216.59 356.67 1203.69 350.93 1190.78 345.19 1177.88 339.45 1164.97 333.7 1152.06 333.7 1152.05"/>
      <polygon class="st0" points="333.7 1203.69 322.22 1203.69 316.48 1216.59 310.74 1229.5 310.74 1229.5 304.99 1242.41 299.25 1255.31 299.28 1255.37 310.71 1255.37 310.74 1255.31 310.74 1255.31 316.48 1242.41 322.22 1229.5 322.22 1229.5 327.96 1216.6 327.96 1216.59 333.7 1203.69"/>
      <polygon class="st0" points="287.77 1152.05 276.29 1152.05 276.29 1152.06 282.03 1164.97 287.77 1177.88 293.51 1190.78 299.25 1203.69 293.51 1216.59 287.77 1229.5 282.03 1242.41 276.29 1255.31 276.31 1255.37 287.75 1255.37 287.77 1255.31 287.77 1255.31 293.51 1242.41 299.25 1229.5 304.99 1216.6 304.99 1216.59 310.74 1203.69 304.99 1190.78 299.25 1177.87 293.51 1164.97 287.77 1152.06 287.77 1152.06 287.77 1152.05"/>
      <polygon class="st0" points="241.83 1152.05 230.35 1152.05 236.1 1164.97 241.84 1177.88 247.58 1190.78 253.32 1203.69 247.58 1216.59 241.84 1229.5 236.1 1242.41 230.33 1255.37 241.81 1255.37 241.84 1255.31 247.58 1242.41 253.32 1229.5 259.06 1216.59 264.8 1203.69 264.8 1203.69 253.32 1177.87 247.58 1164.97 241.84 1152.06 241.83 1152.05"/>
    </g>
  </g>
  <g id="_x3C_Grid_Repeat_x3E_37" data-name="_x3C_Grid_Repeat_x3E_">
    <g class="st1">
      <polygon class="st0" points="423.99 1152.05 412.52 1152.05 412.51 1152.06 418.25 1164.97 423.99 1177.88 429.74 1190.78 435.48 1203.69 446.96 1203.69 435.48 1177.87 429.74 1164.97 423.99 1152.06 423.99 1152.05"/>
      <polygon class="st0" points="492.89 1152.05 481.41 1152.05 481.41 1152.06 487.15 1164.97 492.89 1177.87 504.38 1203.69 498.63 1216.59 492.89 1229.5 487.15 1242.41 481.41 1255.31 481.44 1255.37 492.87 1255.37 492.89 1255.31 498.63 1242.41 504.38 1229.5 510.12 1216.59 515.86 1203.69 510.12 1190.78 504.38 1177.88 498.63 1164.97 492.89 1152.06 492.89 1152.05"/>
      <polygon class="st0" points="492.89 1203.69 481.41 1203.69 475.67 1216.59 469.93 1229.5 469.93 1229.5 464.18 1242.41 458.44 1255.31 458.47 1255.37 469.9 1255.37 469.93 1255.31 469.93 1255.31 475.67 1242.41 481.41 1229.5 481.41 1229.5 487.15 1216.6 487.15 1216.59 492.89 1203.69"/>
      <polygon class="st0" points="446.96 1152.05 435.48 1152.05 435.48 1152.06 441.22 1164.97 446.96 1177.88 452.7 1190.78 458.44 1203.69 452.7 1216.59 446.96 1229.5 441.22 1242.41 435.48 1255.31 435.5 1255.37 446.94 1255.37 446.96 1255.31 446.96 1255.31 452.7 1242.41 458.44 1229.5 464.18 1216.6 464.18 1216.59 469.93 1203.69 464.18 1190.78 458.44 1177.87 452.7 1164.97 446.96 1152.06 446.96 1152.06 446.96 1152.05"/>
      <polygon class="st0" points="401.02 1152.05 389.54 1152.05 395.29 1164.97 401.03 1177.88 406.77 1190.78 412.51 1203.69 406.77 1216.59 401.03 1229.5 395.29 1242.41 389.52 1255.37 401 1255.37 401.03 1255.31 406.77 1242.41 412.51 1229.5 418.25 1216.59 423.99 1203.69 423.99 1203.69 412.51 1177.87 406.77 1164.97 401.03 1152.06 401.02 1152.05"/>
    </g>
  </g>
  <g id="_x3C_Grid_Repeat_x3E_38" data-name="_x3C_Grid_Repeat_x3E_">
    <g class="st1">
      <polygon class="st0" points="26.02 1267.69 14.54 1267.69 14.54 1267.7 20.28 1280.6 26.02 1293.51 31.76 1306.41 37.5 1319.32 48.99 1319.32 37.5 1293.51 31.76 1280.6 26.02 1267.69 26.02 1267.69"/>
      <polygon class="st0" points="94.91 1267.69 83.44 1267.69 83.44 1267.69 89.18 1280.6 94.92 1293.51 106.4 1319.32 100.66 1332.23 94.92 1345.13 89.18 1358.04 83.44 1370.94 83.46 1371 94.89 1371 94.92 1370.94 100.66 1358.04 106.4 1345.13 112.14 1332.23 117.89 1319.32 112.14 1306.41 106.4 1293.51 100.66 1280.6 94.92 1267.7 94.91 1267.69"/>
      <polygon class="st0" points="94.92 1319.32 83.44 1319.32 77.69 1332.22 71.95 1345.13 71.95 1345.13 66.21 1358.04 60.47 1370.94 60.49 1371 71.93 1371 71.95 1370.95 71.95 1370.94 77.69 1358.04 83.44 1345.13 83.44 1345.13 89.18 1332.23 89.18 1332.23 94.92 1319.32"/>
      <polygon class="st0" points="48.98 1267.69 37.51 1267.69 37.5 1267.7 43.24 1280.6 48.99 1293.51 54.73 1306.41 60.47 1319.32 54.73 1332.23 48.99 1345.13 43.24 1358.04 37.5 1370.94 37.53 1371 48.96 1371 48.99 1370.95 48.99 1370.94 54.73 1358.04 60.47 1345.13 66.21 1332.23 66.21 1332.23 71.95 1319.32 66.21 1306.41 60.47 1293.51 54.73 1280.6 48.99 1267.69 48.99 1267.69 48.98 1267.69"/>
      <polygon class="st0" points="3.05 1267.69 -8.43 1267.69 -2.69 1280.6 3.05 1293.51 8.79 1306.41 14.54 1319.32 8.79 1332.23 3.05 1345.13 -2.69 1358.04 -8.45 1371 3.03 1371 3.05 1370.94 8.8 1358.04 14.54 1345.13 20.28 1332.23 26.02 1319.32 26.02 1319.32 14.54 1293.51 8.8 1280.6 3.05 1267.69 3.05 1267.69"/>
    </g>
  </g>
  <g id="_x3C_Grid_Repeat_x3E_39" data-name="_x3C_Grid_Repeat_x3E_">
    <g class="st1">
      <polygon class="st0" points="185.21 1267.69 173.73 1267.69 173.73 1267.7 179.47 1280.6 185.21 1293.51 190.95 1306.41 196.69 1319.32 208.17 1319.32 196.69 1293.51 190.95 1280.6 185.21 1267.69 185.21 1267.69"/>
      <polygon class="st0" points="254.1 1267.69 242.63 1267.69 242.63 1267.69 248.37 1280.6 254.11 1293.51 265.59 1319.32 259.85 1332.23 254.11 1345.13 248.37 1358.04 242.63 1370.94 242.65 1371 254.08 1371 254.11 1370.94 259.85 1358.04 265.59 1345.13 271.33 1332.23 277.08 1319.32 271.33 1306.41 265.59 1293.51 259.85 1280.6 254.11 1267.7 254.1 1267.69"/>
      <polygon class="st0" points="254.11 1319.32 242.63 1319.32 236.88 1332.22 231.14 1345.13 231.14 1345.13 225.4 1358.04 219.66 1370.94 219.68 1371 231.12 1371 231.14 1370.95 231.14 1370.94 236.88 1358.04 242.63 1345.13 242.63 1345.13 248.37 1332.23 248.37 1332.23 254.11 1319.32"/>
      <polygon class="st0" points="208.17 1267.69 196.7 1267.69 196.69 1267.7 202.43 1280.6 208.17 1293.51 213.92 1306.41 219.66 1319.32 213.92 1332.23 208.18 1345.13 202.43 1358.04 196.69 1370.94 196.72 1371 208.15 1371 208.18 1370.95 208.18 1370.94 213.92 1358.04 219.66 1345.13 225.4 1332.23 225.4 1332.23 231.14 1319.32 225.4 1306.41 219.66 1293.51 213.92 1280.6 208.18 1267.69 208.18 1267.69 208.17 1267.69"/>
      <polygon class="st0" points="162.24 1267.69 150.76 1267.69 156.5 1280.6 162.24 1293.51 167.98 1306.41 173.73 1319.32 167.98 1332.23 162.24 1345.13 156.5 1358.04 150.73 1371 162.22 1371 162.24 1370.94 167.99 1358.04 173.73 1345.13 179.47 1332.23 185.21 1319.32 185.21 1319.32 173.73 1293.51 167.99 1280.6 162.24 1267.69 162.24 1267.69"/>
    </g>
  </g>
  <g id="_x3C_Grid_Repeat_x3E_40" data-name="_x3C_Grid_Repeat_x3E_">
    <g class="st1">
      <polygon class="st0" points="344.39 1267.69 332.92 1267.69 332.92 1267.7 338.66 1280.6 344.4 1293.51 350.14 1306.41 355.88 1319.32 367.36 1319.32 355.88 1293.51 350.14 1280.6 344.4 1267.69 344.39 1267.69"/>
      <polygon class="st0" points="413.29 1267.69 401.82 1267.69 401.81 1267.69 407.56 1280.6 413.3 1293.51 424.78 1319.32 419.04 1332.23 413.3 1345.13 407.56 1358.04 401.81 1370.94 401.84 1371 413.27 1371 413.3 1370.94 419.04 1358.04 424.78 1345.13 430.52 1332.23 436.27 1319.32 430.52 1306.41 424.78 1293.51 419.04 1280.6 413.3 1267.7 413.29 1267.69"/>
      <polygon class="st0" points="413.3 1319.32 401.81 1319.32 396.07 1332.22 390.33 1345.13 390.33 1345.13 384.59 1358.04 378.85 1370.94 378.87 1371 390.31 1371 390.33 1370.95 390.33 1370.94 396.07 1358.04 401.81 1345.13 401.81 1345.13 407.56 1332.23 407.56 1332.23 413.3 1319.32"/>
      <polygon class="st0" points="367.36 1267.69 355.89 1267.69 355.88 1267.7 361.62 1280.6 367.36 1293.51 373.11 1306.41 378.85 1319.32 373.11 1332.23 367.36 1345.13 361.62 1358.04 355.88 1370.94 355.91 1371 367.34 1371 367.37 1370.95 367.37 1370.94 373.11 1358.04 378.85 1345.13 384.59 1332.23 384.59 1332.23 390.33 1319.32 384.59 1306.41 378.85 1293.51 373.11 1280.6 367.37 1267.69 367.37 1267.69 367.36 1267.69"/>
      <polygon class="st0" points="321.43 1267.69 309.94 1267.69 315.69 1280.6 321.43 1293.51 327.17 1306.41 332.92 1319.32 327.17 1332.23 321.43 1345.13 315.69 1358.04 309.92 1371 321.41 1371 321.43 1370.94 327.17 1358.04 332.92 1345.13 338.66 1332.23 344.4 1319.32 344.4 1319.32 332.92 1293.51 327.17 1280.6 321.43 1267.69 321.43 1267.69"/>
    </g>
  </g>
  <g id="_x3C_Grid_Repeat_x3E_41" data-name="_x3C_Grid_Repeat_x3E_">
    <g class="st1">
      <polygon class="st0" points="503.58 1267.69 492.11 1267.69 492.11 1267.7 497.85 1280.6 503.59 1293.51 509.33 1306.41 515.07 1319.32 526.55 1319.32 515.07 1293.51 509.33 1280.6 503.59 1267.69 503.58 1267.69"/>
      <polygon class="st0" points="572.48 1267.69 561.01 1267.69 561 1267.69 566.75 1280.6 572.49 1293.51 583.97 1319.32 578.23 1332.23 572.49 1345.13 566.75 1358.04 561 1370.94 561.03 1371 572.46 1371 572.49 1370.94 578.23 1358.04 583.97 1345.13 589.71 1332.23 595.45 1319.32 589.71 1306.41 583.97 1293.51 578.23 1280.6 572.49 1267.7 572.48 1267.69"/>
      <polygon class="st0" points="572.49 1319.32 561 1319.32 555.26 1332.22 549.52 1345.13 549.52 1345.13 543.78 1358.04 538.04 1370.94 538.06 1371 549.5 1371 549.52 1370.95 549.52 1370.94 555.26 1358.04 561 1345.13 561 1345.13 566.75 1332.23 566.75 1332.23 572.49 1319.32"/>
      <polygon class="st0" points="526.55 1267.69 515.08 1267.69 515.07 1267.7 520.81 1280.6 526.55 1293.51 532.3 1306.41 538.04 1319.32 532.3 1332.23 526.55 1345.13 520.81 1358.04 515.07 1370.94 515.1 1371 526.53 1371 526.56 1370.95 526.56 1370.94 532.3 1358.04 538.04 1345.13 543.78 1332.23 543.78 1332.23 549.52 1319.32 543.78 1306.41 538.04 1293.51 532.3 1280.6 526.56 1267.69 526.56 1267.69 526.55 1267.69"/>
      <polygon class="st0" points="480.62 1267.69 469.13 1267.69 474.88 1280.6 480.62 1293.51 486.36 1306.41 492.11 1319.32 486.36 1332.23 480.62 1345.13 474.88 1358.04 469.11 1371 480.6 1371 480.62 1370.94 486.36 1358.04 492.11 1345.13 497.85 1332.23 503.59 1319.32 503.59 1319.32 492.11 1293.51 486.36 1280.6 480.62 1267.69 480.62 1267.69"/>
    </g>
  </g>
</svg>