<?xml version="1.0" encoding="UTF-8"?>
<svg id="Layer_1" xmlns="http://www.w3.org/2000/svg" version="1.1" viewBox="0 0 587 1371">
  <!-- Generator: Adobe Illustrator 29.5.0, SVG Export Plug-In . SVG Version: 2.1.0 Build 137)  -->
  <defs>
    <style>
      .st0 {
        fill: #00443d;
      }

      .st1 {
        opacity: .54;
      }
    </style>
  </defs>
  <g id="_x3C_Grid_Repeat_x3E_">
    <g class="st1">
      <polygon class="st0" points="112.24 24.19 101.17 24.19 101.17 24.2 106.7 36.65 112.24 49.1 117.78 61.55 123.32 74 134.4 74 123.32 49.09 117.78 36.65 112.24 24.19 112.24 24.19"/>
      <polygon class="st0" points="178.71 24.19 167.64 24.19 167.63 24.19 173.17 36.65 178.71 49.09 189.79 74 184.25 86.45 178.71 98.9 173.17 111.35 167.63 123.8 167.66 123.85 178.69 123.85 178.71 123.8 184.25 111.35 189.79 98.9 195.33 86.45 200.87 74 195.33 61.55 189.79 49.1 184.25 36.65 178.71 24.2 178.71 24.19"/>
      <polygon class="st0" points="178.71 74 167.63 74 162.1 86.45 156.55 98.9 156.55 98.9 151.02 111.35 145.48 123.8 145.5 123.85 156.53 123.85 156.56 123.8 156.56 123.8 162.1 111.35 167.63 98.9 167.63 98.9 173.17 86.45 173.17 86.45 178.71 74"/>
      <polygon class="st0" points="134.4 24.19 123.33 24.19 123.32 24.2 128.86 36.65 134.4 49.1 139.94 61.55 145.48 74 139.94 86.45 134.4 98.9 128.86 111.35 123.32 123.8 123.35 123.85 134.38 123.85 134.4 123.8 134.4 123.8 139.94 111.35 145.48 98.9 151.02 86.45 151.02 86.45 156.56 74 151.02 61.55 145.48 49.09 139.94 36.65 134.4 24.19 134.4 24.19 134.4 24.19"/>
      <polygon class="st0" points="90.08 24.19 79 24.19 84.55 36.65 90.09 49.1 95.63 61.55 101.17 74 95.63 86.45 90.09 98.9 84.55 111.35 78.99 123.85 90.06 123.85 90.09 123.8 95.63 111.35 101.17 98.9 106.7 86.45 112.24 74 112.24 74 101.17 49.09 95.63 36.65 90.09 24.19 90.08 24.19"/>
    </g>
  </g>
  <g id="_x3C_Grid_Repeat_x3E_1" data-name="_x3C_Grid_Repeat_x3E_">
    <g class="st1">
      <polygon class="st0" points="265.81 24.19 254.74 24.19 254.74 24.2 260.28 36.65 265.82 49.1 271.36 61.55 276.89 74 287.97 74 276.89 49.09 271.36 36.65 265.82 24.19 265.81 24.19"/>
      <polygon class="st0" points="332.28 24.19 321.21 24.19 321.21 24.19 326.75 36.65 332.29 49.09 343.36 74 337.82 86.45 332.29 98.9 326.75 111.35 321.21 123.8 321.23 123.85 332.26 123.85 332.29 123.8 337.82 111.35 343.36 98.9 348.9 86.45 354.44 74 348.9 61.55 343.36 49.1 337.82 36.65 332.29 24.2 332.28 24.19"/>
      <polygon class="st0" points="332.29 74 321.21 74 315.67 86.45 310.13 98.9 310.13 98.9 304.59 111.35 299.05 123.8 299.08 123.85 310.11 123.85 310.13 123.8 310.13 123.8 315.67 111.35 321.21 98.9 321.21 98.9 326.75 86.45 326.75 86.45 332.29 74"/>
      <polygon class="st0" points="287.97 24.19 276.9 24.19 276.89 24.2 282.43 36.65 287.97 49.1 293.51 61.55 299.05 74 293.51 86.45 287.97 98.9 282.43 111.35 276.89 123.8 276.92 123.85 287.95 123.85 287.97 123.8 287.97 123.8 293.51 111.35 299.05 98.9 304.59 86.45 304.59 86.45 310.13 74 304.59 61.55 299.05 49.09 293.51 36.65 287.97 24.19 287.97 24.19 287.97 24.19"/>
      <polygon class="st0" points="243.66 24.19 232.58 24.19 238.12 36.65 243.66 49.1 249.2 61.55 254.74 74 249.2 86.45 243.66 98.9 238.12 111.35 232.56 123.85 243.64 123.85 243.66 123.8 249.2 111.35 254.74 98.9 260.28 86.45 265.82 74 265.82 74 254.74 49.09 249.2 36.65 243.66 24.19 243.66 24.19"/>
    </g>
  </g>
  <g id="_x3C_Grid_Repeat_x3E_2" data-name="_x3C_Grid_Repeat_x3E_">
    <g class="st1">
      <polygon class="st0" points="419.39 24.19 408.32 24.19 408.31 24.2 413.85 36.65 419.39 49.1 424.93 61.55 430.47 74 441.55 74 430.47 49.09 424.93 36.65 419.39 24.19 419.39 24.19"/>
      <polygon class="st0" points="485.85 24.19 474.78 24.19 474.78 24.19 480.32 36.65 485.86 49.09 496.94 74 491.4 86.45 485.86 98.9 480.32 111.35 474.78 123.8 474.8 123.85 485.83 123.85 485.86 123.8 491.4 111.35 496.94 98.9 502.48 86.45 508.01 74 502.48 61.55 496.94 49.1 491.4 36.65 485.86 24.2 485.85 24.19"/>
      <polygon class="st0" points="485.86 74 474.78 74 469.24 86.45 463.7 98.9 463.7 98.9 458.16 111.35 452.62 123.8 452.65 123.85 463.68 123.85 463.7 123.8 463.7 123.8 469.24 111.35 474.78 98.9 474.78 98.9 480.32 86.45 480.32 86.45 485.86 74"/>
      <polygon class="st0" points="441.54 24.19 430.47 24.19 430.47 24.2 436.01 36.65 441.55 49.1 447.09 61.55 452.62 74 447.09 86.45 441.55 98.9 436.01 111.35 430.47 123.8 430.49 123.85 441.52 123.85 441.55 123.8 441.55 123.8 447.09 111.35 452.62 98.9 458.16 86.45 458.16 86.45 463.7 74 458.16 61.55 452.62 49.09 447.09 36.65 441.55 24.19 441.55 24.19 441.54 24.19"/>
      <polygon class="st0" points="397.23 24.19 386.15 24.19 391.69 36.65 397.23 49.1 402.77 61.55 408.31 74 402.77 86.45 397.23 98.9 391.69 111.35 386.13 123.85 397.21 123.85 397.23 123.8 402.77 111.35 408.31 98.9 413.85 86.45 419.39 74 419.39 74 408.31 49.09 402.77 36.65 397.23 24.19 397.23 24.19"/>
    </g>
  </g>
  <g id="_x3C_Grid_Repeat_x3E_3" data-name="_x3C_Grid_Repeat_x3E_">
    <g class="st1">
      <polygon class="st0" points="35.45 135.74 24.38 135.74 24.38 135.75 29.92 148.2 35.46 160.65 41 173.1 46.54 185.55 57.61 185.55 46.54 160.65 41 148.2 35.46 135.75 35.45 135.74"/>
      <polygon class="st0" points="101.92 135.74 90.85 135.74 90.85 135.75 96.39 148.2 101.93 160.65 113 185.55 107.46 198 101.93 210.45 96.39 222.9 90.85 235.35 90.87 235.41 101.9 235.41 101.93 235.35 107.46 222.9 113 210.45 118.54 198 124.08 185.55 118.54 173.1 113 160.65 107.46 148.2 101.93 135.75 101.92 135.74"/>
      <polygon class="st0" points="101.93 185.55 90.85 185.55 85.31 198 79.77 210.45 79.77 210.45 74.23 222.9 68.69 235.35 68.72 235.41 79.75 235.41 79.77 235.35 79.77 235.35 85.31 222.9 90.85 210.45 90.85 210.45 96.39 198 96.39 198 101.93 185.55"/>
      <polygon class="st0" points="57.61 135.74 46.54 135.74 46.54 135.75 52.07 148.2 57.61 160.65 63.15 173.1 68.69 185.55 63.15 198 57.61 210.45 52.07 222.9 46.54 235.35 46.56 235.41 57.59 235.41 57.61 235.35 57.61 235.35 63.15 222.9 68.69 210.45 74.23 198 74.23 198 79.77 185.55 74.23 173.1 68.69 160.65 63.15 148.2 57.61 135.75 57.61 135.74 57.61 135.74"/>
      <polygon class="st0" points="13.3 135.74 2.22 135.74 7.76 148.2 13.3 160.65 18.84 173.1 24.38 185.55 18.84 198 13.3 210.45 7.76 222.9 2.2 235.41 13.28 235.41 13.3 235.35 18.84 222.9 24.38 210.45 29.92 198 35.46 185.55 35.46 185.55 24.38 160.65 18.84 148.2 13.3 135.75 13.3 135.74"/>
    </g>
  </g>
  <g id="_x3C_Grid_Repeat_x3E_4" data-name="_x3C_Grid_Repeat_x3E_">
    <g class="st1">
      <polygon class="st0" points="189.03 135.74 177.96 135.74 177.95 135.75 183.49 148.2 189.03 160.65 194.57 173.1 200.11 185.55 211.19 185.55 200.11 160.65 194.57 148.2 189.03 135.75 189.03 135.74"/>
      <polygon class="st0" points="255.49 135.74 244.43 135.74 244.42 135.75 249.96 148.2 255.5 160.65 266.58 185.55 261.04 198 255.5 210.45 249.96 222.9 244.42 235.35 244.44 235.41 255.47 235.41 255.5 235.35 261.04 222.9 266.58 210.45 272.12 198 277.66 185.55 272.12 173.1 266.58 160.65 261.04 148.2 255.5 135.75 255.49 135.74"/>
      <polygon class="st0" points="255.5 185.55 244.42 185.55 238.88 198 233.34 210.45 233.34 210.45 227.8 222.9 222.26 235.35 222.29 235.41 233.32 235.41 233.34 235.35 233.34 235.35 238.88 222.9 244.42 210.45 244.42 210.45 249.96 198 249.96 198 255.5 185.55"/>
      <polygon class="st0" points="211.18 135.74 200.11 135.74 200.11 135.75 205.65 148.2 211.19 160.65 216.73 173.1 222.26 185.55 216.73 198 211.19 210.45 205.65 222.9 200.11 235.35 200.13 235.41 211.16 235.41 211.19 235.35 211.19 235.35 216.73 222.9 222.26 210.45 227.8 198 227.8 198 233.34 185.55 227.8 173.1 222.26 160.65 216.73 148.2 211.19 135.75 211.19 135.74 211.18 135.74"/>
      <polygon class="st0" points="166.87 135.74 155.79 135.74 161.33 148.2 166.87 160.65 172.41 173.1 177.95 185.55 172.41 198 166.87 210.45 161.33 222.9 155.77 235.41 166.85 235.41 166.87 235.35 172.41 222.9 177.95 210.45 183.49 198 189.03 185.55 189.03 185.55 177.95 160.65 172.41 148.2 166.87 135.75 166.87 135.74"/>
    </g>
  </g>
  <g id="_x3C_Grid_Repeat_x3E_5" data-name="_x3C_Grid_Repeat_x3E_">
    <g class="st1">
      <polygon class="st0" points="342.6 135.74 331.53 135.74 331.53 135.75 337.06 148.2 342.6 160.65 348.14 173.1 353.68 185.55 364.76 185.55 353.68 160.65 348.14 148.2 342.6 135.75 342.6 135.74"/>
      <polygon class="st0" points="409.07 135.74 398 135.74 397.99 135.75 403.53 148.2 409.07 160.65 420.15 185.55 414.61 198 409.07 210.45 403.53 222.9 397.99 235.35 398.02 235.41 409.05 235.41 409.07 235.35 414.61 222.9 420.15 210.45 425.69 198 431.23 185.55 425.69 173.1 420.15 160.65 414.61 148.2 409.07 135.75 409.07 135.74"/>
      <polygon class="st0" points="409.07 185.55 397.99 185.55 392.45 198 386.91 210.45 386.91 210.45 381.38 222.9 375.84 235.35 375.86 235.41 386.89 235.41 386.92 235.35 386.92 235.35 392.45 222.9 397.99 210.45 397.99 210.45 403.53 198 403.53 198 409.07 185.55"/>
      <polygon class="st0" points="364.76 135.74 353.69 135.74 353.68 135.75 359.22 148.2 364.76 160.65 370.3 173.1 375.84 185.55 370.3 198 364.76 210.45 359.22 222.9 353.68 235.35 353.71 235.41 364.74 235.41 364.76 235.35 364.76 235.35 370.3 222.9 375.84 210.45 381.38 198 381.38 198 386.92 185.55 381.38 173.1 375.84 160.65 370.3 148.2 364.76 135.75 364.76 135.74 364.76 135.74"/>
      <polygon class="st0" points="320.44 135.74 309.36 135.74 314.91 148.2 320.45 160.65 325.99 173.1 331.53 185.55 325.99 198 320.45 210.45 314.91 222.9 309.34 235.41 320.42 235.41 320.45 235.35 325.99 222.9 331.53 210.45 337.06 198 342.6 185.55 342.6 185.55 331.53 160.65 325.99 148.2 320.45 135.75 320.44 135.74"/>
    </g>
  </g>
  <g id="_x3C_Grid_Repeat_x3E_6" data-name="_x3C_Grid_Repeat_x3E_">
    <g class="st1">
      <polygon class="st0" points="496.17 135.74 485.1 135.74 485.1 135.75 490.64 148.2 496.18 160.65 501.72 173.1 507.25 185.55 518.33 185.55 507.25 160.65 501.72 148.2 496.18 135.75 496.17 135.74"/>
      <polygon class="st0" points="562.64 135.74 551.57 135.74 551.57 135.75 557.11 148.2 562.65 160.65 573.72 185.55 568.18 198 562.65 210.45 557.11 222.9 551.57 235.35 551.59 235.41 562.62 235.41 562.65 235.35 568.18 222.9 573.72 210.45 579.26 198 584.8 185.55 579.26 173.1 573.72 160.65 568.18 148.2 562.65 135.75 562.64 135.74"/>
      <polygon class="st0" points="562.65 185.55 551.57 185.55 546.03 198 540.49 210.45 540.49 210.45 534.95 222.9 529.41 235.35 529.44 235.41 540.46 235.41 540.49 235.35 540.49 235.35 546.03 222.9 551.57 210.45 551.57 210.45 557.11 198 557.11 198 562.65 185.55"/>
      <polygon class="st0" points="518.33 135.74 507.26 135.74 507.25 135.75 512.79 148.2 518.33 160.65 523.87 173.1 529.41 185.55 523.87 198 518.33 210.45 512.79 222.9 507.25 235.35 507.28 235.41 518.31 235.41 518.33 235.35 518.33 235.35 523.87 222.9 529.41 210.45 534.95 198 534.95 198 540.49 185.55 534.95 173.1 529.41 160.65 523.87 148.2 518.33 135.75 518.33 135.74 518.33 135.74"/>
      <polygon class="st0" points="474.02 135.74 462.94 135.74 468.48 148.2 474.02 160.65 479.56 173.1 485.1 185.55 479.56 198 474.02 210.45 468.48 222.9 462.92 235.41 474 235.41 474.02 235.35 479.56 222.9 485.1 210.45 490.64 198 496.18 185.55 496.18 185.55 485.1 160.65 479.56 148.2 474.02 135.75 474.02 135.74"/>
    </g>
  </g>
  <g id="_x3C_Grid_Repeat_x3E_7" data-name="_x3C_Grid_Repeat_x3E_">
    <g class="st1">
      <polygon class="st0" points="112.24 247.29 101.17 247.29 101.17 247.3 106.7 259.75 112.24 272.2 117.78 284.65 123.32 297.1 134.4 297.1 123.32 272.2 117.78 259.75 112.24 247.3 112.24 247.29"/>
      <polygon class="st0" points="178.71 247.29 167.64 247.29 167.63 247.3 173.17 259.75 178.71 272.2 189.79 297.1 184.25 309.55 178.71 322 173.17 334.45 167.63 346.9 167.66 346.96 178.69 346.96 178.71 346.9 184.25 334.45 189.79 322 195.33 309.55 200.87 297.1 195.33 284.65 189.79 272.2 184.25 259.75 178.71 247.3 178.71 247.29"/>
      <polygon class="st0" points="178.71 297.1 167.63 297.1 162.1 309.55 156.55 322 156.55 322 151.02 334.45 145.48 346.9 145.5 346.96 156.53 346.96 156.56 346.91 156.56 346.9 162.1 334.45 167.63 322 167.63 322 173.17 309.55 173.17 309.55 178.71 297.1"/>
      <polygon class="st0" points="134.4 247.29 123.33 247.29 123.32 247.3 128.86 259.75 134.4 272.2 139.94 284.65 145.48 297.1 139.94 309.55 134.4 322 128.86 334.45 123.32 346.9 123.35 346.96 134.38 346.96 134.4 346.91 134.4 346.9 139.94 334.45 145.48 322 151.02 309.55 151.02 309.55 156.56 297.1 151.02 284.65 145.48 272.2 139.94 259.75 134.4 247.3 134.4 247.3 134.4 247.29"/>
      <polygon class="st0" points="90.08 247.29 79 247.29 84.55 259.75 90.09 272.2 95.63 284.65 101.17 297.1 95.63 309.55 90.09 322 84.55 334.45 78.99 346.96 90.06 346.96 90.09 346.91 95.63 334.45 101.17 322 106.7 309.55 112.24 297.1 112.24 297.1 101.17 272.2 95.63 259.75 90.09 247.3 90.08 247.29"/>
    </g>
  </g>
  <g id="_x3C_Grid_Repeat_x3E_8" data-name="_x3C_Grid_Repeat_x3E_">
    <g class="st1">
      <polygon class="st0" points="265.81 247.29 254.74 247.29 254.74 247.3 260.28 259.75 265.82 272.2 271.36 284.65 276.89 297.1 287.97 297.1 276.89 272.2 271.36 259.75 265.82 247.3 265.81 247.29"/>
      <polygon class="st0" points="332.28 247.29 321.21 247.29 321.21 247.3 326.75 259.75 332.29 272.2 343.36 297.1 337.82 309.55 332.29 322 326.75 334.45 321.21 346.9 321.23 346.96 332.26 346.96 332.29 346.9 337.82 334.45 343.36 322 348.9 309.55 354.44 297.1 348.9 284.65 343.36 272.2 337.82 259.75 332.29 247.3 332.28 247.29"/>
      <polygon class="st0" points="332.29 297.1 321.21 297.1 315.67 309.55 310.13 322 310.13 322 304.59 334.45 299.05 346.9 299.08 346.96 310.11 346.96 310.13 346.91 310.13 346.9 315.67 334.45 321.21 322 321.21 322 326.75 309.55 326.75 309.55 332.29 297.1"/>
      <polygon class="st0" points="287.97 247.29 276.9 247.29 276.89 247.3 282.43 259.75 287.97 272.2 293.51 284.65 299.05 297.1 293.51 309.55 287.97 322 282.43 334.45 276.89 346.9 276.92 346.96 287.95 346.96 287.97 346.91 287.97 346.9 293.51 334.45 299.05 322 304.59 309.55 304.59 309.55 310.13 297.1 304.59 284.65 299.05 272.2 293.51 259.75 287.97 247.3 287.97 247.3 287.97 247.29"/>
      <polygon class="st0" points="243.66 247.29 232.58 247.29 238.12 259.75 243.66 272.2 249.2 284.65 254.74 297.1 249.2 309.55 243.66 322 238.12 334.45 232.56 346.96 243.64 346.96 243.66 346.91 249.2 334.45 254.74 322 260.28 309.55 265.82 297.1 265.82 297.1 254.74 272.2 249.2 259.75 243.66 247.3 243.66 247.29"/>
    </g>
  </g>
  <g id="_x3C_Grid_Repeat_x3E_9" data-name="_x3C_Grid_Repeat_x3E_">
    <g class="st1">
      <polygon class="st0" points="419.39 247.29 408.32 247.29 408.31 247.3 413.85 259.75 419.39 272.2 424.93 284.65 430.47 297.1 441.55 297.1 430.47 272.2 424.93 259.75 419.39 247.3 419.39 247.29"/>
      <polygon class="st0" points="485.85 247.29 474.78 247.29 474.78 247.3 480.32 259.75 485.86 272.2 496.94 297.1 491.4 309.55 485.86 322 480.32 334.45 474.78 346.9 474.8 346.96 485.83 346.96 485.86 346.9 491.4 334.45 496.94 322 502.48 309.55 508.01 297.1 502.48 284.65 496.94 272.2 491.4 259.75 485.86 247.3 485.85 247.29"/>
      <polygon class="st0" points="485.86 297.1 474.78 297.1 469.24 309.55 463.7 322 463.7 322 458.16 334.45 452.62 346.9 452.65 346.96 463.68 346.96 463.7 346.91 463.7 346.9 469.24 334.45 474.78 322 474.78 322 480.32 309.55 480.32 309.55 485.86 297.1"/>
      <polygon class="st0" points="441.54 247.29 430.47 247.29 430.47 247.3 436.01 259.75 441.55 272.2 447.09 284.65 452.62 297.1 447.09 309.55 441.55 322 436.01 334.45 430.47 346.9 430.49 346.96 441.52 346.96 441.55 346.91 441.55 346.9 447.09 334.45 452.62 322 458.16 309.55 458.16 309.55 463.7 297.1 458.16 284.65 452.62 272.2 447.09 259.75 441.55 247.3 441.55 247.3 441.54 247.29"/>
      <polygon class="st0" points="397.23 247.29 386.15 247.29 391.69 259.75 397.23 272.2 402.77 284.65 408.31 297.1 402.77 309.55 397.23 322 391.69 334.45 386.13 346.96 397.21 346.96 397.23 346.91 402.77 334.45 408.31 322 413.85 309.55 419.39 297.1 419.39 297.1 408.31 272.2 402.77 259.75 397.23 247.3 397.23 247.29"/>
    </g>
  </g>
  <g id="_x3C_Grid_Repeat_x3E_10" data-name="_x3C_Grid_Repeat_x3E_">
    <g class="st1">
      <polygon class="st0" points="35.45 358.84 24.38 358.84 24.38 358.85 29.92 371.3 35.46 383.75 41 396.2 46.54 408.65 57.61 408.65 46.54 383.75 41 371.3 35.46 358.85 35.45 358.84"/>
      <polygon class="st0" points="101.92 358.84 90.85 358.84 90.85 358.85 96.39 371.3 101.93 383.75 113 408.65 107.46 421.11 101.93 433.56 96.39 446.01 90.85 458.46 90.87 458.51 101.9 458.51 101.93 458.46 107.46 446.01 113 433.55 118.54 421.11 124.08 408.65 118.54 396.2 113 383.75 107.46 371.3 101.93 358.85 101.92 358.84"/>
      <polygon class="st0" points="101.93 408.65 90.85 408.65 85.31 421.1 79.77 433.55 79.77 433.56 74.23 446.01 68.69 458.46 68.72 458.51 79.75 458.51 79.77 458.46 79.77 458.46 85.31 446.01 90.85 433.56 90.85 433.55 96.39 421.11 96.39 421.11 101.93 408.65"/>
      <polygon class="st0" points="57.61 358.84 46.54 358.84 46.54 358.85 52.07 371.3 57.61 383.75 63.15 396.2 68.69 408.65 63.15 421.11 57.61 433.55 52.07 446.01 46.54 458.46 46.56 458.51 57.59 458.51 57.61 458.46 57.61 458.46 63.15 446.01 68.69 433.56 74.23 421.11 74.23 421.11 79.77 408.65 74.23 396.2 68.69 383.75 63.15 371.3 57.61 358.85 57.61 358.85 57.61 358.84"/>
      <polygon class="st0" points="13.3 358.84 2.22 358.84 7.76 371.3 13.3 383.75 18.84 396.2 24.38 408.65 18.84 421.11 13.3 433.55 7.76 446.01 2.2 458.51 13.28 458.51 13.3 458.46 18.84 446.01 24.38 433.56 29.92 421.11 35.46 408.66 35.46 408.65 24.38 383.75 18.84 371.3 13.3 358.85 13.3 358.84"/>
    </g>
  </g>
  <g id="_x3C_Grid_Repeat_x3E_11" data-name="_x3C_Grid_Repeat_x3E_">
    <g class="st1">
      <polygon class="st0" points="189.03 358.84 177.96 358.84 177.95 358.85 183.49 371.3 189.03 383.75 194.57 396.2 200.11 408.65 211.19 408.65 200.11 383.75 194.57 371.3 189.03 358.85 189.03 358.84"/>
      <polygon class="st0" points="255.49 358.84 244.43 358.84 244.42 358.85 249.96 371.3 255.5 383.75 266.58 408.65 261.04 421.11 255.5 433.56 249.96 446.01 244.42 458.46 244.44 458.51 255.47 458.51 255.5 458.46 261.04 446.01 266.58 433.55 272.12 421.11 277.66 408.65 272.12 396.2 266.58 383.75 261.04 371.3 255.5 358.85 255.49 358.84"/>
      <polygon class="st0" points="255.5 408.65 244.42 408.65 238.88 421.1 233.34 433.55 233.34 433.56 227.8 446.01 222.26 458.46 222.29 458.51 233.32 458.51 233.34 458.46 233.34 458.46 238.88 446.01 244.42 433.56 244.42 433.55 249.96 421.11 249.96 421.11 255.5 408.65"/>
      <polygon class="st0" points="211.18 358.84 200.11 358.84 200.11 358.85 205.65 371.3 211.19 383.75 216.73 396.2 222.26 408.65 216.73 421.11 211.19 433.55 205.65 446.01 200.11 458.46 200.13 458.51 211.16 458.51 211.19 458.46 211.19 458.46 216.73 446.01 222.26 433.56 227.8 421.11 227.8 421.11 233.34 408.65 227.8 396.2 222.26 383.75 216.73 371.3 211.19 358.85 211.19 358.85 211.18 358.84"/>
      <polygon class="st0" points="166.87 358.84 155.79 358.84 161.33 371.3 166.87 383.75 172.41 396.2 177.95 408.65 172.41 421.11 166.87 433.55 161.33 446.01 155.77 458.51 166.85 458.51 166.87 458.46 172.41 446.01 177.95 433.56 183.49 421.11 189.03 408.66 189.03 408.65 177.95 383.75 172.41 371.3 166.87 358.85 166.87 358.84"/>
    </g>
  </g>
  <g id="_x3C_Grid_Repeat_x3E_12" data-name="_x3C_Grid_Repeat_x3E_">
    <g class="st1">
      <polygon class="st0" points="342.6 358.84 331.53 358.84 331.53 358.85 337.06 371.3 342.6 383.75 348.14 396.2 353.68 408.65 364.76 408.65 353.68 383.75 348.14 371.3 342.6 358.85 342.6 358.84"/>
      <polygon class="st0" points="409.07 358.84 398 358.84 397.99 358.85 403.53 371.3 409.07 383.75 420.15 408.65 414.61 421.11 409.07 433.56 403.53 446.01 397.99 458.46 398.02 458.51 409.05 458.51 409.07 458.46 414.61 446.01 420.15 433.55 425.69 421.11 431.23 408.65 425.69 396.2 420.15 383.75 414.61 371.3 409.07 358.85 409.07 358.84"/>
      <polygon class="st0" points="409.07 408.65 397.99 408.65 392.45 421.1 386.91 433.55 386.91 433.56 381.38 446.01 375.84 458.46 375.86 458.51 386.89 458.51 386.92 458.46 386.92 458.46 392.45 446.01 397.99 433.56 397.99 433.55 403.53 421.11 403.53 421.11 409.07 408.65"/>
      <polygon class="st0" points="364.76 358.84 353.69 358.84 353.68 358.85 359.22 371.3 364.76 383.75 370.3 396.2 375.84 408.65 370.3 421.11 364.76 433.55 359.22 446.01 353.68 458.46 353.71 458.51 364.74 458.51 364.76 458.46 364.76 458.46 370.3 446.01 375.84 433.56 381.38 421.11 381.38 421.11 386.92 408.65 381.38 396.2 375.84 383.75 370.3 371.3 364.76 358.85 364.76 358.85 364.76 358.84"/>
      <polygon class="st0" points="320.44 358.84 309.36 358.84 314.91 371.3 320.45 383.75 325.99 396.2 331.53 408.65 325.99 421.11 320.45 433.55 314.91 446.01 309.34 458.51 320.42 458.51 320.45 458.46 325.99 446.01 331.53 433.56 337.06 421.11 342.6 408.66 342.6 408.65 331.53 383.75 325.99 371.3 320.45 358.85 320.44 358.84"/>
    </g>
  </g>
  <g id="_x3C_Grid_Repeat_x3E_13" data-name="_x3C_Grid_Repeat_x3E_">
    <g class="st1">
      <polygon class="st0" points="496.17 358.84 485.1 358.84 485.1 358.85 490.64 371.3 496.18 383.75 501.72 396.2 507.25 408.65 518.33 408.65 507.25 383.75 501.72 371.3 496.18 358.85 496.17 358.84"/>
      <polygon class="st0" points="562.64 358.84 551.57 358.84 551.57 358.85 557.11 371.3 562.65 383.75 573.72 408.65 568.18 421.11 562.65 433.56 557.11 446.01 551.57 458.46 551.59 458.51 562.62 458.51 562.65 458.46 568.18 446.01 573.72 433.55 579.26 421.11 584.8 408.65 579.26 396.2 573.72 383.75 568.18 371.3 562.65 358.85 562.64 358.84"/>
      <polygon class="st0" points="562.65 408.65 551.57 408.65 546.03 421.1 540.49 433.55 540.49 433.56 534.95 446.01 529.41 458.46 529.44 458.51 540.46 458.51 540.49 458.46 540.49 458.46 546.03 446.01 551.57 433.56 551.57 433.55 557.11 421.11 557.11 421.11 562.65 408.65"/>
      <polygon class="st0" points="518.33 358.84 507.26 358.84 507.25 358.85 512.79 371.3 518.33 383.75 523.87 396.2 529.41 408.65 523.87 421.11 518.33 433.55 512.79 446.01 507.25 458.46 507.28 458.51 518.31 458.51 518.33 458.46 518.33 458.46 523.87 446.01 529.41 433.56 534.95 421.11 534.95 421.11 540.49 408.65 534.95 396.2 529.41 383.75 523.87 371.3 518.33 358.85 518.33 358.85 518.33 358.84"/>
      <polygon class="st0" points="474.02 358.84 462.94 358.84 468.48 371.3 474.02 383.75 479.56 396.2 485.1 408.65 479.56 421.11 474.02 433.55 468.48 446.01 462.92 458.51 474 458.51 474.02 458.46 479.56 446.01 485.1 433.56 490.64 421.11 496.18 408.66 496.18 408.65 485.1 383.75 479.56 371.3 474.02 358.85 474.02 358.84"/>
    </g>
  </g>
  <g id="_x3C_Grid_Repeat_x3E_14" data-name="_x3C_Grid_Repeat_x3E_">
    <g class="st1">
      <polygon class="st0" points="112.24 470.39 101.17 470.39 101.17 470.4 106.7 482.85 112.24 495.31 117.78 507.76 123.32 520.21 134.4 520.21 123.32 495.3 117.78 482.85 112.24 470.4 112.24 470.39"/>
      <polygon class="st0" points="178.71 470.39 167.64 470.39 167.63 470.4 173.17 482.85 178.71 495.3 189.79 520.21 184.25 532.66 178.71 545.11 173.17 557.56 167.63 570.01 167.66 570.06 178.69 570.06 178.71 570.01 184.25 557.56 189.79 545.11 195.33 532.66 200.87 520.21 195.33 507.76 189.79 495.31 184.25 482.85 178.71 470.4 178.71 470.39"/>
      <polygon class="st0" points="178.71 520.21 167.63 520.21 162.1 532.66 156.55 545.11 156.55 545.11 151.02 557.56 145.48 570.01 145.5 570.06 156.53 570.06 156.56 570.01 156.56 570.01 162.1 557.56 167.63 545.11 167.63 545.11 173.17 532.66 173.17 532.66 178.71 520.21"/>
      <polygon class="st0" points="134.4 470.39 123.33 470.39 123.32 470.4 128.86 482.85 134.4 495.31 139.94 507.76 145.48 520.21 139.94 532.66 134.4 545.11 128.86 557.56 123.32 570.01 123.35 570.06 134.38 570.06 134.4 570.01 134.4 570.01 139.94 557.56 145.48 545.11 151.02 532.66 151.02 532.66 156.56 520.21 151.02 507.76 145.48 495.3 139.94 482.85 134.4 470.4 134.4 470.4 134.4 470.39"/>
      <polygon class="st0" points="90.08 470.39 79 470.39 84.55 482.85 90.09 495.31 95.63 507.76 101.17 520.21 95.63 532.66 90.09 545.11 84.55 557.56 78.99 570.06 90.06 570.06 90.09 570.01 95.63 557.56 101.17 545.11 106.7 532.66 112.24 520.21 112.24 520.21 101.17 495.3 95.63 482.85 90.09 470.4 90.08 470.39"/>
    </g>
  </g>
  <g id="_x3C_Grid_Repeat_x3E_15" data-name="_x3C_Grid_Repeat_x3E_">
    <g class="st1">
      <polygon class="st0" points="265.81 470.39 254.74 470.39 254.74 470.4 260.28 482.85 265.82 495.31 271.36 507.76 276.89 520.21 287.97 520.21 276.89 495.3 271.36 482.85 265.82 470.4 265.81 470.39"/>
      <polygon class="st0" points="332.28 470.39 321.21 470.39 321.21 470.4 326.75 482.85 332.29 495.3 343.36 520.21 337.82 532.66 332.29 545.11 326.75 557.56 321.21 570.01 321.23 570.06 332.26 570.06 332.29 570.01 337.82 557.56 343.36 545.11 348.9 532.66 354.44 520.21 348.9 507.76 343.36 495.31 337.82 482.85 332.29 470.4 332.28 470.39"/>
      <polygon class="st0" points="332.29 520.21 321.21 520.21 315.67 532.66 310.13 545.11 310.13 545.11 304.59 557.56 299.05 570.01 299.08 570.06 310.11 570.06 310.13 570.01 310.13 570.01 315.67 557.56 321.21 545.11 321.21 545.11 326.75 532.66 326.75 532.66 332.29 520.21"/>
      <polygon class="st0" points="287.97 470.39 276.9 470.39 276.89 470.4 282.43 482.85 287.97 495.31 293.51 507.76 299.05 520.21 293.51 532.66 287.97 545.11 282.43 557.56 276.89 570.01 276.92 570.06 287.95 570.06 287.97 570.01 287.97 570.01 293.51 557.56 299.05 545.11 304.59 532.66 304.59 532.66 310.13 520.21 304.59 507.76 299.05 495.3 293.51 482.85 287.97 470.4 287.97 470.4 287.97 470.39"/>
      <polygon class="st0" points="243.66 470.39 232.58 470.39 238.12 482.85 243.66 495.31 249.2 507.76 254.74 520.21 249.2 532.66 243.66 545.11 238.12 557.56 232.56 570.06 243.64 570.06 243.66 570.01 249.2 557.56 254.74 545.11 260.28 532.66 265.82 520.21 265.82 520.21 254.74 495.3 249.2 482.85 243.66 470.4 243.66 470.39"/>
    </g>
  </g>
  <g id="_x3C_Grid_Repeat_x3E_16" data-name="_x3C_Grid_Repeat_x3E_">
    <g class="st1">
      <polygon class="st0" points="419.39 470.39 408.32 470.39 408.31 470.4 413.85 482.85 419.39 495.31 424.93 507.76 430.47 520.21 441.55 520.21 430.47 495.3 424.93 482.85 419.39 470.4 419.39 470.39"/>
      <polygon class="st0" points="485.85 470.39 474.78 470.39 474.78 470.4 480.32 482.85 485.86 495.3 496.94 520.21 491.4 532.66 485.86 545.11 480.32 557.56 474.78 570.01 474.8 570.06 485.83 570.06 485.86 570.01 491.4 557.56 496.94 545.11 502.48 532.66 508.01 520.21 502.48 507.76 496.94 495.31 491.4 482.85 485.86 470.4 485.85 470.39"/>
      <polygon class="st0" points="485.86 520.21 474.78 520.21 469.24 532.66 463.7 545.11 463.7 545.11 458.16 557.56 452.62 570.01 452.65 570.06 463.68 570.06 463.7 570.01 463.7 570.01 469.24 557.56 474.78 545.11 474.78 545.11 480.32 532.66 480.32 532.66 485.86 520.21"/>
      <polygon class="st0" points="441.54 470.39 430.47 470.39 430.47 470.4 436.01 482.85 441.55 495.31 447.09 507.76 452.62 520.21 447.09 532.66 441.55 545.11 436.01 557.56 430.47 570.01 430.49 570.06 441.52 570.06 441.55 570.01 441.55 570.01 447.09 557.56 452.62 545.11 458.16 532.66 458.16 532.66 463.7 520.21 458.16 507.76 452.62 495.3 447.09 482.85 441.55 470.4 441.55 470.4 441.54 470.39"/>
      <polygon class="st0" points="397.23 470.39 386.15 470.39 391.69 482.85 397.23 495.31 402.77 507.76 408.31 520.21 402.77 532.66 397.23 545.11 391.69 557.56 386.13 570.06 397.21 570.06 397.23 570.01 402.77 557.56 408.31 545.11 413.85 532.66 419.39 520.21 419.39 520.21 408.31 495.3 402.77 482.85 397.23 470.4 397.23 470.39"/>
    </g>
  </g>
  <g id="_x3C_Grid_Repeat_x3E_17" data-name="_x3C_Grid_Repeat_x3E_">
    <g class="st1">
      <polygon class="st0" points="35.45 581.95 24.38 581.95 24.38 581.96 29.92 594.41 35.46 606.86 41 619.31 46.54 631.76 57.61 631.76 46.54 606.86 41 594.41 35.46 581.96 35.45 581.95"/>
      <polygon class="st0" points="101.92 581.95 90.85 581.95 90.85 581.96 96.39 594.41 101.93 606.86 113 631.76 107.46 644.21 101.93 656.66 96.39 669.11 90.85 681.56 90.87 681.62 101.9 681.62 101.93 681.56 107.46 669.11 113 656.66 118.54 644.21 124.08 631.76 118.54 619.31 113 606.86 107.46 594.41 101.93 581.96 101.92 581.95"/>
      <polygon class="st0" points="101.93 631.76 90.85 631.76 85.31 644.21 79.77 656.66 79.77 656.66 74.23 669.11 68.69 681.56 68.72 681.62 79.75 681.62 79.77 681.56 79.77 681.56 85.31 669.11 90.85 656.66 90.85 656.66 96.39 644.21 96.39 644.21 101.93 631.76"/>
      <polygon class="st0" points="57.61 581.95 46.54 581.95 46.54 581.96 52.07 594.41 57.61 606.86 63.15 619.31 68.69 631.76 63.15 644.21 57.61 656.66 52.07 669.11 46.54 681.56 46.56 681.62 57.59 681.62 57.61 681.56 57.61 681.56 63.15 669.11 68.69 656.66 74.23 644.21 74.23 644.21 79.77 631.76 74.23 619.31 68.69 606.86 63.15 594.41 57.61 581.96 57.61 581.95 57.61 581.95"/>
      <polygon class="st0" points="13.3 581.95 2.22 581.95 7.76 594.41 13.3 606.86 18.84 619.31 24.38 631.76 18.84 644.21 13.3 656.66 7.76 669.11 2.2 681.62 13.28 681.62 13.3 681.56 18.84 669.11 24.38 656.66 29.92 644.21 35.46 631.76 35.46 631.76 24.38 606.86 18.84 594.41 13.3 581.96 13.3 581.95"/>
    </g>
  </g>
  <g id="_x3C_Grid_Repeat_x3E_18" data-name="_x3C_Grid_Repeat_x3E_">
    <g class="st1">
      <polygon class="st0" points="189.03 581.95 177.96 581.95 177.95 581.96 183.49 594.41 189.03 606.86 194.57 619.31 200.11 631.76 211.19 631.76 200.11 606.86 194.57 594.41 189.03 581.96 189.03 581.95"/>
      <polygon class="st0" points="255.49 581.95 244.43 581.95 244.42 581.96 249.96 594.41 255.5 606.86 266.58 631.76 261.04 644.21 255.5 656.66 249.96 669.11 244.42 681.56 244.44 681.62 255.47 681.62 255.5 681.56 261.04 669.11 266.58 656.66 272.12 644.21 277.66 631.76 272.12 619.31 266.58 606.86 261.04 594.41 255.5 581.96 255.49 581.95"/>
      <polygon class="st0" points="255.5 631.76 244.42 631.76 238.88 644.21 233.34 656.66 233.34 656.66 227.8 669.11 222.26 681.56 222.29 681.62 233.32 681.62 233.34 681.56 233.34 681.56 238.88 669.11 244.42 656.66 244.42 656.66 249.96 644.21 249.96 644.21 255.5 631.76"/>
      <polygon class="st0" points="211.18 581.95 200.11 581.95 200.11 581.96 205.65 594.41 211.19 606.86 216.73 619.31 222.26 631.76 216.73 644.21 211.19 656.66 205.65 669.11 200.11 681.56 200.13 681.62 211.16 681.62 211.19 681.56 211.19 681.56 216.73 669.11 222.26 656.66 227.8 644.21 227.8 644.21 233.34 631.76 227.8 619.31 222.26 606.86 216.73 594.41 211.19 581.96 211.19 581.95 211.18 581.95"/>
      <polygon class="st0" points="166.87 581.95 155.79 581.95 161.33 594.41 166.87 606.86 172.41 619.31 177.95 631.76 172.41 644.21 166.87 656.66 161.33 669.11 155.77 681.62 166.85 681.62 166.87 681.56 172.41 669.11 177.95 656.66 183.49 644.21 189.03 631.76 189.03 631.76 177.95 606.86 172.41 594.41 166.87 581.96 166.87 581.95"/>
    </g>
  </g>
  <g id="_x3C_Grid_Repeat_x3E_19" data-name="_x3C_Grid_Repeat_x3E_">
    <g class="st1">
      <polygon class="st0" points="342.6 581.95 331.53 581.95 331.53 581.96 337.06 594.41 342.6 606.86 348.14 619.31 353.68 631.76 364.76 631.76 353.68 606.86 348.14 594.41 342.6 581.96 342.6 581.95"/>
      <polygon class="st0" points="409.07 581.95 398 581.95 397.99 581.96 403.53 594.41 409.07 606.86 420.15 631.76 414.61 644.21 409.07 656.66 403.53 669.11 397.99 681.56 398.02 681.62 409.05 681.62 409.07 681.56 414.61 669.11 420.15 656.66 425.69 644.21 431.23 631.76 425.69 619.31 420.15 606.86 414.61 594.41 409.07 581.96 409.07 581.95"/>
      <polygon class="st0" points="409.07 631.76 397.99 631.76 392.45 644.21 386.91 656.66 386.91 656.66 381.38 669.11 375.84 681.56 375.86 681.62 386.89 681.62 386.92 681.56 386.92 681.56 392.45 669.11 397.99 656.66 397.99 656.66 403.53 644.21 403.53 644.21 409.07 631.76"/>
      <polygon class="st0" points="364.76 581.95 353.69 581.95 353.68 581.96 359.22 594.41 364.76 606.86 370.3 619.31 375.84 631.76 370.3 644.21 364.76 656.66 359.22 669.11 353.68 681.56 353.71 681.62 364.74 681.62 364.76 681.56 364.76 681.56 370.3 669.11 375.84 656.66 381.38 644.21 381.38 644.21 386.92 631.76 381.38 619.31 375.84 606.86 370.3 594.41 364.76 581.96 364.76 581.95 364.76 581.95"/>
      <polygon class="st0" points="320.44 581.95 309.36 581.95 314.91 594.41 320.45 606.86 325.99 619.31 331.53 631.76 325.99 644.21 320.45 656.66 314.91 669.11 309.34 681.62 320.42 681.62 320.45 681.56 325.99 669.11 331.53 656.66 337.06 644.21 342.6 631.76 342.6 631.76 331.53 606.86 325.99 594.41 320.45 581.96 320.44 581.95"/>
    </g>
  </g>
  <g id="_x3C_Grid_Repeat_x3E_20" data-name="_x3C_Grid_Repeat_x3E_">
    <g class="st1">
      <polygon class="st0" points="496.17 581.95 485.1 581.95 485.1 581.96 490.64 594.41 496.18 606.86 501.72 619.31 507.25 631.76 518.33 631.76 507.25 606.86 501.72 594.41 496.18 581.96 496.17 581.95"/>
      <polygon class="st0" points="562.64 581.95 551.57 581.95 551.57 581.96 557.11 594.41 562.65 606.86 573.72 631.76 568.18 644.21 562.65 656.66 557.11 669.11 551.57 681.56 551.59 681.62 562.62 681.62 562.65 681.56 568.18 669.11 573.72 656.66 579.26 644.21 584.8 631.76 579.26 619.31 573.72 606.86 568.18 594.41 562.65 581.96 562.64 581.95"/>
      <polygon class="st0" points="562.65 631.76 551.57 631.76 546.03 644.21 540.49 656.66 540.49 656.66 534.95 669.11 529.41 681.56 529.44 681.62 540.46 681.62 540.49 681.56 540.49 681.56 546.03 669.11 551.57 656.66 551.57 656.66 557.11 644.21 557.11 644.21 562.65 631.76"/>
      <polygon class="st0" points="518.33 581.95 507.26 581.95 507.25 581.96 512.79 594.41 518.33 606.86 523.87 619.31 529.41 631.76 523.87 644.21 518.33 656.66 512.79 669.11 507.25 681.56 507.28 681.62 518.31 681.62 518.33 681.56 518.33 681.56 523.87 669.11 529.41 656.66 534.95 644.21 534.95 644.21 540.49 631.76 534.95 619.31 529.41 606.86 523.87 594.41 518.33 581.96 518.33 581.95 518.33 581.95"/>
      <polygon class="st0" points="474.02 581.95 462.94 581.95 468.48 594.41 474.02 606.86 479.56 619.31 485.1 631.76 479.56 644.21 474.02 656.66 468.48 669.11 462.92 681.62 474 681.62 474.02 681.56 479.56 669.11 485.1 656.66 490.64 644.21 496.18 631.76 496.18 631.76 485.1 606.86 479.56 594.41 474.02 581.96 474.02 581.95"/>
    </g>
  </g>
  <g id="_x3C_Grid_Repeat_x3E_21" data-name="_x3C_Grid_Repeat_x3E_">
    <g class="st1">
      <polygon class="st0" points="112.24 693.5 101.17 693.5 101.17 693.51 106.7 705.96 112.24 718.41 117.78 730.86 123.32 743.31 134.4 743.31 123.32 718.41 117.78 705.96 112.24 693.51 112.24 693.5"/>
      <polygon class="st0" points="178.71 693.5 167.64 693.5 167.63 693.51 173.17 705.96 178.71 718.41 189.79 743.31 184.25 755.76 178.71 768.21 173.17 780.66 167.63 793.11 167.66 793.17 178.69 793.17 178.71 793.11 184.25 780.66 189.79 768.21 195.33 755.76 200.87 743.31 195.33 730.86 189.79 718.41 184.25 705.96 178.71 693.51 178.71 693.5"/>
      <polygon class="st0" points="178.71 743.31 167.63 743.31 162.1 755.76 156.55 768.21 156.55 768.21 151.02 780.66 145.48 793.11 145.5 793.17 156.53 793.17 156.56 793.12 156.56 793.11 162.1 780.66 167.63 768.21 167.63 768.21 173.17 755.76 173.17 755.76 178.71 743.31"/>
      <polygon class="st0" points="134.4 693.5 123.33 693.5 123.32 693.51 128.86 705.96 134.4 718.41 139.94 730.86 145.48 743.31 139.94 755.76 134.4 768.21 128.86 780.66 123.32 793.11 123.35 793.17 134.38 793.17 134.4 793.12 134.4 793.11 139.94 780.66 145.48 768.21 151.02 755.76 151.02 755.76 156.56 743.31 151.02 730.86 145.48 718.41 139.94 705.96 134.4 693.51 134.4 693.51 134.4 693.5"/>
      <polygon class="st0" points="90.08 693.5 79 693.5 84.55 705.96 90.09 718.41 95.63 730.86 101.17 743.31 95.63 755.76 90.09 768.21 84.55 780.66 78.99 793.17 90.06 793.17 90.09 793.11 95.63 780.66 101.17 768.21 106.7 755.76 112.24 743.31 112.24 743.31 101.17 718.41 95.63 705.96 90.09 693.51 90.08 693.5"/>
    </g>
  </g>
  <g id="_x3C_Grid_Repeat_x3E_22" data-name="_x3C_Grid_Repeat_x3E_">
    <g class="st1">
      <polygon class="st0" points="265.81 693.5 254.74 693.5 254.74 693.51 260.28 705.96 265.82 718.41 271.36 730.86 276.89 743.31 287.97 743.31 276.89 718.41 271.36 705.96 265.82 693.51 265.81 693.5"/>
      <polygon class="st0" points="332.28 693.5 321.21 693.5 321.21 693.51 326.75 705.96 332.29 718.41 343.36 743.31 337.82 755.76 332.29 768.21 326.75 780.66 321.21 793.11 321.23 793.17 332.26 793.17 332.29 793.11 337.82 780.66 343.36 768.21 348.9 755.76 354.44 743.31 348.9 730.86 343.36 718.41 337.82 705.96 332.29 693.51 332.28 693.5"/>
      <polygon class="st0" points="332.29 743.31 321.21 743.31 315.67 755.76 310.13 768.21 310.13 768.21 304.59 780.66 299.05 793.11 299.08 793.17 310.11 793.17 310.13 793.12 310.13 793.11 315.67 780.66 321.21 768.21 321.21 768.21 326.75 755.76 326.75 755.76 332.29 743.31"/>
      <polygon class="st0" points="287.97 693.5 276.9 693.5 276.89 693.51 282.43 705.96 287.97 718.41 293.51 730.86 299.05 743.31 293.51 755.76 287.97 768.21 282.43 780.66 276.89 793.11 276.92 793.17 287.95 793.17 287.97 793.12 287.97 793.11 293.51 780.66 299.05 768.21 304.59 755.76 304.59 755.76 310.13 743.31 304.59 730.86 299.05 718.41 293.51 705.96 287.97 693.51 287.97 693.51 287.97 693.5"/>
      <polygon class="st0" points="243.66 693.5 232.58 693.5 238.12 705.96 243.66 718.41 249.2 730.86 254.74 743.31 249.2 755.76 243.66 768.21 238.12 780.66 232.56 793.17 243.64 793.17 243.66 793.11 249.2 780.66 254.74 768.21 260.28 755.76 265.82 743.31 265.82 743.31 254.74 718.41 249.2 705.96 243.66 693.51 243.66 693.5"/>
    </g>
  </g>
  <g id="_x3C_Grid_Repeat_x3E_23" data-name="_x3C_Grid_Repeat_x3E_">
    <g class="st1">
      <polygon class="st0" points="419.39 693.5 408.32 693.5 408.31 693.51 413.85 705.96 419.39 718.41 424.93 730.86 430.47 743.31 441.55 743.31 430.47 718.41 424.93 705.96 419.39 693.51 419.39 693.5"/>
      <polygon class="st0" points="485.85 693.5 474.78 693.5 474.78 693.51 480.32 705.96 485.86 718.41 496.94 743.31 491.4 755.76 485.86 768.21 480.32 780.66 474.78 793.11 474.8 793.17 485.83 793.17 485.86 793.11 491.4 780.66 496.94 768.21 502.48 755.76 508.01 743.31 502.48 730.86 496.94 718.41 491.4 705.96 485.86 693.51 485.85 693.5"/>
      <polygon class="st0" points="485.86 743.31 474.78 743.31 469.24 755.76 463.7 768.21 463.7 768.21 458.16 780.66 452.62 793.11 452.65 793.17 463.68 793.17 463.7 793.12 463.7 793.11 469.24 780.66 474.78 768.21 474.78 768.21 480.32 755.76 480.32 755.76 485.86 743.31"/>
      <polygon class="st0" points="441.54 693.5 430.47 693.5 430.47 693.51 436.01 705.96 441.55 718.41 447.09 730.86 452.62 743.31 447.09 755.76 441.55 768.21 436.01 780.66 430.47 793.11 430.49 793.17 441.52 793.17 441.55 793.12 441.55 793.11 447.09 780.66 452.62 768.21 458.16 755.76 458.16 755.76 463.7 743.31 458.16 730.86 452.62 718.41 447.09 705.96 441.55 693.51 441.55 693.51 441.54 693.5"/>
      <polygon class="st0" points="397.23 693.5 386.15 693.5 391.69 705.96 397.23 718.41 402.77 730.86 408.31 743.31 402.77 755.76 397.23 768.21 391.69 780.66 386.13 793.17 397.21 793.17 397.23 793.11 402.77 780.66 408.31 768.21 413.85 755.76 419.39 743.31 419.39 743.31 408.31 718.41 402.77 705.96 397.23 693.51 397.23 693.5"/>
    </g>
  </g>
  <g id="_x3C_Grid_Repeat_x3E_24" data-name="_x3C_Grid_Repeat_x3E_">
    <g class="st1">
      <polygon class="st0" points="35.45 800.94 24.38 800.94 24.38 800.95 29.92 813.4 35.46 825.85 41 838.3 46.54 850.75 57.61 850.75 46.54 825.85 41 813.4 35.46 800.94 35.45 800.94"/>
      <polygon class="st0" points="101.92 800.94 90.85 800.94 90.85 800.94 96.39 813.4 101.93 825.85 113 850.75 107.46 863.2 101.93 875.65 96.39 888.1 90.85 900.55 90.87 900.61 101.9 900.61 101.93 900.55 107.46 888.1 113 875.65 118.54 863.2 124.08 850.75 118.54 838.3 113 825.85 107.46 813.4 101.93 800.95 101.92 800.94"/>
      <polygon class="st0" points="101.93 850.75 90.85 850.75 85.31 863.2 79.77 875.65 79.77 875.65 74.23 888.1 68.69 900.55 68.72 900.61 79.75 900.61 79.77 900.55 79.77 900.55 85.31 888.1 90.85 875.65 90.85 875.65 96.39 863.2 96.39 863.2 101.93 850.75"/>
      <polygon class="st0" points="57.61 800.94 46.54 800.94 46.54 800.95 52.07 813.4 57.61 825.85 63.15 838.3 68.69 850.75 63.15 863.2 57.61 875.65 52.07 888.1 46.54 900.55 46.56 900.61 57.59 900.61 57.61 900.55 57.61 900.55 63.15 888.1 68.69 875.65 74.23 863.2 74.23 863.2 79.77 850.75 74.23 838.3 68.69 825.85 63.15 813.4 57.61 800.94 57.61 800.94 57.61 800.94"/>
      <polygon class="st0" points="13.3 800.94 2.22 800.94 7.76 813.4 13.3 825.85 18.84 838.3 24.38 850.75 18.84 863.2 13.3 875.65 7.76 888.1 2.2 900.61 13.28 900.61 13.3 900.55 18.84 888.1 24.38 875.65 29.92 863.2 35.46 850.75 35.46 850.75 24.38 825.85 18.84 813.4 13.3 800.94 13.3 800.94"/>
    </g>
  </g>
  <g id="_x3C_Grid_Repeat_x3E_25" data-name="_x3C_Grid_Repeat_x3E_">
    <g class="st1">
      <polygon class="st0" points="189.03 800.94 177.96 800.94 177.95 800.95 183.49 813.4 189.03 825.85 194.57 838.3 200.11 850.75 211.19 850.75 200.11 825.85 194.57 813.4 189.03 800.94 189.03 800.94"/>
      <polygon class="st0" points="255.49 800.94 244.43 800.94 244.42 800.94 249.96 813.4 255.5 825.85 266.58 850.75 261.04 863.2 255.5 875.65 249.96 888.1 244.42 900.55 244.44 900.61 255.47 900.61 255.5 900.55 261.04 888.1 266.58 875.65 272.12 863.2 277.66 850.75 272.12 838.3 266.58 825.85 261.04 813.4 255.5 800.95 255.49 800.94"/>
      <polygon class="st0" points="255.5 850.75 244.42 850.75 238.88 863.2 233.34 875.65 233.34 875.65 227.8 888.1 222.26 900.55 222.29 900.61 233.32 900.61 233.34 900.55 233.34 900.55 238.88 888.1 244.42 875.65 244.42 875.65 249.96 863.2 249.96 863.2 255.5 850.75"/>
      <polygon class="st0" points="211.18 800.94 200.11 800.94 200.11 800.95 205.65 813.4 211.19 825.85 216.73 838.3 222.26 850.75 216.73 863.2 211.19 875.65 205.65 888.1 200.11 900.55 200.13 900.61 211.16 900.61 211.19 900.55 211.19 900.55 216.73 888.1 222.26 875.65 227.8 863.2 227.8 863.2 233.34 850.75 227.8 838.3 222.26 825.85 216.73 813.4 211.19 800.94 211.19 800.94 211.18 800.94"/>
      <polygon class="st0" points="166.87 800.94 155.79 800.94 161.33 813.4 166.87 825.85 172.41 838.3 177.95 850.75 172.41 863.2 166.87 875.65 161.33 888.1 155.77 900.61 166.85 900.61 166.87 900.55 172.41 888.1 177.95 875.65 183.49 863.2 189.03 850.75 189.03 850.75 177.95 825.85 172.41 813.4 166.87 800.94 166.87 800.94"/>
    </g>
  </g>
  <g id="_x3C_Grid_Repeat_x3E_26" data-name="_x3C_Grid_Repeat_x3E_">
    <g class="st1">
      <polygon class="st0" points="342.6 800.94 331.53 800.94 331.53 800.95 337.06 813.4 342.6 825.85 348.14 838.3 353.68 850.75 364.76 850.75 353.68 825.85 348.14 813.4 342.6 800.94 342.6 800.94"/>
      <polygon class="st0" points="409.07 800.94 398 800.94 397.99 800.94 403.53 813.4 409.07 825.85 420.15 850.75 414.61 863.2 409.07 875.65 403.53 888.1 397.99 900.55 398.02 900.61 409.05 900.61 409.07 900.55 414.61 888.1 420.15 875.65 425.69 863.2 431.23 850.75 425.69 838.3 420.15 825.85 414.61 813.4 409.07 800.95 409.07 800.94"/>
      <polygon class="st0" points="409.07 850.75 397.99 850.75 392.45 863.2 386.91 875.65 386.91 875.65 381.38 888.1 375.84 900.55 375.86 900.61 386.89 900.61 386.92 900.55 386.92 900.55 392.45 888.1 397.99 875.65 397.99 875.65 403.53 863.2 403.53 863.2 409.07 850.75"/>
      <polygon class="st0" points="364.76 800.94 353.69 800.94 353.68 800.95 359.22 813.4 364.76 825.85 370.3 838.3 375.84 850.75 370.3 863.2 364.76 875.65 359.22 888.1 353.68 900.55 353.71 900.61 364.74 900.61 364.76 900.55 364.76 900.55 370.3 888.1 375.84 875.65 381.38 863.2 381.38 863.2 386.92 850.75 381.38 838.3 375.84 825.85 370.3 813.4 364.76 800.94 364.76 800.94 364.76 800.94"/>
      <polygon class="st0" points="320.44 800.94 309.36 800.94 314.91 813.4 320.45 825.85 325.99 838.3 331.53 850.75 325.99 863.2 320.45 875.65 314.91 888.1 309.34 900.61 320.42 900.61 320.45 900.55 325.99 888.1 331.53 875.65 337.06 863.2 342.6 850.75 342.6 850.75 331.53 825.85 325.99 813.4 320.45 800.94 320.44 800.94"/>
    </g>
  </g>
  <g id="_x3C_Grid_Repeat_x3E_27" data-name="_x3C_Grid_Repeat_x3E_">
    <g class="st1">
      <polygon class="st0" points="496.17 800.94 485.1 800.94 485.1 800.95 490.64 813.4 496.18 825.85 501.72 838.3 507.25 850.75 518.33 850.75 507.25 825.85 501.72 813.4 496.18 800.94 496.17 800.94"/>
      <polygon class="st0" points="562.64 800.94 551.57 800.94 551.57 800.94 557.11 813.4 562.65 825.85 573.72 850.75 568.18 863.2 562.65 875.65 557.11 888.1 551.57 900.55 551.59 900.61 562.62 900.61 562.65 900.55 568.18 888.1 573.72 875.65 579.26 863.2 584.8 850.75 579.26 838.3 573.72 825.85 568.18 813.4 562.65 800.95 562.64 800.94"/>
      <polygon class="st0" points="562.65 850.75 551.57 850.75 546.03 863.2 540.49 875.65 540.49 875.65 534.95 888.1 529.41 900.55 529.44 900.61 540.46 900.61 540.49 900.55 540.49 900.55 546.03 888.1 551.57 875.65 551.57 875.65 557.11 863.2 557.11 863.2 562.65 850.75"/>
      <polygon class="st0" points="518.33 800.94 507.26 800.94 507.25 800.95 512.79 813.4 518.33 825.85 523.87 838.3 529.41 850.75 523.87 863.2 518.33 875.65 512.79 888.1 507.25 900.55 507.28 900.61 518.31 900.61 518.33 900.55 518.33 900.55 523.87 888.1 529.41 875.65 534.95 863.2 534.95 863.2 540.49 850.75 534.95 838.3 529.41 825.85 523.87 813.4 518.33 800.94 518.33 800.94 518.33 800.94"/>
      <polygon class="st0" points="474.02 800.94 462.94 800.94 468.48 813.4 474.02 825.85 479.56 838.3 485.1 850.75 479.56 863.2 474.02 875.65 468.48 888.1 462.92 900.61 474 900.61 474.02 900.55 479.56 888.1 485.1 875.65 490.64 863.2 496.18 850.75 496.18 850.75 485.1 825.85 479.56 813.4 474.02 800.94 474.02 800.94"/>
    </g>
  </g>
  <g id="_x3C_Grid_Repeat_x3E_28" data-name="_x3C_Grid_Repeat_x3E_">
    <g class="st1">
      <polygon class="st0" points="112.24 912.49 101.17 912.49 101.17 912.5 106.7 924.95 112.24 937.4 117.78 949.85 123.32 962.3 134.4 962.3 123.32 937.4 117.78 924.95 112.24 912.5 112.24 912.49"/>
      <polygon class="st0" points="178.71 912.49 167.64 912.49 167.63 912.5 173.17 924.95 178.71 937.4 189.79 962.3 184.25 974.75 178.71 987.2 173.17 999.65 167.63 1012.1 167.66 1012.16 178.69 1012.16 178.71 1012.1 184.25 999.65 189.79 987.2 195.33 974.75 200.87 962.3 195.33 949.85 189.79 937.4 184.25 924.95 178.71 912.5 178.71 912.49"/>
      <polygon class="st0" points="178.71 962.3 167.63 962.3 162.1 974.75 156.55 987.2 156.55 987.2 151.02 999.65 145.48 1012.1 145.5 1012.16 156.53 1012.16 156.56 1012.11 156.56 1012.1 162.1 999.65 167.63 987.2 167.63 987.2 173.17 974.75 173.17 974.75 178.71 962.3"/>
      <polygon class="st0" points="134.4 912.49 123.33 912.49 123.32 912.5 128.86 924.95 134.4 937.4 139.94 949.85 145.48 962.3 139.94 974.75 134.4 987.2 128.86 999.65 123.32 1012.1 123.35 1012.16 134.38 1012.16 134.4 1012.11 134.4 1012.1 139.94 999.65 145.48 987.2 151.02 974.75 151.02 974.75 156.56 962.3 151.02 949.85 145.48 937.4 139.94 924.95 134.4 912.5 134.4 912.5 134.4 912.49"/>
      <polygon class="st0" points="90.08 912.49 79 912.49 84.55 924.95 90.09 937.4 95.63 949.85 101.17 962.3 95.63 974.75 90.09 987.2 84.55 999.65 78.99 1012.16 90.06 1012.16 90.09 1012.1 95.63 999.65 101.17 987.2 106.7 974.75 112.24 962.3 112.24 962.3 101.17 937.4 95.63 924.95 90.09 912.5 90.08 912.49"/>
    </g>
  </g>
  <g id="_x3C_Grid_Repeat_x3E_29" data-name="_x3C_Grid_Repeat_x3E_">
    <g class="st1">
      <polygon class="st0" points="265.81 912.49 254.74 912.49 254.74 912.5 260.28 924.95 265.82 937.4 271.36 949.85 276.89 962.3 287.97 962.3 276.89 937.4 271.36 924.95 265.82 912.5 265.81 912.49"/>
      <polygon class="st0" points="332.28 912.49 321.21 912.49 321.21 912.5 326.75 924.95 332.29 937.4 343.36 962.3 337.82 974.75 332.29 987.2 326.75 999.65 321.21 1012.1 321.23 1012.16 332.26 1012.16 332.29 1012.1 337.82 999.65 343.36 987.2 348.9 974.75 354.44 962.3 348.9 949.85 343.36 937.4 337.82 924.95 332.29 912.5 332.28 912.49"/>
      <polygon class="st0" points="332.29 962.3 321.21 962.3 315.67 974.75 310.13 987.2 310.13 987.2 304.59 999.65 299.05 1012.1 299.08 1012.16 310.11 1012.16 310.13 1012.11 310.13 1012.1 315.67 999.65 321.21 987.2 321.21 987.2 326.75 974.75 326.75 974.75 332.29 962.3"/>
      <polygon class="st0" points="287.97 912.49 276.9 912.49 276.89 912.5 282.43 924.95 287.97 937.4 293.51 949.85 299.05 962.3 293.51 974.75 287.97 987.2 282.43 999.65 276.89 1012.1 276.92 1012.16 287.95 1012.16 287.97 1012.11 287.97 1012.1 293.51 999.65 299.05 987.2 304.59 974.75 304.59 974.75 310.13 962.3 304.59 949.85 299.05 937.4 293.51 924.95 287.97 912.5 287.97 912.5 287.97 912.49"/>
      <polygon class="st0" points="243.66 912.49 232.58 912.49 238.12 924.95 243.66 937.4 249.2 949.85 254.74 962.3 249.2 974.75 243.66 987.2 238.12 999.65 232.56 1012.16 243.64 1012.16 243.66 1012.1 249.2 999.65 254.74 987.2 260.28 974.75 265.82 962.3 265.82 962.3 254.74 937.4 249.2 924.95 243.66 912.5 243.66 912.49"/>
    </g>
  </g>
  <g id="_x3C_Grid_Repeat_x3E_30" data-name="_x3C_Grid_Repeat_x3E_">
    <g class="st1">
      <polygon class="st0" points="419.39 912.49 408.32 912.49 408.31 912.5 413.85 924.95 419.39 937.4 424.93 949.85 430.47 962.3 441.55 962.3 430.47 937.4 424.93 924.95 419.39 912.5 419.39 912.49"/>
      <polygon class="st0" points="485.85 912.49 474.78 912.49 474.78 912.5 480.32 924.95 485.86 937.4 496.94 962.3 491.4 974.75 485.86 987.2 480.32 999.65 474.78 1012.1 474.8 1012.16 485.83 1012.16 485.86 1012.1 491.4 999.65 496.94 987.2 502.48 974.75 508.01 962.3 502.48 949.85 496.94 937.4 491.4 924.95 485.86 912.5 485.85 912.49"/>
      <polygon class="st0" points="485.86 962.3 474.78 962.3 469.24 974.75 463.7 987.2 463.7 987.2 458.16 999.65 452.62 1012.1 452.65 1012.16 463.68 1012.16 463.7 1012.11 463.7 1012.1 469.24 999.65 474.78 987.2 474.78 987.2 480.32 974.75 480.32 974.75 485.86 962.3"/>
      <polygon class="st0" points="441.54 912.49 430.47 912.49 430.47 912.5 436.01 924.95 441.55 937.4 447.09 949.85 452.62 962.3 447.09 974.75 441.55 987.2 436.01 999.65 430.47 1012.1 430.49 1012.16 441.52 1012.16 441.55 1012.11 441.55 1012.1 447.09 999.65 452.62 987.2 458.16 974.75 458.16 974.75 463.7 962.3 458.16 949.85 452.62 937.4 447.09 924.95 441.55 912.5 441.55 912.5 441.54 912.49"/>
      <polygon class="st0" points="397.23 912.49 386.15 912.49 391.69 924.95 397.23 937.4 402.77 949.85 408.31 962.3 402.77 974.75 397.23 987.2 391.69 999.65 386.13 1012.16 397.21 1012.16 397.23 1012.1 402.77 999.65 408.31 987.2 413.85 974.75 419.39 962.3 419.39 962.3 408.31 937.4 402.77 924.95 397.23 912.5 397.23 912.49"/>
    </g>
  </g>
  <g id="_x3C_Grid_Repeat_x3E_31" data-name="_x3C_Grid_Repeat_x3E_">
    <g class="st1">
      <polygon class="st0" points="35.45 1024.04 24.38 1024.04 24.38 1024.05 29.92 1036.5 35.46 1048.95 41 1061.4 46.54 1073.85 57.61 1073.85 46.54 1048.95 41 1036.5 35.46 1024.05 35.45 1024.04"/>
      <polygon class="st0" points="101.92 1024.04 90.85 1024.04 90.85 1024.05 96.39 1036.5 101.93 1048.95 113 1073.85 107.46 1086.3 101.93 1098.76 96.39 1111.2 90.85 1123.66 90.87 1123.71 101.9 1123.71 101.93 1123.65 107.46 1111.2 113 1098.75 118.54 1086.3 124.08 1073.85 118.54 1061.4 113 1048.95 107.46 1036.5 101.93 1024.05 101.92 1024.04"/>
      <polygon class="st0" points="101.93 1073.85 90.85 1073.85 85.31 1086.3 79.77 1098.75 79.77 1098.76 74.23 1111.2 68.69 1123.65 68.72 1123.71 79.75 1123.71 79.77 1123.66 79.77 1123.66 85.31 1111.2 90.85 1098.76 90.85 1098.75 96.39 1086.31 96.39 1086.3 101.93 1073.85"/>
      <polygon class="st0" points="57.61 1024.04 46.54 1024.04 46.54 1024.05 52.07 1036.5 57.61 1048.95 63.15 1061.4 68.69 1073.85 63.15 1086.3 57.61 1098.75 52.07 1111.2 46.54 1123.65 46.56 1123.71 57.59 1123.71 57.61 1123.66 57.61 1123.66 63.15 1111.2 68.69 1098.76 74.23 1086.31 74.23 1086.3 79.77 1073.85 74.23 1061.4 68.69 1048.95 63.15 1036.5 57.61 1024.05 57.61 1024.05 57.61 1024.04"/>
      <polygon class="st0" points="13.3 1024.04 2.22 1024.04 7.76 1036.5 13.3 1048.95 18.84 1061.4 24.38 1073.85 18.84 1086.3 13.3 1098.75 7.76 1111.2 2.2 1123.71 13.28 1123.71 13.3 1123.66 18.84 1111.2 24.38 1098.76 29.92 1086.3 35.46 1073.85 35.46 1073.85 24.38 1048.95 18.84 1036.5 13.3 1024.05 13.3 1024.04"/>
    </g>
  </g>
  <g id="_x3C_Grid_Repeat_x3E_32" data-name="_x3C_Grid_Repeat_x3E_">
    <g class="st1">
      <polygon class="st0" points="189.03 1024.04 177.96 1024.04 177.95 1024.05 183.49 1036.5 189.03 1048.95 194.57 1061.4 200.11 1073.85 211.19 1073.85 200.11 1048.95 194.57 1036.5 189.03 1024.05 189.03 1024.04"/>
      <polygon class="st0" points="255.49 1024.04 244.43 1024.04 244.42 1024.05 249.96 1036.5 255.5 1048.95 266.58 1073.85 261.04 1086.3 255.5 1098.76 249.96 1111.2 244.42 1123.66 244.44 1123.71 255.47 1123.71 255.5 1123.65 261.04 1111.2 266.58 1098.75 272.12 1086.3 277.66 1073.85 272.12 1061.4 266.58 1048.95 261.04 1036.5 255.5 1024.05 255.49 1024.04"/>
      <polygon class="st0" points="255.5 1073.85 244.42 1073.85 238.88 1086.3 233.34 1098.75 233.34 1098.76 227.8 1111.2 222.26 1123.65 222.29 1123.71 233.32 1123.71 233.34 1123.66 233.34 1123.66 238.88 1111.2 244.42 1098.76 244.42 1098.75 249.96 1086.31 249.96 1086.3 255.5 1073.85"/>
      <polygon class="st0" points="211.18 1024.04 200.11 1024.04 200.11 1024.05 205.65 1036.5 211.19 1048.95 216.73 1061.4 222.26 1073.85 216.73 1086.3 211.19 1098.75 205.65 1111.2 200.11 1123.65 200.13 1123.71 211.16 1123.71 211.19 1123.66 211.19 1123.66 216.73 1111.2 222.26 1098.76 227.8 1086.31 227.8 1086.3 233.34 1073.85 227.8 1061.4 222.26 1048.95 216.73 1036.5 211.19 1024.05 211.19 1024.05 211.18 1024.04"/>
      <polygon class="st0" points="166.87 1024.04 155.79 1024.04 161.33 1036.5 166.87 1048.95 172.41 1061.4 177.95 1073.85 172.41 1086.3 166.87 1098.75 161.33 1111.2 155.77 1123.71 166.85 1123.71 166.87 1123.66 172.41 1111.2 177.95 1098.76 183.49 1086.3 189.03 1073.85 189.03 1073.85 177.95 1048.95 172.41 1036.5 166.87 1024.05 166.87 1024.04"/>
    </g>
  </g>
  <g id="_x3C_Grid_Repeat_x3E_33" data-name="_x3C_Grid_Repeat_x3E_">
    <g class="st1">
      <polygon class="st0" points="342.6 1024.04 331.53 1024.04 331.53 1024.05 337.06 1036.5 342.6 1048.95 348.14 1061.4 353.68 1073.85 364.76 1073.85 353.68 1048.95 348.14 1036.5 342.6 1024.05 342.6 1024.04"/>
      <polygon class="st0" points="409.07 1024.04 398 1024.04 397.99 1024.05 403.53 1036.5 409.07 1048.95 420.15 1073.85 414.61 1086.3 409.07 1098.76 403.53 1111.2 397.99 1123.66 398.02 1123.71 409.05 1123.71 409.07 1123.65 414.61 1111.2 420.15 1098.75 425.69 1086.3 431.23 1073.85 425.69 1061.4 420.15 1048.95 414.61 1036.5 409.07 1024.05 409.07 1024.04"/>
      <polygon class="st0" points="409.07 1073.85 397.99 1073.85 392.45 1086.3 386.91 1098.75 386.91 1098.76 381.38 1111.2 375.84 1123.65 375.86 1123.71 386.89 1123.71 386.92 1123.66 386.92 1123.66 392.45 1111.2 397.99 1098.76 397.99 1098.75 403.53 1086.31 403.53 1086.3 409.07 1073.85"/>
      <polygon class="st0" points="364.76 1024.04 353.69 1024.04 353.68 1024.05 359.22 1036.5 364.76 1048.95 370.3 1061.4 375.84 1073.85 370.3 1086.3 364.76 1098.75 359.22 1111.2 353.68 1123.65 353.71 1123.71 364.74 1123.71 364.76 1123.66 364.76 1123.66 370.3 1111.2 375.84 1098.76 381.38 1086.31 381.38 1086.3 386.92 1073.85 381.38 1061.4 375.84 1048.95 370.3 1036.5 364.76 1024.05 364.76 1024.05 364.76 1024.04"/>
      <polygon class="st0" points="320.44 1024.04 309.36 1024.04 314.91 1036.5 320.45 1048.95 325.99 1061.4 331.53 1073.85 325.99 1086.3 320.45 1098.75 314.91 1111.2 309.34 1123.71 320.42 1123.71 320.45 1123.66 325.99 1111.2 331.53 1098.76 337.06 1086.3 342.6 1073.85 342.6 1073.85 331.53 1048.95 325.99 1036.5 320.45 1024.05 320.44 1024.04"/>
    </g>
  </g>
  <g id="_x3C_Grid_Repeat_x3E_34" data-name="_x3C_Grid_Repeat_x3E_">
    <g class="st1">
      <polygon class="st0" points="496.17 1024.04 485.1 1024.04 485.1 1024.05 490.64 1036.5 496.18 1048.95 501.72 1061.4 507.25 1073.85 518.33 1073.85 507.25 1048.95 501.72 1036.5 496.18 1024.05 496.17 1024.04"/>
      <polygon class="st0" points="562.64 1024.04 551.57 1024.04 551.57 1024.05 557.11 1036.5 562.65 1048.95 573.72 1073.85 568.18 1086.3 562.65 1098.76 557.11 1111.2 551.57 1123.66 551.59 1123.71 562.62 1123.71 562.65 1123.65 568.18 1111.2 573.72 1098.75 579.26 1086.3 584.8 1073.85 579.26 1061.4 573.72 1048.95 568.18 1036.5 562.65 1024.05 562.64 1024.04"/>
      <polygon class="st0" points="562.65 1073.85 551.57 1073.85 546.03 1086.3 540.49 1098.75 540.49 1098.76 534.95 1111.2 529.41 1123.65 529.44 1123.71 540.46 1123.71 540.49 1123.66 540.49 1123.66 546.03 1111.2 551.57 1098.76 551.57 1098.75 557.11 1086.31 557.11 1086.3 562.65 1073.85"/>
      <polygon class="st0" points="518.33 1024.04 507.26 1024.04 507.25 1024.05 512.79 1036.5 518.33 1048.95 523.87 1061.4 529.41 1073.85 523.87 1086.3 518.33 1098.75 512.79 1111.2 507.25 1123.65 507.28 1123.71 518.31 1123.71 518.33 1123.66 518.33 1123.66 523.87 1111.2 529.41 1098.76 534.95 1086.31 534.95 1086.3 540.49 1073.85 534.95 1061.4 529.41 1048.95 523.87 1036.5 518.33 1024.05 518.33 1024.05 518.33 1024.04"/>
      <polygon class="st0" points="474.02 1024.04 462.94 1024.04 468.48 1036.5 474.02 1048.95 479.56 1061.4 485.1 1073.85 479.56 1086.3 474.02 1098.75 468.48 1111.2 462.92 1123.71 474 1123.71 474.02 1123.66 479.56 1111.2 485.1 1098.76 490.64 1086.3 496.18 1073.85 496.18 1073.85 485.1 1048.95 479.56 1036.5 474.02 1024.05 474.02 1024.04"/>
    </g>
  </g>
  <g id="_x3C_Grid_Repeat_x3E_35" data-name="_x3C_Grid_Repeat_x3E_">
    <g class="st1">
      <polygon class="st0" points="112.24 1135.59 101.17 1135.59 101.17 1135.6 106.7 1148.05 112.24 1160.5 117.78 1172.95 123.32 1185.4 134.4 1185.4 123.32 1160.5 117.78 1148.05 112.24 1135.6 112.24 1135.59"/>
      <polygon class="st0" points="178.71 1135.59 167.64 1135.59 167.63 1135.6 173.17 1148.05 178.71 1160.5 189.79 1185.4 184.25 1197.86 178.71 1210.31 173.17 1222.76 167.63 1235.21 167.66 1235.26 178.69 1235.26 178.71 1235.21 184.25 1222.76 189.79 1210.31 195.33 1197.86 200.87 1185.4 195.33 1172.95 189.79 1160.5 184.25 1148.05 178.71 1135.6 178.71 1135.59"/>
      <polygon class="st0" points="178.71 1185.4 167.63 1185.4 162.1 1197.85 156.55 1210.31 156.55 1210.31 151.02 1222.76 145.48 1235.21 145.5 1235.26 156.53 1235.26 156.56 1235.21 156.56 1235.21 162.1 1222.76 167.63 1210.31 167.63 1210.31 173.17 1197.86 173.17 1197.86 178.71 1185.4"/>
      <polygon class="st0" points="134.4 1135.59 123.33 1135.59 123.32 1135.6 128.86 1148.05 134.4 1160.5 139.94 1172.95 145.48 1185.4 139.94 1197.86 134.4 1210.31 128.86 1222.76 123.32 1235.21 123.35 1235.26 134.38 1235.26 134.4 1235.21 134.4 1235.21 139.94 1222.76 145.48 1210.31 151.02 1197.86 151.02 1197.86 156.56 1185.4 151.02 1172.95 145.48 1160.5 139.94 1148.05 134.4 1135.6 134.4 1135.6 134.4 1135.59"/>
      <polygon class="st0" points="90.08 1135.59 79 1135.59 84.55 1148.05 90.09 1160.5 95.63 1172.95 101.17 1185.4 95.63 1197.86 90.09 1210.31 84.55 1222.76 78.99 1235.26 90.06 1235.26 90.09 1235.21 95.63 1222.76 101.17 1210.31 106.7 1197.86 112.24 1185.41 112.24 1185.4 101.17 1160.5 95.63 1148.05 90.09 1135.6 90.08 1135.59"/>
    </g>
  </g>
  <g id="_x3C_Grid_Repeat_x3E_36" data-name="_x3C_Grid_Repeat_x3E_">
    <g class="st1">
      <polygon class="st0" points="265.81 1135.59 254.74 1135.59 254.74 1135.6 260.28 1148.05 265.82 1160.5 271.36 1172.95 276.89 1185.4 287.97 1185.4 276.89 1160.5 271.36 1148.05 265.82 1135.6 265.81 1135.59"/>
      <polygon class="st0" points="332.28 1135.59 321.21 1135.59 321.21 1135.6 326.75 1148.05 332.29 1160.5 343.36 1185.4 337.82 1197.86 332.29 1210.31 326.75 1222.76 321.21 1235.21 321.23 1235.26 332.26 1235.26 332.29 1235.21 337.82 1222.76 343.36 1210.31 348.9 1197.86 354.44 1185.4 348.9 1172.95 343.36 1160.5 337.82 1148.05 332.29 1135.6 332.28 1135.59"/>
      <polygon class="st0" points="332.29 1185.4 321.21 1185.4 315.67 1197.85 310.13 1210.31 310.13 1210.31 304.59 1222.76 299.05 1235.21 299.08 1235.26 310.11 1235.26 310.13 1235.21 310.13 1235.21 315.67 1222.76 321.21 1210.31 321.21 1210.31 326.75 1197.86 326.75 1197.86 332.29 1185.4"/>
      <polygon class="st0" points="287.97 1135.59 276.9 1135.59 276.89 1135.6 282.43 1148.05 287.97 1160.5 293.51 1172.95 299.05 1185.4 293.51 1197.86 287.97 1210.31 282.43 1222.76 276.89 1235.21 276.92 1235.26 287.95 1235.26 287.97 1235.21 287.97 1235.21 293.51 1222.76 299.05 1210.31 304.59 1197.86 304.59 1197.86 310.13 1185.4 304.59 1172.95 299.05 1160.5 293.51 1148.05 287.97 1135.6 287.97 1135.6 287.97 1135.59"/>
      <polygon class="st0" points="243.66 1135.59 232.58 1135.59 238.12 1148.05 243.66 1160.5 249.2 1172.95 254.74 1185.4 249.2 1197.86 243.66 1210.31 238.12 1222.76 232.56 1235.26 243.64 1235.26 243.66 1235.21 249.2 1222.76 254.74 1210.31 260.28 1197.86 265.82 1185.41 265.82 1185.4 254.74 1160.5 249.2 1148.05 243.66 1135.6 243.66 1135.59"/>
    </g>
  </g>
  <g id="_x3C_Grid_Repeat_x3E_37" data-name="_x3C_Grid_Repeat_x3E_">
    <g class="st1">
      <polygon class="st0" points="419.39 1135.59 408.32 1135.59 408.31 1135.6 413.85 1148.05 419.39 1160.5 424.93 1172.95 430.47 1185.4 441.55 1185.4 430.47 1160.5 424.93 1148.05 419.39 1135.6 419.39 1135.59"/>
      <polygon class="st0" points="485.85 1135.59 474.78 1135.59 474.78 1135.6 480.32 1148.05 485.86 1160.5 496.94 1185.4 491.4 1197.86 485.86 1210.31 480.32 1222.76 474.78 1235.21 474.8 1235.26 485.83 1235.26 485.86 1235.21 491.4 1222.76 496.94 1210.31 502.48 1197.86 508.01 1185.4 502.48 1172.95 496.94 1160.5 491.4 1148.05 485.86 1135.6 485.85 1135.59"/>
      <polygon class="st0" points="485.86 1185.4 474.78 1185.4 469.24 1197.85 463.7 1210.31 463.7 1210.31 458.16 1222.76 452.62 1235.21 452.65 1235.26 463.68 1235.26 463.7 1235.21 463.7 1235.21 469.24 1222.76 474.78 1210.31 474.78 1210.31 480.32 1197.86 480.32 1197.86 485.86 1185.4"/>
      <polygon class="st0" points="441.54 1135.59 430.47 1135.59 430.47 1135.6 436.01 1148.05 441.55 1160.5 447.09 1172.95 452.62 1185.4 447.09 1197.86 441.55 1210.31 436.01 1222.76 430.47 1235.21 430.49 1235.26 441.52 1235.26 441.55 1235.21 441.55 1235.21 447.09 1222.76 452.62 1210.31 458.16 1197.86 458.16 1197.86 463.7 1185.4 458.16 1172.95 452.62 1160.5 447.09 1148.05 441.55 1135.6 441.55 1135.6 441.54 1135.59"/>
      <polygon class="st0" points="397.23 1135.59 386.15 1135.59 391.69 1148.05 397.23 1160.5 402.77 1172.95 408.31 1185.4 402.77 1197.86 397.23 1210.31 391.69 1222.76 386.13 1235.26 397.21 1235.26 397.23 1235.21 402.77 1222.76 408.31 1210.31 413.85 1197.86 419.39 1185.41 419.39 1185.4 408.31 1160.5 402.77 1148.05 397.23 1135.6 397.23 1135.59"/>
    </g>
  </g>
  <g id="_x3C_Grid_Repeat_x3E_38" data-name="_x3C_Grid_Repeat_x3E_">
    <g class="st1">
      <polygon class="st0" points="35.45 1247.15 24.38 1247.15 24.38 1247.16 29.92 1259.61 35.46 1272.06 41 1284.51 46.54 1296.96 57.61 1296.96 46.54 1272.05 41 1259.61 35.46 1247.15 35.45 1247.15"/>
      <polygon class="st0" points="101.92 1247.15 90.85 1247.15 90.85 1247.15 96.39 1259.61 101.93 1272.05 113 1296.96 107.46 1309.41 101.93 1321.86 96.39 1334.31 90.85 1346.76 90.87 1346.81 101.9 1346.81 101.93 1346.76 107.46 1334.31 113 1321.86 118.54 1309.41 124.08 1296.96 118.54 1284.51 113 1272.06 107.46 1259.61 101.93 1247.16 101.92 1247.15"/>
      <polygon class="st0" points="101.93 1296.96 90.85 1296.96 85.31 1309.41 79.77 1321.86 79.77 1321.86 74.23 1334.31 68.69 1346.76 68.72 1346.81 79.75 1346.81 79.77 1346.76 79.77 1346.76 85.31 1334.31 90.85 1321.86 90.85 1321.86 96.39 1309.41 96.39 1309.41 101.93 1296.96"/>
      <polygon class="st0" points="57.61 1247.15 46.54 1247.15 46.54 1247.16 52.07 1259.61 57.61 1272.06 63.15 1284.51 68.69 1296.96 63.15 1309.41 57.61 1321.86 52.07 1334.31 46.54 1346.76 46.56 1346.81 57.59 1346.81 57.61 1346.76 57.61 1346.76 63.15 1334.31 68.69 1321.86 74.23 1309.41 74.23 1309.41 79.77 1296.96 74.23 1284.51 68.69 1272.05 63.15 1259.61 57.61 1247.15 57.61 1247.15 57.61 1247.15"/>
      <polygon class="st0" points="13.3 1247.15 2.22 1247.15 7.76 1259.61 13.3 1272.06 18.84 1284.51 24.38 1296.96 18.84 1309.41 13.3 1321.86 7.76 1334.31 2.2 1346.81 13.28 1346.81 13.3 1346.76 18.84 1334.31 24.38 1321.86 29.92 1309.41 35.46 1296.96 35.46 1296.96 24.38 1272.05 18.84 1259.61 13.3 1247.15 13.3 1247.15"/>
    </g>
  </g>
  <g id="_x3C_Grid_Repeat_x3E_39" data-name="_x3C_Grid_Repeat_x3E_">
    <g class="st1">
      <polygon class="st0" points="189.03 1247.15 177.96 1247.15 177.95 1247.16 183.49 1259.61 189.03 1272.06 194.57 1284.51 200.11 1296.96 211.19 1296.96 200.11 1272.05 194.57 1259.61 189.03 1247.15 189.03 1247.15"/>
      <polygon class="st0" points="255.49 1247.15 244.43 1247.15 244.42 1247.15 249.96 1259.61 255.5 1272.05 266.58 1296.96 261.04 1309.41 255.5 1321.86 249.96 1334.31 244.42 1346.76 244.44 1346.81 255.47 1346.81 255.5 1346.76 261.04 1334.31 266.58 1321.86 272.12 1309.41 277.66 1296.96 272.12 1284.51 266.58 1272.06 261.04 1259.61 255.5 1247.16 255.49 1247.15"/>
      <polygon class="st0" points="255.5 1296.96 244.42 1296.96 238.88 1309.41 233.34 1321.86 233.34 1321.86 227.8 1334.31 222.26 1346.76 222.29 1346.81 233.32 1346.81 233.34 1346.76 233.34 1346.76 238.88 1334.31 244.42 1321.86 244.42 1321.86 249.96 1309.41 249.96 1309.41 255.5 1296.96"/>
      <polygon class="st0" points="211.18 1247.15 200.11 1247.15 200.11 1247.16 205.65 1259.61 211.19 1272.06 216.73 1284.51 222.26 1296.96 216.73 1309.41 211.19 1321.86 205.65 1334.31 200.11 1346.76 200.13 1346.81 211.16 1346.81 211.19 1346.76 211.19 1346.76 216.73 1334.31 222.26 1321.86 227.8 1309.41 227.8 1309.41 233.34 1296.96 227.8 1284.51 222.26 1272.05 216.73 1259.61 211.19 1247.15 211.19 1247.15 211.18 1247.15"/>
      <polygon class="st0" points="166.87 1247.15 155.79 1247.15 161.33 1259.61 166.87 1272.06 172.41 1284.51 177.95 1296.96 172.41 1309.41 166.87 1321.86 161.33 1334.31 155.77 1346.81 166.85 1346.81 166.87 1346.76 172.41 1334.31 177.95 1321.86 183.49 1309.41 189.03 1296.96 189.03 1296.96 177.95 1272.05 172.41 1259.61 166.87 1247.15 166.87 1247.15"/>
    </g>
  </g>
  <g id="_x3C_Grid_Repeat_x3E_40" data-name="_x3C_Grid_Repeat_x3E_">
    <g class="st1">
      <polygon class="st0" points="342.6 1247.15 331.53 1247.15 331.53 1247.16 337.06 1259.61 342.6 1272.06 348.14 1284.51 353.68 1296.96 364.76 1296.96 353.68 1272.05 348.14 1259.61 342.6 1247.15 342.6 1247.15"/>
      <polygon class="st0" points="409.07 1247.15 398 1247.15 397.99 1247.15 403.53 1259.61 409.07 1272.05 420.15 1296.96 414.61 1309.41 409.07 1321.86 403.53 1334.31 397.99 1346.76 398.02 1346.81 409.05 1346.81 409.07 1346.76 414.61 1334.31 420.15 1321.86 425.69 1309.41 431.23 1296.96 425.69 1284.51 420.15 1272.06 414.61 1259.61 409.07 1247.16 409.07 1247.15"/>
      <polygon class="st0" points="409.07 1296.96 397.99 1296.96 392.45 1309.41 386.91 1321.86 386.91 1321.86 381.38 1334.31 375.84 1346.76 375.86 1346.81 386.89 1346.81 386.92 1346.76 386.92 1346.76 392.45 1334.31 397.99 1321.86 397.99 1321.86 403.53 1309.41 403.53 1309.41 409.07 1296.96"/>
      <polygon class="st0" points="364.76 1247.15 353.69 1247.15 353.68 1247.16 359.22 1259.61 364.76 1272.06 370.3 1284.51 375.84 1296.96 370.3 1309.41 364.76 1321.86 359.22 1334.31 353.68 1346.76 353.71 1346.81 364.74 1346.81 364.76 1346.76 364.76 1346.76 370.3 1334.31 375.84 1321.86 381.38 1309.41 381.38 1309.41 386.92 1296.96 381.38 1284.51 375.84 1272.05 370.3 1259.61 364.76 1247.15 364.76 1247.15 364.76 1247.15"/>
      <polygon class="st0" points="320.44 1247.15 309.36 1247.15 314.91 1259.61 320.45 1272.06 325.99 1284.51 331.53 1296.96 325.99 1309.41 320.45 1321.86 314.91 1334.31 309.34 1346.81 320.42 1346.81 320.45 1346.76 325.99 1334.31 331.53 1321.86 337.06 1309.41 342.6 1296.96 342.6 1296.96 331.53 1272.05 325.99 1259.61 320.45 1247.15 320.44 1247.15"/>
    </g>
  </g>
  <g id="_x3C_Grid_Repeat_x3E_41" data-name="_x3C_Grid_Repeat_x3E_">
    <g class="st1">
      <polygon class="st0" points="496.17 1247.15 485.1 1247.15 485.1 1247.16 490.64 1259.61 496.18 1272.06 501.72 1284.51 507.25 1296.96 518.33 1296.96 507.25 1272.05 501.72 1259.61 496.18 1247.15 496.17 1247.15"/>
      <polygon class="st0" points="562.64 1247.15 551.57 1247.15 551.57 1247.15 557.11 1259.61 562.65 1272.05 573.72 1296.96 568.18 1309.41 562.65 1321.86 557.11 1334.31 551.57 1346.76 551.59 1346.81 562.62 1346.81 562.65 1346.76 568.18 1334.31 573.72 1321.86 579.26 1309.41 584.8 1296.96 579.26 1284.51 573.72 1272.06 568.18 1259.61 562.65 1247.16 562.64 1247.15"/>
      <polygon class="st0" points="562.65 1296.96 551.57 1296.96 546.03 1309.41 540.49 1321.86 540.49 1321.86 534.95 1334.31 529.41 1346.76 529.44 1346.81 540.46 1346.81 540.49 1346.76 540.49 1346.76 546.03 1334.31 551.57 1321.86 551.57 1321.86 557.11 1309.41 557.11 1309.41 562.65 1296.96"/>
      <polygon class="st0" points="518.33 1247.15 507.26 1247.15 507.25 1247.16 512.79 1259.61 518.33 1272.06 523.87 1284.51 529.41 1296.96 523.87 1309.41 518.33 1321.86 512.79 1334.31 507.25 1346.76 507.28 1346.81 518.31 1346.81 518.33 1346.76 518.33 1346.76 523.87 1334.31 529.41 1321.86 534.95 1309.41 534.95 1309.41 540.49 1296.96 534.95 1284.51 529.41 1272.05 523.87 1259.61 518.33 1247.15 518.33 1247.15 518.33 1247.15"/>
      <polygon class="st0" points="474.02 1247.15 462.94 1247.15 468.48 1259.61 474.02 1272.06 479.56 1284.51 485.1 1296.96 479.56 1309.41 474.02 1321.86 468.48 1334.31 462.92 1346.81 474 1346.81 474.02 1346.76 479.56 1334.31 485.1 1321.86 490.64 1309.41 496.18 1296.96 496.18 1296.96 485.1 1272.05 479.56 1259.61 474.02 1247.15 474.02 1247.15"/>
    </g>
  </g>
</svg>