<?xml version="1.0" encoding="UTF-8"?>
<svg id="Layer_1" data-name="Layer 1" xmlns="http://www.w3.org/2000/svg" viewBox="0 0 2161 613">
  <defs>
    <style>
      .cls-1 {
        fill: #ebebeb;
      }

      .cls-2 {
        opacity: .5;
      }
    </style>
  </defs>
  <g class="cls-2">
    <g>
      <polygon class="cls-1" points="93.38 542.89 83.01 555.25 83.02 555.26 102.1 560.74 121.18 566.21 159.35 577.17 168.06 595.02 176.77 612.86 185.48 630.7 194.19 648.55 194.27 648.57 204.6 636.26 204.56 636.18 195.85 618.34 187.14 600.49 178.44 582.65 169.73 564.81 150.64 559.33 131.56 553.85 112.47 548.37 93.39 542.9 93.38 542.89"/>
      <polygon class="cls-1" points="148.98 589.54 138.6 601.9 147.31 619.74 156.02 637.59 156.02 637.59 164.73 655.43 173.44 673.27 173.52 673.3 183.85 660.99 183.82 660.91 183.81 660.91 175.11 643.06 166.4 625.22 166.39 625.22 157.69 607.38 157.69 607.38 148.98 589.54"/>
      <polygon class="cls-1" points="51.88 592.35 41.51 604.7 41.52 604.72 60.6 610.2 79.68 615.68 98.77 621.15 117.85 626.63 126.56 644.48 135.27 662.32 143.98 680.16 152.69 698 152.77 698.03 163.1 685.72 163.07 685.64 163.06 685.64 154.35 667.79 145.65 649.95 136.94 632.11 136.94 632.11 128.23 614.27 109.14 608.79 90.06 603.31 70.97 597.83 51.89 592.35 51.89 592.35 51.88 592.35"/>
      <polygon class="cls-1" points="309.52 542.89 299.15 555.25 299.16 555.26 318.25 560.74 337.33 566.21 375.5 577.17 384.21 595.02 392.92 612.86 401.62 630.7 410.33 648.55 410.42 648.57 420.75 636.26 420.71 636.18 412 618.34 403.29 600.49 394.58 582.65 385.87 564.81 366.79 559.33 347.7 553.85 328.62 548.37 309.54 542.9 309.52 542.89"/>
      <polygon class="cls-1" points="365.12 589.54 354.75 601.9 363.45 619.74 372.16 637.59 372.17 637.59 380.87 655.43 389.58 673.27 389.67 673.3 400 660.99 399.96 660.91 399.96 660.91 391.25 643.06 382.54 625.22 382.54 625.22 373.83 607.38 373.83 607.38 365.12 589.54"/>
      <polygon class="cls-1" points="268.02 592.35 257.65 604.7 257.66 604.72 276.74 610.2 295.83 615.68 314.91 621.15 334 626.63 342.71 644.48 351.41 662.32 360.12 680.16 368.83 698 368.92 698.03 379.25 685.72 379.21 685.64 379.21 685.64 370.5 667.79 361.79 649.95 353.08 632.11 353.08 632.11 344.37 614.27 325.29 608.79 306.2 603.31 287.12 597.83 268.04 592.35 268.03 592.35 268.02 592.35"/>
      <polygon class="cls-1" points="525.67 542.89 515.3 555.25 515.3 555.26 534.39 560.74 553.47 566.21 591.64 577.17 600.35 595.02 609.06 612.86 617.77 630.7 626.48 648.55 626.56 648.57 636.89 636.26 636.85 636.18 628.14 618.34 619.43 600.49 610.73 582.65 602.02 564.81 582.93 559.33 563.85 553.85 544.76 548.37 525.68 542.9 525.67 542.89"/>
      <polygon class="cls-1" points="581.27 589.54 570.89 601.9 579.6 619.74 588.31 637.59 588.31 637.59 597.02 655.43 605.73 673.27 605.81 673.3 616.14 660.99 616.11 660.91 616.1 660.91 607.39 643.06 598.68 625.22 598.68 625.22 589.98 607.38 589.98 607.38 581.27 589.54"/>
      <polygon class="cls-1" points="484.17 592.35 473.8 604.7 473.81 604.72 492.89 610.2 511.97 615.68 531.06 621.15 550.14 626.63 558.85 644.48 567.56 662.32 576.27 680.16 584.97 698 585.06 698.03 595.39 685.72 595.36 685.64 595.35 685.64 586.64 667.79 577.94 649.95 569.23 632.11 569.22 632.11 560.52 614.27 541.43 608.79 522.35 603.31 503.26 597.83 484.18 592.35 484.18 592.35 484.17 592.35"/>
      <polygon class="cls-1" points="745.51 542.89 735.14 555.25 735.15 555.26 754.23 560.74 773.32 566.21 811.49 577.17 820.19 595.02 828.91 612.86 837.61 630.7 846.32 648.55 846.4 648.57 856.73 636.26 856.7 636.18 847.99 618.34 839.28 600.49 830.57 582.65 821.86 564.81 802.78 559.33 783.69 553.85 764.61 548.37 745.52 542.9 745.51 542.89"/>
      <polygon class="cls-1" points="801.11 589.54 790.73 601.9 799.44 619.74 808.15 637.59 808.15 637.59 816.86 655.43 825.57 673.27 825.66 673.3 835.99 660.99 835.95 660.91 835.95 660.91 827.24 643.06 818.53 625.22 818.53 625.22 809.82 607.38 809.82 607.38 801.11 589.54"/>
      <polygon class="cls-1" points="704.01 592.35 693.64 604.7 693.65 604.72 712.73 610.2 731.82 615.68 750.9 621.15 769.98 626.63 778.69 644.48 787.4 662.32 796.11 680.16 804.82 698 804.9 698.03 815.23 685.72 815.2 685.64 815.2 685.64 806.49 667.79 797.78 649.95 789.07 632.11 789.07 632.11 780.36 614.27 761.27 608.79 742.19 603.31 723.11 597.83 704.02 592.35 704.02 592.35 704.01 592.35"/>
      <polygon class="cls-1" points="961.65 542.89 951.29 555.25 951.29 555.26 970.38 560.74 989.46 566.21 1027.63 577.17 1036.34 595.02 1045.05 612.86 1053.76 630.7 1062.47 648.55 1062.55 648.57 1072.88 636.26 1072.84 636.18 1064.13 618.34 1055.42 600.49 1046.72 582.65 1038.01 564.81 1018.92 559.33 999.84 553.85 980.75 548.37 961.67 542.9 961.65 542.89"/>
      <polygon class="cls-1" points="1017.26 589.54 1006.88 601.9 1015.59 619.74 1024.3 637.59 1024.3 637.59 1033.01 655.43 1041.71 673.27 1041.8 673.3 1052.13 660.99 1052.09 660.91 1052.09 660.91 1043.38 643.06 1034.67 625.22 1034.67 625.22 1025.97 607.38 1025.96 607.38 1017.26 589.54"/>
      <polygon class="cls-1" points="920.15 592.35 909.79 604.7 909.79 604.72 928.88 610.2 947.96 615.68 967.04 621.15 986.13 626.63 994.84 644.48 1003.55 662.32 1012.26 680.16 1020.96 698 1021.05 698.03 1031.38 685.72 1031.34 685.64 1031.34 685.64 1022.63 667.79 1013.92 649.95 1005.21 632.11 1005.21 632.11 996.51 614.27 977.42 608.79 958.33 603.31 939.25 597.83 920.17 592.35 920.17 592.35 920.15 592.35"/>
      <polygon class="cls-1" points="1177.8 542.89 1167.43 555.25 1167.44 555.26 1186.52 560.74 1205.61 566.21 1243.77 577.17 1252.48 595.02 1261.19 612.86 1269.9 630.7 1278.61 648.55 1278.69 648.57 1289.02 636.26 1288.98 636.18 1280.28 618.34 1271.57 600.49 1262.86 582.65 1254.15 564.81 1235.07 559.33 1215.98 553.85 1196.9 548.37 1177.81 542.9 1177.8 542.89"/>
      <polygon class="cls-1" points="1233.4 589.54 1223.02 601.9 1231.73 619.74 1240.44 637.59 1240.44 637.59 1249.15 655.43 1257.86 673.27 1257.94 673.3 1268.27 660.99 1268.24 660.91 1268.24 660.91 1259.53 643.06 1250.82 625.22 1250.82 625.22 1242.11 607.38 1233.4 589.54"/>
      <polygon class="cls-1" points="1136.3 592.35 1125.93 604.7 1125.94 604.72 1145.02 610.2 1164.11 615.68 1183.19 621.15 1202.27 626.63 1210.98 644.48 1219.69 662.32 1228.4 680.16 1237.11 698 1237.19 698.03 1247.52 685.72 1247.49 685.64 1247.49 685.64 1238.78 667.79 1230.07 649.95 1221.36 632.11 1221.36 632.11 1212.65 614.27 1193.56 608.79 1174.48 603.31 1155.4 597.83 1136.31 592.35 1136.31 592.35 1136.3 592.35"/>
      <polygon class="cls-1" points="1397.64 542.89 1387.28 555.25 1387.28 555.26 1406.37 560.74 1425.45 566.21 1463.62 577.17 1472.33 595.02 1481.04 612.86 1489.75 630.7 1498.45 648.55 1498.54 648.57 1508.87 636.26 1508.83 636.18 1500.12 618.34 1491.41 600.49 1482.7 582.65 1473.99 564.81 1454.91 559.33 1435.83 553.85 1416.74 548.37 1397.66 542.9 1397.64 542.89"/>
      <polygon class="cls-1" points="1453.24 589.54 1442.87 601.9 1451.58 619.74 1460.28 637.59 1460.29 637.59 1468.99 655.43 1477.7 673.27 1477.79 673.3 1488.12 660.99 1488.08 660.91 1488.08 660.91 1479.37 643.06 1470.66 625.22 1470.66 625.22 1461.95 607.38 1461.95 607.38 1453.24 589.54"/>
      <polygon class="cls-1" points="1356.14 592.35 1345.78 604.7 1345.78 604.72 1364.86 610.2 1383.95 615.68 1403.03 621.15 1422.12 626.63 1430.83 644.48 1439.53 662.32 1448.24 680.16 1456.95 698 1457.04 698.03 1467.37 685.72 1467.33 685.64 1467.33 685.64 1458.62 667.79 1449.91 649.95 1441.2 632.11 1441.2 632.11 1432.49 614.27 1413.41 608.79 1394.32 603.31 1375.24 597.83 1356.16 592.35 1356.15 592.35 1356.14 592.35"/>
      <polygon class="cls-1" points="1613.79 542.89 1603.42 555.25 1603.43 555.26 1622.51 560.74 1641.59 566.21 1679.76 577.17 1688.47 595.02 1697.18 612.86 1705.89 630.7 1714.6 648.55 1714.68 648.57 1725.01 636.26 1724.97 636.18 1716.26 618.34 1707.55 600.49 1698.85 582.65 1690.14 564.81 1671.05 559.33 1651.97 553.85 1632.88 548.37 1613.8 542.9 1613.79 542.89"/>
      <polygon class="cls-1" points="1669.39 589.54 1659.01 601.9 1667.72 619.74 1676.43 637.59 1676.43 637.59 1685.14 655.43 1693.85 673.27 1693.93 673.3 1704.26 660.99 1704.23 660.91 1704.22 660.91 1695.51 643.06 1686.81 625.22 1686.8 625.22 1678.1 607.38 1669.39 589.54"/>
      <polygon class="cls-1" points="1572.29 592.35 1561.92 604.7 1561.93 604.72 1581.01 610.2 1600.09 615.68 1619.18 621.15 1638.26 626.63 1646.97 644.48 1655.68 662.32 1664.39 680.16 1673.1 698 1673.18 698.03 1683.51 685.72 1683.48 685.64 1683.47 685.64 1674.76 667.79 1666.06 649.95 1657.35 632.11 1657.35 632.11 1648.64 614.27 1629.55 608.79 1610.47 603.31 1591.38 597.83 1572.3 592.35 1572.3 592.35 1572.29 592.35"/>
      <polygon class="cls-1" points="1829.93 542.89 1819.56 555.25 1819.57 555.26 1838.66 560.74 1857.74 566.21 1895.91 577.17 1904.62 595.02 1913.33 612.86 1922.03 630.7 1930.74 648.55 1930.83 648.57 1941.16 636.26 1941.12 636.18 1932.41 618.34 1923.7 600.49 1914.99 582.65 1906.28 564.81 1887.2 559.33 1868.11 553.85 1849.03 548.37 1829.95 542.9 1829.93 542.89"/>
      <polygon class="cls-1" points="1885.53 589.54 1875.16 601.9 1883.86 619.74 1892.57 637.59 1892.58 637.59 1901.28 655.43 1909.99 673.27 1910.08 673.3 1920.41 660.99 1920.37 660.91 1920.37 660.91 1911.66 643.06 1902.95 625.22 1902.95 625.22 1894.24 607.38 1894.24 607.38 1885.53 589.54"/>
      <polygon class="cls-1" points="1788.43 592.35 1778.06 604.7 1778.07 604.72 1797.15 610.2 1816.24 615.68 1835.32 621.15 1854.41 626.63 1863.12 644.48 1871.82 662.32 1880.53 680.16 1889.24 698 1889.33 698.03 1899.66 685.72 1899.62 685.64 1899.62 685.64 1890.91 667.79 1882.2 649.95 1873.49 632.11 1873.49 632.11 1864.78 614.27 1845.7 608.79 1826.61 603.31 1807.53 597.83 1788.45 592.35 1788.44 592.35 1788.43 592.35"/>
      <g>
        <polygon class="cls-1" points="2049.78 542.89 2039.41 555.25 2039.41 555.26 2058.5 560.74 2077.58 566.21 2115.75 577.17 2124.46 595.02 2133.17 612.86 2141.88 630.7 2150.59 648.55 2150.67 648.57 2161 636.26 2160.96 636.18 2152.25 618.34 2143.54 600.49 2134.84 582.65 2126.13 564.81 2107.04 559.33 2087.96 553.85 2068.87 548.37 2049.79 542.9 2049.78 542.89"/>
        <polygon class="cls-1" points="2105.38 589.54 2095 601.9 2103.71 619.74 2112.42 637.59 2112.42 637.59 2121.13 655.43 2129.84 673.27 2129.92 673.3 2140.25 660.99 2140.21 660.91 2140.21 660.91 2131.5 643.06 2122.79 625.22 2122.79 625.22 2114.09 607.38 2114.09 607.38 2105.38 589.54"/>
        <polygon class="cls-1" points="2008.28 592.35 1997.91 604.7 1997.92 604.72 2017 610.2 2036.08 615.68 2055.17 621.15 2074.25 626.63 2082.96 644.48 2091.67 662.32 2100.38 680.16 2109.08 698 2109.17 698.03 2119.5 685.72 2119.47 685.64 2119.46 685.64 2110.75 667.79 2102.05 649.95 2093.34 632.11 2093.33 632.11 2084.63 614.27 2065.54 608.79 2046.46 603.31 2027.37 597.83 2008.29 592.35 2008.29 592.35 2008.28 592.35"/>
      </g>
    </g>
  </g>
  <g class="cls-2">
    <g>
      <polygon class="cls-1" points="31.13 391.27 20.76 403.62 20.77 403.64 39.85 409.12 58.93 414.6 78.02 420.07 97.1 425.55 107.48 413.19 69.31 402.23 50.22 396.75 31.14 391.27 31.13 391.27"/>
      <polygon class="cls-1" points="93.38 317.08 83.01 329.44 83.02 329.45 102.1 334.93 121.18 340.4 159.35 351.36 168.06 369.21 176.77 387.05 185.48 404.89 194.19 422.74 194.27 422.76 204.6 410.45 204.56 410.37 195.85 392.53 187.14 374.68 178.44 356.84 169.73 339 150.64 333.52 131.56 328.04 112.47 322.56 93.39 317.09 93.38 317.08"/>
      <polygon class="cls-1" points="148.98 363.73 138.6 376.09 147.31 393.93 156.02 411.78 156.02 411.78 164.73 429.62 173.44 447.46 173.52 447.49 183.85 435.18 183.82 435.1 183.81 435.1 175.11 417.26 166.4 399.41 166.39 399.41 157.69 381.57 157.69 381.57 148.98 363.73"/>
      <polygon class="cls-1" points="51.88 366.54 41.51 378.9 41.52 378.91 60.6 384.39 79.68 389.87 98.77 395.34 117.85 400.82 126.56 418.67 135.27 436.51 143.98 454.35 152.69 472.19 152.77 472.22 163.1 459.91 163.07 459.83 163.06 459.83 154.35 441.99 145.65 424.14 136.94 406.3 136.94 406.3 128.23 388.46 109.14 382.98 90.06 377.5 70.97 372.02 51.89 366.54 51.89 366.54 51.88 366.54"/>
      <polygon class="cls-1" points="10.38 416 0 428.36 19.1 433.84 38.18 439.33 57.27 444.8 76.35 450.28 85.06 468.12 93.77 485.97 102.48 503.81 111.22 521.73 121.6 509.36 121.56 509.29 112.85 491.44 104.15 473.6 95.44 455.76 86.73 437.92 86.73 437.92 48.56 426.96 29.47 421.48 10.39 416 10.38 416"/>
      <polygon class="cls-1" points="247.27 391.27 236.9 403.62 236.91 403.64 255.99 409.12 275.08 414.6 294.16 420.07 313.25 425.55 323.62 413.19 285.45 402.23 266.37 396.75 247.28 391.27 247.27 391.27"/>
      <polygon class="cls-1" points="309.52 317.08 299.15 329.44 299.16 329.45 318.25 334.93 337.33 340.4 375.5 351.36 384.21 369.21 392.92 387.05 401.62 404.89 410.33 422.74 410.42 422.76 420.75 410.45 420.71 410.37 412 392.53 403.29 374.68 394.58 356.84 385.87 339 366.79 333.52 347.7 328.04 328.62 322.56 309.54 317.09 309.52 317.08"/>
      <polygon class="cls-1" points="365.12 363.73 354.75 376.09 363.45 393.93 372.16 411.78 372.17 411.78 380.87 429.62 389.58 447.46 389.67 447.49 400 435.18 399.96 435.1 399.96 435.1 391.25 417.26 382.54 399.41 382.54 399.41 373.83 381.57 373.83 381.57 365.12 363.73"/>
      <polygon class="cls-1" points="268.02 366.54 257.65 378.9 257.66 378.91 276.74 384.39 295.83 389.87 314.91 395.34 334 400.82 342.71 418.67 351.41 436.51 360.12 454.35 368.83 472.19 368.92 472.22 379.25 459.91 379.21 459.83 379.21 459.83 370.5 441.99 361.79 424.14 353.08 406.3 353.08 406.3 344.37 388.46 325.29 382.98 306.2 377.5 287.12 372.02 268.04 366.54 268.03 366.54 268.02 366.54"/>
      <polygon class="cls-1" points="226.52 416 216.14 428.36 235.24 433.84 254.33 439.33 273.41 444.8 292.5 450.28 301.21 468.12 309.91 485.97 318.62 503.81 327.37 521.73 337.75 509.36 337.71 509.29 329 491.44 320.29 473.6 311.58 455.76 302.87 437.92 302.87 437.92 264.7 426.96 245.62 421.48 226.53 416 226.52 416"/>
      <polygon class="cls-1" points="463.42 391.27 453.05 403.62 453.06 403.64 472.14 409.12 491.22 414.6 510.31 420.07 529.39 425.55 539.77 413.19 501.6 402.23 482.51 396.75 463.43 391.27 463.42 391.27"/>
      <polygon class="cls-1" points="525.67 317.08 515.3 329.44 515.3 329.45 534.39 334.93 553.47 340.4 591.64 351.36 600.35 369.21 609.06 387.05 617.77 404.89 626.48 422.74 626.56 422.76 636.89 410.45 636.85 410.37 628.14 392.53 619.43 374.68 610.73 356.84 602.02 339 582.93 333.52 563.85 328.04 544.76 322.56 525.68 317.09 525.67 317.08"/>
      <polygon class="cls-1" points="581.27 363.73 570.89 376.09 579.6 393.93 588.31 411.78 588.31 411.78 597.02 429.62 605.73 447.46 605.81 447.49 616.14 435.18 616.11 435.1 616.1 435.1 607.39 417.26 598.68 399.41 598.68 399.41 589.98 381.57 589.98 381.57 581.27 363.73"/>
      <polygon class="cls-1" points="484.17 366.54 473.8 378.9 473.81 378.91 492.89 384.39 511.97 389.87 531.06 395.34 550.14 400.82 558.85 418.67 567.56 436.51 576.27 454.35 584.97 472.19 585.06 472.22 595.39 459.91 595.36 459.83 595.35 459.83 586.64 441.99 577.94 424.14 569.23 406.3 569.22 406.3 560.52 388.46 541.43 382.98 522.35 377.5 503.26 372.02 484.18 366.54 484.18 366.54 484.17 366.54"/>
      <polygon class="cls-1" points="442.67 416 432.29 428.36 451.39 433.84 470.47 439.33 489.56 444.8 508.64 450.28 517.35 468.12 526.06 485.97 534.77 503.81 543.51 521.73 553.89 509.36 553.85 509.29 545.14 491.44 536.44 473.6 527.72 455.76 519.02 437.92 519.01 437.92 480.85 426.96 461.76 421.48 442.68 416 442.67 416"/>
      <polygon class="cls-1" points="683.26 391.27 672.89 403.62 672.9 403.64 691.98 409.12 711.07 414.6 730.15 420.07 749.23 425.55 759.61 413.19 721.44 402.23 702.36 396.75 683.27 391.27 683.26 391.27"/>
      <polygon class="cls-1" points="745.51 317.08 735.14 329.44 735.15 329.45 754.23 334.93 773.32 340.4 811.49 351.36 820.19 369.21 828.91 387.05 837.61 404.89 846.32 422.74 846.4 422.76 856.73 410.45 856.7 410.37 847.99 392.53 839.28 374.68 830.57 356.84 821.86 339 802.78 333.52 783.69 328.04 764.61 322.56 745.52 317.09 745.51 317.08"/>
      <polygon class="cls-1" points="801.11 363.73 790.73 376.09 799.44 393.93 808.15 411.78 808.15 411.78 816.86 429.62 825.57 447.46 825.66 447.49 835.99 435.18 835.95 435.1 835.95 435.1 827.24 417.26 818.53 399.41 818.53 399.41 809.82 381.57 809.82 381.57 801.11 363.73"/>
      <polygon class="cls-1" points="704.01 366.54 693.64 378.9 693.65 378.91 712.73 384.39 731.82 389.87 750.9 395.34 769.98 400.82 778.69 418.67 787.4 436.51 796.11 454.35 804.82 472.19 804.9 472.22 815.23 459.91 815.2 459.83 815.2 459.83 806.49 441.99 797.78 424.14 789.07 406.3 789.07 406.3 780.36 388.46 761.27 382.98 742.19 377.5 723.11 372.02 704.02 366.54 704.02 366.54 704.01 366.54"/>
      <polygon class="cls-1" points="662.51 416 652.13 428.36 671.23 433.84 690.32 439.33 709.4 444.8 728.48 450.28 737.19 468.12 745.9 485.97 754.61 503.81 763.36 521.73 773.73 509.36 773.7 509.29 764.99 491.44 756.28 473.6 747.57 455.76 738.86 437.92 738.86 437.92 700.69 426.96 681.61 421.48 662.52 416 662.51 416"/>
      <polygon class="cls-1" points="899.4 391.27 889.04 403.62 889.04 403.64 908.13 409.12 927.21 414.6 946.29 420.07 965.38 425.55 975.75 413.19 937.58 402.23 918.5 396.75 899.42 391.27 899.4 391.27"/>
      <polygon class="cls-1" points="961.65 317.08 951.29 329.44 951.29 329.45 970.38 334.93 989.46 340.4 1027.63 351.36 1036.34 369.21 1045.05 387.05 1053.76 404.89 1062.47 422.74 1062.55 422.76 1072.88 410.45 1072.84 410.37 1064.13 392.53 1055.42 374.68 1046.72 356.84 1038.01 339 1018.92 333.52 999.84 328.04 980.75 322.56 961.67 317.09 961.65 317.08"/>
      <polygon class="cls-1" points="1017.26 363.73 1006.88 376.09 1015.59 393.93 1024.3 411.78 1024.3 411.78 1033.01 429.62 1041.71 447.46 1041.8 447.49 1052.13 435.18 1052.09 435.1 1052.09 435.1 1043.38 417.26 1034.67 399.41 1034.67 399.41 1025.97 381.57 1025.96 381.57 1017.26 363.73"/>
      <polygon class="cls-1" points="920.15 366.54 909.79 378.9 909.79 378.91 928.88 384.39 947.96 389.87 967.04 395.34 986.13 400.82 994.84 418.67 1003.55 436.51 1012.26 454.35 1020.96 472.19 1021.05 472.22 1031.38 459.91 1031.34 459.83 1031.34 459.83 1022.63 441.99 1013.92 424.14 1005.21 406.3 1005.21 406.3 996.51 388.46 977.42 382.98 958.33 377.5 939.25 372.02 920.17 366.54 920.17 366.54 920.15 366.54"/>
      <polygon class="cls-1" points="878.65 416 868.28 428.36 887.37 433.84 906.46 439.33 925.54 444.8 944.63 450.28 953.34 468.12 962.04 485.97 970.76 503.81 979.5 521.73 989.88 509.36 989.84 509.29 981.13 491.44 972.42 473.6 963.71 455.76 955.01 437.92 955 437.92 916.83 426.96 897.75 421.48 878.67 416 878.65 416"/>
      <polygon class="cls-1" points="1115.55 391.27 1105.18 403.62 1105.19 403.64 1124.27 409.12 1143.36 414.6 1162.44 420.07 1181.52 425.55 1191.9 413.19 1153.73 402.23 1134.65 396.75 1115.56 391.27 1115.55 391.27"/>
      <polygon class="cls-1" points="1177.8 317.08 1167.43 329.44 1167.44 329.45 1186.52 334.93 1205.61 340.4 1243.77 351.36 1252.48 369.21 1261.19 387.05 1269.9 404.89 1278.61 422.74 1278.69 422.76 1289.02 410.45 1288.98 410.37 1280.28 392.53 1271.57 374.68 1262.86 356.84 1254.15 339 1235.07 333.52 1215.98 328.04 1196.9 322.56 1177.81 317.09 1177.8 317.08"/>
      <polygon class="cls-1" points="1233.4 363.73 1223.02 376.09 1231.73 393.93 1240.44 411.78 1240.44 411.78 1249.15 429.62 1257.86 447.46 1257.94 447.49 1268.27 435.18 1268.24 435.1 1268.24 435.1 1259.53 417.26 1250.82 399.41 1250.82 399.41 1242.11 381.57 1233.4 363.73"/>
      <polygon class="cls-1" points="1136.3 366.54 1125.93 378.9 1125.94 378.91 1145.02 384.39 1164.11 389.87 1183.19 395.34 1202.27 400.82 1210.98 418.67 1219.69 436.51 1228.4 454.35 1237.11 472.19 1237.19 472.22 1247.52 459.91 1247.49 459.83 1247.49 459.83 1238.78 441.99 1230.07 424.14 1221.36 406.3 1221.36 406.3 1212.65 388.46 1193.56 382.98 1174.48 377.5 1155.4 372.02 1136.31 366.54 1136.31 366.54 1136.3 366.54"/>
      <polygon class="cls-1" points="1094.8 416 1084.42 428.36 1103.52 433.84 1122.6 439.33 1141.69 444.8 1160.77 450.28 1169.48 468.12 1178.19 485.97 1186.9 503.81 1195.65 521.73 1206.02 509.36 1205.98 509.29 1197.28 491.44 1188.57 473.6 1179.86 455.76 1171.15 437.92 1171.15 437.92 1132.98 426.96 1113.9 421.48 1094.81 416 1094.8 416"/>
      <polygon class="cls-1" points="1335.39 391.27 1325.03 403.62 1325.03 403.64 1344.11 409.12 1363.2 414.6 1382.28 420.07 1401.37 425.55 1411.74 413.19 1373.57 402.23 1354.49 396.75 1335.4 391.27 1335.39 391.27"/>
      <polygon class="cls-1" points="1397.64 317.08 1387.28 329.44 1387.28 329.45 1406.37 334.93 1425.45 340.4 1463.62 351.36 1472.33 369.21 1481.04 387.05 1489.75 404.89 1498.45 422.74 1498.54 422.76 1508.87 410.45 1508.83 410.37 1500.12 392.53 1491.41 374.68 1482.7 356.84 1473.99 339 1454.91 333.52 1435.83 328.04 1416.74 322.56 1397.66 317.09 1397.64 317.08"/>
      <polygon class="cls-1" points="1453.24 363.73 1442.87 376.09 1451.58 393.93 1460.28 411.78 1460.29 411.78 1468.99 429.62 1477.7 447.46 1477.79 447.49 1488.12 435.18 1488.08 435.1 1488.08 435.1 1479.37 417.26 1470.66 399.41 1470.66 399.41 1461.95 381.57 1461.95 381.57 1453.24 363.73"/>
      <polygon class="cls-1" points="1356.14 366.54 1345.78 378.9 1345.78 378.91 1364.86 384.39 1383.95 389.87 1403.03 395.34 1422.12 400.82 1430.83 418.67 1439.53 436.51 1448.24 454.35 1456.95 472.19 1457.04 472.22 1467.37 459.91 1467.33 459.83 1467.33 459.83 1458.62 441.99 1449.91 424.14 1441.2 406.3 1441.2 406.3 1432.49 388.46 1413.41 382.98 1394.32 377.5 1375.24 372.02 1356.16 366.54 1356.15 366.54 1356.14 366.54"/>
      <polygon class="cls-1" points="1314.64 416 1304.27 428.36 1323.36 433.84 1342.45 439.33 1361.53 444.8 1380.62 450.28 1389.33 468.12 1398.03 485.97 1406.74 503.81 1415.49 521.73 1425.87 509.36 1425.83 509.29 1417.12 491.44 1408.41 473.6 1399.7 455.76 1390.99 437.92 1390.99 437.92 1352.82 426.96 1333.74 421.48 1314.65 416 1314.64 416"/>
      <polygon class="cls-1" points="1551.54 391.27 1541.17 403.62 1541.18 403.64 1560.26 409.12 1579.34 414.6 1598.43 420.07 1617.51 425.55 1627.89 413.19 1589.72 402.23 1570.63 396.75 1551.55 391.27 1551.54 391.27"/>
      <polygon class="cls-1" points="1613.79 317.08 1603.42 329.44 1603.43 329.45 1622.51 334.93 1641.59 340.4 1679.76 351.36 1688.47 369.21 1697.18 387.05 1705.89 404.89 1714.6 422.74 1714.68 422.76 1725.01 410.45 1724.97 410.37 1716.26 392.53 1707.55 374.68 1698.85 356.84 1690.14 339 1671.05 333.52 1651.97 328.04 1632.88 322.56 1613.8 317.09 1613.79 317.08"/>
      <polygon class="cls-1" points="1669.39 363.73 1659.01 376.09 1667.72 393.93 1676.43 411.78 1676.43 411.78 1685.14 429.62 1693.85 447.46 1693.93 447.49 1704.26 435.18 1704.23 435.1 1704.22 435.1 1695.51 417.26 1686.81 399.41 1686.8 399.41 1678.1 381.57 1669.39 363.73"/>
      <polygon class="cls-1" points="1572.29 366.54 1561.92 378.9 1561.93 378.91 1581.01 384.39 1600.09 389.87 1619.18 395.34 1638.26 400.82 1646.97 418.67 1655.68 436.51 1664.39 454.35 1673.1 472.19 1673.18 472.22 1683.51 459.91 1683.48 459.83 1683.47 459.83 1674.76 441.99 1666.06 424.14 1657.35 406.3 1657.35 406.3 1648.64 388.46 1629.55 382.98 1610.47 377.5 1591.38 372.02 1572.3 366.54 1572.3 366.54 1572.29 366.54"/>
      <polygon class="cls-1" points="1530.79 416 1520.41 428.36 1539.51 433.84 1558.59 439.33 1577.68 444.8 1596.76 450.28 1605.47 468.12 1614.18 485.97 1622.89 503.81 1631.63 521.73 1642.01 509.36 1641.97 509.29 1633.26 491.44 1624.56 473.6 1615.85 455.76 1607.14 437.92 1607.14 437.92 1568.97 426.96 1549.88 421.48 1530.8 416 1530.79 416"/>
      <polygon class="cls-1" points="1767.68 391.27 1757.31 403.62 1757.32 403.64 1776.4 409.12 1795.49 414.6 1814.57 420.07 1833.66 425.55 1844.03 413.19 1805.86 402.23 1786.78 396.75 1767.69 391.27 1767.68 391.27"/>
      <polygon class="cls-1" points="1829.93 317.08 1819.56 329.44 1819.57 329.45 1838.66 334.93 1857.74 340.4 1895.91 351.36 1904.62 369.21 1913.33 387.05 1922.03 404.89 1930.74 422.74 1930.83 422.76 1941.16 410.45 1941.12 410.37 1932.41 392.53 1923.7 374.68 1914.99 356.84 1906.28 339 1887.2 333.52 1868.11 328.04 1849.03 322.56 1829.95 317.09 1829.93 317.08"/>
      <polygon class="cls-1" points="1885.53 363.73 1875.16 376.09 1883.86 393.93 1892.57 411.78 1892.58 411.78 1901.28 429.62 1909.99 447.46 1910.08 447.49 1920.41 435.18 1920.37 435.1 1920.37 435.1 1911.66 417.26 1902.95 399.41 1902.95 399.41 1894.24 381.57 1894.24 381.57 1885.53 363.73"/>
      <polygon class="cls-1" points="1788.43 366.54 1778.06 378.9 1778.07 378.91 1797.15 384.39 1816.24 389.87 1835.32 395.34 1854.41 400.82 1863.12 418.67 1871.82 436.51 1880.53 454.35 1889.24 472.19 1889.33 472.22 1899.66 459.91 1899.62 459.83 1899.62 459.83 1890.91 441.99 1882.2 424.14 1873.49 406.3 1873.49 406.3 1864.78 388.46 1845.7 382.98 1826.61 377.5 1807.53 372.02 1788.45 366.54 1788.44 366.54 1788.43 366.54"/>
      <polygon class="cls-1" points="1746.93 416 1736.55 428.36 1755.65 433.84 1774.74 439.33 1793.82 444.8 1812.91 450.28 1821.62 468.12 1830.32 485.97 1839.03 503.81 1847.78 521.73 1858.16 509.36 1858.12 509.29 1849.41 491.44 1840.7 473.6 1831.99 455.76 1823.28 437.92 1823.28 437.92 1785.11 426.96 1766.03 421.48 1746.94 416 1746.93 416"/>
      <g>
        <polygon class="cls-1" points="1987.53 391.27 1977.16 403.62 1977.17 403.64 1996.25 409.12 2015.33 414.6 2034.42 420.07 2053.5 425.55 2063.87 413.19 2025.71 402.23 2006.62 396.75 1987.54 391.27 1987.53 391.27"/>
        <polygon class="cls-1" points="2049.78 317.08 2039.41 329.44 2039.41 329.45 2058.5 334.93 2077.58 340.4 2115.75 351.36 2124.46 369.21 2133.17 387.05 2141.88 404.89 2150.59 422.74 2150.67 422.76 2161 410.45 2160.96 410.37 2152.25 392.53 2143.54 374.68 2134.84 356.84 2126.13 339 2107.04 333.52 2087.96 328.04 2068.87 322.56 2049.79 317.09 2049.78 317.08"/>
        <polygon class="cls-1" points="2105.38 363.73 2095 376.09 2103.71 393.93 2112.42 411.78 2112.42 411.78 2121.13 429.62 2129.84 447.46 2129.92 447.49 2140.25 435.18 2140.21 435.1 2140.21 435.1 2131.5 417.26 2122.79 399.41 2122.79 399.41 2114.09 381.57 2114.09 381.57 2105.38 363.73"/>
        <polygon class="cls-1" points="2008.28 366.54 1997.91 378.9 1997.92 378.91 2017 384.39 2036.08 389.87 2055.17 395.34 2074.25 400.82 2082.96 418.67 2091.67 436.51 2100.38 454.35 2109.08 472.19 2109.17 472.22 2119.5 459.91 2119.47 459.83 2119.46 459.83 2110.75 441.99 2102.05 424.14 2093.34 406.3 2093.33 406.3 2084.63 388.46 2065.54 382.98 2046.46 377.5 2027.37 372.02 2008.29 366.54 2008.29 366.54 2008.28 366.54"/>
        <polygon class="cls-1" points="1966.78 416 1956.4 428.36 1975.5 433.84 1994.58 439.33 2013.66 444.8 2032.75 450.28 2041.46 468.12 2050.17 485.97 2058.88 503.81 2067.62 521.73 2078 509.36 2077.96 509.29 2069.25 491.44 2060.55 473.6 2051.83 455.76 2043.13 437.92 2043.12 437.92 2004.96 426.96 1985.87 421.48 1966.79 416 1966.78 416"/>
      </g>
    </g>
  </g>
  <g class="cls-2">
    <g>
      <polygon class="cls-1" points="31.13 165.46 20.76 177.81 20.77 177.83 39.85 183.3 58.93 188.79 78.02 194.26 97.1 199.74 107.48 187.38 69.31 176.42 50.22 170.94 31.14 165.46 31.13 165.46"/>
      <polygon class="cls-1" points="93.38 91.27 83.01 103.63 83.02 103.64 102.1 109.12 121.18 114.59 159.35 125.55 168.06 143.4 176.77 161.24 185.48 179.08 194.19 196.92 194.27 196.95 204.6 184.64 204.56 184.56 195.85 166.72 187.14 148.87 178.44 131.03 169.73 113.19 150.64 107.71 131.56 102.23 112.47 96.75 93.39 91.28 93.38 91.27"/>
      <polygon class="cls-1" points="148.98 137.92 138.6 150.28 147.31 168.12 156.02 185.97 156.02 185.97 164.73 203.81 173.44 221.65 173.52 221.68 183.85 209.37 183.82 209.29 183.81 209.29 175.11 191.44 166.4 173.6 166.39 173.6 157.69 155.76 157.69 155.76 148.98 137.92"/>
      <polygon class="cls-1" points="51.88 140.73 41.51 153.08 41.52 153.1 60.6 158.58 79.68 164.06 98.77 169.53 117.85 175.01 126.56 192.86 135.27 210.7 143.98 228.54 152.69 246.38 152.77 246.41 163.1 234.1 163.07 234.02 163.06 234.02 154.35 216.17 145.65 198.33 136.94 180.49 136.94 180.49 128.23 162.65 109.14 157.17 90.06 151.69 70.97 146.21 51.89 140.73 51.89 140.73 51.88 140.73"/>
      <polygon class="cls-1" points="10.38 190.19 0 202.55 19.1 208.03 38.18 213.51 57.27 218.99 76.35 224.47 85.06 242.31 93.77 260.16 102.48 278 111.22 295.92 121.6 283.55 121.56 283.48 112.85 265.63 104.15 247.79 95.44 229.95 86.73 212.11 86.73 212.1 48.56 201.15 29.47 195.67 10.39 190.19 10.38 190.19"/>
      <polygon class="cls-1" points="247.27 165.46 236.9 177.81 236.91 177.83 255.99 183.3 275.08 188.79 294.16 194.26 313.25 199.74 323.62 187.38 285.45 176.42 266.37 170.94 247.28 165.46 247.27 165.46"/>
      <polygon class="cls-1" points="309.52 91.27 299.15 103.63 299.16 103.64 318.25 109.12 337.33 114.59 375.5 125.55 384.21 143.4 392.92 161.24 401.62 179.08 410.33 196.92 410.42 196.95 420.75 184.64 420.71 184.56 412 166.72 403.29 148.87 394.58 131.03 385.87 113.19 366.79 107.71 347.7 102.23 328.62 96.75 309.54 91.28 309.52 91.27"/>
      <polygon class="cls-1" points="365.12 137.92 354.75 150.28 363.45 168.12 372.16 185.97 372.17 185.97 380.87 203.81 389.58 221.65 389.67 221.68 400 209.37 399.96 209.29 399.96 209.29 391.25 191.44 382.54 173.6 382.54 173.6 373.83 155.76 373.83 155.76 365.12 137.92"/>
      <polygon class="cls-1" points="268.02 140.73 257.65 153.08 257.66 153.1 276.74 158.58 295.83 164.06 314.91 169.53 334 175.01 342.71 192.86 351.41 210.7 360.12 228.54 368.83 246.38 368.92 246.41 379.25 234.1 379.21 234.02 379.21 234.02 370.5 216.17 361.79 198.33 353.08 180.49 353.08 180.49 344.37 162.65 325.29 157.17 306.2 151.69 287.12 146.21 268.04 140.73 268.03 140.73 268.02 140.73"/>
      <polygon class="cls-1" points="226.52 190.19 216.14 202.55 235.24 208.03 254.33 213.51 273.41 218.99 292.5 224.47 301.21 242.31 309.91 260.16 318.62 278 327.37 295.92 337.75 283.55 337.71 283.48 329 265.63 320.29 247.79 311.58 229.95 302.87 212.11 302.87 212.1 264.7 201.15 245.62 195.67 226.53 190.19 226.52 190.19"/>
      <polygon class="cls-1" points="463.42 165.46 453.05 177.81 453.06 177.83 472.14 183.3 491.22 188.79 510.31 194.26 529.39 199.74 539.77 187.38 501.6 176.42 482.51 170.94 463.43 165.46 463.42 165.46"/>
      <polygon class="cls-1" points="525.67 91.27 515.3 103.63 515.3 103.64 534.39 109.12 553.47 114.59 591.64 125.55 600.35 143.4 609.06 161.24 617.77 179.08 626.48 196.92 626.56 196.95 636.89 184.64 636.85 184.56 628.14 166.72 619.43 148.87 610.73 131.03 602.02 113.19 582.93 107.71 563.85 102.23 544.76 96.75 525.68 91.28 525.67 91.27"/>
      <polygon class="cls-1" points="581.27 137.92 570.89 150.28 579.6 168.12 588.31 185.97 588.31 185.97 597.02 203.81 605.73 221.65 605.81 221.68 616.14 209.37 616.11 209.29 616.1 209.29 607.39 191.44 598.68 173.6 598.68 173.6 589.98 155.76 589.98 155.76 581.27 137.92"/>
      <polygon class="cls-1" points="484.17 140.73 473.8 153.08 473.81 153.1 492.89 158.58 511.97 164.06 531.06 169.53 550.14 175.01 558.85 192.86 567.56 210.7 576.27 228.54 584.97 246.38 585.06 246.41 595.39 234.1 595.36 234.02 595.35 234.02 586.64 216.17 577.94 198.33 569.23 180.49 569.22 180.49 560.52 162.65 541.43 157.17 522.35 151.69 503.26 146.21 484.18 140.73 484.18 140.73 484.17 140.73"/>
      <polygon class="cls-1" points="442.67 190.19 432.29 202.55 451.39 208.03 470.47 213.51 489.56 218.99 508.64 224.47 517.35 242.31 526.06 260.16 534.77 278 543.51 295.92 553.89 283.55 553.85 283.48 545.14 265.63 536.44 247.79 527.72 229.95 519.02 212.11 519.01 212.1 480.85 201.15 461.76 195.67 442.68 190.19 442.67 190.19"/>
      <polygon class="cls-1" points="683.26 165.46 672.89 177.81 672.9 177.83 691.98 183.3 711.07 188.79 730.15 194.26 749.23 199.74 759.61 187.38 721.44 176.42 702.36 170.94 683.27 165.46 683.26 165.46"/>
      <polygon class="cls-1" points="745.51 91.27 735.14 103.63 735.15 103.64 754.23 109.12 773.32 114.59 811.49 125.55 820.19 143.4 828.91 161.24 837.61 179.08 846.32 196.92 846.4 196.95 856.73 184.64 856.7 184.56 847.99 166.72 839.28 148.87 830.57 131.03 821.86 113.19 802.78 107.71 783.69 102.23 764.61 96.75 745.52 91.28 745.51 91.27"/>
      <polygon class="cls-1" points="801.11 137.92 790.73 150.28 799.44 168.12 808.15 185.97 808.15 185.97 816.86 203.81 825.57 221.65 825.66 221.68 835.99 209.37 835.95 209.29 835.95 209.29 827.24 191.44 818.53 173.6 818.53 173.6 809.82 155.76 809.82 155.76 801.11 137.92"/>
      <polygon class="cls-1" points="704.01 140.73 693.64 153.08 693.65 153.1 712.73 158.58 731.82 164.06 750.9 169.53 769.98 175.01 778.69 192.86 787.4 210.7 796.11 228.54 804.82 246.38 804.9 246.41 815.23 234.1 815.2 234.02 815.2 234.02 806.49 216.17 797.78 198.33 789.07 180.49 789.07 180.49 780.36 162.65 761.27 157.17 742.19 151.69 723.11 146.21 704.02 140.73 704.02 140.73 704.01 140.73"/>
      <polygon class="cls-1" points="662.51 190.19 652.13 202.55 671.23 208.03 690.32 213.51 709.4 218.99 728.48 224.47 737.19 242.31 745.9 260.16 754.61 278 763.36 295.92 773.73 283.55 773.7 283.48 764.99 265.63 756.28 247.79 747.57 229.95 738.86 212.11 738.86 212.1 700.69 201.15 681.61 195.67 662.52 190.19 662.51 190.19"/>
      <polygon class="cls-1" points="899.4 165.46 889.04 177.81 889.04 177.83 908.13 183.3 927.21 188.79 946.29 194.26 965.38 199.74 975.75 187.38 937.58 176.42 918.5 170.94 899.42 165.46 899.4 165.46"/>
      <polygon class="cls-1" points="961.65 91.27 951.29 103.63 951.29 103.64 970.38 109.12 989.46 114.59 1027.63 125.55 1036.34 143.4 1045.05 161.24 1053.76 179.08 1062.47 196.92 1062.55 196.95 1072.88 184.64 1072.84 184.56 1064.13 166.72 1055.42 148.87 1046.72 131.03 1038.01 113.19 1018.92 107.71 999.84 102.23 980.75 96.75 961.67 91.28 961.65 91.27"/>
      <polygon class="cls-1" points="1017.26 137.92 1006.88 150.28 1015.59 168.12 1024.3 185.97 1024.3 185.97 1033.01 203.81 1041.71 221.65 1041.8 221.68 1052.13 209.37 1052.09 209.29 1052.09 209.29 1043.38 191.44 1034.67 173.6 1034.67 173.6 1025.97 155.76 1025.96 155.76 1017.26 137.92"/>
      <polygon class="cls-1" points="920.15 140.73 909.79 153.08 909.79 153.1 928.88 158.58 947.96 164.06 967.04 169.53 986.13 175.01 994.84 192.86 1003.55 210.7 1012.26 228.54 1020.96 246.38 1021.05 246.41 1031.38 234.1 1031.34 234.02 1031.34 234.02 1022.63 216.17 1013.92 198.33 1005.21 180.49 1005.21 180.49 996.51 162.65 977.42 157.17 958.33 151.69 939.25 146.21 920.17 140.73 920.17 140.73 920.15 140.73"/>
      <polygon class="cls-1" points="878.65 190.19 868.28 202.55 887.37 208.03 906.46 213.51 925.54 218.99 944.63 224.47 953.34 242.31 962.04 260.16 970.76 278 979.5 295.92 989.88 283.55 989.84 283.48 981.13 265.63 972.42 247.79 963.71 229.95 955.01 212.11 955 212.1 916.83 201.15 897.75 195.67 878.67 190.19 878.65 190.19"/>
      <polygon class="cls-1" points="1115.55 165.46 1105.18 177.81 1105.19 177.83 1124.27 183.3 1143.36 188.79 1162.44 194.26 1181.52 199.74 1191.9 187.38 1153.73 176.42 1134.65 170.94 1115.56 165.46 1115.55 165.46"/>
      <polygon class="cls-1" points="1177.8 91.27 1167.43 103.63 1167.44 103.64 1186.52 109.12 1205.61 114.59 1243.77 125.55 1252.48 143.4 1261.19 161.24 1269.9 179.08 1278.61 196.92 1278.69 196.95 1289.02 184.64 1288.98 184.56 1280.28 166.72 1271.57 148.87 1262.86 131.03 1254.15 113.19 1235.07 107.71 1215.98 102.23 1196.9 96.75 1177.81 91.28 1177.8 91.27"/>
      <polygon class="cls-1" points="1233.4 137.92 1223.02 150.28 1231.73 168.12 1240.44 185.97 1240.44 185.97 1249.15 203.81 1257.86 221.65 1257.94 221.68 1268.27 209.37 1268.24 209.29 1268.24 209.29 1259.53 191.44 1250.82 173.6 1250.82 173.6 1242.11 155.76 1233.4 137.92"/>
      <polygon class="cls-1" points="1136.3 140.73 1125.93 153.08 1125.94 153.1 1145.02 158.58 1164.11 164.06 1183.19 169.53 1202.27 175.01 1210.98 192.86 1219.69 210.7 1228.4 228.54 1237.11 246.38 1237.19 246.41 1247.52 234.1 1247.49 234.02 1247.49 234.02 1238.78 216.17 1230.07 198.33 1221.36 180.49 1221.36 180.49 1212.65 162.65 1193.56 157.17 1174.48 151.69 1155.4 146.21 1136.31 140.73 1136.31 140.73 1136.3 140.73"/>
      <polygon class="cls-1" points="1094.8 190.19 1084.42 202.55 1103.52 208.03 1122.6 213.51 1141.69 218.99 1160.77 224.47 1169.48 242.31 1178.19 260.16 1186.9 278 1195.65 295.92 1206.02 283.55 1205.98 283.48 1197.28 265.63 1188.57 247.79 1179.86 229.95 1171.15 212.11 1171.15 212.1 1132.98 201.15 1113.9 195.67 1094.81 190.19 1094.8 190.19"/>
      <polygon class="cls-1" points="1335.39 165.46 1325.03 177.81 1325.03 177.83 1344.11 183.3 1363.2 188.79 1382.28 194.26 1401.37 199.74 1411.74 187.38 1373.57 176.42 1354.49 170.94 1335.4 165.46 1335.39 165.46"/>
      <polygon class="cls-1" points="1397.64 91.27 1387.28 103.63 1387.28 103.64 1406.37 109.12 1425.45 114.59 1463.62 125.55 1472.33 143.4 1481.04 161.24 1489.75 179.08 1498.45 196.92 1498.54 196.95 1508.87 184.64 1508.83 184.56 1500.12 166.72 1491.41 148.87 1482.7 131.03 1473.99 113.19 1454.91 107.71 1435.83 102.23 1416.74 96.75 1397.66 91.28 1397.64 91.27"/>
      <polygon class="cls-1" points="1453.24 137.92 1442.87 150.28 1451.58 168.12 1460.28 185.97 1460.29 185.97 1468.99 203.81 1477.7 221.65 1477.79 221.68 1488.12 209.37 1488.08 209.29 1488.08 209.29 1479.37 191.44 1470.66 173.6 1470.66 173.6 1461.95 155.76 1461.95 155.76 1453.24 137.92"/>
      <polygon class="cls-1" points="1356.14 140.73 1345.78 153.08 1345.78 153.1 1364.86 158.58 1383.95 164.06 1403.03 169.53 1422.12 175.01 1430.83 192.86 1439.53 210.7 1448.24 228.54 1456.95 246.38 1457.04 246.41 1467.37 234.1 1467.33 234.02 1467.33 234.02 1458.62 216.17 1449.91 198.33 1441.2 180.49 1441.2 180.49 1432.49 162.65 1413.41 157.17 1394.32 151.69 1375.24 146.21 1356.16 140.73 1356.15 140.73 1356.14 140.73"/>
      <polygon class="cls-1" points="1314.64 190.19 1304.27 202.55 1323.36 208.03 1342.45 213.51 1361.53 218.99 1380.62 224.47 1389.33 242.31 1398.03 260.16 1406.74 278 1415.49 295.92 1425.87 283.55 1425.83 283.48 1417.12 265.63 1408.41 247.79 1399.7 229.95 1390.99 212.11 1390.99 212.1 1352.82 201.15 1333.74 195.67 1314.65 190.19 1314.64 190.19"/>
      <polygon class="cls-1" points="1551.54 165.46 1541.17 177.81 1541.18 177.83 1560.26 183.3 1579.34 188.79 1598.43 194.26 1617.51 199.74 1627.89 187.38 1589.72 176.42 1570.63 170.94 1551.55 165.46 1551.54 165.46"/>
      <polygon class="cls-1" points="1613.79 91.27 1603.42 103.63 1603.43 103.64 1622.51 109.12 1641.59 114.59 1679.76 125.55 1688.47 143.4 1697.18 161.24 1705.89 179.08 1714.6 196.92 1714.68 196.95 1725.01 184.64 1724.97 184.56 1716.26 166.72 1707.55 148.87 1698.85 131.03 1690.14 113.19 1671.05 107.71 1651.97 102.23 1632.88 96.75 1613.8 91.28 1613.79 91.27"/>
      <polygon class="cls-1" points="1669.39 137.92 1659.01 150.28 1667.72 168.12 1676.43 185.97 1676.43 185.97 1685.14 203.81 1693.85 221.65 1693.93 221.68 1704.26 209.37 1704.23 209.29 1704.22 209.29 1695.51 191.44 1686.81 173.6 1686.8 173.6 1678.1 155.76 1669.39 137.92"/>
      <polygon class="cls-1" points="1572.29 140.73 1561.92 153.08 1561.93 153.1 1581.01 158.58 1600.09 164.06 1619.18 169.53 1638.26 175.01 1646.97 192.86 1655.68 210.7 1664.39 228.54 1673.1 246.38 1673.18 246.41 1683.51 234.1 1683.48 234.02 1683.47 234.02 1674.76 216.17 1666.06 198.33 1657.35 180.49 1657.35 180.49 1648.64 162.65 1629.55 157.17 1610.47 151.69 1591.38 146.21 1572.3 140.73 1572.3 140.73 1572.29 140.73"/>
      <polygon class="cls-1" points="1530.79 190.19 1520.41 202.55 1539.51 208.03 1558.59 213.51 1577.68 218.99 1596.76 224.47 1605.47 242.31 1614.18 260.16 1622.89 278 1631.63 295.92 1642.01 283.55 1641.97 283.48 1633.26 265.63 1624.56 247.79 1615.85 229.95 1607.14 212.11 1607.14 212.1 1568.97 201.15 1549.88 195.67 1530.8 190.19 1530.79 190.19"/>
      <polygon class="cls-1" points="1767.68 165.46 1757.31 177.81 1757.32 177.83 1776.4 183.3 1795.49 188.79 1814.57 194.26 1833.66 199.74 1844.03 187.38 1805.86 176.42 1786.78 170.94 1767.69 165.46 1767.68 165.46"/>
      <polygon class="cls-1" points="1829.93 91.27 1819.56 103.63 1819.57 103.64 1838.66 109.12 1857.74 114.59 1895.91 125.55 1904.62 143.4 1913.33 161.24 1922.03 179.08 1930.74 196.92 1930.83 196.95 1941.16 184.64 1941.12 184.56 1932.41 166.72 1923.7 148.87 1914.99 131.03 1906.28 113.19 1887.2 107.71 1868.11 102.23 1849.03 96.75 1829.95 91.28 1829.93 91.27"/>
      <polygon class="cls-1" points="1885.53 137.92 1875.16 150.28 1883.86 168.12 1892.57 185.97 1892.58 185.97 1901.28 203.81 1909.99 221.65 1910.08 221.68 1920.41 209.37 1920.37 209.29 1920.37 209.29 1911.66 191.44 1902.95 173.6 1902.95 173.6 1894.24 155.76 1894.24 155.76 1885.53 137.92"/>
      <polygon class="cls-1" points="1788.43 140.73 1778.06 153.08 1778.07 153.1 1797.15 158.58 1816.24 164.06 1835.32 169.53 1854.41 175.01 1863.12 192.86 1871.82 210.7 1880.53 228.54 1889.24 246.38 1889.33 246.41 1899.66 234.1 1899.62 234.02 1899.62 234.02 1890.91 216.17 1882.2 198.33 1873.49 180.49 1873.49 180.49 1864.78 162.65 1845.7 157.17 1826.61 151.69 1807.53 146.21 1788.45 140.73 1788.44 140.73 1788.43 140.73"/>
      <polygon class="cls-1" points="1746.93 190.19 1736.55 202.55 1755.65 208.03 1774.74 213.51 1793.82 218.99 1812.91 224.47 1821.62 242.31 1830.32 260.16 1839.03 278 1847.78 295.92 1858.16 283.55 1858.12 283.48 1849.41 265.63 1840.7 247.79 1831.99 229.95 1823.28 212.11 1823.28 212.1 1785.11 201.15 1766.03 195.67 1746.94 190.19 1746.93 190.19"/>
      <g>
        <polygon class="cls-1" points="1987.53 165.46 1977.16 177.81 1977.17 177.83 1996.25 183.3 2015.33 188.79 2034.42 194.26 2053.5 199.74 2063.87 187.38 2025.71 176.42 2006.62 170.94 1987.54 165.46 1987.53 165.46"/>
        <polygon class="cls-1" points="2049.78 91.27 2039.41 103.63 2039.41 103.64 2058.5 109.12 2077.58 114.59 2115.75 125.55 2124.46 143.4 2133.17 161.24 2141.88 179.08 2150.59 196.92 2150.67 196.95 2161 184.64 2160.96 184.56 2152.25 166.72 2143.54 148.87 2134.84 131.03 2126.13 113.19 2107.04 107.71 2087.96 102.23 2068.87 96.75 2049.79 91.28 2049.78 91.27"/>
        <polygon class="cls-1" points="2105.38 137.92 2095 150.28 2103.71 168.12 2112.42 185.97 2112.42 185.97 2121.13 203.81 2129.84 221.65 2129.92 221.68 2140.25 209.37 2140.21 209.29 2140.21 209.29 2131.5 191.44 2122.79 173.6 2122.79 173.6 2114.09 155.76 2114.09 155.76 2105.38 137.92"/>
        <polygon class="cls-1" points="2008.28 140.73 1997.91 153.08 1997.92 153.1 2017 158.58 2036.08 164.06 2055.17 169.53 2074.25 175.01 2082.96 192.86 2091.67 210.7 2100.38 228.54 2109.08 246.38 2109.17 246.41 2119.5 234.1 2119.47 234.02 2119.46 234.02 2110.75 216.17 2102.05 198.33 2093.34 180.49 2093.33 180.49 2084.63 162.65 2065.54 157.17 2046.46 151.69 2027.37 146.21 2008.29 140.73 2008.29 140.73 2008.28 140.73"/>
        <polygon class="cls-1" points="1966.78 190.19 1956.4 202.55 1975.5 208.03 1994.58 213.51 2013.66 218.99 2032.75 224.47 2041.46 242.31 2050.17 260.16 2058.88 278 2067.62 295.92 2078 283.55 2077.96 283.48 2069.25 265.63 2060.55 247.79 2051.83 229.95 2043.13 212.11 2043.12 212.1 2004.96 201.15 1985.87 195.67 1966.79 190.19 1966.78 190.19"/>
      </g>
    </g>
  </g>
  <g class="cls-2">
    <g>
      <polygon class="cls-1" points="51.88 -85.08 41.51 -72.73 41.52 -72.71 60.6 -67.24 79.68 -61.75 98.77 -56.28 117.85 -50.8 126.56 -32.96 135.27 -15.11 143.98 2.73 152.69 20.57 152.77 20.6 163.1 8.29 163.07 8.21 163.06 8.21 154.35 -9.64 145.65 -27.48 136.94 -45.32 136.94 -45.32 128.23 -63.16 109.14 -68.64 90.06 -74.12 70.97 -79.6 51.89 -85.08 51.89 -85.08 51.88 -85.08"/>
      <polygon class="cls-1" points="10.38 -35.62 0 -23.26 19.1 -17.78 38.18 -12.3 57.27 -6.82 76.35 -1.34 85.06 16.5 93.77 34.35 102.48 52.19 111.22 70.11 121.6 57.74 121.56 57.67 112.85 39.82 104.15 21.98 95.44 4.14 86.73 -13.7 86.73 -13.71 48.56 -24.66 29.47 -30.14 10.39 -35.62 10.38 -35.62"/>
      <polygon class="cls-1" points="268.02 -85.08 257.65 -72.73 257.66 -72.71 276.74 -67.24 295.83 -61.75 314.91 -56.28 334 -50.8 342.71 -32.96 351.41 -15.11 360.12 2.73 368.83 20.57 368.92 20.6 379.25 8.29 379.21 8.21 379.21 8.21 370.5 -9.64 361.79 -27.48 353.08 -45.32 353.08 -45.32 344.37 -63.16 325.29 -68.64 306.2 -74.12 287.12 -79.6 268.04 -85.08 268.03 -85.08 268.02 -85.08"/>
      <polygon class="cls-1" points="226.52 -35.62 216.14 -23.26 235.24 -17.78 254.33 -12.3 273.41 -6.82 292.5 -1.34 301.21 16.5 309.91 34.35 318.62 52.19 327.37 70.11 337.75 57.74 337.71 57.67 329 39.82 320.29 21.98 311.58 4.14 302.87 -13.7 302.87 -13.71 264.7 -24.66 245.62 -30.14 226.53 -35.62 226.52 -35.62"/>
      <polygon class="cls-1" points="484.17 -85.08 473.8 -72.73 473.81 -72.71 492.89 -67.24 511.97 -61.75 531.06 -56.28 550.14 -50.8 558.85 -32.96 567.56 -15.11 576.27 2.73 584.97 20.57 585.06 20.6 595.39 8.29 595.36 8.21 595.35 8.21 586.64 -9.64 577.94 -27.48 569.23 -45.32 569.22 -45.32 560.52 -63.16 541.43 -68.64 522.35 -74.12 503.26 -79.6 484.18 -85.08 484.18 -85.08 484.17 -85.08"/>
      <polygon class="cls-1" points="442.67 -35.62 432.29 -23.26 451.39 -17.78 470.47 -12.3 489.56 -6.82 508.64 -1.34 517.35 16.5 526.06 34.35 534.77 52.19 543.51 70.11 553.89 57.74 553.85 57.67 545.14 39.82 536.44 21.98 527.72 4.14 519.02 -13.7 519.01 -13.71 480.85 -24.66 461.76 -30.14 442.68 -35.62 442.67 -35.62"/>
      <polygon class="cls-1" points="704.01 -85.08 693.64 -72.73 693.65 -72.71 712.73 -67.24 731.82 -61.75 750.9 -56.28 769.98 -50.8 778.69 -32.96 787.4 -15.11 796.11 2.73 804.82 20.57 804.9 20.6 815.23 8.29 815.2 8.21 815.2 8.21 806.49 -9.64 797.78 -27.48 789.07 -45.32 789.07 -45.32 780.36 -63.16 761.27 -68.64 742.19 -74.12 723.11 -79.6 704.02 -85.08 704.02 -85.08 704.01 -85.08"/>
      <polygon class="cls-1" points="662.51 -35.62 652.13 -23.26 671.23 -17.78 690.32 -12.3 709.4 -6.82 728.48 -1.34 737.19 16.5 745.9 34.35 754.61 52.19 763.36 70.11 773.73 57.74 773.7 57.67 764.99 39.82 756.28 21.98 747.57 4.14 738.86 -13.7 738.86 -13.71 700.69 -24.66 681.61 -30.14 662.52 -35.62 662.51 -35.62"/>
      <polygon class="cls-1" points="920.15 -85.08 909.79 -72.73 909.79 -72.71 928.88 -67.24 947.96 -61.75 967.04 -56.28 986.13 -50.8 994.84 -32.96 1003.55 -15.11 1012.26 2.73 1020.96 20.57 1021.05 20.6 1031.38 8.29 1031.34 8.21 1031.34 8.21 1022.63 -9.64 1013.92 -27.48 1005.21 -45.32 1005.21 -45.32 996.51 -63.16 977.42 -68.64 958.33 -74.12 939.25 -79.6 920.17 -85.08 920.17 -85.08 920.15 -85.08"/>
      <polygon class="cls-1" points="878.65 -35.62 868.28 -23.26 887.37 -17.78 906.46 -12.3 925.54 -6.82 944.63 -1.34 953.34 16.5 962.04 34.35 970.76 52.19 979.5 70.11 989.88 57.74 989.84 57.67 981.13 39.82 972.42 21.98 963.71 4.14 955.01 -13.7 955 -13.71 916.83 -24.66 897.75 -30.14 878.67 -35.62 878.65 -35.62"/>
      <polygon class="cls-1" points="1136.3 -85.08 1125.93 -72.73 1125.94 -72.71 1145.02 -67.24 1164.11 -61.75 1183.19 -56.28 1202.27 -50.8 1210.98 -32.96 1219.69 -15.11 1228.4 2.73 1237.11 20.57 1237.19 20.6 1247.52 8.29 1247.49 8.21 1247.49 8.21 1238.78 -9.64 1230.07 -27.48 1221.36 -45.32 1221.36 -45.32 1212.65 -63.16 1193.56 -68.64 1174.48 -74.12 1155.4 -79.6 1136.31 -85.08 1136.31 -85.08 1136.3 -85.08"/>
      <polygon class="cls-1" points="1094.8 -35.62 1084.42 -23.26 1103.52 -17.78 1122.6 -12.3 1141.69 -6.82 1160.77 -1.34 1169.48 16.5 1178.19 34.35 1186.9 52.19 1195.65 70.11 1206.02 57.74 1205.98 57.67 1197.28 39.82 1188.57 21.98 1179.86 4.14 1171.15 -13.7 1171.15 -13.71 1132.98 -24.66 1113.9 -30.14 1094.81 -35.62 1094.8 -35.62"/>
      <polygon class="cls-1" points="1356.14 -85.08 1345.78 -72.73 1345.78 -72.71 1364.86 -67.24 1383.95 -61.75 1403.03 -56.28 1422.12 -50.8 1430.83 -32.96 1439.53 -15.11 1448.24 2.73 1456.95 20.57 1457.04 20.6 1467.37 8.29 1467.33 8.21 1467.33 8.21 1458.62 -9.64 1449.91 -27.48 1441.2 -45.32 1441.2 -45.32 1432.49 -63.16 1413.41 -68.64 1394.32 -74.12 1375.24 -79.6 1356.16 -85.08 1356.15 -85.08 1356.14 -85.08"/>
      <polygon class="cls-1" points="1314.64 -35.62 1304.27 -23.26 1323.36 -17.78 1342.45 -12.3 1361.53 -6.82 1380.62 -1.34 1389.33 16.5 1398.03 34.35 1406.74 52.19 1415.49 70.11 1425.87 57.74 1425.83 57.67 1417.12 39.82 1408.41 21.98 1399.7 4.14 1390.99 -13.7 1390.99 -13.71 1352.82 -24.66 1333.74 -30.14 1314.65 -35.62 1314.64 -35.62"/>
      <polygon class="cls-1" points="1572.29 -85.08 1561.92 -72.73 1561.93 -72.71 1581.01 -67.24 1600.09 -61.75 1619.18 -56.28 1638.26 -50.8 1646.97 -32.96 1655.68 -15.11 1664.39 2.73 1673.1 20.57 1673.18 20.6 1683.51 8.29 1683.48 8.21 1683.47 8.21 1674.76 -9.64 1666.06 -27.48 1657.35 -45.32 1657.35 -45.32 1648.64 -63.16 1629.55 -68.64 1610.47 -74.12 1591.38 -79.6 1572.3 -85.08 1572.3 -85.08 1572.29 -85.08"/>
      <polygon class="cls-1" points="1530.79 -35.62 1520.41 -23.26 1539.51 -17.78 1558.59 -12.3 1577.68 -6.82 1596.76 -1.34 1605.47 16.5 1614.18 34.35 1622.89 52.19 1631.63 70.11 1642.01 57.74 1641.97 57.67 1633.26 39.82 1624.56 21.98 1615.85 4.14 1607.14 -13.7 1607.14 -13.71 1568.97 -24.66 1549.88 -30.14 1530.8 -35.62 1530.79 -35.62"/>
      <polygon class="cls-1" points="1788.43 -85.08 1778.06 -72.73 1778.07 -72.71 1797.15 -67.24 1816.24 -61.75 1835.32 -56.28 1854.41 -50.8 1863.12 -32.96 1871.82 -15.11 1880.53 2.73 1889.24 20.57 1889.33 20.6 1899.66 8.29 1899.62 8.21 1899.62 8.21 1890.91 -9.64 1882.2 -27.48 1873.49 -45.32 1873.49 -45.32 1864.78 -63.16 1845.7 -68.64 1826.61 -74.12 1807.53 -79.6 1788.45 -85.08 1788.44 -85.08 1788.43 -85.08"/>
      <polygon class="cls-1" points="1746.93 -35.62 1736.55 -23.26 1755.65 -17.78 1774.74 -12.3 1793.82 -6.82 1812.91 -1.34 1821.62 16.5 1830.32 34.35 1839.03 52.19 1847.78 70.11 1858.16 57.74 1858.12 57.67 1849.41 39.82 1840.7 21.98 1831.99 4.14 1823.28 -13.7 1823.28 -13.71 1785.11 -24.66 1766.03 -30.14 1746.94 -35.62 1746.93 -35.62"/>
      <g>
        <polygon class="cls-1" points="2008.28 -85.08 1997.91 -72.73 1997.92 -72.71 2017 -67.24 2036.08 -61.75 2055.17 -56.28 2074.25 -50.8 2082.96 -32.96 2091.67 -15.11 2100.38 2.73 2109.08 20.57 2109.17 20.6 2119.5 8.29 2119.47 8.21 2119.46 8.21 2110.75 -9.64 2102.05 -27.48 2093.34 -45.32 2093.33 -45.32 2084.63 -63.16 2065.54 -68.64 2046.46 -74.12 2027.37 -79.6 2008.29 -85.08 2008.29 -85.08 2008.28 -85.08"/>
        <polygon class="cls-1" points="1966.78 -35.62 1956.4 -23.26 1975.5 -17.78 1994.58 -12.3 2013.66 -6.82 2032.75 -1.34 2041.46 16.5 2050.17 34.35 2058.88 52.19 2067.62 70.11 2078 57.74 2077.96 57.67 2069.25 39.82 2060.55 21.98 2051.83 4.14 2043.13 -13.7 2043.12 -13.71 2004.96 -24.66 1985.87 -30.14 1966.79 -35.62 1966.78 -35.62"/>
      </g>
    </g>
  </g>
</svg>